/* XPM */
static char *_493778906106[] = {
/* columns rows colors chars-per-pixel */
"32 32 116 2 ",
"   c #181018",
".  c #181821",
"X  c #211821",
"o  c #211829",
"O  c #211831",
"+  c gray13",
"@  c #212129",
"#  c #292129",
"$  c gray16",
"%  c #312929",
"&  c #313129",
"*  c #393129",
"=  c #212131",
"-  c #292131",
";  c #292931",
":  c #292939",
">  c #312931",
",  c #312939",
"<  c #313131",
"1  c #393131",
"2  c #393931",
"3  c #313139",
"4  c #393139",
"5  c #393939",
"6  c #423939",
"7  c #424239",
"8  c #4A4239",
"9  c #4A4A39",
"0  c #524A39",
"q  c #393942",
"w  c #423942",
"e  c #42394A",
"r  c #4A4242",
"t  c #4A4A42",
"y  c #42424A",
"u  c #4A424A",
"i  c gray29",
"p  c #524242",
"a  c #524A42",
"s  c #524A4A",
"d  c #525242",
"f  c #5A5242",
"g  c #5A5A42",
"h  c #52524A",
"j  c #5A524A",
"k  c #5A5A4A",
"l  c #524A52",
"z  c gray32",
"x  c #5A5252",
"c  c #5A5A52",
"v  c #52525A",
"b  c #5A5A5A",
"n  c #635A52",
"m  c #635A5A",
"M  c #636342",
"N  c #6B6342",
"B  c #63634A",
"V  c #6B634A",
"C  c #636352",
"Z  c #6B6352",
"A  c #6B6B52",
"S  c #63635A",
"D  c #6B635A",
"F  c #736B52",
"G  c #736B5A",
"H  c #7B7352",
"J  c #73735A",
"K  c #7B735A",
"L  c #7B7B5A",
"P  c #5A5A63",
"I  c #635A63",
"U  c gray39",
"Y  c #6B6363",
"T  c #6B6B63",
"R  c #63636B",
"E  c #6B636B",
"W  c gray42",
"Q  c #736B63",
"!  c #737363",
"~  c #7B7363",
"^  c #7B7B63",
"/  c #73736B",
"(  c #7B736B",
")  c #7B7B6B",
"_  c #7B7373",
"`  c #7B7B73",
"'  c #847B52",
"]  c #847B5A",
"[  c #847B63",
"{  c #847B6B",
"}  c #847B73",
"|  c #8C8452",
" . c #8C845A",
".. c #8C8463",
"X. c #8C846B",
"o. c #8C8C6B",
"O. c #948C63",
"+. c #948C6B",
"@. c #949463",
"#. c #9C9463",
"$. c #9C9473",
"%. c #A59C6B",
"&. c #AD9C6B",
"*. c #A59C73",
"=. c #ADA56B",
"-. c #B5AD6B",
";. c #BDAD6B",
":. c #ADA573",
">. c #B5AD73",
",. c #B5AD7B",
"<. c #C6BD73",
"1. c #CEBD73",
"2. c #D6CE7B",
"3. c #A59C84",
"4. c #ADAD84",
"5. c #BDB584",
/* pixels */
"# # # # % % N | -.2.-.-.+.Z ; ; 4 4 4 4 # # # # 9 | | | B B t 5 ",
"# # # # % N | <.2.-.#.G Z +.+.a 4 4 4 4 # # 7 L | | M | B B t 5 ",
"6 # # # N N | <.-.G #.#.Z Z Z +.x u 4 4 # g g g ; ; ; ; ; 5 5 5 ",
"6 # a F | | <.<.G #.#.#.+.Z a a Q x 4 4 g g # # ; ; ; ; ; ; ; ; ",
"$ t o.o.4.4.4.$.]  .@.@.O.O.B t d D d d t ; ; ; ; ; ; - ; ; ; ; ",
"C o.o.o.$.4.$.K K  . .@.O.O.H B 7 7 7 7 5 ; ; ; - - ; ; ; ; ; ; ",
"t t t t K 4.o.K K  . .@.O.H B B d d 7 & 5 5 5 ; ; - - - ; ; 3 i ",
"C C C C K 4.o.o.@.] @.@.H B B B 7 & & d B B t 5 ; ; - ; ; q q i ",
"I I I I ! 3.z ! i i i i V V V 9 2 2 F O.:.:.:...d > > > ; 7 7 d ",
"l l l I ! z : : = = 3 q 2 2 9 9 2 F O.O.....:.:.A A d > ; 7 7 d ",
"l l l I : : : : 3 = = 3 @ @ @ 2 g F F O...:.:...A d d d 7 ; 7 7 ",
"r r r 1 : : : : 3 3 = = @ @ 2 2 F O.O.O.:.:.K j d 7 7 d F 7 ; 7 ",
"4 # # # % % % % # # # # # j j j U U U U n 7 7 7 w w Z [ :.+.S S ",
"w # # # % % % % # # # # 6 6 j ~ U U U w < < < 7 w w [ :.:.:.+.S ",
"v 4 # 4 0 N N N H f f f 6 6 6 j U U U w < < < < w [ :.:.+.+.+.^ ",
"v 4 w v  . . . .:.H f f j j j 6 w l > > < < . < [ [ [ [ ^ ^ ^ S ",
"w w ....O.%.%.=.$.X.Y Y R P P W E E 5 + @ @ 3 v Y Y Y Y D D D j ",
"Z ......O.=.=.>.5.X.Y Y W R R P E E i 5 @ @ q v Y Y Y Y D D j 6 ",
"w ......%.%.=.>.5.X.Y Y W W W R E i 5 5 q 3 q q l Y Y Y D a 6 6 ",
"w w Z ,.=.=.>.O.$.$.Y Y W W _ _ i i 5 5 3 3 3 3 , , , e 6 6 6 a ",
"a a * * s s s s y b ) ) ` ` ` b < < < < # # # # % % 0 % l l b / ",
"n n n a # # # # : : : b y y y = < < < < # # # # % % % V b / U / ",
"n n ( n 6 # # # : : : : = = = = < k K *.' ' f f % % % % b l b U ",
"n n ( ( Q 6 # # : : : : = = = y K K K *.>.>.>.>.....V % l l b b ",
"b b T T { n % % @ @ > @ %   % Z h n Z K ;.1.;.O.G G G n 6 s n n ",
"b T T } { n p % X . . .   % Z Z Z K K K O.O.O.&.O.G ] O.s s s s ",
"b T } T p % % % X . . . % Z Z Z Z K K K O.O.&.&.O.] n n Q 6 6 s ",
"b T b i % % % % > X . > 8 8 Z Z Z K K K O.&.O.;.O.O.n n Q Q 6 n ",
"- 3 3 3 - - O - > > > > ; q q m Z Z O.O.#.#.#.#.! ! ! S { { x x ",
"- @ @ @ - - - > > > > > ; ; ; q a Z Z O.K K K K ! ! ! S { { x w ",
"o o - - > > > > > > > > ; ; ; ; > a a Z Z u K Z S S S S x x w o ",
"@ - - - > - - > > j J r ; ; ; ; > > > > u u u u c i i S x x w o "
};
