/* XPM */
static char *_493778897184[] = {
/* columns rows colors chars-per-pixel */
"32 32 111 2 ",
"   c #886838",
".  c #887048",
"X  c #907040",
"o  c #987040",
"O  c #907048",
"+  c #907848",
"@  c #987848",
"#  c #887050",
"$  c #887850",
"%  c #887058",
"&  c #907850",
"*  c #987850",
"=  c #907858",
"-  c #887860",
";  c #988050",
":  c #988850",
">  c #908058",
",  c #988058",
"<  c #988858",
"1  c #A08050",
"2  c #A88850",
"3  c #A08858",
"4  c #A88858",
"5  c #A89050",
"6  c #A09058",
"7  c #A89058",
"8  c #908060",
"9  c #988860",
"0  c #908868",
"q  c #988868",
"w  c #989068",
"e  c #908870",
"r  c #A08860",
"t  c #A88860",
"y  c #A09060",
"u  c #A89060",
"i  c #A09068",
"p  c #A89068",
"a  c #A09868",
"s  c #A89868",
"d  c #B09060",
"f  c #B09860",
"g  c #B09068",
"h  c #B09868",
"j  c #B89868",
"k  c #A08870",
"l  c #A09070",
"z  c #A09870",
"x  c #A89870",
"c  c #A09878",
"v  c #B89870",
"b  c #B0A060",
"n  c #B0A068",
"m  c #B0A868",
"M  c #B8A868",
"N  c #A8A070",
"B  c #A0A078",
"V  c #A8A078",
"C  c #B0A070",
"Z  c #B8A070",
"A  c #B0A870",
"S  c #B8A870",
"D  c #B0A078",
"F  c #B0A878",
"G  c #B8A878",
"H  c #B8B078",
"J  c #C0A078",
"K  c #C8A878",
"L  c #C0B078",
"P  c #C8B078",
"I  c #C0B878",
"U  c #C8B878",
"Y  c #C8C078",
"T  c #989880",
"R  c #A8A880",
"E  c #B0A080",
"W  c #B0A880",
"Q  c #B8A880",
"!  c #B0A088",
"~  c #B8A888",
"^  c #B0B080",
"/  c #B8B080",
"(  c #B8B088",
")  c #B8B888",
"_  c #B8A890",
"`  c #A8B098",
"'  c #A8B898",
"]  c #B0B890",
"[  c #B8B890",
"{  c #B0B898",
"}  c #B8B898",
"|  c #A8B8A0",
" . c #B8B8A0",
".. c #C8A880",
"X. c #C8B080",
"o. c #C0B880",
"O. c #C8B880",
"+. c #C0B888",
"@. c #C8B888",
"#. c #C0B890",
"$. c #C0B8A8",
"%. c #C8C080",
"&. c #C8C088",
"*. c #D0C088",
"=. c #D0C888",
"-. c #C8C090",
";. c #C8C098",
":. c #C8C0A0",
">. c #C8C0A8",
",. c #C8C8B0",
"<. c #C8C8B8",
/* pixels */
"F u u F B w & B N 3 3 N i i C C h 2 h h ! , , l C C C ~ G G 5 5 ",
"u x F [ { { { { ^ ^ 3 N , +.+.+.:.:.:.:.$.! l l } } ,.,.-.-.G n ",
"x u F x { { { { ^ ^ ^ y i +.+.+.:.:.:.:.$.$.$.$.,.,.,.,.-.-.G n ",
"F [ F [ { { { { ^ ^ ^ 3 C +.+.+.:.:.:.:.$.$.$.$.,.,.,.,.-.-.G n ",
"N N ] ] ] ' | | { { c 0 V ;.;.;.:.:.:.:.>.>.! ! <.<.<.<.+.+.+.F ",
"N R ] ] ] | ' | { { c 0 Q ;.;.;.:.:.:.:.>.>.! ! <.<.<.<.+.F +.F ",
"s R ] ] ' ] ] | { { { c i ;.V V W :.:.:.>.>.! k  . . . .+.+.+.+.",
"s N R ] ] [ ] ' { { c # V ;.Q Q V V V V k k % % E E _ _ +.+.+.y ",
"9 z z D N N N N C C ; O   1 1 1 p r j r : + + + n ; y y u u u u ",
"9 9 9 9 $ $ $ $ ; r O ; d d K K K j K K S u + S o.o.o.o.) F F F ",
"z D D #.+.+.+.N r r r C K K K K K K K K S S u S o.o.o.o.) ) ) F ",
"z #.#.#.+.+.+.+.C r r r K K K K K K K K S S u S o.o.o.o.) ) ) ) ",
"W [ [ [ ) ) V ) *.u u Z K K K K @.@.G @.P h h h H H H H ) ) ) ) ",
"V [ [ [ ) ) V V *.Z & Z K g K K G G G @.P h & h H H H H ) ) ) ) ",
"V W [ [ ) ) ) ) *.Z & u K K K g G G G G 3 3 & 3 y =.=.=.) ) ) ) ",
"x V V V z z q ) Z & & & & 3 g g d d d d 3 & 3 3 y n H y q V V V ",
", , n , s < s # . . . . . . 3 . * * u u B & & & & 9 9 9 > > > > ",
", , , y s s L L f f . f h X.X.X.O.O.O.O.B & & w / s / / %.%.%.A ",
"n , , n s s L L P f 3 f X.X.X.X.O.O.O.O.{ { w B / / / / %.%.%.A ",
"n n I I L L L L P P f f X.X.X.h O.O.O.O.{ { w B s / / / %.%.%.A ",
"h U U U U P K K K K K j ..J ....V [ [ [ ` ` T - B B ] ] Y m Y m ",
"h U U M K K K K K K K t ....v ..V V [ [ T ` ` - w ] B ] Y m m m ",
"M M U U K K K K K j j j v ......V V [ [ ` T ` T = w w w a 8 8 8 ",
"u h M M K K K K K g g g v J v v < < a V ` ` T e = w w B m a m a ",
", , h h S g v S b @ 7 7 C y y y y > > > 8 8 8 8 i +.+.+.S S U S ",
"h t t h S g g g 7 7 @ @ @ y C +.O.O.O.O.C i 8 8 x i F F i i U S ",
"K K h t O.O.O.O.7 @ @ b +.+.@ C C O.O.O.O.O.C i +.+.+.F S S U S ",
"K K K , v O.O.O.U 7 @ b +.+.+.+.O.O.O.O.O.O.i i +.+.+.F S U U S ",
"P P P f &.&.&.&.+.+.3 s ( ( ( ( [ [ [ [ [ [ w V I I I n P P P P ",
"P P f f &.&.&.&.+.+.3 +.( ( ( ( [ [ [ [ [ V w w n I I n P P P P ",
"P P 3 P &.&.&.&.+.+.3 s s ( ( ( R R R R w V & & ; I I n h h h h ",
"f 3 . f D x H x 3 X X X o 3 3 3 z V V z w & & & 6 n ; n * * 4 * "
};
