/* XPM */
static char *_493780033589[] = {
/* columns rows colors chars-per-pixel */
"64 64 101 2 ",
"   c #4A3918",
".  c #634A21",
"X  c #6B5A29",
"o  c #7B6331",
"O  c #8C3131",
"+  c #8C3139",
"@  c #8C3939",
"#  c #943139",
"$  c #9C3139",
"%  c #943939",
"&  c #9C3939",
"*  c #8C5A21",
"=  c #945A21",
"-  c #9C4239",
";  c #8C6329",
":  c #946321",
">  c #946B29",
",  c #9C6B29",
"<  c #846339",
"1  c #846B39",
"2  c #946B31",
"3  c #9C6B31",
"4  c #8C7339",
"5  c #9C7331",
"6  c #9C7339",
"7  c #A57331",
"8  c #A57B31",
"9  c #AD7B31",
"0  c #8C3942",
"q  c #943942",
"w  c #9C3942",
"e  c #944242",
"r  c #9C4242",
"t  c #9C4A42",
"y  c #94424A",
"u  c #9C424A",
"i  c #9C4A4A",
"p  c #944A52",
"a  c #9C4A52",
"s  c #9C5A5A",
"d  c #A54242",
"f  c #A5424A",
"g  c #A54A4A",
"h  c #A5524A",
"j  c #AD524A",
"k  c #A54A52",
"l  c #AD4A52",
"z  c #A55252",
"x  c #AD5A52",
"c  c #AD525A",
"v  c #847342",
"b  c #8C7342",
"n  c #8C7B42",
"m  c #947B42",
"M  c #9C7B4A",
"N  c #9C5A63",
"B  c #AD5A63",
"V  c #AD8439",
"C  c #94844A",
"Z  c #9C844A",
"A  c #9C8452",
"S  c #AD8C42",
"D  c #A5844A",
"F  c #A58C4A",
"G  c #B58C42",
"H  c #B5944A",
"J  c #A58C52",
"K  c #AD9452",
"L  c #B59C52",
"P  c #BD9C52",
"I  c #BDA55A",
"U  c #B59C73",
"Y  c #B5A563",
"T  c #BDAD6B",
"R  c #C69C52",
"E  c #C6A552",
"W  c #C6A55A",
"Q  c #C6AD5A",
"!  c #CEAD5A",
"~  c #C6AD63",
"^  c #C6AD6B",
"/  c #CEB563",
"(  c #C6B56B",
")  c #CEB56B",
"_  c #D6B563",
"`  c #C6B573",
"'  c #D6BD73",
"]  c #D6C673",
"[  c #DEC673",
"{  c #E7CE7B",
"}  c #D6C694",
"|  c #E7D68C",
" . c #FFFF94",
".. c #F7F79C",
"X. c #FFF79C",
"o. c #FFFF9C",
"O. c #F7EFA5",
"+. c #F7EFAD",
"@. c #FFFFA5",
"#. c #FFFFAD",
"$. c #FFFFCE",
/* pixels */
"$.$.$.$.@.@.@.@.#.#.#.#.#.#.#.#. . . . .o.o.o.o.o.o.o.o. . . . .@.@.@.@.........o.o.o.o.+.+.+.+.+.+.+.+.O.O.O.O.X.X.X.X.$.$.$.$.",
"$.} U < 1 Y Y Y ^ ^ ^ ^ ( ( ( ( ( J J J J J J J A A A A Z Z Z Z b b b b ; ; ; L E E E E F F F F C C C C Z Z Z Z v v v v < U } $.",
"$.U < < 1 1 1 1 M M M M D D D D J J J J J J J J A A A A Z Z Z Z b b b b ; ; L L E E E E ( ( ( ( T T T C Z Z Z Z v v v v < < U $.",
"$.< < < 1 1 1 1 M M M M D D D D J J J J J J J J A A A A Z Z Z Z b b b b L ; L L , E E , ( ( ( ( C T T T Z Z Z Z v v v v < < < $.",
"X.v v v ; ; 6 6 S > > > , , H H 5 5 H H 5 P P 5 G G * * * * * * G G 8 G H 3 H H 7 Q Q 7 ! ! 9 9 8 Q Q 8 , , , G D 6 ; ; 1 1 1 @.",
"X.v v v ; ; D D > > L L H , H H H 5 H Q 5 P P 5 Q Q 8 Q W W W W G G * 8 3 3 Q Q 7 Q Q 7 ! ! = ! Q Q 8 = , , , , D D ; ; 1 1 Y @.",
"X.v v v 6 D D D > L L > , , ~ ~ Q 5 5 Q 5 / / 5 Q Q 8 Q W * 7 7 Q Q 8 Q Q 3 Q Q 7 7 Q 7 ! 9 = ! Q Q 8 Q I I I , 2 D D 6 1 1 Y @.",
"X.v v v D D 2 2 > L L L ~ ~ ~ ~ Q Q 5 Q 5 5 / 5 Q Q 8 Q W 7 W W Q Q 8 Q Q 3 Q Q 7 7 7 7 ! = 9 ! Q Q 8 8 V I I I 2 D D 6 1 1 Y @.",
"O.Z Z Z G , , I 5 5 5 _ ' ' ' ' ' ' m m 7 7 7 7 [ [ F F 1 1 ] ] b ` b b F F [ [ G G G : n n [ [ [ [ [ [ _ _ R 5 > > > S M M ^ #.",
"O.Z Z Z , , I I R 5 5 _ ' ' ' ' ' ' ' ' ) ) ) ) [ [ [ [ ] ] ] ] ` ` ` ` [ [ [ [ { { { { [ [ [ [ [ [ [ [ _ _ 5 5 L L > > M M ^ #.",
"O.Z Z Z , , I I _ _ _ _ ' ' ' ' ' ' ' ' | | | | [ [ [ [ ] ] ] ] | | | | [ [ [ [ { { { { [ [ [ [ [ [ [ [ _ _ 5 5 L L L > M M ^ #.",
"O.Z Z Z , , I V _ _ _ G . . 4 K m X X m 7 P P P F o o o 1 1 1 F b b b b o o o F G G G G n n n n 1 1     G _ _ _ L > L > M M ^ #.",
"+.C C T 8 = Q 8 [ [ [   & & k k l l d O w w u u % % - - y q $ $ + + + + @ @ % % k k % O r r k c B f & & . ' ' ' ~ , H , D D ( #.",
"+.C T T Q 8 8 8 [ [ [   & f k B l l l d $ $ u u t t % - y y q y + + + + @ r % g k % r O r c c k B k f & . ' ' ' ~ , , , D D ( #.",
"+.C T T Q Q Q Q [ [ [ 1 f k B k d d l l w u $ w t t t - q q q $ + + + + % % g g % % r % k c k r f B k k 4 ' ' ' ~ ~ H H D D ( #.",
"+.C T C 8 Q Q Q [ [ [ 1 B B f & O d d l u u $ $ % - t t y y q $ + + 0 0 r g g @ % % % k c k r r & k B k K ' ' ' ~ ~ H H D D ( #.",
"+.F ( ( 9 ! ! ! [ [ [ n c k r r $ $ $ a g g # # $ $ d g g g r & + y p N i i e + u % u k a a u $ O d l l m ' ' ' Q Q H 5 J J (  .",
"+.F ( ( 9 = = 9 [ [ [ n k c k r u u $ a g r & r $ $ d g g g & & y y y p i i i e % % u k a u u $ d d l l X ' ' ' Q 5 5 5 J J J  .",
"+.F ( ( ! ! 9 = n [ [ n r c c k a u a N & r r r g g g g r r & # + p p + + i i i u % % u a a $ $ d l l d X ' ' m 5 5 H H J J J  .",
"+.F ( ( ! ! ! ! n [ [ n r r k c a a a a r r r g g g d & # # # & y + y + + % e i k u % w a N a a l l d O m ' ' m Q Q Q H J J J  .",
"o.E E , 7 7 7 7 : { { G O O % k k k u w % r i i r % % O # # # # % r + + r & # & i i r % r & g g u w $ w 7 | ) 7 5 5 5 5 J J J o.",
"o.E E E Q Q Q 7 G { { G % r r % u u % % r i i r r % % O # # r g r r + + # # r # i i i r r r r g u u $ w P | ) 7 5 / P P J J J o.",
"o.E E E Q Q 7 7 G { { G k % % % % % % u i i r % r % r O r x x x h h h r # # # & % r i i r r & # $ $ u u P | ) 7 / / P P J J J o.",
"o.E E , 7 7 7 7 G { { G k k % % u % u k i i % % r % O r g x x g h h h h r & r & % % r i g r r # $ w u u P | ) 7 5 5 5 5 J J J o.",
"..L L L H Q Q Q [ [ [ F % g g @ + e i i & # & & & + j j g g d $ $ r r i j j d & r r r r g g $ $ % t t % F [ [ [ Q Q Q G A A A o.",
"..; L L H Q Q Q [ [ [ o % % g g e i i e # r # r d j j d d $ $ $ $ $ $ i j j j + % % % % g g $ $ - t t % o [ [ [ Q Q Q G A A A o.",
"..; ; ; 3 3 3 3 F [ [ o @ r % g i i i % & # # & j j d & $ d d g i i r $ & d j j O r % % d g d d t t % - o [ [ F 8 8 8 * A A A o.",
"..; ; L H 3 Q Q F [ [ o @ @ % r i i + + r # # r j j & & d g g g i s s r & & d j r O O O & g g g t - - - o [ [ F Q Q Q * A A A o.",
"@.b b b G 8 Q Q b ` | b + + + 0 N p + + + + r h i i $ r z z u w w u z z d $ d g g r # # # r g g y q y y 1 ] ] 1 W W W * Z Z Z  .",
"@.b b b 8 * 8 8 b ` | b + + + 0 p y p y + + h h r $ r s z u w # # # u z g d $ g x x # # # r g g y q y q 1 ] ] 1 7 * W * Z Z Z  .",
"@.b b b G G Q Q ` ` | b + + + + y y p + r r h h r $ i s u # # # # # w u g d $ d x x r # # & & r q q q $ 1 ] ] ] W 7 W * Z Z Z  .",
"@.b b b G G Q Q b ` | b + + + + + y + y % r h h $ $ i i w # # u u # # w g g $ $ g x g # & # & & $ $ y $ F ] ] ] W 7 W * Z Z Z  .",
" .Z Z Z * W 7 W ] ] ] F $ y $ $ & & # & # g x g $ $ g g w # # u u # # w i i $ $ h h r % y + y + + + + + b | ` b Q Q G G b b b @.",
" .Z Z Z * W 7 W ] ] ] 1 $ q q q r & & # # r x x d $ d g u w # # # # # u s i $ r h h r r + p y y + + + + b | ` ` Q Q G G b b b @.",
" .Z Z Z * W * 7 1 ] ] 1 q y q y g g r # # # x x g $ d g z u # # # w u z s r $ r h h + + y p y p 0 + + + b | ` b 8 8 * 8 b b b @.",
" .Z Z Z * W W W 1 ] ] 1 y y q y g g r # # # r g g d $ d z z u w w u z z r $ i i h r + + + + p N 0 + + + b | ` b Q Q 8 G b b b @.",
"o.A A A * Q Q Q F [ [ o - - - t g g g & O O O r j d & & r s s i g g g d & & j j r # # r + + i i r % @ @ o [ [ F Q Q 3 H L ; ; ..",
"o.A A A * 8 8 8 F [ [ o - % t t d d g d % % r O j j d & $ r i i g d d $ & d j j & # # & % i i i g % r @ o [ [ F 3 3 3 3 ; ; ; ..",
"o.A A A G Q Q Q [ [ [ o % t t - $ $ g g % % % % + j j j i $ $ $ $ $ $ d d j j d r # r # e i i e g g % % o [ [ [ Q Q Q H L L ; ..",
"o.A A A G Q Q Q [ [ [ F % t t % $ $ g g r r r r & d j j i r r $ $ d g g j j + & & & # & i i e + @ g g % F [ [ [ Q Q Q H L L L ..",
"o.J J J 5 5 5 5 7 ) | P u u w $ # r r g i r % % & r & r h h h h g x x g r O % r % % i i k u % u % % k k G { { G 7 7 7 7 , E E o.",
"o.J J J P P / / 7 ) | P u u $ $ # & r r i i r % & # # # r h h h x x x r O r % r % r i i u % % % % % % k G { { G 7 7 Q Q E E E o.",
"o.J J J P P / 5 7 ) | P w $ u u g r r r r i i i # r # # + + r r g r # # O % % r r i i r % % u u % r r % G { { G 7 Q Q Q E E E o.",
"o.J J J 5 5 5 5 7 ) | 7 w $ w u g g & r % r i i & # & r + + r % # # # # O % % r i i r % w u k k k % O O G { { : 7 7 7 7 , E E o.",
" .J J J H Q Q Q m ' ' m O d l l a a N a w % u k i e % + + y + y & # # # & d g g g r r r a a a a c k r r n [ [ n ! ! ! ! ( ( F +.",
" .J J J H H 5 5 m ' ' X d l l d $ $ a a u % % u i i i + + p p + # & r r g g g g r r r & N a u a k c c r n [ [ n = 9 ! ! ( ( F +.",
" .J J J 5 5 5 Q ' ' ' X l l d d $ u u a k u % % e i i i p y y y & & g g g d $ $ r & r g a $ u u r k c k n [ [ [ 9 = = 9 ( ( F +.",
" .( J J 5 H Q Q ' ' ' m l l d O $ u a a k u % u + e i i N p y + & r g g g d $ $ # # g g a $ $ $ r r k c n [ [ [ ! ! ! 9 ( ( F +.",
"#.( D D H H ~ ~ ' ' ' K k B k & r r k c k % % % @ g g r 0 0 + + $ q y y t t - % $ $ u u l d d O & f B B 1 [ [ [ Q Q Q 8 C T C +.",
"#.( D D H H ~ ~ ' ' ' 4 k k B f r k c k % r % % g g % % + + + + $ q q q - t t t w $ u w l l d d k B k f 1 [ [ [ Q Q Q Q T T C +.",
"#.( D D , , , ~ ' ' ' . & f k B k c c r O r % k g % r @ + + + + y q y y - % t t u u $ $ d l l l B k f &   [ [ [ 8 8 8 Q T T C +.",
"#.( D D , H , ~ ' ' ' . & & f B c k r r O % k k % % @ @ + + + + $ $ q y - - % % u u w w O d l l k k & &   [ [ [ 8 Q = 8 T C C +.",
"#.^ M M > L > L _ _ _ G     1 1 n n n n G G G G F o o o b b b b F 1 1 1 o o o F P P P 7 m X X m K 4 . . G _ _ _ V I , , Z Z Z O.",
"#.^ M M > L L L 5 5 _ _ [ [ [ [ [ [ [ [ { { { { [ [ [ [ | | | | ] ] ] ] [ [ [ [ | | | | ' ' ' ' ' ' ' ' _ _ _ _ I I , , Z Z Z O.",
"#.^ M M > > L L 5 5 _ _ [ [ [ [ [ [ [ [ { { { { [ [ [ [ ` ` ` ` ] ] ] ] [ [ [ [ ) ) ) ) ' ' ' ' ' ' ' ' _ 5 5 R I I , , Z Z Z O.",
"#.^ M M S > > > 5 R _ _ [ [ [ [ [ [ n n : G G G [ [ F F b b ` b ] ] 1 1 F F [ [ 7 7 7 7 m m ' ' ' ' ' ' _ 5 5 5 I , , G Z Z Z O.",
"@.Y 1 1 6 D D 2 I I I V 8 8 Q Q ! 9 = ! 7 7 7 7 Q Q 3 Q Q 8 Q Q W W 7 W Q 8 Q Q 5 / 5 5 Q 5 Q Q ~ ~ ~ ~ L L L > 2 2 D D v v v X.",
"@.Y 1 1 6 D D 2 , I I I Q 8 Q Q ! = 9 ! 7 Q 7 7 Q Q 3 Q Q 8 Q Q 7 7 * W Q 8 Q Q 5 / / 5 Q 5 5 Q ~ ~ , , > L L > D D D 6 v v v X.",
"@.Y 1 1 ; ; D D , , , , = 8 Q Q ! = ! ! 7 Q Q 7 Q Q 3 3 8 * G G W W W W Q 8 Q Q 5 P P 5 Q H 5 H H H , H L L > > D D ; ; v v v X.",
"@.1 1 1 ; ; 6 D G , , , 8 Q Q 8 9 9 ! ! 7 Q Q 7 H H 3 H G 8 G G * * * * * * G G 5 P P 5 H H 5 5 H H , , > > > S 6 6 ; ; v v v X.",
"$.< < < v v v v Z Z Z Z T T T C ( ( ( ( , E E , L L ; L b b b b Z Z Z Z A A A A J J J J J J J J D D D D M M M M 1 1 1 1 < < < $.",
"$.U < < v v v v Z Z Z Z C T T T ( ( ( ( E E E E L L ; ; b b b b Z Z Z Z A A A A J J J J J J J J D D D D M M M M 1 1 1 1 < < U $.",
"$.} U < v v v v Z Z Z Z C C C C F F F F E E E E L ; ; ; b b b b Z Z Z Z A A A A J J J J J J J ( ( ( ( ( ^ ^ ^ ^ Y Y Y 1 < U } $.",
"$.$.$.$.X.X.X.X.O.O.O.O.+.+.+.+.+.+.+.+.o.o.o.o.........@.@.@.@. . . . .o.o.o.o.o.o.o.o. . . . .#.#.#.#.#.#.#.#.@.@.@.@.$.$.$.$."
};
