/* XPM */
static char *_493778938469[] = {
/* columns rows colors chars-per-pixel */
"28 28 95 2 ",
"   c #56181A",
".  c #5D1B1C",
"X  c #681F1F",
"o  c #7A211D",
"O  c #5F1F20",
"+  c #651B21",
"@  c #6D1C23",
"#  c #721D22",
"$  c #5D2128",
"%  c #622021",
"&  c #6B2122",
"*  c #612128",
"=  c #6A2128",
"-  c #742123",
";  c #7A2222",
":  c #792827",
">  c #722228",
",  c #7A2229",
"<  c #762828",
"1  c #7B2929",
"2  c #7C3637",
"3  c #7D3837",
"4  c #842226",
"5  c #832A23",
"6  c #882C25",
"7  c #84252B",
"8  c #8D262E",
"9  c #83292A",
"0  c #8B2C2C",
"q  c #91262E",
"w  c #922B2B",
"e  c #84302F",
"r  c #89302C",
"t  c #91332E",
"y  c #9D392F",
"u  c #802830",
"i  c #8A2A31",
"p  c #922930",
"a  c #992C32",
"s  c #853434",
"d  c #8C3131",
"f  c #853A37",
"g  c #86393F",
"h  c #8B3B39",
"j  c #933232",
"k  c #9A3332",
"l  c #923830",
"z  c #9B3A35",
"x  c #933239",
"c  c #9A3639",
"v  c #953C3C",
"b  c #9B3939",
"n  c #A33636",
"m  c #A43C35",
"M  c #A83830",
"N  c #A03038",
"B  c #A13A3A",
"V  c #A93A38",
"C  c #95403B",
"Z  c #9C413D",
"A  c #A84032",
"S  c #A4423C",
"D  c #AB433C",
"F  c #B2433B",
"G  c #BB453E",
"H  c #C3473F",
"J  c #8B3A40",
"K  c #953D41",
"L  c #993F42",
"P  c #A43D43",
"I  c #964244",
"U  c #964348",
"Y  c #A34242",
"T  c #AA4444",
"R  c #A24E45",
"E  c #AC4A43",
"W  c #A74048",
"Q  c #A84148",
"!  c #A14E48",
"~  c #AD4949",
"^  c #B34642",
"/  c #B44944",
"(  c #B94B43",
")  c #B84748",
"_  c #B34B4A",
"`  c #B94C4A",
"'  c #A55049",
"]  c #B35047",
"[  c #B3544D",
"{  c #B9524D",
"}  c #B74F50",
"|  c #BB5353",
" . c #C84840",
".. c #C75040",
"X. c #C05858",
/* pixels */
"x i 1 u e f g J J K U U ' ! R D S C h 2 1 1 3 3 3 f z f ",
"P B b b b b v K K L U ' [ [ ] ] Y S v s u f f C Z Z D D ",
") ^ E / ( / ~ T T T ~ | | | ( ^ D S S z l S D D D D F F ",
") ) ^ ^ ( ( { { { { _ | X.{ F m B m m V m G G ^ ^ S A A ",
"D n y y V / ~ ~ _ { } | { E B n z n V G D H G V S z M k ",
"w w r r r z B B T ~ } ` ~ T B c z n M M V F D B c c r : ",
"6 6 5 5 6 6 j B B P ~ Q Q P B c k k N N n n V V r d ; # ",
"o o o ; 5 r B j B V Q P P Q B a a a N N N N B p t 9 ; X ",
"# # o ; : d b j c c c c Y v a t a 8 i u u u d t d t - O ",
"# # o ; 5 d d i i i x i i x a j p q q i a p : : r t 1 % ",
"# , , , 5 0 i i i i 0 k n 0 7 a p a i 7 i 7 9 9 0 w < $ ",
", , 1 9 9 9 i d i 9 9 0 0 j w a p 8 > , , , - ; 7 9 < $ ",
"9 , 9 i d d i d d d j t j z k a p 0 , , 1 5 : < 9 9 : = ",
"1 i i d j j x j c c c b B b n k i 9 9 0 r r 1 e 9 6 1 & ",
"i i d b b b b b b b I T W V B c z w j w j t d x l y l s ",
"x d j b I Y b I Y ~ ~ } ~ B b B n B B z z B z z z A E F ",
"v x b S S T ~ T ~ ~ / | | } G G G G V m y F F F F G ..H ",
"B c z B S _ { _ _ | _ | X.} F c B V F F V H G ( ( V A A ",
"B k k z S ( / ~ _ ` | X.X._ c b z n V  .V H ( A z B M t ",
"c a r l t z T b P _ } X._ ~ n b b B M M F D D b b b t : ",
"j 0 6 6 6 5 w b c B P Q Q Q z n j k N N n N V V 0 j ; # ",
"7 5 ; ; 5 e B j n z Q Q P Q n k a a N N N N n w j 0 ; & ",
"# # o ; 5 r z p i j d c Q b k a k q 8 u u u p j 0 j ; X ",
"; # o , 5 e j i i i x s i x a a p i i p a w : 1 d r 9 & ",
"# , , , 1 7 9 i i i 8 n V 7 # a p q 7 i i i 0 9 9 9 : = ",
"1 # , 7 5 7 i i i # # # w n a q 8 4 @ @ - - + ; 9 5 < + ",
"u # # , 9 1 , , ; # 4 o 4 w w 8 8 # @ + + . * + 9 7 < = ",
"u u 9 = = , @ @ # # ; ; # 4 7 4 # # + +     % + O ; < = "
};
