/* XPM */
static char *_493780042566[] = {
/* columns rows colors chars-per-pixel */
"28 28 142 2 ",
"   c #501018",
".  c #501818",
"X  c #581818",
"o  c #601818",
"O  c #681818",
"+  c #601820",
"@  c #681820",
"#  c #701820",
"$  c #701828",
"%  c #582028",
"&  c #602020",
"*  c #682020",
"=  c #602028",
"-  c #682028",
";  c #602828",
":  c #682828",
">  c #702020",
",  c #782020",
"<  c #782028",
"1  c #702828",
"2  c #782828",
"3  c #702030",
"4  c #782030",
"5  c #683038",
"6  c #603838",
"7  c #703038",
"8  c #783038",
"9  c #783838",
"0  c #503840",
"q  c #603840",
"w  c #683840",
"e  c #603848",
"r  c #783840",
"t  c #783058",
"y  c #783858",
"u  c #404058",
"i  c #404858",
"p  c #584858",
"a  c #604858",
"s  c #704850",
"d  c #505060",
"f  c #485078",
"g  c #505870",
"h  c #585870",
"j  c #685060",
"k  c #705868",
"l  c #586078",
"z  c #802028",
"x  c #882028",
"c  c #882828",
"v  c #802830",
"b  c #882830",
"n  c #902830",
"m  c #982830",
"M  c #803030",
"N  c #883838",
"B  c #903030",
"V  c #983030",
"C  c #903830",
"Z  c #983830",
"A  c #983038",
"S  c #983838",
"D  c #A03030",
"F  c #A83830",
"G  c #A03038",
"H  c #A03838",
"J  c #A83838",
"K  c #B03838",
"L  c #904038",
"P  c #984038",
"I  c #A84030",
"U  c #A84038",
"Y  c #B04038",
"T  c #803848",
"R  c #903840",
"E  c #A83840",
"W  c #B03840",
"Q  c #904048",
"!  c #A04048",
"~  c #B04840",
"^  c #B84840",
"/  c #B85040",
"(  c #A84850",
")  c #B85050",
"_  c #C04040",
"`  c #C04840",
"'  c #C84840",
"]  c #C04848",
"[  c #C84848",
"{  c #C85040",
"}  c #505880",
"|  c #506080",
" . c #586080",
".. c #506088",
"X. c #586088",
"o. c #686880",
"O. c #687088",
"+. c #707088",
"@. c #607098",
"#. c #687898",
"$. c #707890",
"%. c #707898",
"&. c #6858A0",
"*. c #6870A0",
"=. c #6878A0",
"-. c #7078A0",
";. c #7878B0",
":. c #807890",
">. c #7080A0",
",. c #7880A0",
"<. c #7080A8",
"1. c #7880B0",
"2. c #7888B0",
"3. c #7888B8",
"4. c #8080A0",
"5. c #8088B0",
"6. c #8888B0",
"7. c #8080B8",
"8. c #8890B0",
"9. c #8090B8",
"0. c #8890B8",
"q. c #90A0B8",
"w. c #9098C0",
"e. c #90A0C0",
"r. c #90A0C8",
"t. c #90A0D0",
"y. c #98A0D0",
"u. c #98A8D0",
"i. c #90A0D8",
"p. c #98A8D8",
"a. c #A0A8D0",
"s. c #A0B0D8",
"d. c #A8B0D8",
"f. c #A0B8E0",
"g. c #A8B8E0",
"h. c #A8B8E8",
"j. c #B0C0E0",
"k. c #B8C8F0",
"l. c #B8D0F0",
"z. c #B8D0F8",
"x. c #C0D0F0",
"c. c #C8D8F8",
/* pixels */
" . . .f f f f } } } } } } } } } } } } | | | | ........&.",
" . .%.f f f f } } } X.} } } } } } } } | | | | ........&.",
"5.%.5.0.f f f X.@.@.@.*.*.*.1.-.} -.-.=.=.=.=.=.=.=.=.;.",
"a.5.a.j.0.#.#.@.@.<.<.1.1.i.i.g.-.-.9.3.3.3.3.2.t.t.t.p.",
"8.%.d.k.k.9.*.3.3.3.3.0.u.h.h.x.s.3.3.-.-.0.0.y.h.h.s.f.",
"%.%.8.k.k.k.y.3.3.3.r.h.h.h.h.x.x.x.s.u.u.k.k.z.h.h.h.f.",
"l %.8.k.k.k.k.s.s.k.k.h.h.h.h.s.x.x.x.k.k.k.k.z.z.h.h.7.",
"l %.%.9.k.k.k.k.k.k.k.h.h.h.0.3.s.x.x.k.k.k.k.z.z.h.y.7.",
"j o.o.,.w.k.k.l.l.l.l.p.p.:.k O.4.a.a.c.c.c.c.h.h.6.+.w ",
"s j o.,.,.,.w.e.e.e.e.:.:.k k O.O.O.4.q.q.q.q.6.+.p p w ",
"9 j o.h h ,.,.>.>.>.>.k k k k d d O.O.$.$.$.$.+.p p p w ",
"9 s j h h h h g g g g k ; ; ; d d d d i i i i p p p p w ",
"7 7 7 q a a a 6 6 6 6 : : : : 5 0 0 0 u u u u e e e T Q ",
"N 7 7 1 5 5 5 6 6 6 6 : : : : 8 5 5 5 e r r H ! T T T y ",
"/ P 7 5 5 1 1 9 9 9 9 C M M : 8 8 8 5 r H H H [ [ [ ! Q ",
"/ / / 5 1 1 5 9 L ~ ~ ~ ~ ~ ~ A A A A H H H H ! ! [ [ Q ",
"` ` ` ' Z Z Y ^ ^ ^ ^ { { { { [ [ [ [ _ _ _ J W W W ] ) ",
"H H Y Y Y Y ' ^ ^ ^ U I I I I K K [ [ _ _ J J W H H H ) ",
"S H H Y ' Y ' ^ U H H I B B B b b b b D _ _ _ W H H W ) ",
"S S H F F Y Y U H S S B 2 2 2 b b b b B B B B A A H H ) ",
"H V V G G G G J J B B , , , , , , , , z z z z c n E E ( ",
"V V V G G G G J B B B , * * * , , , , # # z z , , n E ( ",
"V V n n v v v B B B J , . . . . X O O O # O O , , , n ( ",
"V n n b n G n 2 2 B J B . . . X , , , # O o o , , , c ( ",
"m m m b b b b c c c D 2 % % = 3 4 v v 4 $ @ @ O O , , R ",
"m m m + + > > & , c c 2 % = 2 v 3 v v 4 4 $ $ O O O , t ",
"m x < + + . . & & c c 2 - - - v v v v 4 $ $ 4 O O O O t ",
"x < < + + . . & & & , 2 - - 2 3 4 v v 4 4 4 @ O O   , t "
};
