/* XPM */
static char *_493778944882[] = {
/* columns rows colors chars-per-pixel */
"32 32 111 2 ",
"   c #685828",
".  c #706030",
"X  c #786830",
"o  c #786038",
"O  c #786838",
"+  c #787048",
"@  c #806838",
"#  c #807030",
"$  c #807038",
"%  c #887838",
"&  c #807040",
"*  c #807840",
"=  c #887840",
"-  c #887848",
";  c #907840",
":  c #907848",
">  c #807850",
",  c #888048",
"<  c #908040",
"1  c #988040",
"2  c #988840",
"3  c #908048",
"4  c #988848",
"5  c #888050",
"6  c #908850",
"7  c #988850",
"8  c #908858",
"9  c #988858",
"0  c #989050",
"q  c #989058",
"w  c #A08840",
"e  c #A08848",
"r  c #A09048",
"t  c #A89048",
"y  c #A89848",
"u  c #B09848",
"i  c #A08850",
"p  c #A09050",
"a  c #A89050",
"s  c #A09850",
"d  c #A89850",
"f  c #A09058",
"g  c #A89058",
"h  c #A09858",
"j  c #A89858",
"k  c #B09850",
"l  c #B09858",
"z  c #B8A048",
"x  c #B0A050",
"c  c #B8A050",
"v  c #B8A850",
"b  c #B0A058",
"n  c #B8A058",
"m  c #B8A858",
"M  c #988860",
"N  c #A09060",
"B  c #A09860",
"V  c #A89860",
"C  c #A89868",
"Z  c #A8A060",
"A  c #A8A068",
"S  c #B0A060",
"D  c #B8A060",
"F  c #B8A860",
"G  c #B0A068",
"H  c #B8A868",
"J  c #B8B060",
"K  c #B8A878",
"L  c #B8B070",
"P  c #C0A858",
"I  c #C0B058",
"U  c #C0A860",
"Y  c #C0B060",
"T  c #C8B060",
"R  c #C8B860",
"E  c #C0B068",
"W  c #C8B868",
"Q  c #D0B860",
"!  c #D0B868",
"~  c #C0B070",
"^  c #C8B870",
"/  c #C8B878",
"(  c #D0B870",
")  c #D0C060",
"_  c #D0C068",
"`  c #D8C068",
"'  c #D8C868",
"]  c #D0C070",
"[  c #D8C070",
"{  c #D8C870",
"}  c #D0C078",
"|  c #D8C878",
" . c #E0C868",
".. c #E0D068",
"X. c #E0D070",
"o. c #E0D078",
"O. c #C8B880",
"+. c #C8C088",
"@. c #D0C080",
"#. c #D8C880",
"$. c #D8D080",
"%. c #D8D088",
"&. c #D0C890",
"*. c #D8C890",
"=. c #E0D090",
"-. c #E0D890",
";. c #E8D890",
":. c #E0D898",
">. c #E8E098",
",. c #D0C8A0",
"<. c #F0E8A8",
/* pixels */
"W W W F U l U U R R R R T T T T Y Y Y Y W W b b E #.#.E ~ ~ ~ ~ ",
"o.W W W g g U U R R R R T T T T Y Y l l b b b W E #.#.#.=.~ =.=.",
"o.W F F U U U l x x R R T < t T Y ] ] Y W W b f E E #.#.V 3 ~ =.",
"W W h h U U U U R < < x < X X t l D ] ] W W f 5 e b E E =.=.=.V ",
"k Q k Q O.O.H H P u P ! E N N S S S / / K 3 C K m m _ _ ` ` ` d ",
"@ @ 1 Q O.O.O.O.P P ! ! E E S E S S / S 3 3 K ,._ 7 m m d d ; ; ",
"k k Q k V V p p u P P P E E E E S = = p 3 3 K C j 7 m m d ;     ",
"k Q Q Q H V p p ! c P ! E E N M p p S S K K K K _ _ m _ ` ` d d ",
"Q m I Q { { { { { { b { U U U i 0 . L L ! ! ! ! m , m ' ] ] d F ",
"Q I  .Q J { { { b p p Y U i U U . . L L 2 2 ! n s , m m d ] ] ] ",
"Q m  .Q { { { { Y { { Y U i ; o . 0 L L n n y ! m m ' ' ] ] ] F ",
" . . . .Z 8 8 J { { Y Y i U U U L L >.>.! ! 2 y ' ' ' ' ] ] 3 F ",
"&.&.L &.j j j ` L L L L ^ ^ ^ ^ / / / H ) ) ) d _ X._ _ ~ ~ D } ",
"b w b L Y ` Y n L L L L ^ ^ ^ S / H H H 2 O O 2 X.X.Q T } } } D ",
"L &.L L ` ` Y n :.:.N N S ^ ^ S H H H =.d d 2 d X.X.T _ } } } ~ ",
"&.L w b ` ` ` ` :.N & & ^ ^ S 9 f =.H / ) ) ) ) X.T _ Q D } -.} ",
"@ @ @ *.~ ~ @.@.( ( S ( T T T d b , p b ....v v ^ l l H ~ } V V ",
"G G G *.~ j j j ( ( ( ( T + T T ! ! ! ! v ....v H ^ H H } ;.} V ",
"*.*.*.G @.@.@.~ ( ( q > + + T T ! ! b ! ......$ l ^ ^ ^ } } ;.;.",
"*.G *.*.>.~ >.@.( ( ( q 6 6 d T ! ! b p $ $ $ $ ^ %.%.%.~ } } } ",
"} } :.:.! ! ! ! a ! ! ! < 7 S S E E [ S 7 E $.E ! ! ! ! / Z / / ",
"} } :.Y b b = = a n a 3 7 S 7 S E E E S S $.$.S k ! ! k / <.<.<.",
"} } Y z r ! ! ! ! n n a $ $ $ S B S E [ E E 7 7 2 # # 2 / <.Z Z ",
"z Y Y } r ! ! b n ! ! ! S S S S B B [ E $.S S E k 2 ! ! / % % % ",
"R P R R m r $ r ' ' ' 4 a a E | ^ G ^ M : / / / W m m W q U U ` ",
" .R b R X.m r m ' ' 4 O a n E E ^ ^ G ^ / / / / W W W m q U ` ` ",
" .b b P X.X.X.X.4 O O x a a | | ^ ^ ^ ^ / / / : m W n k q U ` ` ",
"R  .b P m X.X.X.' ' x x E E E | ^ ^ ^ ^ S : : : m W k m U U U U ",
"b ] ] b m  . . ._ _ _ b _ _ _ _ F F _ _ 7 A A A ! ! ! p S S 7 E ",
"] ] ] ]  . . . ._ _ b _ _ _ _ _ _ F j 9 $ +.+.+.! ! p - S E E E ",
"* b ] ] j  .T T = = r = & b _ _ _ 9 9 9 A +.A 7 b b b ! E #.#.7 ",
"b ] ] * j m T T _ _ _ _ _ _ b b j F _ _ +.+.A 7 ! b b ! 7 7 E 7 "
};
