/* XPM */
static char *_493778958851[] = {
/* columns rows colors chars-per-pixel */
"64 64 211 2 ",
"   c #4A4A29",
".  c #4A4A31",
"X  c #4A4A39",
"o  c #524A31",
"O  c #524A39",
"+  c #4A5231",
"@  c #4A5239",
"#  c #525231",
"$  c #525239",
"%  c #5A5239",
"&  c #525A39",
"*  c #5A5A39",
"=  c #5A6331",
"-  c #5A6B31",
";  c #526339",
":  c #5A6339",
">  c #5A6B39",
",  c #637339",
"<  c #6B7B39",
"1  c #525242",
"2  c #5A5242",
"3  c #525A42",
"4  c #5A5A42",
"5  c #525A4A",
"6  c #5A5A4A",
"7  c #635A42",
"8  c #5A6342",
"9  c #5A634A",
"0  c #5A6B4A",
"q  c #636342",
"w  c #636B42",
"e  c #6B6B42",
"r  c #63634A",
"t  c #6B634A",
"y  c #636B4A",
"u  c #6B6B4A",
"i  c #637342",
"p  c #6B7342",
"a  c #6B7B42",
"s  c #6B734A",
"d  c #6B7B4A",
"f  c #737B4A",
"g  c #7B7B4A",
"h  c #636352",
"j  c #636B52",
"k  c #6B6B52",
"l  c #6B6B5A",
"z  c #736B52",
"x  c #736B5A",
"c  c #6B7352",
"v  c #6B7B52",
"b  c #6B735A",
"n  c #6B7B5A",
"m  c #737352",
"M  c #737B52",
"N  c #7B7B52",
"B  c #73735A",
"V  c #7B735A",
"C  c #737B5A",
"Z  c #7B7B5A",
"A  c #737363",
"S  c #7B7363",
"D  c #737B63",
"F  c #7B7B63",
"G  c #847B6B",
"H  c #6B8442",
"J  c #6B844A",
"K  c #738442",
"L  c #738C42",
"P  c #7B8C42",
"I  c #73844A",
"U  c #7B844A",
"Y  c #738C4A",
"T  c #7B8C4A",
"R  c #7B9442",
"E  c #7B9C42",
"W  c #73944A",
"Q  c #7B944A",
"!  c #7B9C4A",
"~  c #738452",
"^  c #7B8452",
"/  c #7B8C52",
"(  c #73845A",
")  c #7B845A",
"_  c #7B8C5A",
"`  c #7B9452",
"'  c #7B945A",
"]  c #7BA54A",
"[  c #7B8463",
"{  c #7B8C63",
"}  c #7B846B",
"|  c #7B8C6B",
" . c #848C4A",
".. c #849C42",
"X. c #84944A",
"o. c #849C4A",
"O. c #848452",
"+. c #848C52",
"@. c #84845A",
"#. c #848C5A",
"$. c #849452",
"%. c #849C52",
"&. c #8C9C52",
"*. c #84945A",
"=. c #8C945A",
"-. c #849C5A",
";. c #8C9C5A",
":. c #949C5A",
">. c #8CA542",
",. c #84A54A",
"<. c #8CA54A",
"1. c #94A54A",
"2. c #84B54A",
"3. c #8CBD4A",
"4. c #94BD4A",
"5. c #9CBD4A",
"6. c #84A552",
"7. c #8CA552",
"8. c #8CAD52",
"9. c #84A55A",
"0. c #8CA55A",
"q. c #8CAD5A",
"w. c #94A552",
"e. c #9CAD52",
"r. c #94A55A",
"t. c #94AD5A",
"y. c #94B552",
"u. c #9CBD52",
"i. c #94B55A",
"p. c #9CBD5A",
"a. c #848463",
"s. c #848C63",
"d. c #8C8C63",
"f. c #84846B",
"g. c #848C6B",
"h. c #8C8C6B",
"j. c #849463",
"k. c #8C9463",
"l. c #8C9C63",
"z. c #84946B",
"x. c #8C946B",
"c. c #8C9C6B",
"v. c #949463",
"b. c #949C6B",
"n. c #848473",
"m. c #848C73",
"M. c #8C8C73",
"N. c #8C8C7B",
"B. c #8C9473",
"V. c #8C9C73",
"C. c #8C947B",
"Z. c #949473",
"A. c #949C73",
"S. c #94947B",
"D. c #949C7B",
"F. c #9C9C7B",
"G. c #8CA563",
"H. c #8CA56B",
"J. c #94A563",
"K. c #94AD63",
"L. c #9CAD63",
"P. c #94A56B",
"I. c #94AD6B",
"U. c #9CAD6B",
"Y. c #9CB563",
"T. c #9CB56B",
"R. c #9CBD6B",
"E. c #94A573",
"W. c #9CA573",
"Q. c #9CAD73",
"!. c #94A57B",
"~. c #9CA57B",
"^. c #9CAD7B",
"/. c #9CB573",
"(. c #A5AD6B",
"). c #A5B563",
"_. c #ADB56B",
"`. c #A5BD6B",
"'. c #A5AD73",
"]. c #A5B573",
"[. c #A5BD73",
"{. c #A5B57B",
"}. c #ADB57B",
"|. c #9CC64A",
" X c #9CC652",
".X c #9CC65A",
"XX c #A5C652",
"oX c #ADC652",
"OX c #ADC65A",
"+X c #A5C663",
"@X c #ADCE63",
"#X c #ADC66B",
"$X c #BDC66B",
"%X c #ADC673",
"&X c #949484",
"*X c #949C84",
"=X c #9C9C84",
"-X c #9CA584",
";X c #9CA58C",
":X c #A5AD84",
">X c #A5A58C",
",X c #A5B58C",
"<X c #ADB58C",
"1X c #ADBD8C",
"2X c #A5A594",
"3X c #A5AD94",
"4X c #ADAD94",
"5X c #A5AD9C",
"6X c #B5B5A5",
"7X c #BDBDAD",
"8X c #BDC6A5",
/* pixels */
"C k k k w w 4 a >...K >.l._ _ y w a.w w 8 c c M.|.<.<.T s s 0./ C.C.C.C.B.B.B.B.Z Z Z Z Z -.Z #./ 6.3.3. XY.S.S.B f.f.f.F f.f.f.",
"B.[ [ k 4 a 4 a ..5.5.K l.l.l._ a.a.a.a.c c 8 8 <.<.<.<./ s s / C.C.C.3X4X4X4X;XC.C.C.a.Z #.-.-.3.6.3.6.S.S.S.S.=X=X=XM.m.m.m.m.",
"[ [ C k 4 L a L ..5.>...l.[.[.l.6X6XD.D.M.M.M.F t t t t 4 s 4 4 r F C.3X7X4X4X;Xg.C.C.a.Z Z -.) 6.3.B B S.S.S.S.=X=X=X=Xm.f.f.F ",
"[ C C [ a a w L ..5.K K [.[.[.l.D.a.a.a.M.M.M.M.T t T <.0./ 4 4 r r F C.4X;X;XB.C.g.a.a.Z #.-.) / 6.B B S.Y.P.P.=X=XM.M.f.F F F ",
"F B B M./ s r s ~ _ ~ _ ^.1X1X^.G.j.s.s.f.F f.f.5Xm &X5X0.0.-.) Z r r Z h.h.h.Z h.h.h.a.[ [ B.g.[ [ B [ ;X;X;XM.a.x.x.a.f.a.M.a.",
"F B k k r s s r y _ ~ G.^.1X^.P.G.j.s.j.M.f.F M.5Xg.g.&Xp.p.0.) f.Z Z f.h.D.a.h.h.h.a.a.[ [ g.B.z.z.B z.;X;XM.[ a.x.x.a.M.f.f.M.",
"M.F k k r s f f y _ ~ G.P.P.*.P.j.s.s.j.=XM.M.F g.g.m g.0.p.0.) Z f.F.F.D.h.Z a.a.a.a.h.g.[ g.[ E.z.B z.M.M.k [ A.A.A.x.a.Z f.M.",
"M.F F B s f f / _ G.y _ ^.P.*.*.s.F F j.=X=XM.f.&X&Xm m ) -.0.-.f.F.F.F.a.Z h.h.B.a.h.B.g.g.[ [ z.z.B B k k [ M.x.h.h.h.Z a.a.f.",
"n.n.A A ) c c k._ ~ s ~ h.=Xh.h.F F F F M.M.=XM.#.@.Z Z _ j.j.~.>X>X>Xg.C C [ D.D.x.) x.s.s.M s M M 8 & 8 / J.J.k.k.s.s.a.a.F a.",
"n.A l A ) k.) k.~ ~ s s h.h.h.h.S.F F F F M.M.M.@.@.Z #._ j.c.~.>X>Xg.g.[ [ g.D.D.D.x.x.s.M s w 8 y & & 8 / J.J.k.s.[ s.x.a.F F ",
"A A l h 9 c ) ) c._ _ _ =Xh.S.2XS.M.M.S.f.f.M.f.@.@.l.l.c._ ~.~.F.F.g.g.[ g.g.D.>XD.x.) s s w w y y & 8 / J.J.J.s.[ [ [ F a.F B ",
"n.A h h 9 c ) k.c._ _ c.2Xh.S.=XS.M.M.S.M.f.f.f.Z #.l.l.c.c.~.c.g.g.g.Z.g.D.g.g.D.x.) ) M M M s y M & M / J.J.J.k.[ [ [ F a.a.F ",
"f.f.F B B [ P.P./ / / / M.M.M.M.M.M.Z a.M.M.f.M.a.a.x.x.A.A.A.A.s.x.x.x.x.x.s.x.x.x.b.b.c.j.[ [ i f ; #.l.l.0.0.-._ _ _ B.B.B.[ ",
"f.S.S.S.j.j.j.j.s s s s F M.M.M.M.M.a.Z f.M.f.M.a.a.x.a.A.A.h.h.s.x.x.x.x.x.s.s.b.b.x.b.c.[ [ [ i ; i #.l.l.0.l.9.-.9.q.[ B.B.[ ",
"F f.f.f.[ B B B q q $ $ t F M.F f.M.a.Z f.M.M.Z a.a.a.F h.a.Z h.s.b.x.b.x.x.s.x.b.b.x.b.I.c.c.c.#.; i #.B.l.l.c.-.-.-.-.[ [ [ c ",
"B B B F [ B B B q $ $ s t B F F f.f.f.M.f.M.f.a.B F B B Z a.Z h.x.x.b.b.x.s.) s.s.x.x.b.I.I.c.c.#.; i #.l.c.c.c.-.9.9._ C C c c ",
"k k k F I I I y a 2 a R F k B F C [ g.[ h.h.Z Z B k r k u f.f.f.x.x.x.x.#.#.) =.~ ' ' G././.G.G.Q > > Q $./ / M [ C C C k k k k ",
"k k k F I I I y 2 2 R R F B k F C [ g.C Z Z Z m k k r r u u f.f.x.x.x.x.#.#.#.#.~ ' ' G.G.G.G.G.8.H > H 0.$.M M C C C C k r r k ",
"r k F F I y y 1 2 2 R a B B F F C [ C C Z Z m Z B B k k B u u B [ x.x.x.=.#.#.) ~ ' ~ ~ Y Y Y -.8.> H > $.$.M M c C C [ k r 3 r ",
"3 3 r 3 1 1 y &.4.R R R k k B F C [ C C m r r r k k k r : u B B k C [ x.=.) ) ) s ~ s s -.Y G./.8.H Q H M M M M C C C c k k 9 3 ",
"1 1 1 1 B =.@X@XOXw./ / +.+.f +.~ ~ ~ y r r r r x x x x r c _ _ c c c c U U U U u @.@.N ` 8..X8.8.y.8.8.n n | n C y y y h k 6 6 ",
"B B B B B B B B / h h h s f f f ~ #.#.y J r r J f.x O O 1 r c r r c r r U &.s 4 @.@.N @.d ` 8.8.y.y.y.6.| 0 n n C C g.C Z Z k Z ",
"1 1 B B B B B B h h h h 9 9 9 s ~ #.~ ~ 2.2.W W f.f.f.f.c r r 1 1 6 1 6 U U s U v.N u N 8.8.` ` ` 8.6.` | n n 0 c C C C k Z k k ",
"1 B n.>X=.t.=.B / h h h s s f +.P.P.#.#.W 2.2.W f.>X>X>X_ c r 1 6 r c c &.U U U v.@.@.v.8.8.` ` 8.y.y.6.*X| | | g.g.g.C Z Z k h ",
"1 A N.N.G S S G F F F B u u u #.7.*.F F u ! ! u f.3X=XS.D.D.g.l c c [ [ h.q m m f f U &.M *.*.*.x.'.}.W.g.[ [ [ f.h.f.F Z Z k 1 ",
"h A A A G f.G f.f.F F F ^ ^ #.P.7.7.#.F u ! Y ! 3X3X=X=XD.D.g.g.[ [ [ c q o q m f &.U U M *.:.).}.}.}.'.x.x.[ [ f.h.f.F Z Z k 1 ",
"A N.A A G f.f.f.F f.F B #.#.P.P.7.7.*.7.Y ! Y ! 3X3X=X=XD.g.g.D.[ [ c y o q q m f  .U &.).).).).}.}.}.'.x.g.[ g.f.h.F F Z Z Z k ",
"N.A A A G f.G G F f.F F #.#.P.P.*.*.7.7.Y f u Y =XS.=X=XF l F F [ c 4 4 o m m h.&.&.&. .:.).:.).}.}.'.x.x.g.[ [ f.F F F Z Z Z k ",
"f.B F f.h.f.F F F f.f.M.*.*.r.r.o.o.o.o.s + 8 #.Z.Z.Z.h.z t z t t % % t 7 V f.=X0.0.%.$./ G.Q.G.P.P.P.c.h.Z.h.s.) Z Z Z m m m 6 ",
"F B F f.F F f.F F f.M.M._ C _ _ P P P K s 8 s #.Z.h.g.[ m m t t B t B B V V =X=X%.%.0.%./ G.G.G.P.s.s.c.Z.Z.s.) Z Z Z Z m m m u ",
"F B F f.f.F h.f.F F M.M._ _ _ _ P a P P s s s #.Z.g.g.[ ) m m ) f.f.f.B V =X=Xf.$.%.0.$.-.G.-.G.k.k.s.c.Z.Z.h.) Z B Z Z m m m u ",
"B B F f.f.F f.f.f.F f.f.C C C C o.o.o.a 8 s s s h.h.h.h.) ) ) ) f.f.f.B f.f.f.V ^ %.0.$.G.G./ -.P.c.s.s.h.s.) ) Z B Z Z m m m m ",
"[ C C M.F F F M.a.Z Z h.M f f M I T o.T d y d d a.F.h.a.s.s.s.) @.s.@.Z [ [ Z Z ^ +.&.^ ~ / ^ / s.s.s.s.Z M Z Z Z Z Z a.Z Z m m ",
"[ C f.M.F B F M.h.a.a.Z M f f M T T I o.! Y ! d M h.h.h.x.s.) ) @.s.s.Z Z [ m m ^ ^ &.^ ^ / / ^ s.s.s.s.Z M Z Z m m Z a.s.) ) m ",
"M.f.f.[ B k F F h.a.a.Z [ M p p I o.o.T ! Y ! y M a.F.h.x.s.) ) @.s.@.Z Z Z m Z +.+.&.^ ^ / ~ C B B Z Z M Z c M m Z a.a.s.s.s.) ",
"[ f.f.[ F k B B a.Z Z Z M M f p d d T T d d ! d M h.h.h.s.s.s.s.s.s.s.@.[ [ [ m M M M M / ^ C ~ k k k Z M Z Z Z Z Z a.a.s.s.s.) ",
") ) C C M M c c C g.C g.I i i $ 4 d / / k I Y I M M #.#.s.) ) ) s.s.s.s.k.k.) M Z r 4 r B r B B B B B B Z Z ) ) C ^ ^ C ) ) ) M ",
"#.) ) C M ^ M c C C C C i : $ $ 4 4 / / I I Y k s s #.#.) ) ) ) s.M M M ) k.) ) Z Z r 4 $ 4 r B B B B f.) Z Z Z ^ ^ ^ +.k.k.k.) ",
"C ) #.#.^ =.=.^ c c c y : $ : i 4 / q.q.] Y I k M M #.#.) ) s.s.s.M s s M M M ) Z Z k 4 $ $ 4 4 k B f.f.Z Z Z Z +.+.^ +.) k.) y ",
") C #.) ^ =.=.^ C y y y : $ I I d d q./ ] ] ] I w w s s C ) ) ) M s 8 8 u u ) ) Z k 4 4 $ $ 4 4 k k r r B B ) Z +.+.+.+.) ) y y ",
"g g g g U U U U a a L w = , H Q ) b b ) / *./ d c 4 4 4 y ~ y v * $ q q B B B m 6 6 X X @ @ 9 9 8 8 8 8 - - - - p X.X.X./ / s s ",
"r r r g U U U p w a L L , H H , C C b C / d d d ) c c c v ~ v y q $ s s F m m m k X X 6 c 9 9 c 8 w w p < < - . p X.p p s s s s ",
"X.X.X.e.:.U p p a o.o.a = = = = b C ) ) / / / / c c c c v *.*.~ q s q s m B B m k 6 X k c c 9 9 I p 8 8 < < - < X.oXoX1.U.=.=./ ",
"X.g X.r & & & & L w L w , = = , C j.j.j.P.P.P.P.b.) ) ) ~ *.*.~ s q $ * u F F F F F F F [ [ [ [ I I w w < - - E 1.1.X.p s s / s ",
"a.a.a.a.B [ [ r e e O.e & w f f } } *X*X<X<X<X<XP.l.l.P.*.J.*.J.q.q.i # r g.~.~.A.-X-X-XM.M.M.M.B.B.f.f.f w w w a ! Y 8.c c B.s.",
"2X7X7XF.B.B.B.B.O.e e O.w w w f 8 n } *X<X8X<X<XP.l.P.P.L.L.J.L.q.q.q.Y Z ~.~.~.-X-X-X-X*XM.f.f.F f.f.B w $ : : a a Y 8.c s.:X:X",
"F.a.F.a.[ B.B.B.l.l.O.e f f *.w 8 8 8 } x.-X-X-Xl.P.P.P.J.J.L.`.q.q.q.Y Z ~.~.~.-X-X-XA.M.f.F F B F F B w $ $ w a Y ! Y B.:X:X:X",
"F.2X2XF.B.B.B.B.l.{.O.e *.*.*.f n } n n x.x.x.x.) l.P.P.J.*.*.J.q.q.q.Y g.~.~.~.x.a.x.x.f.f.f.M.f.F B B w w f f Y Y ! Y :XB.:X:X",
"k.k.T.T.U.b.b.b.D.,Xz.C Z ) ) j.B.B.[ c h.h.D.h.s.l.H.H.G.l.s.G.R.R.R.-.W.W.W.s.a.a.h.h.a.g.a.g.h.F B k r c c C y %.%.i.;X;X6XS.",
"k.a.P.T.].U.].b.z.z.z.C B Z B Z [ [ B.B.D.D.D.Z s.s.H.H.K.G.G.G.-.R.R.-.W.W.s.8 a.Z.h.h.g.a.Z g.h.h.F k c r c C y y y i.S.S.S.[ ",
"a.a.P.T.].U.U.].D.z.z.C Z ) ) ) [ B.-X-XD.a.Z h.s.l.H.I.K.G.K.K.-.-.-./ s.M 8 M Z.Z.a.h.g.a.Z Z h.h.h.F C C C r y y y i.[ ;XS.[ ",
"a.a.P.P.b.b.].%X,XD.D.C ) ) j.j.-X-X-X-Xh.Z Z a.H.H.H.H.G.K.K.K.-.-.-.w 8 8 s.s.Z.h.h.h.a.a.a.Z F h.h.B c C c r y y ~ i.[ S.;X;X",
"A.W.A.x.k.k.#X#X(.b.(.b.j.j.j.U.E.E.E.c.z.[ [ z.B.b.b.b.%.t.t.t.Q Q a : 8 8 g.-XM.f.M.f.a.B.a.Z F F F k 8 k k 8 v v v ( F x.x.x.",
"W.W.A.x.U.U.U.U.(._._.b.P.j.P.U.E.E.E.s.z.[ c.z.B.P.P.b.%.t.t.t.Q a : . 8 C g.-XM.M.f.a.a.a.a.Z B F F k 8 k 8 8 ( c.{ { F x.x.x.",
"A.A.x.f.k.U.U.k.b._._.(.P.j.U.U.E.x.s.x.c.c.c.z.V.b.b.V.%.t.t.%.Q a : . 8 g.-X-XM.f.f.Z Z m m Z g.g.F B k k 8 k { c.{ { B x.x.x.",
"x.x.x.f.F U.U.U.(._.$X_.P.U.U.].E.x.E.E.c.c.z.z.P.P.P.P.t.%.%.M a : . . C -Xg.g.M.Z Z Z m a.a.B.g.g.g.g.f.B B f.c.c.{ { x.x.x.x.",
"M.M.M.a.C z.!.z.;.t.+Xt.L.L.L.L.J.K.K.J.l.l.l.l.P.P.P.P.Q.Q.) ) m q   q C.C.C.} [ [ C C C [ B.B.g.g.D.D.B.B.B.B.P._ _ s g.g.g.g.",
"f.f.M.f.C { z.z.;.t.t.+XL.L.L.;.l.K.K.K.l.l.l.k.l.P.P.P.Q.Q.c.c.h.m   m } C.} } [ [ C c C [ [ [ [ g.g.g.B.B._ s._ _ s s 4 k C g.",
"a.f.f.M.z.z.z.!.;.;.;.+XL.;.;.) d.J.J.J.l.l.k.s.l.P.P.P.c.Q.c.j.h.m   q b C.D } C C C C C C C c c [ [ [ s.B._ ~ s _ * * 4 4 C C ",
"Z Z M.M.z.z.z.z.;.^ ^ t.;.) *.*.d.l.J.l.k.s.s.s.) j.j.l.c.Q.c.j.h.q   q b D D } C C C c c c c c c c c c _ s._ ~ s _ * * C C k C ",
"F F F g.) ) ) ) $.c c 7.T y y T g.g.g.g.s.s.s.s.s.s.s.s.) ) ) ) L : : : 6 c c c k Z Z Z Z k r r r c c c [ [ [ k i i i K f.f.B B ",
"F F g.F ) ) ) ) $.7.7.XXo.y y y B g.g.g.s.s.Z s.C C C C c ) ) c : : L L 1 r c c k k Z Z Z Z r 3 r r c c k [ k k 1 1 1 K B B B B ",
"F F F x m m m k $.7.XXXXu.T T T B k B g.s.Z B B C c 9 9 6 j 6 j : : ,.,.c 6 r r h k k Z Z Z k 3 1 1 6 r 6 6 X X 1 i i i j j j B ",
"S x x x r r k m c XXXX7.u.u.T o.g.k k k k B k k c 9 9 9 6 6 6 6 : L .XL c 1 1 1 6 6 h h k r k 3 6 6 1 1 6 X X X K ,.,.,.f.B 5 5 "
};
