/* XPM */
static char *_493778766092[] = {
/* columns rows colors chars-per-pixel */
"48 48 104 2 ",
"   c #98A098",
".  c #98A898",
"X  c #A0A090",
"o  c #A0A890",
"O  c #A0A098",
"+  c #A0A898",
"@  c #A8A898",
"#  c #A0B098",
"$  c #A8B098",
"%  c #98A0A0",
"&  c #98A8A0",
"*  c #98B0A0",
"=  c #A0A8A0",
"-  c #A8A8A0",
";  c #A0A8A8",
":  c gray66",
">  c #A0B0A0",
",  c #A8B0A0",
"<  c #A8B8A0",
"1  c #A0B0A8",
"2  c #A8B0A8",
"3  c #A0B8A8",
"4  c #A8B8A8",
"5  c #B0B8A0",
"6  c #B0B0A8",
"7  c #B0B8A8",
"8  c #A0B0B0",
"9  c #A8B0B0",
"0  c #A0B8B0",
"q  c #A8B8B0",
"w  c #A8B8B8",
"e  c gray69",
"r  c #B0B8B0",
"t  c #B0B8B8",
"y  c #B0C0A8",
"u  c #B8C0A8",
"i  c #B8C8A8",
"p  c #A8C0B0",
"a  c #A8C0B8",
"s  c #B0C0B0",
"d  c #B8C0B0",
"f  c #B8C8B0",
"g  c #B0C0B8",
"h  c #B8C0B8",
"j  c #B0C8B8",
"k  c #B8C8B8",
"l  c #C0C8B0",
"z  c #C0D0B8",
"x  c #B0C0C0",
"c  c #B8C0C0",
"v  c #B0C8C0",
"b  c #B8C8C0",
"n  c #B0C8C8",
"m  c #B8C8C8",
"M  c #B8D0C0",
"N  c #B8D8C0",
"B  c #B0D0C8",
"V  c #B8D0C8",
"C  c #B8D8C8",
"Z  c #B8D0D0",
"A  c #B8D8D0",
"S  c #B8D8D8",
"D  c #C0C8C0",
"F  c #C0C8C8",
"G  c #C0D0C0",
"H  c #C8D0C0",
"J  c #C8D8C0",
"K  c #C0D0C8",
"L  c #C8D0C8",
"P  c #C0D8C8",
"I  c #C8D8C8",
"U  c #C0D0D0",
"Y  c #C0D8D0",
"T  c #C8D8D0",
"R  c #C0D0D8",
"E  c #C0D8D8",
"W  c #C8D8D8",
"Q  c #D0D8D0",
"!  c #D0E0C8",
"~  c #C0E0D0",
"^  c #C8E0D0",
"/  c #C0E0D8",
"(  c #C8E0D8",
")  c #C8E8D8",
"_  c #D0E0D0",
"`  c #D8E8D0",
"'  c #D0E0D8",
"]  c #D0E8D8",
"[  c #C0E0E0",
"{  c #C8E0E0",
"}  c #C8E8E0",
"|  c #C8E0E8",
" . c #C8E8E8",
".. c #D0E8E0",
"X. c #D0E8E8",
"o. c #C8F0E0",
"O. c #D8F0E0",
"+. c #D8F0E8",
"@. c #D0E8F0",
"#. c #D0F0F0",
"$. c #D0F8F0",
"%. c #D8F8F0",
"&. c #D8F8F8",
"*. c #E0F8F8",
/* pixels */
"2 b 2 2 R R n q 1 1 m m x x x x q q q q + + 4 + , r j j V V x x q q q q + q b b v v v v = q b ( ",
"2 b E E @.@.R n 1 1 m m x x U x q q q 1 + + a a j , , Y ( V V x q q q q + q b b v v v 0 = b ( ( ",
"E &.E E @.@.@.@.m 1 1 w q U x q x x q 1 + a a 4 , , , Y ( V x x q q q & + , q q v v v 0 = ( ( ( ",
"&.E E E @.@.@.@.m w q 1 x x 1 1 8 q q 8 a A a 4 , , , j V ( x x q q q q b b b b 0 0 & & b ( ( ( ",
"*.X.W X.$.$.[ [ / v 2 g W m r r q q q j v v 4 4 q b g g c c t t 4 4 M / *.*.*.X.m = = m K ( K K ",
"X.U U X.$.$.[ Y v 2 2 / W W W h q q q g v q 4 v b b b g c b c c 4 4 / &.*.X.( Y m w m m K ( K K ",
"U U U U Y [ Y m g 2 g / W W W W P j q j v q q v b b g g b T T b 4 4 / &.*.( ( Y | | m m K K K K ",
"U U U U Y Y m m 2 2 v v W W h m P P g g p q q v q q q b T T T b 4 4 / &.X.( ( X.| | m w h ( K K ",
"m m m m m m m c e - R R U U g x s G G k 4 4 4 4 4 4 g g m E v g r 2 r K { { { { ( ( p b p p p v ",
"m m m m m W W c - - R R U g q g k G k k Q s s Q W b g 4 g v v g r 2 2 K { m g g b b p b p p p p ",
"; m m m m c W c - x R R U U U g s k s _ Q Q Q Q W W g 4 g g m v g r 2 r m 2 2 2 > > b b { { v V ",
"; ; w m c c c t - x R R U U U x s s s _ Q Q Q Q W W g 4 g g m g g g g r 2 2 2 2 p p ( ( { { { V ",
"v 0     2 t 2 2 X q V V B B B B V r r V _ D _ _ d d d @ 2 2 g g v v q = 1 1 1 1 r Z Z Z c U U U ",
"v 0     2 t v E , , q q q q B / [ [ [ r h D D D L d d @ = = g g v q 1 = 1 1 q a Z | Z c x c c c ",
"0 0 = 0 v v E E V q X X q / $.$.[ [ [ x e D h D L d 6 @ 2 = = = 1 = 1 q a a a V | Z r r t t t x ",
"= 0 v v v v E E V V , q $.$.$./ V V [ [ e e e e 6 L d d g g g g 1 = 1 q a a q V Z r r r t t t t ",
"= q b b b b b b j j q 1  . .S Z V V V ( z 5 $ 5 K ] ] K b b I I H 5 $ 5 q q Z Z m t t t t t g t ",
"= q b b b b b b j q 1 1 S Z Z S ( ( V V z 5 $ z ] ] K K b b b b H H d d , q g Z m t t t t t g t ",
"= q q b b b b b j q 1 ; n n Z S ( ( V V z $ y z K b t t g b b b d d d d g q q g m x t t t t t t ",
"q q q q b r 7 r j j q ; S Z Z S V g g g y y z z b t t t g b b b d d 5 5 g q q g E m t t t t t t ",
"2 q q g r r r g g g g = A v A A b b q q r f J f k k s s y b b b s s 4 p , > < < v v q q t t t t ",
"2 q g g r r r g g g 2 = A #.A v b b q 2 r J J f k k k k y y b b s M p 4 , < < u q v v q q q t c ",
"2 q g g r r r g g g 2 = v #.A A b b q = 2 J J J k k k k y y b b s M s s u < < < q > v v t q t c ",
"2 2 q g r r r r g 2 = = 1 A A A b b 2 2 2 f J f k k s s y y s b s s M s u u u u q + q q c t t c ",
"; ; ; ; 1 w 1 1 - r - - 7 7 y f j s s r < < i i f f f < , u u u s s s $ p p p p 4 > > 4 q b b b ",
"; w x x w w 1 1 - r r b y 7 7 7 s s s s > > > > f f f f u u u u $ $ $ $ v v C v d 4 > *     = q ",
"w x E E m m w 1 r r ( ( y 7 7 7 s s j r > > & & o $ < f u u u u s s  . .} C C C d d 4 * = = q q ",
"x E E x w w w 1 - b b b f 7 7 7 r s s r > & & < < < $ $ , 5 5 5 V  . . .} C C C d d 4 * q b b b ",
"b E 7 7 q q 2 2 o r F F 7 2 2 7 x x x 2 8 8 Y +.O.M s s = = = g $.$.$.$.{ Z Z Z V p 1 . V V m ( ",
"E b 7 7 r r 2 2 o r F r d d 2 d x x , 2 8 Y +.+.O.O.O.M = = = Y $.$.$./ Z g g Z V p . p m m ( ( ",
"b 7 7 g b b q 2 , F F r d 7 7 d x x , 2 Y +.+.Y I I O.I g q q Y / / Y Y g g g Z V 1 . p x m m m ",
"g 7 g g b b r 2 , F F r d 2 2 7 x x q q +.+.v v I I I I Y q g Y / Y b b g g b b p . p p x x x x ",
"O q q q b b 2 2 + f f 7 9 9 9 9 s s , D ( E E E ( ( ( ( W c c W / / v v a a a 3 . . . 1 q 1 q q ",
"- - q q 2 g g 2 7 7 7 7 g ( g g , s , ' ( E E ( ( ( ( Y W W c c / v v v a 3 3 3 . . . 1 ; 1 1 q ",
"b q O O 2 2 2 g 7 f f f ( ( ( m , , s ' ( ( ( ( ( ( ( Y W W c + ; ; ; w 3 a M M m m m 1 ; ; ; 1 ",
"b b q O 2 2 b ( f 7 f ! ( ( ( m D , , ' ( ( ( ( ( ( ( Y W W + + ; w / / ( M M M m m m m q q ; ; ",
"v v v 2   K K K ] s , G T b b b q   q ..( Y ( ( ( ( E E Y j # # E E E E Y v x x v v v v b b q ; ",
"v v q 2 g %.%.%.] ] s s r h r r q   q ..( ( Y Y ( ( ( E Y j # j E E m v x x x x g g t v b b q ; ",
"v v q 2 %.%.%.%.] ] G , r h b r q   q ..( ( V V E E ( E Y j # j m v g g w w x x g t t t q q ; ; ",
"v v q v %.%.%.%.] G G s h T T T q   q ..( V V V E ( ( ( Y 4 # j g v g g w w w w g g g t q q ; ; ",
"b w ; ( o.o.o.o.z f u u 4 K K K q 1 ; q T h h h Y Y Y Y T 2 r b x q q q q w w q q q v q 2 2 = 2 ",
"; ; w ( o.o.o.o.z z z z g g g > 1 q 1 ; 4 4 h h g g Y v b 2 r T Z x q q q w x w q q v q 2 = % = ",
"; ; w ( o.o.o.N z z f f g 4 > > q 1 1 1 4 + + 4 g g v v 2 2 r r Z Z x q q x x w q q q 1 % 2 2 = ",
"; ; ; b o.~ ~ N z z u u 4 4 > 4 1 ; ; q 4 4 4 4 q q q g r 2 r r 2 Z Z q q x x w q 1 1 1 = 2 2 = ",
"1 1 1 w L L L L u u u u 9 w 9 n = = = = q q q q M M ) M ^ ^ ^ M r r 2 g V q q q $ $ $ $ = y 2 = ",
"1 w w 1 L L L L u u l l n w w w 1 = = 1 q q q V M M M M M M M M g g 2 2 q q q q 7 I f $ = = = = ",
"w w w 1 9 L L L l J J l 9 w : n q q 1 q q V V ( M M g 2 q g g g K K g 2 q q V ( I I I I 2 = = 2 ",
"w w w w ; 9 L L J ` l u n n : : q q 1 q V ( ( V g 2 2 2 q q q q r K K 2 q ( *.*.I I I I z = = 2 "
};
