/* XPM */
static char *_493778971691[] = {
/* columns rows colors chars-per-pixel */
"32 32 70 1 ",
"  c #887030",
". c #887830",
"X c #807038",
"o c #887838",
"O c #907830",
"+ c #907838",
"@ c #907840",
"# c #908038",
"$ c #988038",
"% c #A08838",
"& c #988040",
"* c #988840",
"= c #988848",
"- c #A08840",
"; c #A08848",
": c #A09040",
"> c #A89040",
", c #A09048",
"< c #A89048",
"1 c #A89848",
"2 c #B09848",
"3 c #A09050",
"4 c #A89050",
"5 c #A89850",
"6 c #B09850",
"7 c #B0A048",
"8 c #B0A050",
"9 c #B8A050",
"0 c #B0A058",
"q c #B8A058",
"w c #B8A858",
"e c #B8A060",
"r c #B8A860",
"t c #B0A868",
"y c #B8A868",
"u c #B8B068",
"i c #C0A858",
"p c #C0B058",
"a c #C0A860",
"s c #C0B060",
"d c #C8B060",
"f c #C8B860",
"g c #C0B068",
"h c #C8B868",
"j c #D0B860",
"k c #C0B070",
"l c #C8B870",
"z c #C0B078",
"x c #C0B878",
"c c #C8B878",
"v c #D0B870",
"b c #D0B878",
"n c #D0C068",
"m c #C8C078",
"M c #D0C070",
"N c #D8C070",
"B c #D8C870",
"V c #D0C078",
"C c #D8C078",
"Z c #D8C878",
"A c #D0C080",
"S c #D8C080",
"D c #D0C880",
"F c #D8C880",
"G c #D0C888",
"H c #D8C888",
"J c #D8D088",
"K c #D0C890",
"L c #D8D090",
"P c #D8D098",
/* pixels */
"FFJJw11;==0hBMMMmLLm1ppXssssBBBB",
"FFFJw11&===hBMMvmLLm11115s5sBBBB",
"FFFJw1w&==5hMBBvLLLm1p11-ssspBBB",
"CCFJw;w&=55hMBBBLLLi1p1X+55sBBBB",
"CCFLs<6630gghZZZLLLyp1oo+<qvBBBB",
"FFLLs66<00gghhhZLLLy1*oo+qqvfwBB",
"FLLFs6<8000ghZZZLLx5****<qqvBfBB",
"SLLFs86600ggh9ZZLLxy*o*o<qvqffsf",
"zKKK8:-:rrrldHHHHH0-**,,6qvvs05s",
"zzzt$-:85llldbHHHH0-11w16avass5s",
"z555:$:85lllbHHHHH00www,a6vvMMss",
"zt5t-$8-5lllHHHHHH0-wwwwaqvvMsMs",
"hhrr8888$$wwsMMMlr18ww1wswMMFvvd",
"h0rh888%  $ws8Msr81rw1w1wsMMFFvF",
"ZZZZH88% $,,MMssrrrrwwwwwsMMFFFF",
"ZZZZHg%% ,wwwMMMlllr1&ww8sMMFFFF",
"BBZFZr4+-8pBMMMMrr0011182whhDLLD",
"FFLLZZr+-8BBMlllffr0np812whhVLLD",
"LLLFZr44-pBBBMMMBBBBnppp22whVDLL",
"LLZFZr448pBBBBBlffBfnpp8>>>hVDLD",
"lslF9d8diMMMMMMhssnnMii8%2O%hFFF",
"lslFddwd9MMMhMMhsffnMMi>$2%2rFFh",
"wllFdwd99sMMZZZZsfnnMM8>$%228rhr",
"wslFdw9dssMMZZZMssffMMi>$22%8rr8",
"fhhHll30wwwnFFFguuuchh8$.:8:pppp",
"VhfVll33wwnnFFgguc8uhh8<.:88-ppp",
"HHVHll331wwnFFg,uc8888<<.:88pBBB",
"VVVHl03@*1nnFFFFLLLu88<$:8:hpBBB",
"NCCFHke<#5rrFLFFPPGA77fO69ijCCCC",
"FLFFHk<<#5rALFFFPPPGf7fO69jjFFLL",
"LLLLHke<#5rAFLLLPPPVff7:i9jjFFFL",
"FFFFHke<#5rACCCCGPPAff7:j9ijFFFF"
};
