/* XPM */
static char *_493780055883[] = {
/* columns rows colors chars-per-pixel */
"64 64 34 1 ",
"  c #181818",
". c #202020",
"X c #282828",
"o c #282A2A",
"O c #323636",
"+ c #393F3F",
"@ c #3C4042",
"# c #414747",
"$ c #454B4B",
"% c #494F4F",
"& c #4D5353",
"* c #485054",
"= c #535959",
"- c #595F5F",
"; c #535F65",
": c #5B676D",
"> c #5E6A74",
", c #606C74",
"< c #64707C",
"1 c #888868",
"2 c #909070",
"3 c #949874",
"4 c #989878",
"5 c #98A078",
"6 c #A1A17E",
"7 c #A0A080",
"8 c #A7A782",
"9 c #AFAF8A",
"0 c #B0B088",
"q c #B4B48F",
"w c #B0B090",
"e c #B8B890",
"r c #C0C098",
"t c #C0C8A0",
/* pixels */
"        ooXXXXXXoXXXXXXX                XXXXXXXXXXXXXXXX        ",
"        XXXXXXXXooXXXXXX                XXXXXXXXXXXXXXXX        ",
"    ooOOXX@@@@****@@+@XXOOoo  oooo  ooOOXX@@@@****@@@@XXOOXo    ",
"    ooOOXX@@@@****@++@XXOOoo  oooo  ooOOXX@@@@****@@@@XXOOXo    ",
"  ooOO##****::::::::****##OOooooooooOO##****::::::::****##OOoo  ",
"  ooOO##****::::::::****##OOooooooooOO##****::::::::****##OOoo  ",
"  OO####**::::::::::::**##OOOOOOOOOOOO##**::::::::::::**####OO  ",
"  OO####**::::::::::::%%##OOOOOOOOOOOO##**::::::::::::**####OO  ",
"XXXX****;;>><<<<<<<<>>;;&&++++++++++++&&;;,,<<<<<<<<>>;;****XXXX",
"XXXX****;;>><<<<<<<<>>;;&&++++++++++++&&;;>,<<<<<<<<>>;;****XXXX",
"XX@@**::>>>><<<<<<<<>>:;&&$$++++++++$$&&;;>><<<<<<<<>>>>::**@@XX",
"XX@@**::>>>><<<<<<<<>>;;&&$$+++@++++$$&&;;>><<<<<<<<>>>>::**@@XX",
"XX@@::::<<<<<<<<<<<<>>>>--&&$$$$$$$$&&-->>>><<<<<<<<<<<<::::@@XX",
"XX@@::::<<<<<<<<<<<<>>>>--&&$$$$$$$$&&-->>>><<<<<<<<<<<<::::@@XX",
"XX**::::<<<<<<<<<<<<<<>>----&&&&&&&&;--->><<<<<<<<<<<<<<::::**XX",
"XX**::::<<<<<<<<<<<<<<>>----&&&&&&&&---->><<<<<<<<<<<<<<::::**XX",
"XX**::::<<<<<<<<<<<<<<,,--==%%%%%%%%==--,,<<<<<<<<<<<<<<::::**XX",
"XX**::::<<<<<<<<<<<<<<,,--==%222222%==--,,<<<<<<<<<<<<<<::::**XX",
"XX@@::::<<<<<<<<<<<<<<,,:=223447744422--,,<<<<<<<<<<<<<<::::@@XX",
"XX@@::::<<<<<<<<<<<<<<,,2334666777764332,,<<<<<<<<<<<<<<::::@@XX",
"XX@@**::>>>>>><<<<<<<<12446877777777864421<<<<<<<<>>>>>>::**@@XX",
"XX@@**::>>>>>><<<<<<<1246888777477778886421<<<<<<<>>>>>>::**@@XX",
"XXXX****;;;;>>>>,,,,124488887q0e999688884421,,,,>>>>;;;;****XXXX",
"XXXX****;;;;>>>>,,,,24448889eeeeeeee08884442,,,,>>>>;;;;****XXXX",
"  OO####&&&&-------14688wwwwr......rwwww88641-------&&&&####OO  ",
"  OO####&&&&-------24888www..........www88842------;&&&&####OO  ",
"  ooOOOO++$$&&--==127888ww............ww888621==--&&$$++OOOOoo  ",
"  ooOOOO++$$&&--==14788qw..............w988641==--&&$$++OOOOoo  ",
"    ooOO++++$$&&%%2466ewt..............tqq7742%%&&$$++++OOoo    ",
"    ooOO++++$$&&%12477er................rq77421%&&$$++++OOoo    ",
"  ooooOO++++$$&&%12477qe................rq66421%&&$$++++OOoooo  ",
"  ooooOO++++$$&&%24477qe................rq76442%&&$$++++OOoooo  ",
"  ooXXOO++++$$&&%24477qr................rq77442%&&$$++++OOoooo  ",
"  ooXXOO++++$$&&%12477qr................rq77421%&&$$++++OOoooo  ",
"    XXOO++++$$&&%12477qr................rq66421%&&$$++++OOXo    ",
"    ooOO+++@$$&&%%2477wet..............tee6642%%&&$$++++OOoo    ",
"  ooOOOO++$$&&;-==146880w..............w088641==--&&$$++OOOOoo  ",
"  ooOOOO++$$&%--==126888ww............ww888621==--&&$$++OOOOoo  ",
"  OO####&&&&---;---24888www..........www68642-------&&&&####OO  ",
"  OO####&&&&---;---14688wwwwr......rwwww06641-------&&&&####OO  ",
"XXXX&***;;;;,,>>,,,,24448880eeeeeeee08884444,,,,>>>>;;;;&***oXXX",
"XXXX&***;;;;,,>>,,,,124488887099999788884421,,,,>>>>;;;;****XXXX",
"XX@@**::>>,,>>,<<<<<<1246888777777776666421<<<<<<<>>>>,>::**@@XX",
"XX@@**::>>>,>><<<<<<<<12446877777777064421<<<<<<<<>>>>,,::**@@XX",
"XX@@::::<<<<<<<<<<<<<<,,2334777677664331,,<<<<<<<<<<<<<<::::@@XX",
"XX@@::::<<<<<<<<<<<<<<,,--224446744422--,,<<<<<<<<<<<<<<::::@@XX",
"XX**::::<<<<<<<<<<<<<<,,--==%222222%==:-,,<<<<<<<<<<<<<<::::**XX",
"XX**::::<<<<<<<<<<<<<<,,--==%%%%*%%%==;-,,<<<<<<<<<<<<<<::::**XX",
"XX**::::<<<<<<<<<<<<<<>>;---&&&&&&&&---->><<<<<<<<<<<<<<::::**XX",
"XX**::::<<<<<<<<<<<<<<>>----&&&&&&&&---->><<<<<<<<<<<<<<::::**XX",
"XX@@::::<<<<<<<<<<<<>>>>--&&$$$$$$$$&&-->>>><<<<<<<<<<<<::::@@XX",
"XX@@::::<<<<<<<<<<<<>>>>--&&$$$$$$$$&&-;>>>><<<<<<<<<<<<::::@@XX",
"XX@@**::>>>><<<<<<<<>>;;&&$$++++++++$$&&;;>><<<<<<<<>>>>::**@@XX",
"XX@@**::>>>><<<<<<<<>>;;&&$$++++++++$$&&;;>><<<<<<<<>>>>::**@@XX",
"XXXX****:;>><<<<<<<<>>;;&&++++++++++++&&;;>><<<<<<<<>>;;****XXXX",
"XXXX****;;,,<<<<<<<<>>;;&&++++++++++++&&;;>><<<<<<<<>>;;****XXXX",
"  OO####**::::::::::::**##OOOOOOOOOOOO##**::::::::::::**####OO  ",
"  OO####**::::::::::::**##OOOOOOOOOOOO##**::::::::::::**####OO  ",
"  ooOO##****::::::::****##OOooooXoooOO##****::::::::****##OOoo  ",
"  ooOO##****::::::::****##OOooooXXooOO##****::::::::****##OOoo  ",
"    ooOOXX@@+@****@@@@XXOOoo  oooo  ooOOXX@@@@****@@@@XXOOoo    ",
"    ooOOXX@@++***&@@@@XXOOoo  oooo  ooOOXX@@@@****@@@@XXOOoo    ",
"        XXXXXXXoXXXXXXXX                XXXXXXXXXXXXXXXX        ",
"        XXXXXXXoXXXXXXXX                XXXXXXXXXXXXXXXX        "
};
