/* XPM */
static char *_493780072614[] = {
/* columns rows colors chars-per-pixel */
"56 56 64 1 ",
"  c gray13",
". c #637339",
"X c #6B7342",
"o c #6B7B42",
"O c #73844A",
"+ c #7B844A",
"@ c #7B9452",
"# c #8C8C52",
"$ c #849452",
"% c #84945A",
"& c #8C9C5A",
"* c #9C9C5A",
"= c #8C9C63",
"- c #94A563",
"; c #9CA563",
": c #94A56B",
"> c #94AD6B",
", c #9CAD6B",
"< c #94A573",
"1 c #9CAD73",
"2 c #A5A563",
"3 c #A5AD63",
"4 c #A5AD6B",
"5 c #ADAD6B",
"6 c #B5B56B",
"7 c #BDB56B",
"8 c #A5B573",
"9 c #A5B57B",
"0 c #A5BD7B",
"q c #ADBD7B",
"w c #B5B573",
"e c #BDB573",
"r c #B5BD7B",
"t c #C6BD7B",
"y c #C6C67B",
"u c #D6C67B",
"i c #ADBD84",
"p c #B5C684",
"a c #B5C68C",
"s c #BDC68C",
"d c #BDC694",
"f c #B5CE94",
"g c #BDCE94",
"h c #BDC69C",
"j c #BDCE9C",
"k c #D6CE8C",
"l c #C6CE9C",
"z c #C6D69C",
"x c #C6D6A5",
"c c #CED6A5",
"v c #C6DEA5",
"b c #CEDEA5",
"n c #CEDEAD",
"m c #D6DEAD",
"M c #D6E7B5",
"N c #DEE7B5",
"B c #DEEFBD",
"V c #E7EFC6",
"C c #E7F7C6",
"Z c #EFF7C6",
"A c #EFF7CE",
"S c #EFFFCE",
"D c #EFFFD6",
"F c #F7FFD6",
/* pixels */
"44&&&&4666677uutttew554333----333455wetttuu7766664&&&&44",
"&&&&44r66227777ttttww55555333355555wwtttt77772266r44&&&&",
"&&44rrr2222222244wewww556655556655wwwew4422222222rrr44&&",
"2259999--bAMxiia---444444444444444444---aiixMAb--9999522",
"5529999-AAADDDDCCv-4444;;;;;;;;;;4444-vCCDDDDAAA-9999255",
"52*OOOxAAAADDDDCCCC4444;;&&&&&&;;4444CCCCDDDDAAAAxOOO*25",
"*##OO9FAAAaiMDDCCCCD4444;;&&&&;;4444DCCCCDDMiaAAAF9OO##*",
"%OOooCCg&&&&&&&BBBBAA--2522222252--AABBBB&&&&&&&gCCooOO%",
"O..oCC1&&&&&&&&&qBBAAA-2552222552-AAABBq&&&&&&&&&1CCo..O",
"O..gC11&&&&&&&&&&&qAAAa&25555552&aAAAq&&&&&&&&&&&11Cg..O",
"O.<C111&&&&&&&&&&&&bAAA&&222222&&AAAb&&&&&&&&&&&&111C<.O",
"XXhV$$$&&bDFFFFz&&&&CCC,&,,,,,,&,CCC&&&&zFFFFDb&&$$$VhXX",
"XXAl$$$&DDDFFFFCC&&&CCCd&&,,,,&&dCCC&&&CCFFFFDDD&$$$lAXX",
"XXA$$$$bDDDZZZFCC&&&zCCd&&,,,,&&dCCz&&&CCFZZZDDDb$$$$AXX",
"XXA$$$$DDDDmFFZCC&&&CCCd&&,,,,&&dCCC&&&CCZFFmDDDD$$$$AXX",
"..D@@@0FFFN&VVVSS&&&DDDz&&&&&&&&zDDD&&&SSVVV&NFFF0@@@D..",
"..D@@@gFFF8&iVVS&&&aDDDz&&&&&&&&zDDDa&&&SVVi&8FFFg@@@D..",
"..j>@@gFFNz&&ll&&&&bDDDz&&&&&&&&zDDDb&&&&ll&&zNFFg@@>j..",
"..j0@>>FFFNi&&&&&&bDDDDp&&,,,,&&pDDDDb&&&&&&iNFFF>>@0j..",
"..=c:::FFFFSp&&>>nAFFF-&&&&&&&&&&-FFFAn>>&&pSFFFF:::c=..",
"..OO:::aFFFSbppfAAAFFs-&&&&&&&&&&-sFFAAAfppbSFFFa:::OO..",
"..OO:::&bFFSSSSAAAAFs-ekkkkyyykkkk-sFAAAASSSSFFb&:::OO..",
".OOOO::&&aFSSSSAAAAm-kk4444444444ke-mAAAASSSSFa&&::OOOO.",
"OOoO$&&&&&8SSSSSSb&&&k44        44k&&&bSSSSSS8&&&&&$OoOO",
"+ooO$&&&&&&&&pbp&&&&&k4          4k&&&&&pbp&&&&&&&&$Ooo+",
"OooO$&&&&&&&&&&&&&&&&k4          4k&&&&&&&&&&&&&&&&$OooO",
"+o+O$&&&&&&&&&&&&&&&&k4          4y&&&&&&&&&&&&&&&&$O+o+",
"+o+O$&&&&&&&&&&&&&&&&y4          4y&&&&&&&&&&&&&&&&$O+o+",
"+o+O$&&&&&&&&&&&&&&&&y4          4y&&&&&&&&&&&&&&&&$O+o+",
"+o+O$&&&&&&&&&&&&&&&&y4          4k&&&&&&&&&&&&&&&&$O+o+",
"OooO$&&&&&&&&&&&&&&&&k4          4k&&&&&&&&&&&&&&&&$OooO",
"+ooO$&&&&&&&&pbp&&&&&k4          4k&&&&&pbp&&&&&&&&$Ooo+",
"OOoO$&&&&&8SSSSSSb&&&k44        44k&&&bSSSSSS8&&&&&$OoOO",
".OOOO::&&aFSSSSAAAAm-ek4444444444kk-mAAAASSSSFa&&::OOOO.",
"..OO:::&bFFSSSSAAAAFs-kkkkkkyyykke-sFAAAASSSSFFb&:::OO..",
"..OO:::aFFFSbppfAAAFFs-&&&&&&&&&&-sFFAAAfppbSFFFa:::OO..",
"..=c:::FFFFSp&&>>nAFFF-&&&&&&&&&&-FFFAn>>&&pSFFFF:::c=..",
"..j0@>>FFFNi&&&&&&bDDDDp&&,,,,&&pDDDDb&&&&&&iNFFF>>@0j..",
"..j>@@gFFNz&&ll&&&&bDDDz&&&&&&&&zDDDb&&&&ll&&zNFFg@@>j..",
"..D@@@gFFF8&iVVS&&&aDDDz&&&&&&&&zDDDa&&&SVVi&8FFFg@@@D..",
"..D@@@0FFFN&VVVSS&&&DDDz&&&&&&&&zDDD&&&SSVVV&NFFF0@@@D..",
"XXA$$$$DDDDmFFZCC&&&CCCd&&,,,,&&dCCC&&&CCZFFmDDDD$$$$AXX",
"XXA$$$$bDDDZZZFCC&&&zCCd&&,,,,&&dCCz&&&CCFZZZDDDb$$$$AXX",
"XXAl$$$&DDDFFFFCC&&&CCCd&&,,,,&&dCCC&&&CCFFFFDDD&$$$lAXX",
"XXhV$$$&&bDFFFFz&&&&CCC,&,,,,,,&,CCC&&&&zFFFFDb&&$$$VhXX",
"O.<C111&&&&&&&&&&&&bAAA&&222222&&AAAb&&&&&&&&&&&&111C<.O",
"O..gC11&&&&&&&&&&&qAAAa&25555552&aAAAq&&&&&&&&&&&11Cg..O",
"O..oCC1&&&&&&&&&qBBAAA-2552222552-AAABBq&&&&&&&&&1CCo..O",
"%OOooCCg&&&&&&&BBBBAA--2522222252--AABBBB&&&&&&&gCCooOO%",
"*##OO9FAAAaiMDDCCCCD4444;;&&&&;;4444DCCCCDDMiaAAAF9OO##*",
"52*OOOxAAAADDDDCCCC4444;;&&&&&&;;4444CCCCDDDDAAAAxOOO*25",
"5529999-AAADDDDCCv-4444;;;;;;;;;;4444-vCCDDDDAAA-9999255",
"2259999--bAMxiia---444444444444444444---aiixMAb--9999522",
"&&44rrr2222222244wewww556655556655wwwew4422222222rrr44&&",
"&&&&44r66227777ttttww55555333355555wwtttt77772266r44&&&&",
"44&&&&4666677uutttew554333----333455wetttuu7766664&&&&44"
};
