/* XPM */
static char *_493778805339[] = {
/* columns rows colors chars-per-pixel */
"32 32 63 1 ",
"  c #D0B868",
". c #C8B070",
"X c #C8B078",
"o c #C8B878",
"O c #D0B870",
"+ c #D0B878",
"@ c #D8C068",
"# c #D0C070",
"$ c #D8C070",
"% c #D0C078",
"& c #D8C078",
"* c #D8C878",
"= c #E0C060",
"- c #E0C068",
"; c #E0C868",
": c #E0C870",
"> c #E0C878",
", c #E0D078",
"< c #C8B880",
"1 c #D0B880",
"2 c #C8C088",
"3 c #D0C080",
"4 c #D8C080",
"5 c #D0C880",
"6 c #D8C880",
"7 c #D0C088",
"8 c #D8C088",
"9 c #D0C888",
"0 c #D8C888",
"q c #D8D080",
"w c #D8D088",
"e c #D8C890",
"r c #D8D090",
"t c #D8D098",
"y c #E0C880",
"u c #E0D080",
"i c #E0D088",
"p c #E8D088",
"a c #E0D888",
"s c #E8D888",
"d c #E0D090",
"f c #E0D890",
"g c #E8D890",
"h c #E0D098",
"j c #E0D898",
"k c #E8D898",
"l c #E8E088",
"z c #E8E090",
"x c #E0E098",
"c c #E8E098",
"v c #F0E098",
"b c #F0E898",
"n c #E0D8A0",
"m c #E8D8A0",
"M c #E0D8A8",
"N c #E0E0A0",
"B c #E8E0A0",
"V c #E8E0A8",
"C c #F0E0A0",
"Z c #F0E8A8",
"A c #E8E0B0",
"S c #F0E8B0",
"D c #F0E8B8",
/* pixels */
"OO3359rrrnnr63773333377377799972",
"O33ernnnnnr633331333eee777999922",
"eeeMnnnnnnr033333336eee7999riiii",
"eMMMnr55rrrr66666666eeeerrrr9999",
"nnnn$O$$&6rrjjrrdddddddd6666779e",
"nn0OOOO$6666rjjrjjjjdd66***677ej",
"n0OOOOO$&66rjMDDSSj66#%%*6669ejj",
"03OOO.OO466rMDDj6666#%%666iiejjj",
"xw$$<<<<666dVVr4@ @@&6&6wwcccccc",
"xw*$33<560dmV4O4 OO+&66iwcccccqc",
"**w*555560mdOOOOO+++&6iiccccq&&q",
"**wwaaaaddd6OOOO++++&6iiccw#   &",
"$*iijBBjdd%O+++1++++40dBVr4OOOO%",
"***ijBZBd%OO%%%%+++34ddBV4OOOO%%",
"**iiBZZBdOO%%%%%3+330dBBr44OO%%%",
"iiicZZZjd%O4%%%%3330ddBBr44O%www",
"zzzzBwwBk666&&**666igZZZjr990ffi",
"zzzq&&&wikk6****66igZguujrrjffff",
"zz&O  &&66ikluuuiiggg;;;9rjjfbbb",
"z&OO  &&****ulllggii;;;;9rrrfbbb",
"*%++++&u,::,cccczz,:*$$&0iiiusss",
"%++++%&u,,ppcccczz:=$$&&0ii0uss6",
"%+++%&uupvvpccccz,:=$&&&0iiiuu66",
"%+1%%uuuvv,:**$iz,:=&&*iiisssu66",
"300rdCCCs**$-$$$uu>y77erjjBBai66",
"rrrBCCCd*$$$$$$$uuuuerrBBBBBbaii",
"BBBBCfdw$$$$$333yfffrBBBjjBBaaaa",
"BBBBffwd*$$$$333yuffBBBBjhhjabbb",
"w333766u66&&4444erNNtAAt3300iiii",
"3XXo3336r6660000rNrrtt883330iii6",
"XXoo33366rrrrr00rree88881330ii6%",
"Xoo33366rrrrr00088888+++113066%%"
};
