/* XPM */
static char *_493780086472[] = {
/* columns rows colors chars-per-pixel */
"24 24 33 1 ",
"  c #080810",
". c #283848",
"X c #2E3E55",
"o c #2F3F56",
"O c #303850",
"+ c #314158",
"@ c #314259",
"# c #33445C",
"$ c #39425B",
"% c #3B435E",
"& c #3B445E",
"* c #3C445D",
"= c #3B4560",
"- c #3C4560",
"; c #3C4661",
": c #3E4661",
"> c #3E4763",
", c #3E4862",
"< c #405068",
"1 c #405077",
"2 c #405078",
"3 c #485878",
"4 c #587090",
"5 c #587098",
"6 c #5C7098",
"7 c #607098",
"8 c #61719A",
"9 c #7088B0",
"0 c #7890B8",
"q c #7898C0",
"w c #80A0D0",
"e c #90A8D8",
"r c #90B0D8",
/* pixels */
"wwwwwwwwwwqwwwwwwwwwwwww",
"wwww0066444465446600wwww",
"ww00q66233333333266q00ww",
"ww0q6222oo+#++++2226q0ww",
"w9q5<<77**<***:,.:,<6q9w",
"w99re77:*:o$:&=,O.6er99w",
"w66277OOOOOOOOoXoo88>76w",
"w6217:O..........+>8226w",
"q43o**O.        .O%:o35w",
"w73o**O.        .O:%o36w",
"w73o:oO.        .O%%+34w",
"w53o*<O.        .O*:+34q",
"w43o%%O.        .O*%#34w",
"w43+:%OO        .O:*#34w",
"w43+%%O.        .O==#34w",
"w43+*<O.        .X=&+34w",
"w722XXO..........OO.226w",
"q78>>XOO.oOOOOOoOO.<266w",
"w99re85>&,**:*::O.7er99w",
"w005<>66*&=*:%::.,<<509w",
"ww0q6222#+@#++##2226q0ww",
"ww00q66233333333266q00ww",
"wwww0066444544546600wwww",
"wwwwwwwwwwwwwqwwwwwwwwww"
};
