/* XPM */
static char *_493778854616[] = {
/* columns rows colors chars-per-pixel */
"64 64 86 1 ",
"  c #679FDC",
". c #6C9EDC",
"X c #6BA3DB",
"o c #70AADA",
"O c #7AADDB",
"+ c #709DE0",
"@ c #6DA4E2",
"# c #74A4E0",
"$ c #7BA6E5",
"% c #74ABE1",
"& c #7CAAE4",
"* c #73A4E9",
"= c #7FAAE9",
"- c #76B0E1",
"; c #7CB1E3",
": c #77B1E9",
"> c #7BB3E9",
", c #86B3DB",
"< c #89B5DB",
"1 c #91B8DC",
"2 c #83AEE7",
"3 c #89AEE7",
"4 c #84AFE9",
"5 c #84B2E6",
"6 c #8AB4E6",
"7 c #84B9E7",
"8 c #8BBBE5",
"9 c #84B5EA",
"0 c #8DB5ED",
"q c #85B9EA",
"w c #8DBCED",
"e c #90B7E2",
"r c #93BCE4",
"t c #99BDE3",
"y c #91B6ED",
"u c #93BCED",
"i c #9ABEE9",
"p c #95BCF3",
"a c #9BBFF3",
"s c #A0BEE7",
"d c #A1BFF3",
"f c #8EC0E7",
"g c #8EC1ED",
"h c #95C1E7",
"j c #9BC3E6",
"k c #9EC8E7",
"l c #94C2ED",
"z c #9CC4EB",
"x c #96C8EF",
"c c #9DCAED",
"v c #96C3F4",
"b c #9CC3F3",
"n c #95C9F5",
"m c #9DCAF4",
"M c #A3C4E4",
"N c #A2C9E7",
"B c #A2C5EA",
"V c #A8C5E8",
"C c #A4C9EC",
"Z c #ACCDEC",
"A c #B0CDEE",
"S c #ACD1EE",
"D c #B3D3EE",
"F c #BAD5EF",
"G c #A2C5F3",
"H c #A3CAF4",
"J c #ABCDF3",
"K c #B2CEF3",
"L c #A4D1F4",
"P c #ACD3F4",
"I c #B3D4F4",
"U c #BBD5F4",
"Y c #B5D8F3",
"T c #BCDAF5",
"R c #C3DDF5",
"E c #C5E1F5",
"W c #C9E2F7",
"Q c #D7E4F5",
"! c #D9E6F7",
"~ c #DAE9F7",
"^ c #DAE6F8",
"/ c #DEE9F8",
"( c #E2EEF7",
") c #E4EEFB",
"_ c #E6F1FC",
"` c #E9F3FC",
/* pixels */
"7797gggw788qqqHHPUYYmu636605%#&O2254526453yyapaadGGGLFEFSLLLLLfx",
"79;9ggggq888qfHHLITYBu336666##O$5435352225yyppapdGGmcDERTYSScLxg",
"777777gg88llmHHHIRRUmbuu6666$O$%22523553ppabaappuuuhfkNSZZZZYPLL",
"whwff7llw8lzHHIRERIJmayu6650%#O&54355245ppaaaappluul1jZDSZFFTEYY",
"RTUPPJJLKJKDIKIRRPJJKGaaypyu666825wuuwvvbaaapp0w88---,1NMkSSYDEE",
"RRIIPPPIUURWRHJUIJHGGGadyuuy666655uwwwppaaabppwwqq---f1jM1kkSSTT",
"YRRIPPLLPUFFNjBczuaadaGGGGGGGGGGGGGGGGGmbapp559;88---1kj1<ffgfYP",
"PIRRIPHmHLFFSZZzzpaaaaCGGGGmGHGHmHGmHmHHmvpv79998l;1fkj1,-7f7fLL",
"LPLYLcxxqzkhlhkruy0000aadddduu6853uuHHHHllwwggq79781rrt<--oO33iu",
"LLLLcScxzNff77ukBpu0y0aadddGuBthi6huHHHHlklvzCzcjz188,7&%O2#33uu",
"HmllfhCNNB87779rCB89550wGGuurjNSsiryzcSYJZkk1jttzh%%OO%##+$#33GG",
"GGwl7ffNNB8q>77hZZjrq8pwmGcBjZZSVMiiCDEECclh681689%%#@#+$o+#33HG",
"HG55--->rr,--;O<hj1j8<ruJKZK((((eeeeFFWTzx%%%O&%&>##+X2$2+++uyGG",
"mG55X%%-1<7-<e,,,;181tZMURDF((((6et1ARETzg-%%@o@&*@#++$$++O#uuGG",
"mG25%%%OO<1,,Ooo-%o781MBRRFF(((/<6ttAFRRxgo@@o#+$$$$2233+233bGGG",
"Gm22@%%%O11,OXXX%@%OO5isKRFF((/(eeteZFWUlw%%#@@#=$$$2223++33GGGm",
"yu0w57778f1,ooXX----;;zl_```HxwwzjCJIURULmf8O$504422222200aaaaaa",
"uyww2577;88-XXXX-oo-%%ul__``vg9950zCIUTUPmf8&$6644222422y0aaaaaa",
"uuyuwp758khq77----%%wwmb____xnnvwwbHLRTTIZmmwu662222wwpvadppyypp",
"uuy0ww76wBk777--o-%%wwbb___)nnvvuwmnbJRTTPmmg0662422wuvvaappyypp",
"ypuyww758Nh79959%%79babb))^/42220w57~~_`RIHHbbyw))))HGpvyy3542yy",
"iiyyww57uk8777>9%O95bbaa^)^/22220w55~~/_TILHmbuw)/))HGvvyy5423yy",
"upipuuulBClgwww0wwaaww59)^^^22440055~~~~jSZcmmbb)_)_pv5225353525",
"uuuuuullHCuwww0pw0aaw859^^)^22430022~Q~~8kDZJGbm_)_)vp2553525453",
"55uubbbmIIHHHGbdaa00/^))^)^)333322=$+.X@~~)(_/))HHGHuy3342535352",
"57uwbbbmUIHHGmGdaay0/^//)^)^333322$$   XW~/_____HHHGup3e25252535",
"&#7777fxHJCmHGGd00+#!!//^(^(333324$$.X.X~~~~_(((HHpu333352=$$2==",
"O&57>7ggJPHGGGbG00@+!!//(^(^333344$$....~~~~_()(LHai333345==$$&=",
"#&&%O%--rhggHmGdyy@*@+442+$4Q^^^2+++!QQQ%@%%OtKbHHvv33$++2+2$22+",
"#O#O%%-7BBgwHGGGy0+*##4424$+^^^^222OQQQQ#@@%%6KBLLpve3o++#+#o+23",
"&&%$%%%<BBu5vvGG0y*++#+++..+QQQQ..$+^Q!!@%%@7wIKPHvl33+++,2++++4",
"O#O#&O%;VCi9vpGGyy*+*@#@...+QQQQ..$+QQ!!%@*%7qCIYPpl33O,++++22+2",
"2+#$o$O&BZkuvgHmy044**++@@@@    QQ^^244$%&%%--CUTYPLO--%###$2222",
"+o+o$%%%zckhvgLLpy44++++@@@@    QQ^^2+$4%&&&--hFETTI;O-O&###5222",
"22=&=%&9ki8hLnLHaay04444****+@+*Q^^^444*%%&---zSTYYTkh;-95q09022",
"3+$2>>>6NuqlLnLmbb0p4444****@@*+^^^^4*44%%%%%-vSTLLYNk;-77qww625",
"2599778kN8lcPLLLbbyy000y*===4*44^^^^**42%%&&uhHUEYPYFFNhwwwwwqqq",
"557977rBz5lxYPLmnb00y000====$44*^^QQ44*2&%%&lzJUTTTTDDNNczxgwgqg",
"77779hkNSlLLYPmLvbaa0000====4$23^^QQ*44260ulGHJUYTEYPSYYDISSgqgg",
"7777uBkjSSPPYPLLbbbay000====44++Q^QQ444*86apGGJFTTYLLLLPZDYYHvgq",
"vbGKKKKKSSSSDcggw0ppwuyuia2#2,2,^//^yppvuwGHHLPTAGu0wp0iLUREETIL",
"JKUUKGdGmHSPDclvwqppppyuyaO22+#2^^//ppvvwwGGHHYRBuww0000HJUEEEEU",
"RRRUGbabwquHCz09wqwq90uuddsyesia))))GHHGGBHmgxjM7=>=$$$=68uBYRRE",
"IIUJaaba99qzJClqqwqw00uyddydyyyi)))`GHHGGHmHulNh>&=$$$$$66uuJLPY",
"JJaaww=$=&>6BBr5%%%o>>60))`)__)_ddHHHGHHwg99o%r;#X+#$$+*o$o$uuHH",
"Gdaa00=$$$=6ysBi7-%@>>09))))__)_KdHHHGHHwg55%<r&%@#+$$*++o$ouuGm",
"GJaa00$$$$+#2,21<6-O#o=>)))___)/dpavHHHH95oO81<%#++@2$$$$$o$55GG",
"GGaa00$=$$++++@,,85%@@>>)))))))/pppbHHHH99&88;8O#X@#$$$$#O$O66Gm",
"GGGG22#####@##@O,66%%%%@00GG008049ppHHnn:>8e%Oe5=$=$$==2##o$o$dd",
"GJGG45#X@###+@@#&,815%%%qqGGw0069>ggHHnn>7t855B62&&$=$22#%$o$odd",
"GJJGuw54$4$$2222>5,r6%>>vpGGbbq0pwHLHLgg%8ttjkZj6092=$=$&$o$o$dd",
"GHGGuu254$2$5224=7%r<%q>upGGbbwwvwHmLLgl7r8;98BBh672$=$$#%$o+odd",
"HGGHuuwu3535262200vCcqgwHGGGGGGHmHLLLLnLiu>>>>8jBu85=&$$$#+oy6dd",
"JHHGuuuu5254524290pcCggwHGHHGHHHLLLLPYYYe>::&>58jjr6=&&$oO$$66Gd",
"GHuu25234235352400BZIDclmmmmmmmmLLPTWWTP799979>&5er2%#$$$o$oyadd",
"GGuu52543552522290zZISJHHmmmmmmHPLTWWWPv99995q&>=>615O==o$O$uidG",
"22235344yy53apppdGJKRKcV65>577q8nHIURJGbfw959>%@@%%<6o75+$ywabdb",
"32232455yy25ppppGdGKTIaJiu88hwrrZJUIKGnbuw5555o@%o%;6,79&Owwaaba",
"2&+22=5453yyppaaGGHJKB8kt181huzNBzr8bambHHwuwwo@@%%@rB09wwaaww57",
"=&$o==2545yyppaaGGJJJJzB161eurjzirq5pabbGHwuwu##o@@ohB85wwba0u55",
"o2+O=&9225y0yyabmBuljZjh872O770w06559>ppGGHHHHuw0wwyzJiwbbbb75#%",
"++2+$&=55500yybmHHuujNBu55O&2>67555555ppHGHGGGuuyupwiCGuxbbb75&%",
"o$2+52252255ppbmvvq8NZh8=4$o==555555520yHGHGHGGHbbbbHISmmbmv99%%",
"$+$225222555vvmbvv7jBj5q&3++=&25552525yyGGJHBHHGabbbHUUmmmbb79O%"
};
