/* XPM */
static char *_493778865550[] = {
/* columns rows colors chars-per-pixel */
"64 64 83 1 ",
"  c #679FDC",
". c #6C9EDC",
"X c #6BA3DB",
"o c #70AADA",
"O c #7AADDB",
"+ c #709DE0",
"@ c #6CA3E1",
"# c #74A4E0",
"$ c #7BA6E5",
"% c #74ABE1",
"& c #7CAAE4",
"* c #7EA9E9",
"= c #76B0E2",
"- c #7BB2E2",
"; c #7DB5E9",
": c #86B3DB",
"> c #89B5DB",
", c #91B8DC",
"< c #83AEE7",
"1 c #89AEE7",
"2 c #84AFE9",
"3 c #8AAFE9",
"4 c #84B2E6",
"5 c #8AB5E6",
"6 c #84B9E7",
"7 c #8BBBE5",
"8 c #85B2E9",
"9 c #8DB5ED",
"0 c #84BAEA",
"q c #8DBCED",
"w c #93BCE4",
"e c #99BDE4",
"r c #91B6EE",
"t c #93BCED",
"y c #9ABEEB",
"u c #95BCF3",
"i c #9BBEF3",
"p c #A1BFF3",
"a c #8EC0E7",
"s c #8EC1ED",
"d c #95C1E7",
"f c #9CC3E5",
"g c #9EC8E7",
"h c #94C2ED",
"j c #9CC4EB",
"k c #96C8EF",
"l c #9ECAED",
"z c #96C3F4",
"x c #9CC3F3",
"c c #9DCAF4",
"v c #A3C4E4",
"b c #A2C9E7",
"n c #A2C5EA",
"m c #A4CAEC",
"M c #ABCDEB",
"N c #B1CDEF",
"B c #AED1EE",
"V c #B3D3ED",
"C c #BBD5EF",
"Z c #A2C5F3",
"A c #A3CAF4",
"S c #ABCDF2",
"D c #B2CEF3",
"F c #A3D1F4",
"G c #ACD3F4",
"H c #B3D4F4",
"J c #BAD5F3",
"K c #B4D9F4",
"L c #BCDBF5",
"P c #C3DDF5",
"I c #C8DCF7",
"U c #C5E1F5",
"Y c #C9E4F7",
"T c #D7E4F5",
"R c #D8E6F7",
"E c #DAE9F7",
"W c #DAE6F8",
"Q c #DDEAF8",
"! c #E2EDF7",
"~ c #E3EDFB",
"^ c #E6F1FC",
"/ c #EBF3FC",
"( c #F0F7FC",
/* pixels */
"6666ssss6770qacAGJHKlt335555##&&4<5<2<<142rruuxipZZZFCUCBFFFFFks",
"6664ssss707077AAGHJJlh535555#OO#<4<<<5241<rruuiipZZZlVUUKKGMlFhs",
"666666ss77htcAAAHPPJxxtr8535%&%O<5<25<4<uuixixurttyhafMMMMMMKGFF",
"7tt070ks7qhjAFDLPPHAxxtt5545#O$&4<<5<<25uiixiiuuhtth,gbVMVCCUUKK",
"PLJGGGAGDDNVHDHPPHAS^^~~uttr5555<2tttqzuxiiiuu9957===-,bvvBbVCUU",
"PPHHGGGGHJLUPAAJHAAS^^~^trtr555544qqqqzuxiiiuuq907O-O7,ffdggMFUL",
"JPPHGGSGGJCPbgZnjuii~~^^ZZZZZZZZZZnZZcZZxxuu466677===,gf,>aaaaGF",
"GHLPHGcccGCCMMMjjuip~~^^ZZZZZZAAAAcAZAAcxzsu646;aa-7agg,--a0aaFF",
"FGGGFlkk0jbdwdgwtrq9r9ix^^~^tt67Q!!~^^^^hh0qqu00607,wwe-OO#$55yt",
"cFFGlBlkjbd060wjpyr9u9xx~^^~tndf!Q!~^^^^hghxlmfgjg,7>:4&O=O#11tt",
"Achhadbbbn70666tmn7644uq^^~!wfbM~~!Q^^^/MSgbeee,jw%%%O$OO###11ZZ",
"ZAss0aabbbq6666dNNdw00tq~^~~gMMB/~~~^/((lldh7>7796%%#%#+#++$11cA",
"AZ44%==;ww-%%-O:dd,f7>w7DDSH!!!!wwwwDJYUcj=%%&%&<*##++<<+$##ttZZ",
"cn44%%@=,,6O:w:::-,7eeMbJIJJ!!!E1,eeCPYLxs=@@%#@%$@@+.O+$##+trZZ",
"ZA24o%%%O>,::Ooo==O4>wbnIIJJ!^!!11,eNJYLks%%%o##$$$$<<<1++11xZZZ",
"Zx4*@%%OO,,:OoXX@o%%%:yeHICJ!!QQwwewSCYLks=%@@@+*$*$<<<1+<13ZnZZ",
"ttrq46607ww6oXXXEEEE=Okk////ckqsyjmA^/(^GAa7O$5422<<QQQQ~Q~~iiii",
"trqq<466-7>=XXXXEEEY=Oha^^^^hz0067nm//((Gm00&$552<<<QQQQQ~~~iiii",
"trtqqt46agd666==EEEEsqxx/^~/zzkzqtcA/((^HFcct755<<<<~Q~~~~~~rruu",
"rtt9qq45qng666=oEEEEqaxx~~/^zzzzqqzc^^((LGccuq55<<<<Q~~~~~~~rruu",
"yrtrqq667bd66444WWQQxxxxQ~WW<<<<9q40EE^^PHAAxxrq~~~~AAzzrr3813rr",
"uyryqt46tg706664EWQQxiiu~~WW<<<<9944EE~^LHGAcxtq~Q~~AAzzr98822rr",
"tttrttuhnmtzqqq9~Q~~qq64W!WW<<<<9944EEEEfBblcccz^^~^zz9888838388",
"qtytttthAnsqqqq9Q~~~q964W!WW<<1199<2RRRE7bVmGZxz^~^~uz2288838883",
"40ttixxcHHAAAxZp^~QQQQQ~~W~W11112<*$+XX@RE~~^~~^AAZAyrr329838883",
"44tqxxxcJHAcAZZZ^~~QQW~WW~~W1111<<$$  X.REE^^~^~AAAAry1323888388",
"#O6666asSAAmAxZp~QRRRRQQWWW!1133<<$$ +.XEERW!!^~FAtt333382******",
"&&44;6skSSAAZZZZQQRRRWQQ~~WW1333<<$$ ...RRRR!^^!Fcui3311;2******",
"O##%%%==wdsq^^^~rr+@$@22<<+2WWWW+<+$TTTT%%@=R!/!Acuu11o#++++$#<<",
"O&O&%%=:nnqq^^^~rr@$$+22+<<+WWWW11+#TTTT@%@=R!/~FAht11+$:<#<##$$",
"#O##%%-:nyw4Q^^~9u@+@+$++...WTTT..$#WTWW%@@%Q!//GAtt1>##++##<+<$",
"%&$OO%%6nne5~Q^~99@+@+@@++.+TTTT..#+WWWT@%#%QQ~/KGth11:+<+$+++<$",
"#$##$#%-!^^!zzFA9922++++@@@@    TTWW<2<$%&%-=-mJUKGF-==%%##$<<<4",
"###%O#O&!^!!sscc9322#+++@@@@    TTWT+22$%&%%==kJULUK---%#O##<<<2",
"<+*%$=-4^!E^FzFFxi992222@++*@@@@T!T~****&%%%%-kBYKKLla-=44q990<<",
"<<***;&6^!Q~FcAFxi992222@@@$@@++WTWW2***%&%&=-xBLFFKMg--40q090<<",
"<446667j^!!^KFFl~~Q~9993****+1<<WWWW$2$*#%O%tjAJUKFKLKbds7sqq0q0",
"446666yb!Q!!KGcF~~~Q999r****<1+<WWWW$$2$O&%%hdAJLKULVVbblkhsqq0s",
"66066dgb^!^/GGFF~^~~9993****$+<<WWWW*$$$05tuZASJKLLKGGKJHVBBsss0",
"6660tggl//^/KGFc^~~~9993****<$$<WWWW$*$255tyZZSCLUKFFAFGmVHHAz0s",
"xxZDDDDDGGGVVkzsq0uuQ^Q~yr<+:<<+WWW~~~~~ruxAAFGLSntqqq9iHJPYPPGM",
"DSJJDZZpccGKVlksqquu~QQ~yp<<:+<1W~WW~~~~qqZZAAKUnhqqr999AAHUUUUK",
"IIPJZxixqqxAmjq8qu00QQ~~pprp1ryr~~^~^^^^ZZActkfb4;**$$$*55tZHLUU",
"HHHAiixi880jGmt0q00u~Q~~pprreyry~~^^^^^^AcAAqjnd****$$*$55tyMGGK",
"SSiiqq*&$*-0vvw5%%@%WQQQ/~~/~^^~ZZAAAAAAqq44%%w&%@#+*$++%#O&ttAA",
"ZZii9r$$$$*5yyne-=%oQQQQ~~/~~^^~AZAZZAAAqa46O4wOX#+@$*#@####ttcA",
"ZSii99$$<$++<<157:-%RRQQ~~~~^^~~iuzzZAFA46%O6w>%###@$$$$&O##15ZZ",
"Spii99*$$&++++X:77;=RRQQ~~~^~^!!uuzzAAAA46&7,-6O@X#+*$$$##O#55cZ",
"pZZZ<<@@X###@@#&QQ!E%%%@00Zp0999QQQ!cczk==7,%Ot2$$*$$**2#OO#$#pp",
"AZAZ4<#####+#+o@WQQ!-%%%q5ZZ9q97WQ~Qcczk=5e7-4v52**$*$22###%O#pp",
"ZSSZtt4<<$<$<<22WQW!5%6;uupZxx9q~~^^Acss&7,efjmg9544$**$#$O###pp",
"ZAZZtt<2$<$<4<2<WQQ!7%;;ziZZxx09~E^^FFsk-w7-67gld464$*$$%###&#pZ",
"ZAAZtttq<341WQQQ99zAm;sqZZAZZZxZFFFF^^^^!!WWEE~~bw74$$$*O###56pp",
"SAZZtttt44<4QQQW99scmssqAZAAZAAAFFFF^//^!QEWEEE~wny4*$$$#%#O55pZ",
"ZZtq<4<4<54<QQQQ9rcMHBlkcccccccAFFFL((/^!EQQQ~QW4ww:%#*$$O#&yypZ",
"ZStt4241<21<QQWQ90lBJBAmAccccccFGFLY((/^QQQQQQQW*;1,6O*&###$rypp",
"<<<142<4rr5<uuuiZZSJIHAS76*20007zAJLIGAzss8808@%@%O77o64##9qiiZi",
"512<1<42rr<4iuiuZZZDIGxSyt7whsddSHJGGAcZss8888%%%@%%5444O&qqixZi",
"$<$O<$42<<rriuiiZZZHSAqnew7wywnnldhtZzxcAAttus@@X%X%wb96qqxiqq44",
"*$##$<2241rriiixASAGSSzbe57wtdkgdy75uzxxAAttsq%#@%%#wn76sqxirq46",
"#$O+$$4422r99uizcZthfmgd96O<40qq744488uuZAAZAZtqqqt9ymnqcxxx64#%",
"#+<+$&48489999xcAAttvmft4<$O4;54544482uuZZZAZZttr9tqyMZtczxx64$%",
"&#<$4<<22244uuxczz6wbmd7$<O#**444442229qZAmAAZSZixxzAHHcxxzx66%O",
"o#$$24<4&448zucczz4fme66*<#+$$24222242rrZZSZAAAZixcxAHJcxcxx66%%"
};
