/* XPM */
static char *_493778841422[] = {
/* columns rows colors chars-per-pixel */
"64 64 80 1 ",
"  c #679FDC",
". c #6B9DDB",
"X c #6AA4DA",
"o c #70AADA",
"O c #7AADDB",
"+ c #709DE0",
"@ c #6DA4E2",
"# c #73A4E0",
"$ c #7BA6E5",
"% c #74ABE0",
"& c #7CAAE4",
"* c #73A4E9",
"= c #7FAAE9",
"- c #76B0E3",
"; c #7CB2E3",
": c #7FB8E7",
"> c #86B3DB",
", c #89B5DB",
"< c #91B8DC",
"1 c #83AEE7",
"2 c #89AEE7",
"3 c #84AFE9",
"4 c #84B2E6",
"5 c #8AB5E6",
"6 c #84B9E7",
"7 c #8BBBE5",
"8 c #85B3EA",
"9 c #8EB5EE",
"0 c #86BAEB",
"q c #8DBCED",
"w c #90B7E2",
"e c #93BCE4",
"r c #99BDE3",
"t c #91B6ED",
"y c #94BCED",
"u c #9ABEE9",
"i c #95BDF3",
"p c #9BBFF3",
"a c #A0BEE7",
"s c #A1BFF3",
"d c #8EC0E7",
"f c #8EC1ED",
"g c #95C1E6",
"h c #9CC3E6",
"j c #9EC8E7",
"k c #94C2ED",
"l c #9CC3EB",
"z c #96C8EF",
"x c #9DCAED",
"c c #95C2F3",
"v c #9CC3F3",
"b c #9DCAF3",
"n c #A3C4E4",
"m c #A2C9E7",
"M c #A2C5EA",
"N c #A8C5E8",
"B c #A4C9EB",
"V c #ACCDEC",
"C c #B2CDEF",
"Z c #ACD1EE",
"A c #B3D3EE",
"S c #BAD5EF",
"D c #A2C4F3",
"F c #A3CAF3",
"G c #ABCDF3",
"H c #B2CEF3",
"J c #A3D0F3",
"K c #ACD3F4",
"L c #B3D4F4",
"P c #BBD5F4",
"I c #B5D8F3",
"U c #BCDAF4",
"Y c #C3DDF5",
"T c #C5E1F5",
"R c #C8E1F5",
"E c #D7E4F5",
"W c #D9E5F7",
"Q c #DAE6F8",
"! c #DEE9F8",
"~ c #E0ECFA",
/* pixels */
"6666ffff077770bFKIPIby225558##%&1141414142ttiippsDDDmURSKJJJJJfz",
"6466ffff07670dFFKLIPBy525555#O&O2224141512ttiipisDDDJAYYUIZZxJzf",
"66:6:6ff77icbbFFIYYPvvyt5858%&&&11414212iipvppiiyykkdjmZVVVVIKJJ",
"qyq7d0ff77klFGLUYYKGvvyy5555#&O%24241414iippvpiiyyky<jmAZVSSUTII",
"YUPKGKKGHGHALHLYYKGGHDppityy555544yqiqccvpppii9977---:<jnnZZIART",
"YYLLKKKKLPYRYFGPIGFFsDppytty558724qqqqcipppviiqqq7-;O,<jh<jxZZUU",
"PYYIKKGKLISSmjDxlippspDGDDDDDDDDDFDDDDbDvvii44:40d---<jj<,ddddKK",
"KIUYIGbbbKSSZVVhkuppppDDDDDDFDFbbFFbFbDFcvii6:667d;,<jj<O:d:dfJJ",
"JKKKJxzk0ljkghhkit9999ppsssDyy7,55tyFFFbkgqqff00467<eg<4;O#&55tk",
"JJJJxZxzlmg666yhluy9t5pvssssyxghe2ikFFFFkxkclxljxh77,>5&OOO#22yy",
"FFkkdgBBmm76666eBD744499DDyyejmVaur5kBKIVVjBrrh<he%--OO#####22FF",
"Fvfk6ddmMM70:66gVVhg07yfFDxjjNZZNNuuVVTTxxgk<5w7q6%%##++##+$22DD",
"DF44---:re;%%OO,grdh<7geGHCA<g<dwwwwCYRUlv-o%%%&1&#o++11###+ttFD",
"Fv44@%o-<,6O57>,>;,<rrNMPPAPhgd,5wrrSSRUlf-%#%@#$*+#+.+1#$+#tuDD",
"Db33%%%%O,<>>Ooo%--5,7nMYYSShh<e55<rVSYYkf-o@%@+$=$=1111$+22DDDF",
"DD=4%%o%O<<,OoXX%%o%%>ruHYSS<d77<wrwVSRUkf%@#@X#=$$$11121+25DDvD",
"yy9q4660,gd>ooXX--O%;;kkKKIIxk0quuVBLUYPKb7dO$553113111199pppppp",
"ttqy3466;7,-XXXXo-;%O%ykFGGFkf6:6qlFLPUPKbd7&&85=311111199psppvp",
"ytyqqk46dxk6:d---o-%qqvvFFFFczczqqbFGUYPIGbby9451111qyicppitttii",
"tuqqqq847Mj6::-o-O%%ffvvFDMFccccqycbvGPYPKFbqq551111qqccpviittii",
"ptyyqq48qMg66664%%66vvvp~~W~11339q6466kHULGbbvyqiiicDFcitt2421tt",
"yutyqq46eh766644%%46vppp~~~W13319944::ylULKFvvyqciiiFDcctt4121tt",
"ttyyyykkBFcfqqq9qippqq46Q~QW11119944o%%%jVBxbvvDbbDDic4215242114",
"ytyyyyykBBqqq9q9q9pp9q44~W~W3122t834@%@o7jAJKDvvbDDDci1411414151",
"76yyvvcbIHFFbDDspp991199~~~~222231$$..X.@-gkhkvbFDDDyt2241141124",
"86yqpvvbPLFFFDDDpp991199~W~W222211=$. .X%@7jGkvbDFFDyu2234115143",
"#O46:6dzFGFFbDDs99+X+@11!!W~222211$$...X%%%;MuuyFFyy2222141==$1=",
"&&4666fdGGFFDDDDt9#+@+11!!!!222211=$... o@%%lmltFbyy222241$=$===",
"O#&&O#--egfqbDvs99#+#@33211+QQQQ+1#+EEEE#%%%&wHlFbkg22O#+++1##11",
"#&##%%-6MMf0DDDs99#+#+331+1+QQWW11$#EEEE@@@oo,CMFFky52+$#1+#+11+",
"%&OO%%;>MM54civD99+X#@#*+...WEWE..$#WWEE#%@%8yHCKFky22#+>+1+1+1+",
"&O#&%%O;nNu4ciDD9t++*++#+.+.WWEE..##WWEEX@%o46MHIKky2w#>++++++12",
"+O##o&O&jNM7kfFbit33*+++ @@@    EEQQ11+3%%%O%;BSUIKJ-OO%####1112",
"###%#%%%hjjykfJF9933**+*@@@@    EEQQ11*1%#%&O-kSTUUI;;%-%###2111",
"1$$=1=;4hu7gbcJbvp993333*******+WWQQ*331O#%%--kAUIIPjdO-44qq9811",
"$$==;==6Me6kbbbbvv993333****@ ++WWQQ33*3&&%%O-kZUKJKmj>-60q00041",
"3466600jB6kxKKJJbvi99999====3*3*WWWW1331&#%%ykBPTIJIIImgqq0fq0q0",
"886667eBj6kkIKJJbv99999i====3*13WWWW1*3*%O%OukGPUUTUAAmmbxkd0q0f",
"66666ehmBfJJKKbJvvpp9999====3312WWEE3*1*55yyDFGPIUUIZKIUAAZZc0ff",
":640eMMBKZKIIKJJbbvv9i99====3+1+WWEE1133q8yyDFGPUTIJJJJKBAAIFcf0",
"vvDHHHHHZKZZAxkf99qiiyttyu1#11O12222iicciqDFFJKUGByqqq9uKUYTTUIJ",
"HGPPHDsDbbZAAxcfq0iiqyutiu1O+1112232iiccqqDbFJITMyqq9999FGITTTYU",
"YYYPDvpv00yVFkq8q00i90itssyprtupcpssGFFFDbFFqkhM4=====$=68uDPUUR",
"ILLGppvp880kVByq0q0009utssyuupptcpGDDDFFDDFbkkMl;==$$$$$55tuGKKI",
"GGppyq$$==&7Mnt5%%%o;=00sDsssDsDFFFFDGFFfq46%%eO%#+@=$+#O&##yybF",
"DDpp99$=$==8tMMr6-%%=:90sssDDDDDFDFFFFFFqf48O6e%@@+X$$+@#%##yyxF",
"GDpp99=$$$+O1O2<7>%%%@==tpssDDiuiiccFFFF86#O5e,%@+#+=$$=##&O55DD",
"DGpt99=$$$++++X1,76%@@:-isssHsiuiiccFFFF64&7,;7Oo@##$=$$#&##56DD",
"DDDD11#@###@o#@%1,7;O@%@87Ds575q44qybFcc--7e%%e4=$=$$$33#%##&#ss",
"DDDG11#######@##O45<;%%@78sD585514qfFbcz;6r,4>M51==$=$=4####O#ss",
"FDFFyq14$1=$1121;81w,%;;yysDvp56yqFbFbff%7grhlNx7831$$$$%##OO&ss",
"FDGDyy41=$$=4111;8Oe5O::ktDvvv77qfFbFJfk;e,;47MMu644=$==&O#&##ss",
"FDFFttqy4242341189cBj6q0DDDDDvDDFJFJKbzxhy--=-fuMe56$$=$##$#45ss",
"FGFFyyyq3414421109kBBdqqFDDDDDDFJFJJKILAe=--;=60eMu4==$$&#Oo55sD",
"FDty44242431144389xVAVkvbbbvbvvbJKKITTUK6:8:66;-4qr,%#$=O+#&yyDs",
"DFyy42424142421199uVPZVMbbbbbbbbJJPTYTKc4468:6==;4,51O=$#&$#uiDs",
"22115151tt24iiiiDDDHYLFV71;47066kBPPYGFvqf4464%%#%-55o64O#yqppvp",
"12121134tt42iiiisDDLYHkNuyq7d7guVGPGGDvvfq4444X@%XO%5444%#9qpppD",
"=$$O3=11249ttippDDFHGMqxe<7<eyxhMhy7vpvvFDyqqq*%@%@%eB56yqvpqq48",
"=$##==4343ttpippDGDGVGlM<5<wyglhue74icvbFDqyqq##@%%oeMq4qqvpqq48",
"#O+#=&;443t999pvFFykjBjge4&O88y7q64644iiGDFMDDyyqqqyuGlqvvvv64%O",
"&+#$$$4414t9ttvbFbqyhmMq43O&;:65442444iiDDFFFFqt999qyVMyvvvv84%#",
"+O1$11111434iivbcc6eNBg711&#==44424=4199FDDDFFFFppbvFLLbbvvv06%%",
"#&$$34113444ccbbcc6hMh46=1+#$$141434139yDFGDFFFFppbvFIPbzbbv68%%"
};
