/* XPM */
static char *_493780113314[] = {
/* columns rows colors chars-per-pixel */
"32 32 148 2 ",
"   c #382820",
".  c #3E2E26",
"X  c #383020",
"o  c #3C3224",
"O  c #3C3424",
"+  c #403028",
"@  c #413129",
"#  c #44352D",
"$  c #413829",
"%  c #463930",
"&  c #453A32",
"*  c #473A32",
"=  c #483830",
"-  c #483931",
";  c #4A3A32",
":  c #483D30",
">  c #4B3E33",
",  c #493D35",
"<  c #4E3D35",
"1  c #4F3F37",
"2  c #523D34",
"3  c #553F36",
"4  c #584818",
"5  c #604818",
"6  c #4F4237",
"7  c #484038",
"8  c #534037",
"9  c #554534",
"0  c #594A37",
"q  c #504038",
"w  c #52423A",
"e  c #53433B",
"r  c #544139",
"t  c #52443C",
"y  c #56473F",
"u  c #584038",
"i  c #55483B",
"p  c #5D493C",
"a  c #705820",
"s  c #60483F",
"d  c #706028",
"f  c #786828",
"g  c #504840",
"h  c #524941",
"j  c #544941",
"k  c #584840",
"l  c #584941",
"z  c #594E41",
"x  c #5F4D41",
"c  c #5C4F46",
"v  c #5F524A",
"b  c #604840",
"n  c #614C41",
"m  c #634C42",
"M  c #674F44",
"N  c #675447",
"B  c #695245",
"V  c #6D5647",
"C  c #61524A",
"Z  c #67524A",
"A  c #64544C",
"S  c #65564E",
"D  c #6B5749",
"F  c #6F574F",
"G  c #655B4A",
"H  c #6A594F",
"J  c #6E5A4E",
"K  c #705848",
"L  c #685850",
"P  c #6A5950",
"I  c #6A5A50",
"U  c #6C5B50",
"Y  c #705850",
"T  c #735B53",
"R  c #775F57",
"E  c #6F604E",
"W  c #72604F",
"Q  c #77654D",
"!  c #79644F",
"~  c #79674F",
"^  c #686050",
"/  c #736151",
"(  c #766254",
")  c #7A6252",
"_  c #796650",
"`  c #796753",
"'  c #796255",
"]  c #7E6855",
"[  c #7A655A",
"{  c #7C645B",
"}  c #806830",
"|  c #857038",
" . c #87753C",
".. c #907830",
"X. c #806858",
"o. c #816959",
"O. c #826B5D",
"+. c #8D7D57",
"@. c #806860",
"#. c #887060",
"$. c #897161",
"%. c #897162",
"&. c #8C7567",
"*. c #8A7268",
"=. c #8A726A",
"-. c #8B736B",
";. c #8F776D",
":. c #8F7869",
">. c #917A6A",
",. c #90786F",
"<. c #907870",
"1. c #917971",
"2. c #967E71",
"3. c #977E75",
"4. c #908038",
"5. c #958042",
"6. c #938048",
"7. c #968656",
"8. c #A3904E",
"9. c #A29250",
"0. c #A19354",
"q. c #A89050",
"w. c #AA9A50",
"e. c #B0A050",
"r. c #B8A050",
"t. c #B8A55D",
"y. c #9D8577",
"u. c #988078",
"i. c #998179",
"p. c #9C847B",
"a. c #9D857B",
"s. c #9C857C",
"d. c #9E867D",
"f. c #A39565",
"g. c #A89860",
"h. c #A69868",
"j. c #A1887F",
"k. c #B8A860",
"l. c #B8A865",
"z. c #C0B068",
"x. c #C8B868",
"c. c #C0B078",
"v. c #C8C078",
"b. c #D0C078",
"n. c #A18980",
"m. c #A28981",
"M. c #D0C080",
"N. c #D0C880",
/* pixels */
"4.......4.4.4.4.........f f f f  . . .5 4 4 4 4 a a a a } } } } ",
"4.l.l.M.l.l.l.l.t.t.t.t.w.x.x.x.0.0.0.0.q.q.q.q.g.0.g.6.q.8.k.} ",
"4.l.M.M.l.l.M.l.t.t.t.k.x.x.w.w.0.0.0.0.q.q.q.q.6.6. .| | 8.8.} ",
"4.l.l.M.M.M.M.M.c.t.t.k.x.x.x.x.v.0.0.0.q.q.q.q.g.g.6.6.8.k.k.} ",
"..t.t.b.b V V :.7.3.N.h.h.N.:.&.,.1.z.7.r.r.>.>.o._ D b e.e.t...",
"..t.t.t.b B M :.&.u.N.h.f.b.>.u.u.u.z.z.r.r.j.>.%.B m b e.e.t...",
"..t.t.t.N.N.N.b ] u.b.b.N.N.>.u.u.,.l.l.r.r.y.{ s N.N.N.e.e.t...",
"..t.t.t.h.h.N.s [ :.u.u.;.u.u.d.y.y.d.y.y.>.i.( b N.h.h.t.t.t...",
"f w.x.x.f.f.N.8 T &.%.%.:.1.s.s.p.p.<.1.#.#.o.T u N.f.f.x.x.w.f ",
"f x.x.x.N.N.N.8 K *.%.O.1.i.u.j.m.i.i.1.#.#.o.K u N.N.N.x.x.x.f ",
"f x.w.x.v v J D R %.%.O.-.-.d.d.m.m.s.2.#.#.{ J D S C L x.w.x.f ",
"f x.w.x.v I U _ ' %.+.%.{ 1.d.d.j.s.m.s.#.#.O.( _ / I L x.w.x.f ",
" .0.0.v.C L L ~ o.X.o.X.O.*.1.1.,.,.*.@.o.] o.] U L U U v.0.0. .",
" .0.0.0.v v L / ! X.o.o.{ { -.-.*.*.-.{ o.] o.' ! C A ^ 0.0.0. .",
" .0.0.0.l.l.x.w K ) o.) [ [ [ [ { { { { ) o.! K 8 l.x.l.0.0.0. .",
"5 0.0.0.7.x.l.t s ) ) ) [ J / K / ^ L [ ) ) ' V w x.l.7.0.0.0.4 ",
"4 q.q.q.r.r.r.O e U ^ K Y Y F F T Y Y Y ^ / / u X r.r.r.q.q.q.4 ",
"4 q.q.q.r.r.r.# 2 B ( T Y Y K T J K Y Y W / m 8 o r.r.r.q.q.q.4 ",
"4 q.q.q.v v c & 8 p Z D Z Z Z Z Z Z Z Z Z Z b x 6 C v L q.q.q.4 ",
"4 q.q.q.v L g , 8 8 3 m l l k j l l l l m 3 3 t - c Z L q.q.q.4 ",
"a g.+.w.v L , , * # : , e e w i l 8 e 2 , & 6 & * , j U g.6.g.a ",
"a g.6.g.L T h & o @ . : - w w w w t w - , . . # - j j U g.6.g.a ",
"a g.| 6.l.l.l.  . . , & - e t t t e e - & & . #   c.l.c.6.| g.a ",
"a 6.| 6.>.7.c.  @ & , , t e h h y e 8 w 7 & & .   c.+.+.6.| 6.a ",
"f q.5.8.e.e.e.- + 6 y c i h g g h j g i z z 6 . e e.e.e.8...0.} ",
"f 0.8.k.e.e.w.- 6 C b.N.N.N.v v v G l.z.r.r.y t < e.e.e.e.e.q.} ",
"} l.q.k.- : 9 9 0 I N.h.f.N.v G S v z.z.r.r.^ i 0 - - - e.e.t.} ",
"} l.q.k.- # B 9 ^ ^ N.h.f.N.v v v v z.7.r.r.^ G s > - - e.e.k.} ",
"d k.9.z.k.M.M.M.v.t.t.t.x.x.x.x.v.0.0.0.q.q.q.q.g.g.6.6.q.k.k.f ",
"d 9.9.z.l.l.M.l.t.t.t.t.x.x.w.w.0.0.0.0.q.q.q.q.6.6.| | 5.8.q.} ",
"d 9.0.z.l.l.l.l.t.t.t.t.w.x.x.x.0.0.0.0.q.q.q.q.g.g.g.8.8.8.l.} ",
"d 4.4.4.4.4.4...........f f f f  . . .4 4 4 4 4 a a a a } } } } "
};
