/* XPM */
static char *_493780100403[] = {
/* columns rows colors chars-per-pixel */
"32 32 83 1 ",
"  c #382820",
". c #383020",
"X c #403028",
"o c #403828",
"O c #453A32",
"+ c #483830",
"@ c #584818",
"# c #604818",
"$ c #4F4237",
"% c #484038",
"& c #504038",
"* c #52423A",
"= c #584038",
"- c #705820",
"; c #6D5F37",
": c #6F5F3C",
"> c #706028",
", c #786828",
"< c #584840",
"1 c #594E41",
"2 c #594E46",
"3 c #5F524A",
"4 c #604840",
"5 c #614C41",
"6 c #675447",
"7 c #67524A",
"8 c #705848",
"9 c #685850",
"0 c #705850",
"q c #7A6A4A",
"w c #686050",
"e c #706050",
"r c #7A6252",
"t c #786058",
"y c #7A655A",
"u c #7F675A",
"i c #706858",
"p c #806830",
"a c #857038",
"s c #87753C",
"d c #907830",
"f c #806858",
"g c #827153",
"h c #857353",
"j c #8D7D57",
"k c #8A7858",
"l c #8F7C5B",
"z c #806860",
"x c #856E63",
"c c #887060",
"v c #8A7267",
"b c #8A726A",
"n c #907870",
"m c #967E71",
"M c #908038",
"N c #958042",
"B c #938048",
"V c #968656",
"C c #A3904E",
"Z c #A29250",
"A c #A19354",
"S c #A89050",
"D c #AA9A50",
"F c #B0A050",
"G c #B8A050",
"H c #B8A55D",
"J c #988078",
"K c #A39565",
"L c #A89860",
"P c #A69868",
"I c #B8A860",
"U c #B8A865",
"Y c #C0B068",
"T c #C8B868",
"R c #C0B078",
"E c #C8C078",
"W c #D0C078",
"Q c #A48C84",
"! c #A89088",
"~ c #AC948C",
"^ c #B39A91",
"/ c #D0C080",
"( c #D0C880",
/* pixels */
"MMMMdddd,,,,sss#@@@@----pppp>>>>",
"MUUUHHHHDTTTAAAASSSSLALBSSII/SZM",
"MU//44gkxxvvvnnnnnvvvvxxkg14//UM",
"MUU/44gkxvnnnnnmmmnnnnvvkg44/UUM",
"dHHW44klvnnmmJJQQJmmmnnvlk44EHHd",
"dHHH444lmmmQQ!!~~~!!QQJml444HHHd",
"dHHH(((4mJQQ~~^^^^~~QQmm4(((HHHd",
"dHHHPP(4vJQ~~^^^^^^~~Qmv4(PPHHHd",
",DTTKK(4tmQQ~~~^^^~~QJmt4(PPTTD,",
",TTT(((=0mmJQQQQ~~QQQmm0=(((TTT,",
",TDT====ucmmJJJJQJJJmmcf====TDT,",
",TDT===hcccnnnJJJJJncccch===TDT,",
"sAAE&&qqfcccnnnnnnnbcccfqq$$TAAh",
"sAAA&&&qrfccbbbbbbbbccfrq&$$AACs",
"sAAAYYY&8fffbzzzzzzzfff8&YYYAAAs",
"#AAAVYY&8rffyyyyyyyuffr8&YYVAAA#",
"@SSSGGH.=rfrtyyyyyyyrfr=.GGGSSS@",
"@SSSGGG.=errwteeeeeyrre=.GGGSSS@",
"@SSS ...=6ee00000000ee6=....SSS@",
"@SSS....=5ee00000000ee5=....SSS@",
"-LBL    O=667777777777=O    LBL-",
"-LBL .  XO=5<<<<<<<<5=OX    LBL-",
"-DsjURR XXO%***<<***%OXX RRRjaL-",
"-NaNjlR XXXO+***&&*+OXXX RjjNsB-",
"pAjCGFFoXOOO+******+OOOX+FFFCNCp",
"pSCIFFG+X$O%***<<**&%O$o+FFGHCCp",
"pICI+++;$$1122<<<<2211$$;+++ICHp",
"pUCI+++:1111222222221111:+++ICIp",
">ZZYoo;;ww113237732311ww;;ooYCC>",
">ZZYoo;;iwww33399333wwwi;;ooYAA>",
">ZAWHHCCBLLLZSSSAAAATTTDHHHHUUI>",
">>>>pppp----@@@@@sss,,,,ddddMMMM"
};
