/* XPM */
static char *_493778994383[] = {
/* columns rows colors chars-per-pixel */
"32 32 39 1 ",
"  c #A07020",
". c #A87020",
"X c #A87828",
"o c #B08028",
"O c #B08828",
"+ c #B08030",
"@ c #B08830",
"# c #B09030",
"$ c #B89030",
"% c #B89038",
"& c #B89838",
"* c #B89040",
"= c #B89840",
"- c #B89048",
"; c #C09840",
": c #C0A040",
"> c #C0A048",
", c #C8A048",
"< c #C0A050",
"1 c #C8A050",
"2 c #C8A850",
"3 c #C0A058",
"4 c #C8A058",
"5 c #C8A858",
"6 c #C8B058",
"7 c #C8B060",
"8 c #C8B068",
"9 c #D0B060",
"0 c #D0B868",
"q c #D8B868",
"w c #D0B070",
"e c #D8B870",
"r c #D8C070",
"t c #D8C078",
"y c #D8C878",
"u c #D8C080",
"i c #D8C880",
"p c #E0C880",
"a c #E8D098",
/* pixels */
"rrrrrrrr0000999999990000rrrrrrrr",
"rrr62222<<<==>>>>>>==<<<22226rrr",
"r66<====OOOO##====##OOOO====<66r",
"6<==ooooOOOO########OOOOoooo==<6",
"e4-+    ooo$%======%$ooo    +-4e",
"e4-+XX XoooO========OoooX XX+-4e",
"e4--@@@@OOO$%>>>>>>%$OOO@@@@--4e",
"e4-+@@@@OO$$>=>>>>=>$$OO@@@@+-4e",
"i833:@@:%%%;;;;>>;;;;%%%:@@:338i",
"i8**@@::,;,,>>>22>>>,,;,::@@**8i",
"83**.oo@%%%;>>>22>>>;%%%@oo.**38",
"i83*::::%%%;>>2222>>;%%%::::*38i",
"q1=@@%%%%%&:>555555>:&%%%%%@@=1q",
"qq1=%%%%&&&:>>5555>>:&&&%%%%=1qq",
"111@@@%%&&&&;;>>>>;;&&&&%%@@@111",
"q1@@oo@@%&&:>555555>:&&%@@oo@@1q",
"99>#O@@#===>25999952>===#@@O#>99",
"99##@O@@&&>>25599552>>&&@@O@##99",
">=####===>>5599999955>>===####=>",
"9>=#@@#==>>5599999955>>==#@@#=>9",
"7>##@%;;==>2555995552>==;;%@##>7",
"p>##@@;;>>229999999922>>;;@@##>p",
"77>#%%%;===>55999955>===;%%%#>77",
"p>##@%;;>>2><559955<>2>>;;%@##>p",
"tt7>%==>>>&>>222222>>&>>>==%>7tt",
"t7>>>==>&>&>22>22>22>&>&>==>>>7t",
"tt5>=%%%&&>>2>2222>2>>&&%%%=>5tt",
"tt5>=%%%#&&&;;>>>>;;&&&#%%%=>5tt",
"uw55%%%%OOOO========OOOO%%%%55wu",
"aauu77<<=======<<=======<<77uuaa",
"aaauyy77e111<777777<111e77yyuaaa",
"aaaayyyyeeeetttttttteeeeyyyyaaaa"
};
