/* XPM */
static char *_493779010637[] = {
/* columns rows colors chars-per-pixel */
"32 32 22 1 ",
"  c #CEBD63",
". c #D6B57B",
"X c #E7E74A",
"o c #DED66B",
"O c #DEC67B",
"+ c #C6D673",
"@ c #DEDE73",
"# c #D6D67B",
"$ c #E7CE73",
"% c #E7DB73",
"& c #E7DE73",
"* c #E2DB75",
"= c #E7E773",
"- c #E7CE94",
"; c #E7DE9C",
": c #EFDE9C",
"> c #E8E28D",
", c #EFE794",
"< c #F7EF9C",
"1 c #E7DEB5",
"2 c #FFF7B5",
"3 c #FFF7BD",
/* pixels */
"&&&&:::-&&&&&.&&&&&&&.&&&&&%&&&2",
"&&.&::::&&&&+&&&&&&&&&&&&2%&&&&&",
"&&&&2:::2&&2&&&&&&&@&.&%<&&<& &&",
"&$& ::.:&&&&&O&&&+&&&&&&&.&&&&&&",
"&&2&&&&&%&&&,,2+,,2,*&&&,,,,&&&&",
"&&&&&&2@&2&&,,,,,,,,2&&&,,,,&&& ",
"&&X<&&&&&&.&, , ,,,,&&&&,2,,&&&&",
"&&&1&&+&&&&&,,,,, ,,&&&& ,,,$&&&",
"&&&2&&&&&&&&&&&&&&&&.&&&&&&&&&&&",
"&&.&&&&&&&&+&&&&&&&&&&&&& &&&.&&",
"&&&&&& &&&&&&&&&&+&&&&&&&&&&&&&&",
"&&&$2&&&&&&&&&&#&&&&&O&&+&&&XX&&",
"&&&%&&&&&&&&.:::2&&&&&&&&&2&&&&&",
"&.&&&&&&&O&&::::&&&&&X2&&&XX2&& ",
"&&&&+&&&& &.::::&&&&&&&&&&&&&&&&",
"&&&&&&#&&&&&:2::&&&&&&&&&&&&&&&&",
"&&&&&&&&&&&&&&&&::2:&&&&&*&&&&&&",
"&&&&&&&&&&&&&&&&:+::.& &&&&+&&&&",
" &&2XX&&&2X&&&&&::::&&O&&&&&&& &",
"&&&&&2&&&&&&&&&2:::.&&&&&&&&$&&&",
"&&XX&&&+&&3&&&&&*&&&@&&&&&&2%&&&",
"&&&&&&&&&&&&&&.&&&&&&&&&& &&&&&&",
"&&.&@& &&&&&&&&&&&&&.&&&&&&&&.&&",
"&&&&&&&&&&&.&&&&&&&&&&&&&&&&2&&&",
"o&&%,,, &&&&,, ,,,,,&&&&&+&&1===",
"&&&&,,2,&&&&,;,, , ,&.&&&&&&<X==",
".&&&,>,,&&&2,,,1,,,,&&2&&2&&====",
"&&&&,,,,&&&#,2,,,2,,&&&$&&&&=2==",
"&&&&&&.&&&&&&&+&&&O&&&&&:.:: &%o",
"&& &<&&<$&.&&&&&&&&&2&&2:::2&&&&",
"&&&&&$2&&&&&&&&&&&&+&&&&: ::&.&&",
"2&&&$&&&&&.&&&&&&&.&&&&&-:::&&o&"
};
