/* XPM */
static char *_493779026847[] = {
/* columns rows colors chars-per-pixel */
"32 32 116 2 ",
"   c #70A838",
".  c #78B038",
"X  c #78A840",
"o  c #78B040",
"O  c #78B840",
"+  c #78B048",
"@  c #80B038",
"#  c #80B838",
"$  c #90B038",
"%  c #88C038",
"&  c #90C038",
"*  c #90C838",
"=  c #98C838",
"-  c #80A840",
";  c #80B040",
":  c #88B040",
">  c #80B840",
",  c #88B840",
"<  c #80B048",
"1  c #88B048",
"2  c #88B848",
"3  c #90B848",
"4  c #88B850",
"5  c #90B850",
"6  c #98B858",
"7  c #88C040",
"8  c #88C048",
"9  c #90C040",
"0  c #90C840",
"q  c #98C840",
"w  c #90C048",
"e  c #98C048",
"r  c #90C848",
"t  c #98C848",
"y  c #98D048",
"u  c #98D848",
"i  c #88C050",
"p  c #90C050",
"a  c #98C050",
"s  c #90C850",
"d  c #98C850",
"f  c #98C058",
"g  c #98C858",
"h  c #98D050",
"j  c #90D850",
"k  c #98D850",
"l  c #98D058",
"z  c #A0C840",
"x  c #A0C848",
"c  c #A0D040",
"v  c #A8D040",
"b  c #A0D048",
"n  c #A8D048",
"m  c #A0D848",
"M  c #B0D848",
"N  c #A0C850",
"B  c #A0C858",
"V  c #A0D050",
"C  c #A0D850",
"Z  c #A8D850",
"A  c #A0D058",
"S  c #A8D058",
"D  c #A0D858",
"F  c #A8D858",
"G  c #B0D058",
"H  c #B0D858",
"J  c #B8D858",
"K  c #A8E048",
"L  c #A8E848",
"P  c #B8E040",
"I  c #B0E048",
"U  c #B8E048",
"Y  c #A0E050",
"T  c #A8E050",
"R  c #A8E850",
"E  c #A8E058",
"W  c #A0E858",
"Q  c #B0E050",
"!  c #B8E050",
"~  c #B0E850",
"^  c #B0E058",
"/  c #B8E058",
"(  c #B0E858",
")  c #B8E858",
"_  c #B0F050",
"`  c #B8F058",
"'  c #B0C860",
"]  c #A8D860",
"[  c #A8D068",
"{  c #A8E060",
"}  c #A8E068",
"|  c #A8E868",
" . c #B0E060",
".. c #B0E860",
"X. c #B8E860",
"o. c #B0E868",
"O. c #B8F060",
"+. c #B8F078",
"@. c #C0E848",
"#. c #C0E858",
"$. c #C8F050",
"%. c #C0F058",
"&. c #C8F058",
"*. c #C0F858",
"=. c #C0D068",
"-. c #C0E860",
";. c #C0E068",
":. c #C0F860",
">. c #C0F068",
",. c #C8F068",
"<. c #D8F860",
"1. c #D8F868",
"2. c #C0E878",
"3. c #D8E878",
"4. c #C8F870",
"5. c #C0E880",
/* pixels */
"T T T T L L y y %.M I I m m q q 7 7 u u R u R R b t w b m m K m ",
"b T >.T m y y m %.I %.M m & m q 7 7 7 u R R u R t w b I ~ ~ K K ",
"b T b * t t L L %.%.%.%.q q & & 7 7 7 7 0 u u 0 w t t I K ~ m K ",
"b T * * t t y L I %.v v m ( ( q > X > 7 7 7 7 0 t b b I K K K ~ ",
") Z t t x $ x x c = = Z E E E E f < < < 2 d C O.P P P P ^ ` ^ ^ ",
") ) Z b ^ x x x c c q Z t t E t f f f f d d O.O.$.$.$.$.^ ^ ` ^ ",
") ) Z ) ^ ^ ^ ^ c Z c Z E t : t [ [ [ 5.d 2 O.O.$.@.$.$.` ` ` ` ",
"b Z Z ) ^ ^ ^ x c c c Z E t t t [ 5.[ < 2 d O.O.@.@.P @.^ S ^ ` ",
"k Q Q Q / / / / Q Q Q Q V V  .d 7 7 7 7 9 b b *.&.U U U x w w ^ ",
"k Q #.#./ ,.b b r r r b d V w w # 7 7 7 b b 9 K &.&.&.U x : : w ",
"Q #.<.<.,.,./ Z Q Q Q Q V w w w 7 t 7 # 9 9 9 b n &.&.z ^ x x ^ ",
"#.Q #.Q / ,./ / Q b Q Q  .d d  .t t # 7 b 9 9 b z z z z x x ^ ^ ",
"~ Y u ~ ) ) ) b ! c ! % l l | | A ] A ] V d d V t t ...._ _ _ _ ",
":.Y ~ :.) ) b , c % % % : : l l o.] o.o.V V V V V C ...._ _ _ _ ",
"u :.~ ~ ) ) t , % c c c l w l | ] ] o.] p ^ ^ ^ t ..C ..Y _ _ _ ",
"u :.:.~ ) t t b c ! c c l | | | A ] ] B p ^ ^ ^ V C C C _ _ Y h ",
"] +.+.] G ;.G V E E E E } } } g d  . .8 i A A  .{ { s { V V w w ",
"w ] w l ;.;.;.t E E E C g } } } d d 8 8  .A  . .{ { { {  . .d w ",
"w l ] +.;.;.t V C V C V 8 8 ; 8 o o 8 8 s  . . .s X { {  .w d d ",
"l w l l t t V ;.E V C C 8 8 g 8 d d d 8 i s  .i X 2 s { w d V  .",
"h h 2 2 2 N ,.H =.' 3.6 4 V V V F F 2 2     7 O 8 8 8 8 d d X.X.",
"E E h w N H H ,.3.3.' 6 4 a a a s s s +     7 7 8 8 8 r d Z X.X.",
"E E E w H H ,.,.3.3.=.' a 4 a a 2 2 + + k k k 7 8 8 r W Z Z X.X.",
"E h w w H ,.,.,.3.3.3.=.a V / / F F F F k k k k W W j j Z w Z X.",
"7 r ( ( ] ] 2.2.>.F F F J -./ -.%.%.%.R C C C C F 4.....Y Y w r ",
"( ( ( ( N 9 9 N F F B F J / / -.1.1.%.R C C C C h ....F Y Y w 1 ",
"( ( ( ( N ] N N 5 5 5 >.-./ J -.%.%.%.R C C r r h ....4.Y Y w 1 ",
"( m m m N ] 9 ] 5 5 B 5 J J / / ) %.%.R C r r > h ......Y Y Y 1 ",
"b b b b d d d d e e - e 9 b ^ ^ ` ` ` ` ( m m y 7  . . .D D r , ",
": : w b d d d d e e 3 e b 9 9 9 0 0 0 K m ( m 0 . . 7 d , @ , r ",
"b b ( (  .d w w 3 3 H H ^ ^ t t 0 0 0 K ( ( ( m d 7 . . @ r D r ",
"b b ( (  . .; ; e H H H ^ ^ t 9 ` ` K K ( ( ( ( d 7 7 d r r r r "
};
