/* XPM */
static char *_493780142142[] = {
/* columns rows colors chars-per-pixel */
"32 32 156 2 ",
"   c #4880A8",
".  c #5088A8",
"X  c #5088B0",
"o  c #5090B0",
"O  c #5898B0",
"+  c #5090B8",
"@  c #5898B8",
"#  c #6898B8",
"$  c #60A0B8",
"%  c #70B0B8",
"&  c #60A0C0",
"*  c #68A0C0",
"=  c #68A8C0",
"-  c #78A0C0",
";  c #70A8C0",
":  c #78A8C0",
">  c #70A8C8",
",  c #70B0C0",
"<  c #70B0C8",
"1  c #78B0C8",
"2  c #68B8D0",
"3  c #78B8D0",
"4  c #68C0D8",
"5  c #78C0D0",
"6  c #78C0D8",
"7  c #78C8D8",
"8  c #78E8D8",
"9  c #50C8E0",
"0  c #58D0E0",
"q  c #50D0F8",
"w  c #58D8F8",
"e  c #60D8E0",
"r  c #68D8E0",
"t  c #60D8E8",
"y  c #70D0E0",
"u  c #78D0E0",
"i  c #70D8E0",
"p  c #78D8E0",
"a  c #78D8E8",
"s  c #60D0F0",
"d  c #68D8F0",
"f  c #68E0E0",
"g  c #68E0E8",
"h  c #78E0E0",
"j  c #70E8E0",
"k  c #78E8E0",
"l  c #78E0E8",
"z  c #70E8E8",
"x  c #78E8E8",
"c  c #78F0E0",
"v  c #78F0E8",
"b  c #68E0F8",
"n  c #70E0F0",
"m  c #78F0F0",
"M  c #78F0F8",
"N  c #889098",
"B  c #889898",
"V  c #8898A0",
"C  c #9098A0",
"Z  c #90A0A0",
"A  c #90A0A8",
"S  c #98A0A8",
"D  c #98A8A8",
"F  c #98A8B0",
"G  c #A0B0B0",
"H  c #A8B8B8",
"J  c #88B0C8",
"K  c #90B8C8",
"L  c #80B0D0",
"P  c #98B8D0",
"I  c #A8B8C0",
"U  c #80C0C8",
"Y  c #80C0D0",
"T  c #88C0D0",
"R  c #80C0D8",
"E  c #80C8D8",
"W  c #88C8D8",
"Q  c #90C0D0",
"!  c #98C0D0",
"~  c #80D0D8",
"^  c #88D0D8",
"/  c #A8C0C0",
"(  c #B0C0C0",
")  c #B0C0C8",
"_  c #B0C8C8",
"`  c #B8C8C8",
"'  c #B8C8D0",
"]  c #B0C8D8",
"[  c #A8D0D8",
"{  c #A0D8D8",
"}  c #B8D0D0",
"|  c #80E8D8",
" . c #88E8D8",
".. c #90E8D8",
"X. c #80F0D8",
"o. c #88F0D8",
"O. c #88F8D8",
"+. c #90F8D8",
"@. c #98C8E0",
"#. c #80D0E0",
"$. c #88D8E0",
"%. c #80D8E8",
"&. c #90D0E0",
"*. c #90D8E0",
"=. c #A0C8E0",
"-. c #A0D0E0",
";. c #A0D8E0",
":. c #B0D0E0",
">. c #B8D8E0",
",. c #80E0E8",
"<. c #80E8E8",
"1. c #88E8E8",
"2. c #90E0E0",
"3. c #98E0E0",
"4. c #90E8E0",
"5. c #90E8E8",
"6. c #98E8E8",
"7. c #80F8E0",
"8. c #88F8E0",
"9. c #80F0E8",
"0. c #88F0E8",
"q. c #98F0E8",
"w. c #80E8F0",
"e. c #88E8F0",
"r. c #90E8F0",
"t. c #80F0F0",
"y. c #88F0F0",
"u. c #80F0F8",
"i. c #80F8F8",
"p. c #90F0F0",
"a. c #98F0F0",
"s. c #90F8F8",
"d. c #A0E0E0",
"f. c #A0E8E0",
"g. c #A0E8E8",
"h. c #A0F0E8",
"j. c #A8E8F0",
"k. c #A0F0F0",
"l. c #A8F0F0",
"z. c #A0F8F8",
"x. c #A8F8F8",
"c. c #B0F8F0",
"v. c #C0D0D0",
"b. c #C0D8D0",
"n. c #C0D8D8",
"m. c #C8D8D8",
"M. c #C0D8E0",
"N. c #C8E0E0",
"B. c #C8E0E8",
"V. c #D0E0E0",
"C. c #D0E8E0",
"Z. c #D0E8E8",
"A. c #D8E8E8",
"S. c #E0E8E8",
"D. c #E0F0F0",
"F. c #F0F8F8",
/* pixels */
"F A A A N N N N V V V V S C C C D B B Z A A F V B B B B V V V V ",
"A F F A Z Z Z Z F A A A S S C S D Z Z Z A A I F D Z Z Z F A A A ",
"G ( ( G F / F F F F F F F I F F D D D D F F F F D H D D F F F F ",
"( ( ( ( / / / / I I I I I I I I H H H H I I I I H H H H F F I I ",
"( ( ( ` _ _ _ _ ` ` ` ` ( ( ( ( ) ) ) ) ) ' ' ' ` ( ( ( H H ( ( ",
"( ` ` v.} } } } v.v.v.v.` ` ` ` ' ' ' ' } } } } v.v.` ` ( ` ` ` ",
"v.v.v.v.} } } n.n.n.n.n.b.b.b.b.m.m.m.m.N.N.N.N.V.v.v.v.` ` m.m.",
"V.V.V.V.n._ } n.Z.Z.Z.Z.C.C.C.C.A.A.m.' } N.N.N.V.V.V.V.m.m.m.m.",
"S.S.S.S.:.J J :.Z.Z.Z.Z.B.D.D.D.B.B.! ! P B.B.B.D.D.D.M.A.A.A.D.",
"S.S.S.] J     # ! Z.Z.Z.D.D.D.D.B.! o o : : P B.D.D.D.D.F.F.D.D.",
"S.S.] * #       - ! Z.Z.B.B.B.B.! : o o X X : P M.D.D.D.D.D.A.A.",
"S.] K * # #       - ! ! -.>.-.-.: o o o X X X : Q [ M.M.Z.Z.Z.Z.",
"T T 1 * > > > > + + + 3 W W , , & & & & > X X X * 1 @.@.=.=.=.L ",
"1 1 1 1 Y &.&.Y = + + + , , , , 3 3 ^ ^ R R > X o * 1 1 ; @ @ @ ",
"1 1 T T &.&.&.&.3 = + + $ $ $ , ^ ^ l.l.j.j.R > o o * * @ @ @ @ ",
"1 T T ;.j.j.j.j.&.3 = = $ . . , ^ ^ l.l.j.j.j.R * * 1 1 ; @ @ ; ",
"6 6 *.k.c.c.c.c.6.E E E % O O % #.5.z.z.x.x.x.g.5 2 2 2 < < < < ",
"6 #.*.k.c.c.c.c.6.^ ^ ^ U U U U #.5.z.z.x.x.x.k.3.5 2 2 5 5 5 < ",
"#.*.k.k.c.r.a.a.6.$.$.$.{ { U U #.5.z.z.x.x.x.k.3.5 2 5 u u u u ",
"*.k.k.k.r.w.w.a.6.$.$.6.{ { U % #.5.z.z.x.x.x.g.~ 5 2 ~ e.e.e.u ",
"p.p.k.k.u.d d u.M w.5.5.g.$.7 4 y 9.9.9.0.0.0.2.e 9 9 e w.i.i.t.",
"s.s.k.k.n s d u.M w.w.5.g.$.7 4 i 9.9.9.0.0.4.2.e 0 0 e t.i.i.i.",
"p.s.s.k.n s d u.M w.w.5.g.g.$.7 h 9.9.9.0.0.4.2.e e e z t.i.i.t.",
"p.s.k.k.n s d u.M w.w.5.g.$.$.7 9.9.9.h 4.4.d.d.e e e z t.i.t.t.",
"u.p.k.k.b q b M m m <.5.%.%.%.a c c c j |  .f.f.k r t k 0.O.0.0.",
"u.p.k.k.M w b M m m <.5.l %.a l c 7.c j |  ...f.k f t k O.O.O.O.",
"y.y.k.k.M w M M m m <.5.l %.a x c 7.c j |  .f.f.k f f k O.O.O.O.",
"y.p.k.k.b b M M m m <.5.l a a x c 7.c j |  .f.f.k f f k o.O.O.O.",
"p.p.k.k.l l v v v v v 1.h a p k X.X.X.k 8 | h.4.<.l g <.O.O.+.+.",
"p.a.k.a.l l x v v v v <.h a p h X.X.X.8 8 4.h.h.q.<.g <.O.O.O.O.",
"p.k.k.p.,.l x v v v v <.h a p h X.X.X.X.| 4.h.h.q.<.<.q.8.O.O.O.",
"p.k.k.p.l l x v v v v x h p p h X.X.X.X.| h.h.h.q.<.<.q.8.8.8.8."
};
