/* XPM */
static char *_493780132357[] = {
/* columns rows colors chars-per-pixel */
"32 32 119 2 ",
"   c #483818",
".  c #386010",
"X  c #386018",
"o  c #504018",
"O  c #505018",
"+  c #604818",
"@  c #406818",
"#  c #407018",
"$  c #487018",
"%  c #487818",
"&  c #507818",
"*  c #504020",
"=  c #504820",
"-  c #584820",
";  c #585020",
":  c #505820",
">  c #604820",
",  c #605020",
"<  c #605820",
"1  c #685820",
"2  c #605028",
"3  c #685828",
"4  c #486820",
"5  c #506820",
"6  c #586820",
"7  c #487020",
"8  c #487820",
"9  c #507820",
"0  c #686828",
"q  c #706028",
"w  c #786028",
"e  c #706828",
"r  c #786828",
"t  c #607020",
"y  c #607820",
"u  c #686830",
"i  c #706030",
"p  c #786830",
"a  c #786838",
"s  c #806830",
"d  c #807030",
"f  c #887030",
"g  c #807830",
"h  c #807038",
"j  c #887838",
"k  c #907838",
"l  c #887840",
"z  c #588018",
"x  c #508020",
"c  c #588020",
"v  c #588820",
"b  c #588028",
"n  c #588828",
"m  c #608820",
"M  c #688028",
"N  c #689820",
"B  c #609028",
"V  c #689028",
"C  c #689828",
"Z  c #709028",
"A  c #688030",
"S  c #689830",
"D  c #709030",
"F  c #709830",
"G  c #78A028",
"H  c #70A030",
"J  c #78A830",
"K  c #888038",
"L  c #908038",
"P  c #80B828",
"I  c #80B038",
"U  c #88B838",
"Y  c #908040",
"T  c #988040",
"R  c #908840",
"E  c #988840",
"W  c #988848",
"Q  c #989040",
"!  c #A08848",
"~  c #A09048",
"^  c #A89848",
"/  c #B09848",
"(  c #A09050",
")  c #A89850",
"_  c #B09850",
"`  c #B0A050",
"'  c #B8A050",
"]  c #B0A058",
"[  c #B8A858",
"{  c #B0A060",
"}  c #B8A860",
"|  c #B8A868",
" . c #B8B060",
".. c #B8B068",
"X. c #C0A858",
"o. c #C0B058",
"O. c #C0B060",
"+. c #C8B860",
"@. c #C0B068",
"#. c #C8B868",
"$. c #C8B870",
"%. c #C0B878",
"&. c #C8B878",
"*. c #D0C068",
"=. c #D8C868",
"-. c #C8C070",
";. c #D0C070",
":. c #D8C070",
">. c #D8C870",
",. c #D0C078",
"<. c #D8C078",
"1. c #D8C878",
"2. c #C8C080",
"3. c #D0C880",
"4. c #D8C880",
"5. c #D8C888",
"6. c #D8D088",
"7. c #D8D090",
"8. c #D8D098",
/* pixels */
"n n S S B B B B v H H H S x 7 X 8 b b b # B B B B B B B v v H H ",
"S 9 n n B B x @ . H H H x x x x $ # 8 8 9 B B B 9 9 9 B v v v H ",
"S n n n B B B $ . % v v X x x x $ 8 b b 9 B B 9 9 9 # 9 v v 9 v ",
"S n 7 9 x x $ x . . . . X 7 7 7 # $ b 8 X # 9 9 # # X X v 9 @ 9 ",
"z @ @ z Z Z Z t 6 y 6 6 X X & m V 4 4 4 t t M t 5 c c c D A u u ",
"N N N N Z U U t 6 y C C & & m G V b b V F t F F 5 : 5 c J J D D ",
"P P P N t t t O 6 6 C C G G G m b b V I F M t < : : * : A J J J ",
"N N N z t O O O ; ; ; y m G G G V V V b t M < < * * * * u u D D ",
"Y Y Y h , , ,   = = , q 0 0 g g e e e e 2 2 2 2 - -   - 3 p ( ( ",
"~ ~ Y h i ,     = , q q R g R R e e e e 2 q q 2 3 -   - 3 p ( ( ",
"[ [ ~ h i ,     = q q f R g g g K K e e q q p 2 - - o   3 l ( ( ",
"[ [ [ h Y i ,   , f f f g R R ` [ [ Q K L q p p 3 3 -   p l l ( ",
"] E ] E E d , , 3 j j W ] } -.-.o.$.$.o.{ j j j 3 3 3 o h W ` *.",
"@.] ] E E E q , 3 W W O.-. .-.-.$.2.8.8.{ j ( j a 3 - 3 W ` *.*.",
"4.4.] E E E q , 3 j W O.-.-.-.-.2.2.8.8.&.( ( j a 3 o a W ` *.*.",
"4.4.@.] E E d , 3 W W O. .-.-.-.2.2.8.8.&.{ { j a - - a W ` *.*.",
"4.$.$.@.~ ~ r , s Y [ [ #.#.#.*.5.5.5.5.} ) ) Y k + + k ) %.%.7.",
"4.4.$.} ~ ~ j , s Y [ [ #.#.>.>.,.,.5.5.} ) ) ) k + r ` ) %.7.7.",
"4.4.4.} ~ ~ ~ , s Y [ [ >.>.*.*.+.+.5.5.} } } ) r r k ` ) %.7.7.",
"4.4.4.@.j ~ ~ , > Y [ [ #.*.#.*.#.#.5.5.} } } W r r ` ` | 7.7.7.",
">.$.>.>.Y ( ( q 1 ] ] ] } $.$.$.&.&.7.7.' ' ' d - j ) ) ` >.>.>.",
">.>.;.;.( Y Y Y 1 Y ] ] ] $.4.4.7.7.7.7.' ' T d i ) ) ) [ >.>.>.",
">.;.;.$.#.Y Y Y 1 Y ] ] ] 4.4.4.7.7.7...' ' T d j ) ) ) +.>.>.>.",
"$.;.;.>.#.Y ( Y d Y ] ] ] 4.$.4.&.7.7.] ' ' T 3 i ) ) ) [ +.+.+.",
":.:.6.6.=.` ~ ~ Y ~ ` +.[ O.1.1.3.3.3.] [ [ ~ p w E ` ` $.$.$.$.",
"1.1.6.6.o.` ` ` Y ` ` ` O.[ O.1.3.3.3...[ [ ~ p E ` ` ` $.$.;.>.",
":.1.1.6.=.o.` ` Y ~ ` +.[ O.O.O.3.3.3...[ L ~ p E ` ` ` ;.;.;.;.",
"<.:.<.1.o.o.o.` Y ~ ` +.#.O.O.[ ] 3.] ~ [ ~ [ L E ` E ` $.;.$.$.",
"5.:.5.5.&.^ } ] E E ] 5.;.*.*.*.$.$.$./ ^ ^ ^ Y _ _ ` ` :.<.:.4.",
"8.8.8.5.&.] } ^ ] E ] 5.7.7.7.7.7.7.7.$.^ X.! Y _ ` _ } 4.7.7.7.",
"8.8.8.5.&.} ] ^ ] E ] @.;.3.7.7.7.7.7.7.X.X.! Y / ` ` } 4.7.7.7.",
"5.5.5.5.} ] ] ] ] E ] @.*.3.3.3.7.7.7.7.X.^ ! Y ` } ` } :.4.4.4."
};
