/* XPM */
static char *_493779037843[] = {
/* columns rows colors chars-per-pixel */
"32 32 19 1 ",
"  c #5A4A31",
". c #635242",
"X c #735A42",
"o c #73634A",
"O c #7B6B4A",
"+ c #7B6B52",
"@ c #846B52",
"# c #847352",
"$ c #84735A",
"% c #8C735A",
"& c #8C7B63",
"* c #948463",
"= c #94846B",
"- c #948473",
"; c #9C8C73",
": c #A5947B",
"> c #AD9484",
", c #AD9C8C",
"< c #BDAD9C",
/* pixels */
"-%%%$$$+$$$=$$$$$$$$&&&;$$$$#*O#",
"XX%%$$$XX=$$;$$;;$$$&&&X$$$$##X#",
"%%--$$+X$$$$$$ o$$$$&&&&;;$$X###",
"&&&&&&&@%%%%$$$$&&&&%%%%:&+&%%<%",
",-&&&&;&%%%%$;$$;@@;%%%;..+&%%>;",
"&o&&&&&&,%X%$O$$@X@&%%%%&+&&%%%%",
"$$$&&&&%%%%:$$$;&&&&%%%%&+++;%%%",
";$$;@@;%%%;.&&&&;$$$-%,%X&@@&oo&",
"$$$$$$$=$$$+&@X@$$O$%X%,&&&&&&o&",
"$$;;$$;$$=XX;@@;$$;$%%%%&;&&&&-,",
"$$$o $$$$$$X&&&&$$$$%%%%@&&&&&&&",
"&&&$$$$%%%%@$$$$o $$$$$$X+$$--%%",
"@@;$$;$%%%%&$$$;;$$;$$=XX$$$%%XX",
"@X@$$O$%X%,&$$$$$$$$=$$$+$$$%%%-",
"&&&;$$$-%,%X$$$$$$$$=$$$%&$$$;;$",
"$$;&&&&%%%%&$$$;;$$;$$=X,&$$$$$$",
"O$$@X@&%%%%&$$$$o $$$$$$%X$$$$$$",
";$$;@@;%%%;.&&&&$$$$%%%%%&$$$;;$",
"$$$&&&&%%%%:;@@;$$;$%%%%%&$$$$o ",
"$ o$$$$&&&&$$$$%%%%@$&&;;.&&&&$$",
"$$;;$$$&&&X$$;$%%%%&$&&X%:;@@;$$",
"%%--$$+X$$$$$O$%X%,&$&&&&;$$$$$$",
"&&&&&&&@%%%;$$$-%,%X$%%%X$;$$;;$",
",-&&&&;&%%%&&&&%%%%&$%%;$$$$ o$$",
"&o&&&&&&,%X@X@&%%%%&$%%%&+&&%%%%",
"&oo&@@&X%,%;@@;%%%;.&%%%&+++;%%%",
"%%%;+++&%%%&&&&%%%%:;%,%X&@@&oo&",
"%%%%&&+&%%%$$$$&&&&;$X%,&&&&&&o&",
";>%%&+..;%%;$$$&&&X$;%%%&;&&&&-,",
"%<%%&+&:%%%-$$+X$$$$$%%%@&&&&&&&",
"###X$$;;&&&&&&&@%%%%$$$$X+$$--%%",
"#X##$$$$X&&&&&;&%%%%$$=XX$$$%%XX"
};
