/* XPM */
static char *_493779149111[] = {
/* columns rows colors chars-per-pixel */
"32 32 28 1 ",
"  c #A4771D",
". c #A87A1D",
"X c #AA7B1D",
"o c #B0801F",
"O c #B78520",
"+ c #B98620",
"@ c #C38D22",
"# c #C89123",
"$ c #CD9524",
"% c #D29825",
"& c #D49A25",
"* c #D79C26",
"= c #D99E28",
"- c #D99F2C",
"; c #DAA12F",
": c #DBA334",
"> c #DBA538",
", c #DCA63B",
"< c #DDA83E",
"1 c #DEAA43",
"2 c #DFAD4A",
"3 c #DFAF4E",
"4 c #E0B04F",
"5 c #E0B051",
"6 c #E2B55B",
"7 c #E2B65D",
"8 c #E4BC6B",
"9 c #E6C073",
/* pixels */
">>>>===O+#;#OO..#$*>:***@**>=#=,",
">>>>====#++#OOOO#**>*::*@##*#=,,",
">>>>==@O+##;&&1O#**>::*#@@>*#=,,",
">:2:==@O++#41&&1$*##::##@@@#@===",
"====#::+=O==111@@@;;:###########",
"###=:::+====1&&@@@;@:#*##:::#++&",
"##+#:::#=OOO&OOO..+O:***::#:1&##",
"=#OO+@@+O OO11&@+O;@***::4941#&&",
"==$><%%O@@@&****@+2;#**:6==1;5>>",
"====%@<O@@@&:5**@@;;:*:*611=;>>>",
">>==%@O@&&@&::::2@@2::**=61:>>>>",
">>==@@<O@::::*::2@++#**:6:=:>>>;",
">>>**@@O:11:6:%:33..&1&@#=#=:::-",
">>>>**@*11::::66@@XXOOO@+###--::",
"**@@@O@@117:66::&&X@OOO@O###-77-",
"@@@@@OO@**176OOO&44&&@@&#OOO-177",
"##%:4::X#%oX..@@@&&&:&=*=@$o@o@6",
"#==;:::#XoXX.@@-@@&&::6*=@ooo*oo",
"==,>::::oo.:-@6@@@&&&:::oo+=;%**",
"%=:,:::4;X.@66:6&@@66:6:+#;=%;%&",
"#*::::::=*X$==%%####=++O##=5=--$",
"$**,::::o$#*:4*:;=#++..+##===---",
"$**::::X=oX$*:*:=--#+..O###=----",
"$**,:::X*#X@:4*:;---=+.O#=#=--$$",
"##@=@;o##o@o@&8;::::8&++6+&&#X+#",
"##@@:;;oo&*@&&:::::=8,+++;;;.+##",
"**#@@@#@@@&@&o:*=55=&+++++++#+#:",
":,:#o@@@&&&*&o=*=$$$&&+&;;&+++#:",
",::#$#;;::::**%oXo#;$==:---=@@#=",
",,*###*::::=*#$o+;@=::==-=--;@#-",
"**#@::;;::::**##--@;==$$,:=---##",
"**&=#44454:=$o=#@--=::===;,---#-"
};
