/* XPM */
static char *_493779068387[] = {
/* columns rows colors chars-per-pixel */
"32 32 19 1 ",
"  c #231107",
". c #251207",
"X c #271307",
"o c #291307",
"O c #2B1407",
"+ c #2E1507",
"@ c #301507",
"# c #341707",
"$ c #361807",
"% c #381807",
"& c #3A1A07",
"* c #3C1B07",
"= c #3E1C07",
"- c #431D07",
"; c #451E07",
": c #471F07",
"> c #482007",
", c #4C2107",
"< c #502307",
/* pixels */
"&&&&$$$OO@&@o+..+@$&*#&#@$$&$@$*",
"&&&&$$$$@Oo@+oOO@$$&#&&#+@@$@$**",
"&&&&$$+OO@+&@#-O@$$&&&#@++&$@$**",
"&&-&$$+OOo@-=#@-@$@@&&@@+++@+$$$",
"&##&@&#O$O$$*-*+@+@*&@@@@@@@@@@@",
"@@@#&#%O$$$$*##+++&+&@&+@%%#@+o#",
"@@O@%%%@$Oo+#++oO.+O&*$$%%@&=#@@",
"#@OOO++Oo +o=*#@OO$+$@@=%;<;=@##",
"###&=@#o+++##%##+o;%+&#*;#$=&;&&",
"&#&#@+=++++#&;&#+@#%&#*#;-=$&&&&",
"&&##@+o+##+#&&&&;++;&&#%#:=&&&&&",
"&&#&++*++&&&*#&&;+o@@##&:&$&&&&%",
"&&&$$++o&**%:%@*--.o#*#+@#+&&&&%",
"&&&&$$+#=*#&%%::++o.OO+++@@@%%&&",
"##@++o++==>&::%%#@.+OOO+o@+@&;;%",
"@+++++o+$$=>:OOO#-;##++#++OO$-::",
"@@@*;%%O++OO..++@###%#%&#++oO+o:",
"@&##%%%OOO...++%++##%%:##+oOO@o+",
"##&&%%%%O..%%+:+++###&%#+OO#%@@#",
"@&&&%%%;%..+::&:$++;:%:&o+#&@&#@",
"@#&&%%%%##O+#&@@@@@@#@OO@@#;&%%@",
"@&#&%%%%O++#&;#*#&@oo..O@@#&%%%%",
"@&&&%%%o#OO+#*#&&%%@+..O@@@#%%%%",
"@##&%%%o#OO+*;#&&#%%#+.o@&@%%%@#",
"@@+#@%o++OOOO#:&&&&&,#OO;O##@oO@",
"@@++&%%OO##+##%%&&&&,*OOO%%%oo@@",
"&#@+++++++#+#O%##;;##OOOOOOO@O@&",
"&&&@O+++#####O##&@#@##O#%%#OOO@&",
"&&&@@@#&&&&%&#@ooO+%@##&%&%#+++%",
"&&#@@@#%&&&##@@+o%+%&&&#%#%%&+@%",
"#&@+%%%%&&&&#&@@%%+%#&@@&&%%%%@@",
"##&#@;;;;;&#++#@+%%%&*#%#%&%%%@%"
};
