/* XPM */
static char *_493779058800[] = {
/* columns rows colors chars-per-pixel */
"32 32 47 1 ",
"  c #181821",
". c #182129",
"X c #212129",
"o c #212929",
"O c #212131",
"+ c #212931",
"@ c #292931",
"# c #292939",
"$ c #293139",
"% c #313139",
"& c #292942",
"* c #293142",
"= c #29314A",
"- c #313142",
"; c #313942",
": c #31314A",
"> c #31394A",
", c #39394A",
"< c #313952",
"1 c #393952",
"2 c #39395A",
"3 c #39424A",
"4 c #394252",
"5 c #39425A",
"6 c #394A5A",
"7 c #424252",
"8 c #42425A",
"9 c #424A5A",
"0 c #4A4A5A",
"q c #42525A",
"w c #424A63",
"e c #4A4A63",
"r c #4A4A6B",
"t c #4A5263",
"y c #4A526B",
"u c #52526B",
"i c #525A6B",
"p c #525273",
"a c #525A73",
"s c #5A5A73",
"d c #5A5A7B",
"f c #5A637B",
"g c #63637B",
"h c #636384",
"j c #636B84",
"k c #6B6B84",
"l c #6B6B8C",
/* pixels */
"ss77,,%,11espdde<<<:4-44w>ww>>>y",
"e777,%%,e111llde<:::4OO->w>>>>>>",
"777-%XXeee1elded<::544-4>>>X$>>>",
"77--,%Xese1ldpee5<554-44ww>>$$5>",
"--7744#4fyfyete89999#4t4ppww1##1",
"77estt#tfffwie8e999;#4tjhhphfw#1",
"-ssst>#>wffyeeii99;X#4tthhhpw1##",
"-ess>>>#1yffiiii9;XX44tjh<<<111#",
",8s8#::#.-7s9a93-###888s<::<4444",
",88#:1:#---7333%#X#X@@,844444444",
",8#,111#.--73%%%--88@@@8qq4q4#X#",
"#,881ee1.7ssa993--88,,@,<<::#X-4",
"7-7-wwwd+eeeuu,,-tf7,,,,@@@-euee",
"7---wwdd1ee-#,#,tffta,#,--,0ssuu",
"77-ewdd4-e-+###uffttaa88,--,uuus",
"7s77wd4*-e-+,,uuffffa,8#0,-,skkk",
"fy,,y<==-0-@:11:uuuu8:&&1-1e5dll",
"y9y,y5=<----#1:1u8818OO&1-1eydd5",
"99y,5<550-@ #1:e8&&&:&O:1-1eyd55",
",,y95y55-0-@#11e1111::::-@-ed555",
"4>4-444$1uug--ee<<<<>>81-O-1e111",
"44>>4;@;1euge-ee000<8881O-11e1e1",
"44>>4@@;uuue777e0000888>1uuu1111",
"4>->;@$;eeee,---7177e8>1uuuuguee",
",,55444-*>>>-$$$- OO;o;uaaajdwyw",
"wwwwwww4>**#$$------oouuaayjpypy",
"1wwwwww4>>@@-,8888884o4ujjjjdppw",
"wwwwaa4->*@>888888884;44wajjdppw",
"gggg6&&=;;4wrr2255yy8,-81eskkkkk",
"gg8:&=<=;;44rrp2yjy5,,%,1ssskuu8",
"u:::<6<<444ahphhjy5*-,%,e111ku::",
":::866<6ww4wphhhy55*,8-81111u:::"
};
