/* XPM */
static char *_493779078642[] = {
/* columns rows colors chars-per-pixel */
"32 32 63 1 ",
"  c #943918",
". c #8C421E",
"X c #94421E",
"o c #9C421E",
"O c #944A1E",
"+ c #8C4224",
"@ c #944224",
"# c #9C4224",
"$ c #944A24",
"% c #9C4A24",
"& c #944A2A",
"* c #9C4A2A",
"= c #945224",
"- c #9C5224",
"; c #94522A",
": c #9C522A",
"> c #9C5A2A",
", c #945231",
"< c #9C5231",
"1 c #945A37",
"2 c #9C5A31",
"3 c #9C5A37",
"4 c #A54224",
"5 c #A54A24",
"6 c #A54A2A",
"7 c #A5522A",
"8 c #AD522A",
"9 c #A55A2A",
"0 c #AD5A2A",
"q c #B55A2A",
"w c #A55231",
"e c #AD5231",
"r c #A55A31",
"t c #A55A37",
"y c #AD5A31",
"u c #AD5A37",
"i c #B55A31",
"p c #9C6337",
"a c #A56337",
"s c #AD6331",
"d c #AD6337",
"f c #A56B37",
"g c #AD6B37",
"h c #A5633D",
"j c #A56B3D",
"k c #AD6B3D",
"l c #B56331",
"z c #B56337",
"x c #B56B37",
"c c #BD6B37",
"v c #B56B3D",
"b c #BD6B3D",
"n c #AD733D",
"m c #B5733D",
"M c #AD6B43",
"N c #B56B43",
"B c #AD7343",
"V c #AD7B43",
"C c #AD7B4A",
"Z c #B57343",
"A c #BD7343",
"S c #B57B43",
"D c #BD7B43",
/* pixels */
"a2angggghh2322wr:rrr:raBBarrffVf",
"2&2arrrshh3h22rr:r&&r:raar::fffr",
"&&22rrrshhhhp222rr&&r:::rrr:rrrr",
"&22asrrs3;;;rrp2::&&:r:rar:Bffr*",
"ydyyk<<kuu&&%%%%*w***dddyyyyy:::",
"7ZdZk&<tuww&%%@%*uuur777y777::yy",
"7ZZd<&&<uwuu%@@:*uuvddd77*7*yyy9",
"77d7<&&<NNNur:%:uuvvr*ddy7yyzzy9",
"7777&&wwzzzzwtw*dddw7%yydw6dllii",
"yyyywww&7zzzttwwddd6%%yydd#dliii",
"zzzyuuw&%7zzMMt*wd6#7%77w6#dllll",
"zyy7vvvw.7zzMMMwwdww%%77###dlxxi",
"y55ydAAd%X%>7y7%.7ddiizzy66yyyyy",
"o 5yrAAdX %>%%%y77dd8izzAy66y7%%",
"ooyyrrdr  %>77%7d7.78iizzz667%%%",
"y5y5r$$$XX%%%7yydd.788zzAAyyy7yy",
"88q877$$7yyyyyydsmsXyyyvueuul000",
"8qqqvvy7yzzzdy0ymmsX4yyyeueN0000",
"llqlvyy$7yzzddddmssX4488eeeNc0ll",
"lqllvv7$7yyzydddss77yyyyNu5ucll0",
"ssssdd7o.rNNjrr:$:r:zbbzyx55llll",
"555ooodo.rr::%%%$:$:zbbzxxx5%l00",
"55o77777rrrr:%%:r:$$zAAADDxy%%%%",
"77ssdd7d:Nr:::r:::$:bAAzxxxylll0",
"yzbbdddr$kkrwwwdkr%%yvvyi88cAAz7",
"bbzzddd=$r:$wddwrr7%#yvv8#icAzyy",
"ybbzd>d=:rr:@@*dkkkk7777#8cizyyy",
"zbzy>r>=rkkkdd@w%77kvvv#8cciyyyy",
"aayy:::ap,,pggg1$2227ss7>sssrrrr",
"0080::ja+,pppppp:$$277g7;9ssr:::",
"0yyyaaCj&,p,11aaa:$2ssgg>;>;--OO",
"aaaajjCC,,pp1aaaaa2agSSg9>99rrrr"
};
