/* XPM */
static char *_493779254121[] = {
/* columns rows colors chars-per-pixel */
"32 32 26 1 ",
"  c #B89868",
". c #B09870",
"X c #B8A070",
"o c #B8A078",
"O c #C0A078",
"+ c #B8A880",
"@ c #B8A888",
"# c #C0A080",
"$ c #C0A880",
"% c #C0A888",
"& c #C0B088",
"* c #C8B088",
"= c #C0A890",
"- c #C0B090",
"; c #C8B090",
": c #C0B890",
"> c #C8B890",
", c #C8B098",
"< c #C0B898",
"1 c #C8B898",
"2 c #C8B8A0",
"3 c #C8C0A0",
"4 c #C8C0A8",
"5 c #D0C0A8",
"6 c #D0C8A8",
"7 c #D0C8B0",
/* pixels */
"5555311115557222***144<<33115555",
"555;1311-11572--;;*1<44&11136655",
"555;3373551122%%1444<<<<33366665",
"55;;3777555--%%-44444&&<33335665",
"111;333766>>#=1124773-$$1*111111",
"11;13331666>#=112244-O$-1;1111--",
"5511>37766>>=1114224-$334444-%%%",
"5555>33366>O11772424333314441--1",
"6661&1-51&&$@--42222-55536631;13",
"661$&&-111&$-o-o--2---556331;113",
"611$-5551111o-@42+@+.-5533113113",
"1&1&1555661$-4@42222----13631133",
"41;;;44455-117$1555511$$155531>3",
";;1;11115-11171-55551-1$&151>11>",
"1;;1*14*1&1577-$5551--1$&1151173",
"4144*141&551111$15--77715&&11177",
"3333-$2->111772%-$$774224733,-55",
"3-332--27337222%$-7777444773-%,5",
"-<<<--$2>3>177-%$111777447775%-%",
"<<<3-$$23777--%%$111777447475-%%",
"3772;%O;1111----$$11-44444441-&-",
"7731;%O;1$1$--<41&$1-&<<-44-1115",
"33115;;;$$11<444&&1$&-44444O&&15",
"1123555% $114444611&<<<4----1515",
"$$&-<44&$$5566666611&1&$%2726611",
"$$--<&-&&$&,611666631&&$2277166&",
"3-334<4&&&$$-6616663111$227766&6",
"33334-<-,,,$%1161633&11$%2276611",
"61114+-+32333$3311111123:&336663",
"6111--+43236333OO11113733:-33631",
"1$$$-X+432363333OO%%333333&&3111",
"&111++-432233333O$11333333:&1111"
};
