/* XPM */
static char *_493779135630[] = {
/* columns rows colors chars-per-pixel */
"32 32 48 1 ",
"  c #682010",
". c #782010",
"X c #782810",
"o c #702818",
"O c #782818",
"+ c #802010",
"@ c #802810",
"# c #882810",
"$ c #802818",
"% c #882818",
"& c #803018",
"* c #883018",
"= c #883818",
"- c #903010",
"; c #903018",
": c #983018",
"> c #903818",
", c #983818",
"< c #A03818",
"1 c #903020",
"2 c #903820",
"3 c #983820",
"4 c #A03820",
"5 c #A83820",
"6 c #904020",
"7 c #984020",
"8 c #904028",
"9 c #984028",
"0 c #984828",
"q c #904830",
"w c #985030",
"e c #A04020",
"r c #A84020",
"t c #A04820",
"y c #A04028",
"u c #A84028",
"i c #A04828",
"p c #B04020",
"a c #A05028",
"s c #A04830",
"d c #A05030",
"f c #A85030",
"g c #A85830",
"h c #A05838",
"j c #A85838",
"k c #B05830",
"l c #A06048",
"z c #B06840",
/* pixels */
"rrrr333$#;6;$$..;:,re,,,*,,r<;<p",
"rrrr3333;##;$$$$;,,r,ee,*;;,;<pp",
"rrrr33*$#;;622s$;,,ree,;**r,;<pp",
"rewe33*$##;ds22s:,;;ee;;***;*<<<",
"<<<<;77%3$33iii***66e;;;;;;;----",
";;;<777%3333i>>***6*e;,;;777-##>",
";;%;777;3$$$>@@@++@@e,,,77;7t>--",
"<;$$%**%$ $Xii>*@@6*,,,e7dzdt->>",
"<<:r0==@*&*2,,,,*#w6;,,eh<<i5frr",
"<<<<=*0@*&&2ef,,**66e,e,hii<5rrr",
"rr<<=*@*22&2eeeew**wee,,<hierrrr",
"rr<<**0@*yyye,eew*##;,,ehe<eurr5",
"rrr,,**O7ii7g7=7aa++>i>*-<-<yyy4",
"rrrr,,*,ii7777gg**++@@@*#---44yy",
",,*&*O**iij7gg77>>+*@@@*@---4jj4",
"**&**$O*,,ijg@@@>aa>>**>-@@@4ijj",
";;;uf77@&&$$..&&*2227,,,3**O@@@h",
";333777@$$...&&8**2277h,3*O$@=@@",
"33uu7777$..88&h&**22,777$$$38===",
":3uu777f8..&hh8h2**gh7h7O*33=8==",
";,rr999922#*33::;;;;3%%@;;3f444:",
":,,r9999#**2ef3e44;#%..%;;334444",
":,,r999%2##*3e3e444;%..@;;;34444",
":,,r999+2##*ef3e44443%.@;3;344::",
";;*,*8@&*###@>k7eeeel2##h%22;+#;",
";;**888@#22*>>77eee3lq##%888+#;;",
",,;*&*****2*>@7>3ff32###%%%%;#;e",
"rrr;@***2222>@>>3:::22#2882%##;e",
"rrr;;;37yy77,,;%o$*4133e4443&&;4",
"rr,;;;37yyy3,;;%$4*4ee3343444*;4",
",,;*7737yyyy,,;;44*43311rr4444;;",
",,,,;fffffy3;%,;*444ee3334r444;4"
};
