/* XPM */
static char *_493780162162[] = {
/* columns rows colors chars-per-pixel */
"32 32 66 1 ",
"  c #484020",
". c #504020",
"X c #584020",
"o c #584028",
"O c #504828",
"+ c #584828",
"@ c #604828",
"# c #605028",
"$ c #685028",
"% c #605030",
"& c #685030",
"* c #605830",
"= c #685830",
"- c #685838",
"; c #705830",
": c #705838",
"> c #686038",
", c #706030",
"< c #706038",
"1 c #786038",
"2 c #786838",
"3 c #786840",
"4 c #787040",
"5 c #806838",
"6 c #807040",
"7 c #887040",
"8 c #887840",
"9 c #807048",
"0 c #807848",
"q c #887848",
"w c #907848",
"e c #887850",
"r c #888048",
"t c #908048",
"y c #888050",
"u c #908050",
"i c #988050",
"p c #988850",
"a c #988858",
"s c #989050",
"d c #989058",
"f c #A09050",
"g c #A09058",
"h c #A09858",
"j c #A89858",
"k c #A09860",
"l c #A89860",
"z c #B09860",
"x c #A8A060",
"c c #A8A860",
"v c #A8A068",
"b c #B0A060",
"n c #B0A860",
"m c #B0A068",
"M c #B0A868",
"N c #B8A868",
"B c #B8B070",
"V c #B8B870",
"C c #C0B870",
"Z c #C0B878",
"A c #C8C078",
"S c #C8C080",
"D c #C8C880",
"F c #D0C880",
"G c #D8D080",
"H c #D8D088",
/* pixels */
"xxxxxxxxhhhhAAAkllllpppphhhhgggg",
"FxFFGGxxhFFFAAAANNNNBBBBnhhhggAA",
"<<FFGGGGFFFFA:kAZZHHB$BBFnBBAAAA",
"<<<<&xGGFFF@:::AHHHH$$BBFFFFAgA#",
"5555----GG 444r*FFF6444#GGGxA.44",
"u888yyyy4h44rrrr6F66u4u4*GG*4444",
"kkkkkkkyh444krrrdddduuuurrrr44ss",
"kkkkkkkkhhhhkkkkmdmmMMMurrrrsssA",
"FxxxxxxxZZZZxxFFZZZZAhAAssssxxxx",
"FFFFxHHxZ++ZFFFF@@@ZAAAAAAAAxxFF",
",xFFHHx&44+4FFx16666;AAAAAAAFFF<",
",,FFHx&&444+xF116666www; AAAFF<<",
"666AC777i8556Z66wwwppppp9d%ZZZ77",
"p666C77piii8pp6pllplxxggdd99Z777",
"pppppppjlllippplllBBBBBBddddpppp",
"xxpxjjjjlllilplllBBBBBBBZdddlppp",
"llllBBBBggggkkkkxxFx$BBBxxxxddxx",
"lFFFBBBBSSggMkMBFFF<6$$BFxFxxxxB",
"FFFlB@BBSSSSBBBFFF<<$$$$xFFFBFFF",
"FF;;@@@@@SSSFFFFFx<<66661FFFFFFB",
"OOO4q111XXXZFFFFCC33666633ZZSSS-",
"O>>4qq1q3333FFFFCo33wwwwu33ZSS--",
">44apmpp33p3#FFFC333pzzpuuuuS---",
"4aaammmmpppp#q#FC33pzzzzkkkkkeee",
"hhhhAAAhgZgg0000qqqglllllllgtttt",
"hAAAAAAAZZZZvd0dgggglllglcclllll",
"AA;;;;;AZZZZSSvvgMMgxgxxccVVBBBB",
"A;;;;;;;;;ZZSvSSDDMMxxBBcVVVHHHB",
"==6622222=22==ZZSSSSSSSSAAAAZZZ;",
"=66tqqq22222====@@SSSSSSAAAA;;q;",
"6ttbmppq8888qqqq999@-SS-;;;w;qqq",
"bbbbmmmpffffddddg999-eeewwhhqggg"
};
