/* XPM */
static char *_493779287015[] = {
/* columns rows colors chars-per-pixel */
"64 64 80 1 ",
"  c #679FDC",
". c #6C9EDC",
"X c #6BA4DC",
"o c #6DA8DC",
"O c #71ABDC",
"+ c #7BAEDD",
"@ c #719EE2",
"# c #6DA4E2",
"$ c #73A4E2",
"% c #79A4E2",
"& c #75AAE2",
"* c #7AABE2",
"= c #73A4E9",
"- c #79A4E9",
"; c #77A9E9",
": c #7EAAE9",
"> c #77B1E2",
", c #7CB2E2",
"< c #77B1E9",
"1 c #7DB2E9",
"2 c #86B4DD",
"3 c #8AB6DD",
"4 c #92B9DE",
"5 c #81ABE2",
"6 c #88AFE2",
"7 c #84AFE9",
"8 c #8AAFE9",
"9 c #83B4E2",
"0 c #8AB6E3",
"q c #85BAE3",
"w c #8CBAE3",
"e c #85B3E9",
"r c #8CB5EC",
"t c #84B9E9",
"y c #8DBCED",
"u c #90B6E4",
"i c #93BBE4",
"p c #99BDE4",
"a c #91B7EF",
"s c #94BDEE",
"d c #9ABFED",
"f c #96BDF5",
"g c #9ABDF5",
"h c #8EC1EE",
"j c #94C1E4",
"k c #9CC3E4",
"l c #94C2ED",
"z c #9BC4EC",
"x c #94C8EF",
"c c #9DC9EC",
"v c #8DC0F0",
"b c #96C3F5",
"n c #9CC3F5",
"m c #96CAF3",
"M c #9DCAF5",
"N c #A4C5E4",
"B c #A2C6EC",
"V c #A9C7EA",
"C c #A4CAEC",
"Z c #ABCDEC",
"A c #A7D0EF",
"S c #ADD1EC",
"D c #B2D2ED",
"F c #A2C5F5",
"G c #A8C7F5",
"H c #A3CBF5",
"J c #AACDF3",
"K c #B1CEF3",
"L c #A4D1F5",
"P c #ACD3F5",
"I c #ADD8F7",
"U c #B3D4F4",
"Y c #BAD6F4",
"T c #B4D9F5",
"R c #BCDBF5",
"E c #BFE0F7",
"W c #C3DDF7",
"Q c #C9DDF7",
"! c #C4E1F7",
"~ c #C9E3F7",
/* pixels */
"ttttxhvhyytyhhMHPYRRMfr80rr0%&**7e7ee8e78eaaffgnFFFFLR!YPLLLLLxh",
"ttttvhhvyqwythHMPTRTcfe8rere&%&*e7e88eeee8aaffngFFFHcEWQETILLLjx",
"ttttttvbqqzzMMHLTWWRMnfd0rrr****e8eee88effFnnnffslblhjSDSSDZILLL",
"ssywytmvhybzHPUW~WIPMnaaere0&%**8ee78ee7ffnnngfffslbjjSDSSYY!EEE",
"WRTUPPPPJUDDTUUWWULGGGngdfssrwwreeyfyybbnnggffayww>>>qjkNNSSTY~~",
"W!RUPPPIYYWQWGPYTJJJGGnnsassrereeesyfybbnnnnffayth,,>jjkkkkcSPEE",
"RW!TPIPPIRYWZcHzmsnnnnGGFHFFGFHHFHHHHFFHnnbf1tttyw>,>jkkjqjhhhIL",
"UTWWTPMMMPYYSSZczfngngGGHFFFHHHMHHHMHHMHmnffttt,hh,3qkNj,,qhhhLL",
"LPIIAcxxtnczhzcjfrsrarngFFFFssyqeefdLHLLblyvlbtvtywiipp9,+**erds",
"LLLLLIcxzZjtqtlzBdsaaannFgFFsBljs0slHHHLlcbmmHzzzziqwqe*++%%ress",
"HHlmhjCCCCyhtttjZFwe1earFFlsjBZZBpduzcPYPPzCpppkzjO>,&&&&%$@80FH",
"HHhxqhxACCqqttwlJDzltybyFFFcCZSAVBzdSD!!Bcjzw0wwrt&&&%$$%$$%8eHF",
"MHee>>>1pi,,&,+3jkjkw0jsJKUUjkjjupuuYY~Ecz>>>***e:&%#$-7%@%$faGH",
"FHee>##,uuq*qi22q,wwpkZBWYDYkkh26uppDW~EMvO&&##$;;$#$$:-%%@$adHF",
"FF7e&>&*+3422+OOO>>94wVBWQWYkkjj0uppKW~Rzv>##&##::-:7778%@88FFFF",
"FM7e#>O++4i2+oXX&&&&*9ppDQYYjyqquupuJY~Rxh&&&#=$--::8778@%88HHFM",
"ssfyetttqjj,ooXX>>>,,,xzPTTTBmyhzzJHURWYPHhq**e0e777777eaagnngnn",
"sfyy7tet,jh>ooXX>>&,&*blHLLLlleetyzGIYWRPHhh55rr77e77e77arnggFng",
"aasfsyttykztqt>>>&>&ylbnHLHHmmbmsyMHKRWRULMMlyer7777yfbbgnffaaff",
"adyyyleehCcttt>>&>&&hhnnHHHHbbbmysnMMPWWRUHmbyre7777yabnnnffaafg",
"dasayvttyCjtte1e&&ttMnnnfyee7eeeyatttvxUWULHMnaynbbbFHbbaa8e88aa",
"fsdafyetjcyqttte&&tegngnys777777aaee1,yzRTPLMMfybfbbFHbnaaee7eaa",
"ssdfsfsbBJbvvyyafyngayte777e77e7rae1&&&&kSZMHMnFHFFFbb7e8ee77eee",
"ssdasslzHBlybyaayynnyaet77777778aa7e#&&OhcUAJFMnHMFHbbe78e8ee8e8",
"ttssnnnMTUHHHFMFngaa77aa7888888877:-XXXX>OxkcmMMHMFHda8ee78e7ee8",
"ttysnnmMRYLHHHFFnnaa77ar8888888877::..X.#>yzJlMHHHHGfd887eeee87e",
"*%ettthxHPHHHMFFaa@#$@778888888877--...X&#>>BknsHHss6888ee:::7::",
"**ettthxKPHHHFFFaa#@$$778888888877::....#&&&BBlsHHsf8888e7::::::",
"**%*&*>>sdhvHMFFrr@#=@77----7---@7@%....&#&&*iKnLLblr8@%%%%$-%:7",
"*%&*&&>qBBhyFFFnar#=$#77-77--777755@ .. #&&&&3KBLMlsr8%%%$%%%%7-",
"**%**&>qBBitbfFFar=@@@$#....@...@@%%%@@@$#&#tsUDUHlfr0%$@%%%%%-7",
"&**&>&,,BBdebbFFaa@@$#$@..........%%%%%-#&#&t9BURLllee*%%%%$%%7-",
"%%%%%&&*NZNymhHMra77=@==####    ..--77--&&*,>>BY!TPL,>>&&%$$878e",
"%%%&&*&*zckllhLLaa77#@@=####    ..-@7-77*&&&&,lY!E!U,,>>%&&=e777",
";::::11ezkylMmLMbnrr7777====####--77-7-7*&&&>>cU!UTEkj,>9tyrrr77",
"::::11teClwsLmHLnnra777:====##@@--7-7-7-&&*>>>mZEILIZc,>ttyytree",
"etetttykCtmmTLLMnnfa8aaa-::7-7-7----7-7-&&**blJR!IITYYCkvyvvyyy1",
"tt9ttwlCkwxcTILLnnaaaaa8::::777------777**&&snHRRE!!DDCCFcxvvvvv",
"tttt9lkCAxLLIPLLnnbbaraa::::7-75--7--7-7rwslGGJYUE!UIITRTTPSmvvv",
"ttttlCBCPPPUTPLMnnnna8aa:::7-7-5---77-7-ressHHJRE!ILLLAPZDTTMvvv",
"nnFKKUKKIPPTTchmyyffysssgd5555558e7essbbfsHHLLP!KBsyaafdPY!~~EIL",
"JUWYKGFFmMSUTcmvyybbffssda555555888eyfbbyyHMHHT!BbyfarraFPY!~~!Y",
"~QQRGnnnyyzHZzyyyy1vyraaFFagadadbbHFGHHHHHHHlxzZt:1:;:::wrfFYE!~",
"TUIJbnng1rtzCHlyyyf1ryafFFdaaagdnbHHFHHGHHMHlbBj1:;:::-:wtsdLPPT",
"PPngfy;::::rBBdr>&#&11yrFFgGGFFFFHHHGHHFyvee&&i,&$$#-7@@&%&&slHH",
"GGggaa::7-1esBBj,>>&11rrFGGFFFFFHHHGHHHHbvtt*9i,&#$@7-$#&&%%ssHH",
"GGggaa:--7@%556uy3,&&=<<adFFFFdfffbbHHHH9t$*wiw*$$$@-:7-%&%*erHF",
"GGggar::-7@@@X&5qw9>#=11daFFFFsdaybbHHHMte,0q9q*$#$#7--:&%&+reFH",
"HFHF77##$$$#$$#*5ww,&$&#teGFerrw7eybHHbm<1ww,&se;::-7-77*%&%&*FF",
"HHHHee%$$$%$#$$&*9wi,&&>ytFFrrryetyvHMmm<tpw99Nre:::-:77%&%&%&gF",
"HHGHssee::7:eeee1t9i0&11ssFFnneyfyHHHMhh,wkpjBZzrree-::-&&%&%%FF",
"HHGHss7e7:::7777:t,p0&t1lsFFnMwtylHMLLxx,iw,trBCkete:7-7*%&%%%gF",
"GHHHffsse87eee77rybBC,hvFHHFFFFHHLHLLLcczd;<11yzClwe:::-&%%&rrFF",
"HHLHsyfs8ee87ee7ryfMChhyHFFHFHHHLLLLITUUi1<<,:twlNke;:;:%&&%0eFF",
"HHfy77e7e7eee877raBZYSbzMMMMmMMHLLLR~~RLtettte11eyp9*&::&%%&agFG",
"PGfaee8eee7e8ee7rynPDPSHMMMMHMMMLLR~~~Pbetettt11:e3ue*::&*%%pgFF",
"8eee8ee7aae7gfffFFHUWUCZw999qttymCTRWKMnhhetee&##&*qw%t9%&yannnn",
"eeeee8eeaa8egfffFFJUWPbJllryllljJUYUKGMMhbee1e#&&#&,09tt*&sygnnF",
"77%%::e88eaagfgnFFGPKGycpiuudizCBklrnbnnHHyfyb##&&&&lByeyynnyate",
"7-%-::e7e8aagggnHGGJJJzBprwwdszzkswtbbMnHHyysy$&&##&iCrtvbngyate",
"@%%%:;ee7eaarrnMFHlnkZzzre+9ttyyrreeeeffHHHHHHfyyayyfZzsnnnnte&&",
"%%%%::eee7aafrnMHFllzCCjee**eeewtteee7ffHGGHHFsfyayfnJFsmMnMtt&-",
"*%:-77e77eeeffMMmbthZClr17%%::eeeeeee7faHHHGHHGHgnMMHTPHMMnmtt*&",
"%*::ee777eetbbMMbmtzCk9t1:%%::e7e7e:eeaaHHGJHHHHnnnMHYRHMMnMtt*&"
};
