/* XPM */
static char *_493779273848[] = {
/* columns rows colors chars-per-pixel */
"32 32 29 1 ",
"  c #7BADD6",
". c #84ADD6",
"X c #8CADDE",
"o c #84B5DE",
"O c #8CB5DE",
"+ c #94B5DE",
"@ c #94BDDE",
"# c #9CBDDE",
"$ c #8CB5E7",
"% c #94B5E7",
"& c #94BDE7",
"* c #9CBDE7",
"= c #9CC6E7",
"- c #A5C6E7",
"; c #ADC6E7",
": c #A5CEE7",
"> c #ADCEE7",
", c #A5C6EF",
"< c #ADCEEF",
"1 c #B5CEEF",
"2 c #B5D6EF",
"3 c #BDD6EF",
"4 c #BDD6F7",
"5 c #BDDEF7",
"6 c #C6D6F7",
"7 c #C6DEF7",
"8 c #CEDEF7",
"9 c #CEE7F7",
"0 c #D6E7F7",
/* pixels */
"--22>>>8073;>>@@-----14788889993",
"---2>3780073>>@@----477433>>>399",
"77778888000733>>-2257741>@@@#>39",
"000773>>37709999999974-->@@@#>>9",
"9922----1117883>;3993<<=&OOO++;3",
"92------1--183>>;;39<=OO&OOO++;9",
"9-OO+++.OOO-83@@++39<OOO&OO*++39",
"9-OO....OOO-83@@++39<OOO**--+;99",
"32--@@..@@@2992--1777>#>----1777",
"322----@@@2799551777772>--257414",
"332-----@:772---1--1777255951--1",
"23331111272:----1-OO>277995-----",
":277888871-1;;;;-*..O-17993;----",
"@::248881OO-;;;;-*..OO-193;;-***",
"@@@@*<881OO-*****+..OOO193;++++*",
"@@@@**481OOO.....+++OO-193;++++*",
"++++--291-OOoo  .%**@@@399@@++--",
"****--5971--$$oo%***@@@399>@-<<-",
"-----2997111****%%**@@38993><<<<",
"----29997711****%***>388999922<<",
"66662222<3333###--25299911119999",
"0066,,,,<<<383335999992-****>399",
"061*****OO=<888899992-OOOO*O@@39",
"061**XXXOOO=38832599-OOOOO**@@>9",
"99-OOOOOOOOO>8>>-295&OO****-@@@8",
"992-**--=OO=387>2992OO&---**@@@8",
"9922----<<=<88889992*&*---**@@>8",
"92------<33377779995---**++*@@38",
"----1-448881**--14772--OOOO-@277",
"*+*--147881-++*---47922OOO--272:",
"++*--11781--*+*----49992111177:@",
"+*----474---*+*----19999777777:@"
};
