/* XPM */
static char *_493779307858[] = {
/* columns rows colors chars-per-pixel */
"32 32 175 2 ",
"   c #483890",
".  c #385090",
"X  c #305098",
"o  c #385098",
"O  c #3858A8",
"+  c #3060A8",
"@  c #3860A8",
"#  c #3068A8",
"$  c #3868B0",
"%  c #3870B0",
"&  c #405088",
"*  c #504898",
"=  c #584898",
"-  c #405890",
";  c #485890",
":  c #405898",
">  c #505098",
",  c #585098",
"<  c #605090",
"1  c #685898",
"2  c #486098",
"3  c #506098",
"4  c #606890",
"5  c #706898",
"6  c #607090",
"7  c #607098",
"8  c #787090",
"9  c #787098",
"0  c #707898",
"q  c #4840A8",
"w  c #4848A8",
"e  c #5048A8",
"r  c #4058A0",
"t  c #4058A8",
"y  c #5050A0",
"u  c #5850A8",
"i  c #4840B0",
"p  c #4048B8",
"a  c #5848B0",
"s  c #4858B8",
"d  c #5050B0",
"f  c #5850B0",
"g  c #5858B0",
"h  c #5058B8",
"j  c #5858B8",
"k  c #6058A0",
"l  c #6058A8",
"z  c #6058B0",
"x  c #6058B8",
"c  c #4068A8",
"v  c #4868A8",
"b  c #5860A0",
"n  c #5060A8",
"m  c #5868A8",
"M  c #4870A8",
"N  c #5870A0",
"B  c #5070A8",
"V  c #5878A8",
"C  c #4068B0",
"Z  c #5860B0",
"A  c #5068B0",
"S  c #5868B0",
"D  c #5868B8",
"F  c #4870B0",
"G  c #4078B8",
"H  c #5070B0",
"J  c #5870B0",
"K  c #5878B0",
"L  c #6860A0",
"P  c #6860A8",
"I  c #6068A8",
"U  c #6868A8",
"Y  c #7068A8",
"T  c #6870A0",
"R  c #6878A0",
"E  c #6070A8",
"W  c #6078A8",
"Q  c #6878A8",
"!  c #7870A8",
"~  c #7078A8",
"^  c #6860B0",
"/  c #6068B0",
"(  c #6060B8",
")  c #6068B8",
"_  c #6868B8",
"`  c #7868B0",
"'  c #7068B8",
"]  c #6070B0",
"[  c #6870B0",
"{  c #6070B8",
"}  c #6870B8",
"|  c #6078B8",
" . c #6878B8",
".. c #7870B8",
"X. c #7078B8",
"o. c #5050C0",
"O. c #5858C0",
"+. c #5858C8",
"@. c #5860C0",
"#. c #5868C8",
"$. c #5860D8",
"%. c #5868D8",
"&. c #6860C0",
"*. c #6068C0",
"=. c #6868C0",
"-. c #6060C8",
";. c #6068C8",
":. c #6868C8",
">. c #7068C0",
",. c #7068C8",
"<. c #6070C0",
"1. c #6078C0",
"2. c #6070C8",
"3. c #6870C8",
"4. c #6878C8",
"5. c #7870C0",
"6. c #7078C0",
"7. c #6868D0",
"8. c #6070D0",
"9. c #6870D0",
"0. c #6878D0",
"q. c #6070D8",
"w. c #6878D8",
"e. c #7078D0",
"r. c #7878D0",
"t. c #5860E0",
"y. c #5868E0",
"u. c #8078A0",
"i. c #8078B0",
"p. c #8078C8",
"a. c #4880B0",
"s. c #5080B0",
"d. c #5088B0",
"f. c #6880A0",
"g. c #6880A8",
"h. c #7888A0",
"j. c #7080A8",
"k. c #7880A8",
"l. c #7888A8",
"z. c #6880B0",
"x. c #6080B8",
"c. c #6880B8",
"v. c #7080B0",
"b. c #7088B0",
"n. c #7080B8",
"m. c #6090B0",
"M. c #7890B8",
"N. c #6080C0",
"B. c #6880C0",
"V. c #6880C8",
"C. c #7088C0",
"Z. c #7888C0",
"A. c #7088C8",
"S. c #7890C0",
"D. c #7890C8",
"F. c #7088D0",
"G. c #7888D0",
"H. c #7088D8",
"J. c #7090D0",
"K. c #7890D0",
"L. c #7890D8",
"P. c #7888E0",
"I. c #888098",
"U. c #8088A8",
"Y. c #8080B8",
"T. c #8088B8",
"R. c #8090B0",
"E. c #8898B0",
"W. c #8090B8",
"Q. c #90A0B8",
"!. c #8088C0",
"~. c #8090C0",
"^. c #8098C8",
"/. c #8088D8",
"(. c #80A0D0",
/* pixels */
"Y.T.~.~.K.V.2.2.3.3.3./.e.8.e.y.t.%.q.q.O.*.4.O.h h *.e.w.w.w.9.",
"Y.Y.T.~.K.V.2.2.-.3.3./.e.8.e.y.$.t.%.%.@.*.4.O.h h @.e.w.w.9.:.",
"Y.Y.T.T.K.V.#.#.-.-.3./.e.8.8.y.$.t.%.$.@.*.4.O.h @.@.e.w.w.:.:.",
"Y.Y.Y.T.V.2.#.#.o.o.-.3.e.8.8.y.%.t.q.$.@.@.*.O.h *.*.e.9.9.,.,.",
"p.p.5.p.e.=.( ( z z ^ >.....,.,.7.7.7.O._ _ u u < ........p.....",
"5.p.p.p.=.( z z z z ^ >...i...,.7.7.7.O._ u u u < ..........p...",
"5.p.p.p.=.z z z l l ^ >.' ..i...7.7.-.-.* u u u 1 ......p.p.p...",
">.5.p.5.=.( z z l l l >.' ' i.i.7.7.O.-.*   * * P ........p...` ",
"x &.r.&.u u u u z f f _ ^ _ 6.G...^ f f k = = , Y ! ' ' 9 9 L L ",
"x x &.a q q u u f z g z ^ 6.6.G...^ f z U = = k Y Y ! ' 9 9 L L ",
"a a x a i q e e f z g _ _ _ 6.G.....z ^ U k , , ! Y u.! I.I.5 5 ",
"&.a x a e q u e g _ _ _ _ ^ 6.G...^ f ^ U k U U u.! u.u.I.9 5 L ",
"<.+.+.@.y y <.Z > > [ [ I I  .A./ d d Z ] m m ] 0 8 0 0 M.g.N N ",
"<.@.+.<.Z y <.<.> > b [ ] I  . ./ d Z Z ] m F.] 0 j.0 j.M.M.N N ",
"<.<.@.<.<.Z <.H.b b [ [  . .] A./ Z / Z 1.m F.1.j.j.0 j.M.g.W W ",
"B.B.@.B.H.Z Z H.[ [ Z.Z.A.A. .A.v./ v.Z 1.m F.F.j.j.j.j.M.M.g.W ",
"B.B.] B.M.{ D M.1.n.W.W.^.S.C.S.D.x.x.v B.H B.K K c.c.c.m.m.s.s.",
"J.B.B.B.M.c.{ c.1.n.W.W.^.^.C.S.D.D.x.J B.K B.H K c.c.c.m.d.d.s.",
"J.J.B.B.M.c.{ c.c.W.W.W.^.^.S.^.D.D.x.x.B.K K K H K H K m.d.d.s.",
"J.J.B.| M.c.D { n.W.W.W.^.^.^.^.D.D.x.v B.K H M F F F F s.a.a.a.",
"c.S.c. .D B.D B.v.W.W.W.E.E.E.E.h.h.f.V N.H @ C $ $ $ $ G G G % ",
"c.c. .{ D D s B.[ v.W.W.R.E.E.E.h.h.f.V H H C @ $ $ $ $ % G G % ",
"{ c. . .D p s B.[ [ v.W.E.E.E.E.h.h.f.V C @ C @ $ @ @ $ % % % # ",
"{ c.c.{ D s s D [ / / v.R.R.R.R.h.h.f.V C @ C @ @ $ t O % G # # ",
"[ Q ~ [ ;.;.d ;.) ( ( X.!.!.~ !.v.v.v.R 2 2 2 - X n o o B B + + ",
"Q ~ l.[ h ;.h h ( ( ) X.!.!.~ ~ R v.R 7 2 2 - . X n o r c B @ @ ",
"Q l.~ [ h h w ;.j ( ( ( ~ T ~ 4 7 v.7 6 2 2 - . X o o o B c c B ",
"Q l.~ [ ;.h d d j ( j ) T 4 T T 7 R R 6 2 2 - . r r n r B B B B ",
"k.U.k.k.D D D D y Z Z Z ;.;.0.9.Z c.c.] E ; 3 & : : A 1.z.g.z.g.",
"R.R.U.U.C.D D 1.y Z G.} ;.9.P.;.] c.c.] E 3 E & : : 1.1.b.b.b.b.",
"R.Q.R.U.C.1.D 1.y } G.} ;.0.P.;.S c.c.] E 3 3 ; A : A L.b.S.S.S.",
"R.Q.R.R.(.C.D 1.Z } } } 9.0.P.;.] c.c.] E E 3 3 A : 1.L.S.S.S.S."
};
