/* XPM */
static char *_493779326563[] = {
/* columns rows colors chars-per-pixel */
"32 32 103 2 ",
"   c #302018",
".  c #782808",
"X  c #683810",
"o  c #603018",
"O  c #403020",
"+  c #483020",
"@  c #483820",
"#  c #403028",
"$  c #403828",
"%  c #483828",
"&  c #503820",
"*  c #583820",
"=  c #503828",
"-  c #684010",
";  c #684018",
":  c #684818",
">  c #784810",
",  c #784018",
"<  c #785010",
"1  c #785018",
"2  c #504028",
"3  c #584028",
"4  c #504030",
"5  c #584030",
"6  c #584830",
"7  c #584838",
"8  c #705020",
"9  c #785020",
"0  c #785828",
"q  c #604830",
"w  c #604838",
"e  c #685030",
"r  c #605038",
"t  c #685838",
"y  c #786030",
"u  c #786038",
"i  c #605040",
"p  c #685040",
"a  c #685840",
"s  c #786840",
"d  c #706048",
"f  c #786048",
"g  c #786848",
"h  c #786050",
"j  c #786850",
"k  c #982800",
"l  c #803808",
"z  c #883808",
"x  c #903808",
"c  c #A83800",
"v  c #984808",
"b  c #805010",
"n  c #885010",
"m  c #805018",
"M  c #985810",
"N  c #B04000",
"B  c #B05808",
"V  c #906018",
"C  c #A86008",
"Z  c #B06008",
"A  c #B06808",
"S  c #A06010",
"D  c #A06810",
"F  c #A86810",
"G  c #806028",
"H  c #A06820",
"J  c #A06828",
"K  c #A87830",
"L  c #C85800",
"P  c #C87008",
"I  c #D87000",
"U  c #D87800",
"Y  c #806848",
"T  c #887048",
"R  c #807050",
"E  c #887050",
"W  c #B88838",
"Q  c #D88000",
"!  c #D08008",
"~  c #C88018",
"^  c #E88000",
"/  c #E08808",
"(  c #F08000",
")  c #F08800",
"_  c #D89028",
"`  c #D89830",
"'  c #E8A838",
"]  c #A08048",
"[  c #A08050",
"{  c #A08858",
"}  c #B09050",
"|  c #B89058",
" . c #B89858",
".. c #A89060",
"X. c #B0A070",
"o. c #D8B060",
"O. c #D8B878",
"+. c #F8C050",
"@. c #F8D078",
"#. c #C8B080",
"$. c #D8C088",
"%. c #F8D080",
"&. c #F8E0A0",
/* pixels */
"j j j a @ @ @ @ % % % % 6 6 % % 2 2 2 2 j j j a & & I & % i h h ",
"j j j a @ @ x @ % % % % % % % 6 ! 2 2 2 j j j a & & I & % i h h ",
"a a a w @ @ @ @ % ^ C m % % % g ! 2 2 2 a a a a & & I & % 5 i h ",
"5 5 5 5 @ @ @ @ % m % % % % % % D 2 2 2 2 6 6 2 & & I & % 5 5 5 ",
"* * * * % % 4 4 % % # 4 7 r 4 4 % O.% % % % % % & n ( ( = = = = ",
"+.+.W W O % i i 4 % # 4 d d d 4 % O.O.% O O % % & Z ( ( | %.%.%.",
"* * * W O % i i 4 % # 4 d d d 7 % { s % % % % % & & ( & = = = = ",
"* * * * % % 4 i 4 % % % r d d r % % % % 4 i i 4 & & & & = = = = ",
"i 6 % % . % % % % % u % 4 4 4 4 % % % % r d d r % % % % 5 p p p ",
"j i 6 % k o % % u ] o.% 4 4 4 4 % % % % 4 r d r % % % % p h h h ",
"j j 6 % k o % % % u ] u 4 4 4 4 0 _ % % % 4 4 % % 1 % % p h h h ",
"j j 6 % . % % % % % % % $.R 4 4 % % J J 4 % % % % U % % p h h h ",
"d d 4 % % % 4 r i i $ $ 4 % % % % % m / 7 + + + z N @ @ a j j j ",
"d d 4 % % % r d h i 4 $ % % 4 r % % % % + % % + X N @ @ a j j j ",
"r r 4 % % % r d h h 4 $ % % r r % % % % % = = % @ z @ @ 6 a a a ",
"4 % % % % 4 r d h i 4 4 d % % 4 % % % % % = 7 % @ z @ @ 2 2 2 2 ",
"@ @ @ < O % 6 a u q O [ #.% % % O     O % % % % O O % % @ @ @ @ ",
"< Q Q Q O % % 6 q O O [ % % % % O O O O % % % % O O % % @ M P @ ",
"@ @ Q Q 6 % % O O O q q % % % % % % % O % ` ` % O % 5 5 @ > @ @ ",
"@ @ Q @ O % O O O O [ O % % % f r r % % % ` ` 0 % 5 p 5 @ @ @ @ ",
"; % S % % 5 5 % % % % % % % t t e e e # O % O O % % r r 2 = @ 2 ",
"; % ; % 5 i i i % % % % % % % % e # # # % O % % % % % 4 2 @ @ 2 ",
"; % % % i h h h G % % K % % % % # # # e O % 6 a r 4 % % w @ @ 2 ",
"% % % % i h h h G % % ' ..Y % % # # } } % 6 a a d r % % w @ @ = ",
"@ @ @ @ : : m m 4 4 4 4 O % % 4 % % y y % 5 h h V 8 $ $ % % % % ",
"@ l X @ % % % : 4 4 T 4 % 4 i i 3 % % % % i h h 8 8 $ $ % % , % ",
"c c c c : % % % 4 4  .4 % i i i 3 % % % 5 i h h 8 $ $ $ , v L v ",
"@ @ @ @ % : F F T  .@.T % % 4 4 % % % % % 5 i i 8 $ 8 ~ , % % % ",
"= 5 5 = @ @ B - @ @ @ @ % % % % E X.E % % % % % @ @ A b % % % % ",
"p p p 5 @ @ @ @ @ 5 5 5 5 % % % % &.&.X.H 9 % % @ @ ) @ % 5 i i ",
"h h h p @ @ @ @ 5 r r r i i 5 % % X.% % % % % % @ A ) @ 5 i h h ",
"h h h p @ @ @ @ 5 h h h h h i 5 % % % % % % % % @ @ ) @ 5 i h h "
};
