/* XPM */
static char *_493779340130[] = {
/* columns rows colors chars-per-pixel */
"32 32 75 1 ",
"  c #4A1818",
". c #521810",
"X c #521818",
"o c #5A1818",
"O c #522118",
"+ c #521821",
"@ c #5A2121",
"# c #632121",
"$ c #6B2121",
"% c #632129",
"& c #632929",
"* c #732121",
"= c #7B2121",
"- c #732929",
"; c #7B2929",
": c #733129",
"> c #732931",
", c #733131",
"< c #7B3131",
"1 c #7B3939",
"2 c #842121",
"3 c #842929",
"4 c #942929",
"5 c #9C3129",
"6 c #843131",
"7 c #8C3131",
"8 c #843931",
"9 c #8C3931",
"0 c #843139",
"q c #843939",
"w c #8C3939",
"e c #9C3131",
"r c #943939",
"t c #9C3939",
"y c #AD3131",
"u c #8C4239",
"i c #944239",
"p c #9C4239",
"a c #A54239",
"s c #8C3942",
"d c #9C3942",
"f c #8C4242",
"g c #944242",
"h c #9C4242",
"j c #944A42",
"k c #944A4A",
"l c #9C4A4A",
"z c #9C5252",
"x c #A54242",
"c c #AD4242",
"v c #A54A4A",
"b c #AD4A4A",
"n c #A5524A",
"m c #A54A52",
"M c #AD4A52",
"N c #A55252",
"B c #AD5252",
"V c #AD5A52",
"C c #AD525A",
"Z c #AD5A5A",
"A c #B5525A",
"S c #B55A5A",
"D c #AD5A63",
"F c #B55A63",
"G c #A56363",
"H c #AD6363",
"J c #B56363",
"K c #BD6363",
"L c #B56B6B",
"P c #BD6B6B",
"I c #B57373",
"U c #C67373",
"Y c #C6737B",
"T c #BD847B",
"R c #C68484",
/* pixels */
"XXX:XXXX-uuu999ndCCCgggg1OOOhhJJ",
"rrvKVuu:XX--99nnCCYCSg0%OOOO3hhJ",
"vvvvVVVu-XXXooo9YYCC00%%111O  33",
"vrvrVVuuuuunnnoo2dd2%%gSUUz1h3  ",
"vBvvBvvhpvpvLLBe#X##X;LLFFbbvvh-",
"JvvvBBvBZvBvBLLx--XX;LBBbbaavvvh",
"JvSJHvvBvvBvBBLBr--#;BBbba5avvhh",
"vvJvhhvvvvvBxxxxrrr-;BBba55bvBhv",
"vvJvhhhhvvvBxxxxrrr-;BBBaa5bvBhv",
"vvSJHvvvvvBvBBLBr--#;LBBba5avvhh",
"vvvvBBvBZvBvBLLx--XX;LBBbbaavvvh",
"vBvvBvvhpvpvLLBe#X##X;LLFFbbvvh-",
"vrvrVVuuuuunnnoo2dd2%%gSUUz1h3  ",
"vvvvVVVu-XXXooo9YYCC00%%111O  33",
"vvvKVuu:XX--99nnCCYCSg0%OOOO3hhJ",
";rvv:XXX-uuu999ndCCCgggg1OOOhhJJ",
"@@@@XX>ASBBBuuuullllvddvN-o-SSbb",
"@@@@XX>ASSlSuuuuululBBBJN-oNPSSb",
"hhhh>XXsSSBBVuuuujuNvdBJL-oNbbSS",
"RRJhs>>XoBBBzVIzuullvvBBNNo-tbbb",
"LTTmvvv&O:MMBiBJZZZlvBBBZZXXggll",
"DmDDvivqOOwMiviBZZLZBBBvZfX,wwll",
"mmmDvvvi:wwwvBii1lllvvBZZ,X,wlNl",
"DmDmvviiwwMMvivi1lllvvvhf,XfgNNl",
"vvglvvvw4yvvvhBBgggghhhh$.$xZvvv",
"vlBgvhBvyyvvvvBvvvg,666o.$xBvZvv",
"vvBlBvvvyyvPSvBvvv,,6*o*xBBxvvvt",
"lBvvBBhvvyvPSSBBBB,,oo6hBBBBIZvv",
"llNNvBggc7ccKKKKvv0+ookPNNllzzjj",
"llNlvvvv77==eeee00+><<PPJZNZjj88",
"NlNLHBgg7c7oX22X++++o<<PJNNZGj88",
"iiNlgggg7c7=XXXX>>>+ooo<NJJNzGz8"
};
