/* XPM */
static char *_493779351953[] = {
/* columns rows colors chars-per-pixel */
"32 32 44 1 ",
"  c #282820",
". c #302828",
"X c #303028",
"o c #383028",
"O c #383030",
"+ c #383830",
"@ c #403830",
"# c #403838",
"$ c #404030",
"% c #404038",
"& c #484038",
"* c #504838",
"= c #484040",
"- c #484840",
"; c #504840",
": c #584840",
"> c #504848",
", c #505040",
"< c #585040",
"1 c #585048",
"2 c #585848",
"3 c #585850",
"4 c #605848",
"5 c #605850",
"6 c #686050",
"7 c #686058",
"8 c #686858",
"9 c #706850",
"0 c #706058",
"q c #706858",
"w c #706860",
"e c #786860",
"r c #787060",
"t c #807860",
"y c #807868",
"u c #887868",
"i c #887870",
"p c #888070",
"a c #908070",
"s c #908878",
"d c #988878",
"f c #989078",
"g c #989080",
"h c #A89888",
/* pixels */
"%%%;5====1775#OOO77p55;@OO@;;#OO",
"%%%;qqq517775#OO>ppp555@OOO;;;#O",
"%;;5pppq77775#OO>pp7555@...@;;;#",
";55eppppy777;#O;777755&@...O;;;;",
"444uaaaauu4&ooo1qqq5;%%%XXX<&&&&",
"440uaaaau&  ooo1qqq5;%%@XX<<1111",
"400uaaae    oo %qq51;%%+X&<<6611",
";0uuaaa1    o  %5511%@++&<qqyy1&",
"@7iiaaao    oo;;;;;;OOOO6yyyyyOO",
"@177666o   @;;;;rdr;OOO7sssyy;OO",
"@@@@:ooo  @;;;;5ddr6117sssssyOOO",
"@@@@oooo  ;;;;;yddrr777sssss;OOO",
"4OOOXXOOXX<<444yfft9555yssss#OO#",
"44OOXXX Xqqq666yfft95;;5sss1##O;",
"4r;OOX  <qqqq66qtt9<;;;;181+###5",
"rr4;==XXqqqqqqqq99<<;;oo++++OO;5",
"ww3%;@.;qqqqrrrr6;$$&+XX.&&.XX;6",
"ww;%@O.;qqqqrrr<$XX$&+XX.&2+XX;6",
"ww%%@O.;qrrrr5<<;XXX++X+&222XX;6",
"w3%%OO.;qrr6&&<<;$X$11&&&222$XX6",
";XXXOO;;171@@@&111yyddd;444&;  ;",
"XXXXO@;;1&1@@@@1qqyyddr;44&@;@  ",
"XXXXOO;;1&@@ooo1qqygdd;;4&@@;@  ",
"XXXX..;;&&77@oo@qqygdr;64@@*;@  ",
"XXXX..4&&yy1&*@@&rrfhr11,+&,;...",
"++XX.@44yy61*&&&&&5frr11++,,6;;@",
"1&XX@444yy1144**5&&&1XXX++,6666;",
"1&+&&44416&14444555511XX++&6666;",
"%%--**4411114444155544*oO#O@55;;",
"%%%-**##&11144&415554*4*;;#O=;==",
"%%%%#OOO#11144@@=15rr44*#;;;####",
"%%%%OOOOO&114*@@=1rr444*@O;;;###"
};
