/* XPM */
static char *_493779389756[] = {
/* columns rows colors chars-per-pixel */
"32 32 139 2 ",
"   c #907018",
".  c #987818",
"X  c #987820",
"o  c #987828",
"O  c #806840",
"+  c #846C44",
"@  c #887858",
"#  c #907850",
"$  c #988020",
"%  c #A08020",
"&  c #A38424",
"*  c #A88820",
"=  c #A08028",
"-  c #A5872D",
";  c #A08828",
":  c #A88828",
">  c #A89028",
",  c #AA922A",
"<  c #AB932C",
"1  c #B09028",
"2  c #B09828",
"3  c #B89828",
"4  c #B99929",
"5  c #BC9C2C",
"6  c #A08030",
"7  c #A08830",
"8  c #A78A33",
"9  c #A88830",
"0  c #AB8E34",
"q  c #A98E3A",
"w  c #A89030",
"e  c #AB9331",
"r  c #AB9036",
"t  c #A89038",
"y  c #B09030",
"u  c #B09830",
"i  c #B09831",
"p  c #B89830",
"a  c #BA9A31",
"s  c #B09038",
"d  c #B1963C",
"f  c #B09838",
"g  c #B5983A",
"h  c #B89838",
"j  c #B89939",
"k  c #B8A038",
"l  c #C0A030",
"z  c #C0A038",
"x  c #C3A33C",
"c  c #C8A838",
"v  c #CEAE3E",
"b  c #CFAF3F",
"n  c #D0B038",
"m  c #908050",
"M  c #A08840",
"N  c #B09840",
"B  c #B49B46",
"V  c #B89840",
"C  c #B09848",
"Z  c #B0984D",
"A  c #A08858",
"S  c #B09850",
"D  c #B09858",
"F  c #B59D5A",
"G  c #B8A040",
"H  c #BDA240",
"J  c #B8A048",
"K  c #BEA349",
"L  c #B8A04D",
"P  c #B8A050",
"I  c #BDA251",
"U  c #B6A158",
"Y  c #B3A05E",
"T  c #B8A058",
"R  c #988860",
"E  c #A89060",
"W  c #A09068",
"Q  c #A89868",
"!  c #AC9D6E",
"~  c #B0A060",
"^  c #B8A060",
"/  c #BAAA65",
"(  c #B8A868",
")  c #A8A078",
"_  c #B0A070",
"`  c #B8A070",
"'  c #B7AF77",
"]  c #B8A870",
"[  c #B8A877",
"{  c #B0A078",
"}  c #B8A878",
"|  c #C0A040",
" . c #C1A343",
".. c #C4AC40",
"X. c #C8A840",
"o. c #C0A048",
"O. c #C8A848",
"+. c #C8B040",
"@. c #C8B048",
"#. c #CAB34A",
"$. c #CAB44E",
"%. c #D0B040",
"&. c #D8B840",
"*. c #D0B048",
"=. c #C0A652",
"-. c #C8A850",
";. c #C8A858",
":. c #C8B058",
">. c #D0B050",
",. c #C0A868",
"<. c #C0B060",
"1. c #C8B060",
"2. c #C0B078",
"3. c #C8B878",
"4. c #E0C058",
"5. c #B8B088",
"6. c #C0B080",
"7. c #C6B684",
"8. c #C8B880",
"9. c #C0B088",
"0. c #C8B888",
"q. c #C9B98D",
"w. c #C8B890",
"e. c #CBBB91",
"r. c #C8C080",
"t. c #D0C080",
"y. c #C8C098",
"u. c #D0C090",
"i. c #D0C098",
"p. c #D0C8A0",
"a. c #D8C8A0",
"s. c #D0C8A8",
"d. c #D8C8A8",
"f. c #D8D0A0",
"g. c #D8D0A8",
"h. c #D8D0B0",
"j. c #E0D8B0",
"k. c #E0D8B8",
"l. c #E0D8C0",
/* pixels */
"* 1 1 * * . . . y p p y . . . % > 2 p > y p y y $     9 ; ; ; ; ",
"* 1 1 l c 1 . 1 z z z p . % 1 1 c c c c %.%.z p 9     9 h w w w ",
"* l %.%.c c * c %.%.%.p % 1 1 z c c c c %.%.%.z 9   9 G h h h h ",
"1 %.%.%.c c 1 c %.%.%.p z z 1 z c c c c %.%.%.z 9 $ 9 G O.O.O.O.",
"p %.%.%.+.h h k <.<.<.p s s s ,.c c c c c n c c h f f h X.%.%.X.",
"p %.%.%.+.k s h p p p p s s s ,.-.-.c c c c c z G h f h X.%.%.%.",
"1 %.%.%.+.k h +.<.t.<.t.0.0.,.,.c c c c c n n n O.G h G X.%.&.%.",
"p %.%.%.+.k +.+.t.k.k.k.k.0.s ,.8.8.1.-.c c c z G O.G G X.X.%.X.",
"y c c c S S ( i.j.j.j.j.h.0.D h.g.p.p.i.9.{ E { ] ^ C ^ | | | | ",
"y c c c S S ( i.j.j.j.j.h.0.D h.g.p.p.p.s.{ { s.0.0.0.C | | | | ",
"y y y y S = S ( r.r.r.r.} D } h.i.p.i.p.s.{ 9.s.0.0.0.0.| | | | ",
"y y : o = = = S N N N N D D } h.g.g.p.p.s.{ 9.s.0.0.0.f 1 % % q ",
"$ $ w w > > > k z z z z ;.3.} a.h.h.h.h.p.) 5.5.0.0.u w * * * 0 ",
"$ w N :.X.X.X.X.*.*.X.X.z 3.} a.l.l.l.h.p.R 5.5.8.y.z z X.X.X.r ",
"$ w :.:.4.4.4.4.*.*.*.*.;.;.} a.l.f.f.h.p.R 5.5.8.y.z X.n X.n d ",
"$ w :.:.4.4.4.4.*.*.*.*.z ;.} a.l.h.h.h.p.R 5.p.s.s.z %.n n X.K ",
". y o.o.:.:.:.:.:.P P I h ~ Q p.g.g.g.g.w.W w.w.d.d.z n n n n H ",
"y y y o.J J J J P V V V Y ~ q M _ _ 9.9.{ W w.w.d.d.z n n n n g ",
". . = y V s s J P ;.;.;.~ ~ Y q A A A A W @ { w.8.d.z X.3 v n 0 ",
". = y y V s J :.2.2.2.' ' ~ ' ' 9.9._ _ W @ { { 0.0.y p 3 3 4 - ",
"9 h X.X.>.V ,.0.u.u.0.6.5.l l n c c c _ A O A A Q } } j : & $ & ",
"9 h X.X.>.V V 0.u.u.u.0.r l l n c c c | ` O # # m m m ! r T T Y ",
"9 y X.X.>.>.V 0.7.u.u.0.u l n n n c c z ` O # A Q Q [ e.C C s T ",
"9 y X.X.>.h V ,.0.u.u.7.u n n n n n | z ` + ` ` } } [ q.s C r T ",
"= w G G G G G G T I o.o.p n n n %.%.n u j c c %.z z z z o u u G ",
"= w w w G w 6 o V | V V y n n n %.%.%.z f g c &.*.*.z s o u u $.",
"X X w w G w w e >.>.V j y n n n %.%.z u f c &.&.*.*.*.9 9 u u $.",
"= X w w w w G ..o.>.| j p n n n %.%.k < f c &.&.*.*.*.9 9 8 2 #.",
"& o y 0 V V x c @.@.j , : 3 n n X.X.a * 1 l n &.%.%.%.p q 7 t t ",
"  y y O.%.%.c c @.#.: $ & 5 n n X.X.a * & l &.&.%.%.%.* t 7 7 t ",
"  y O.O.v 5 c c #.j > % % 1 5 n x p a * X 1 l l p p p * = t 7 7 ",
"  y O.O.4 5 5 c j > < & - 9 g H o.d t r q d B J =.B L Z F / / ^ "
};
