/* XPM */
static char *_493779376517[] = {
/* columns rows colors chars-per-pixel */
"32 32 65 1 ",
"  c #988050",
". c #9A835B",
"X c #988858",
"o c #A08858",
"O c #9F8E66",
"+ c #A29261",
"@ c #A99962",
"# c #A19169",
"$ c #A89068",
"% c #A99969",
"& c #B09868",
"* c #AA9A72",
"= c #B0A071",
"- c #B8A777",
"; c #B1A179",
": c #B9A27A",
"> c #B1A979",
", c #B9A979",
"< c #C0B078",
"1 c #B4AB83",
"2 c #B9A981",
"3 c #B9B181",
"4 c #BAB28A",
"5 c #BEB690",
"6 c #C0AE83",
"7 c #C1B181",
"8 c #C1B189",
"9 c #C0B888",
"0 c #C8B888",
"q c #C2BA92",
"w c #C8B891",
"e c #C7BE9C",
"r c #CABF9A",
"t c #C8C090",
"y c #C7C09A",
"u c #C9C199",
"i c #D0C090",
"p c #D0C199",
"a c #D8C69C",
"s c #D4CA9D",
"d c #CAC2A1",
"f c #D2C6A0",
"g c #D1C9A2",
"h c #D9CAA2",
"j c #D2CAAA",
"k c #D8C9A9",
"l c #D6D1AD",
"z c #D8D0A9",
"x c #D6CEB1",
"c c #DCCEB0",
"v c #D7D3B2",
"b c #D9D1B1",
"n c #D8D8B0",
"m c #DCD6BA",
"M c #D9D8B9",
"N c #E0D8B8",
"B c #DEDCC2",
"V c #E1DAC1",
"C c #E2DDC9",
"Z c #E0E0C0",
"A c #E5E4CC",
"S c #E8E0C8",
"D c #E8E8C8",
"F c #EAE6D0",
"G c #E8E8D0",
/* pixels */
"GGDDDSSZMedMxjxblbjks9ugMNSSZZGG",
"GGDZDDZZMqdMbxblbcbbs9ggMVSSZNDG",
"GGDZZZZZmM,eMxlxblbbs9jgMVCmmZZG",
"GDDZNVZmBM,dMMbbMxvbz9dgMBmmVVZD",
"DDZVMNNNNN4tNNNNfbxdd35slblxbNSS",
"DZDSMmNNNNuuNNNNNleds92gbxbvbNSS",
"ZBCmxs0ggu4eNsgNgydw92&9dxlbNNSS",
"Vvjkkfw<,1*%47206888===98rdbkNNS",
"bxii69;#.**%*%%%%$$%%X%>:wwwkzzk",
"u<773#.#4reegueyyq55t>XXo:wwrzzz",
"e2;%%O.;9uumvNNjyytttt>Xo%::qpgu",
"mb6<=#OqquNbNNNljdgzuutq%o:wzzzz",
"llp6,%o,0dZMZZMjlMvjbzgs3o3gbbxb",
"jhr8=%+-0jjmZZZMMZZZNNzj3o3ubbbb",
"kk8=%%-0bbZZZZZBZMMMNNNzgX4sblkl",
"xbb=%%-0xZZZZMZABMllNNNks=-gbbbb",
"bxx2@=3ujmASAAAAbvlxMMkzg=,jbbbx",
"lcb,==3ujVFFCmBCmjgklbMls=>gxllb",
"xb88=@,ujmAACZCNvjgjlMMzg*9sflcb",
"b834=@@4exZGGSmmjjjvlMMzg,ggbxbb",
"sfu8,%otqMVZZAAmjvjjjvmbk;4khhlb",
"fgs7*O#qqymNNSNmVmgjkmmj5;*4-wkN",
"r2;%%#O*qygzgNZmmkjjjjjg4%:<60rr",
"g07,6O.%5truuudjzzbkjy55w1fhahha",
"NNii<q;#.4quturrpgffe2;;=*zznNNN",
"lbxkkfw<,$*1943w7708*###o=zznNSS",
"Cblbxswfsq;;;;15q,,&#oooo=zzZSSS",
"SbkcMNNmNm;444**&+     o=8zzZZSC",
"MMbbMNNNbN4eNNjjiw2:$ $;6dblZZZZ",
"ZZNnmNVVBj,xmMjbMMMj*>;wwdbbZZZZ",
"DZZZZZZZmeeBmvxbbMMMw>wwddbDNNZZ",
"DDZZDDZZmdjsgblbbljdk4rwjBVDVZZZ"
};
