/* XPM */
static char *_493779461650[] = {
/* columns rows colors chars-per-pixel */
"61 61 43 1 ",
"  c #987028",
". c #B08838",
"X c #B09040",
"o c #B2924F",
"O c #BF9B4E",
"+ c #B29351",
"@ c #B59856",
"# c #B99A53",
"$ c #B69B5A",
"% c #BA9E5C",
"& c #B9A05A",
"* c #BCA362",
"= c #BFA768",
"- c #C09848",
"; c #C09E55",
": c #C6A455",
"> c #C9A656",
", c #C2A259",
"< c #C9A759",
"1 c #CCAB5B",
"2 c #D1AD5D",
"3 c #C3A662",
"4 c #C4A864",
"5 c #CDAD60",
"6 c #C0A96A",
"7 c #D2AE60",
"8 c #D4B363",
"9 c #D8B262",
"0 c #D7B768",
"q c #D8B76A",
"w c #D8B86B",
"e c #C3AE71",
"r c #C5B174",
"t c #C8B070",
"y c #C3B279",
"u c #C8B77E",
"i c #D8B870",
"p c #C8B880",
"a c #D0C088",
"s c #D0C090",
"d c #D8D0A0",
"f c #E8D8A0",
"g c #F0E8B8",
/* pixels */
"gdgdsaaapppppppp6y66==6er=e============ry=pp6yuuupuppaaasfgdg",
"gddsaa==6;;;6e%%%%$+@@&***%%*%$$@@$@@&$&*&*&%%&*6,,,6=6appddg",
"gddy&XX&----#+Oo#+oo##o#++++#$$$@#oo++####@$%%&&#OO-O&.X%yddg",
"gdy=X.&&;;636666=*%$&=&**&$@%3&44&&&*====43=335<343#&&&XXyydg",
"ffo  .OO2>22>2>21<>>>2111<:::><11>>::>155255122222221--.  $ff",
"feoo.O92iiwi0985877777822222772228828882822858009iqiw99- o+tf",
"feo  --9iiiw09882222999822222885222222221588800wqiiiq2--  orf",
"ftoX-999iiiwq0q880099098899098889908800000880000qiiii992-+orf",
"ftoo-292iiiiwq98888888008808898088099000000890qqqiiii999-ootf",
"fto  --9iiiiq7778288781822228882712777225588800qqiiii9--  otf",
"feoo.-92iqiq77275785775522282828185787887278889qqiiiw29- ootf",
"ffo  .-O222227<<<>:::><<1>>>>>>11><::>>22212222222222--.  off",
"gdy=oX&&;;444433*&&%%%%%%*&%&&*****%%***=&444546744;;;,XOrpdg",
"gddp$XX%--;;;;%$#@@++++@++++++o@++oooo+@##$&&,%;;;;--*XX$yddg",
"gddppa664;;;*%%%%%%$%$$%*$&$@@&@$$@@@$%%%&&&%%&&;;;;666sppddg",
"gdgdsaaapppppppp=y66===ry=r=======e=666ey6uu6upypppppppssfgdg",
"gddpaa666,;,==*%%%#+@@&&&%%$%%$$@@++@$&&*&&&&%&*=,;;64tpppddg",
"gddp&X.#----##+#@oo+o###+++++$$$$@+++@##@@@&&&&%;----;XX=pddg",
"gdy=XX;#;,34==44=*$%&=3&**$@$*,41&&&*===4==34311==4;;%;Xoy=dg",
"ff+  .-->2>21>1111::>1511:>:>>112>::,>>25255151222>22->   off",
"fr++.-99wiiiw885787797822222772828282888228528009iiii99-.ooef",
"fu+  --9iiiiw88857777992222277852122222222280000iiiiq9--  +ef",
"feoo-999iiiww8008q090090090999889809800000080800qiiii999oooef",
"feoo-929iiiiw09988099998098089080999908000000000qiiii929-ootf",
"fe+  --9iiii79711187188821157775522278851888800qqiiii9--  otf",
"ft++.+79iqiq07778857775528887888585782788257889qqiiii99-.ooef",
"ff+  .--222212<<::::<,,<>>>:><>>1>:,:<111722222272277--   off",
"gdy=X.%%;;4443333*&%%&%%&&&&&&=&**&*&&**=444534344<;;;;-Xyydg",
"gddy%XX&--O;%$%$#@++++@@@++++o@o++++++@+@##%%;;%;;;;-%XX,yddg",
"gddsaa66=,;&&*&$%%%$$$$%%$%@$@@@$$$@@@@*$$%&$%*%;;;;666pasddg",
"ggdgdapaaupuppppp=y======yee666==========y6uyeuuppppppaassdgd",
"ggddsaa66=,%:6=**%%$+@*$**%%%&$&$$$@+@$%**&*%%%%*3,;;666sppdd",
"ggddr$XX%----+O+##ooo+#o##+++@#&%$+++o####&#&&&&;;----%.X&ydd",
"ggdyrXX%%;;36666=4&&&&*3*&&$#&*&4<&*&&=*==4=&4<14436;;%;XX=yd",
"fff+   --222>22>111>1>1111<>:::>111>:>121225515122222<--.  @f",
"ffto-.>92iqww99929222877827222888582282922852880qqqiii92O.++t",
"ffto  --9iiiiq985752278871122785112222222278808wqqiiii9-O  oe",
"ffeooO999iiiiq0009000900089099899908909000888w8wqqiiii929Xooe",
"fftooo299wiiiq09808899980988998808889000000080q0qqiiii299-oot",
"ffto  --9iiiw98871878278222277987572222222588900qqiiii9--  ot",
"ffr@o.-99qiiq77717877755588177788581775885228888qqwiii99; o+t",
"fff$  .O-2222251<<::::<<<<:>:>><<<<>:>>112225221227722--.  of",
"ggd==oX&$;,453433**&%%%$&&&*&&**&=**&****&=4441454<4;;%&o.yyd",
"ggdd=&X.$---;#%$#@@++++@#+++++++#ooooo+@###&&&&&%%;;--%.X,rdd",
"ggddsaa666,;;*%%*&$*%$$%%*%$$@@$#%$@@@@$%%%%&&%&&,;;,466aasdd",
"ggdgdaaappppppppp=y======y=e6===========eyeyu6uuuypppuaaaadgd",
"ggddsaa666,;#=6%*$$@@@$&*%*%$&$&$@$@@@@%%*&*&&%%33&,&466aasdd",
"ggddy&XX&----O@##++oo++@+++++#@&$@@++++##+##%#%%%#----&X.%ydd",
"ggd=yXX*#;;6666363*%%&6*=&&@@&&443,*$**===4=4111==63#:%&oXyrd",
"fffo  .O-222>>>221>>><11111<:>:>11<>>><11152551121222>--X  of",
"ffr+X.O22iiiqq97777879272222277888852958888252800qwiii29- oot",
"ffr+  OO9iiiqqq9777777788222227711112275125880000qiiiw9-o  ot",
"fftooo299iiiwq0q0800900908800908988080900088000qqqiiii929-oor",
"fftooO999iiiwq088998999088809998008809900000880qqiiiii999-oot",
"ffto  --9wiii0872228282722222787222222295528988wqqiiiq9--  +t",
"ff4oo.-98iiiw97752282228728777588228292888258899qqiiiq99-.o+t",
"fffo  .-->22222<1<>:,:<,<<::::1<11>>::<<12522122229222--.  of",
"ggdyyXX%$,;34133&4*&%%%%*&%*$%%*&**&&&***==4453453433;%#XXyyd",
"ggddu;Xo%---%%%#$@@@+++++@+++++@+++++++@#+##%,&&;;;;--;XX&ysd",
"ggddsspt66,;;,%%&&&$$$%$%%%%$@@$&&$$@@@&$%&&%%%&*;-;;66taasdd",
"ggdgdpppappuuuuuueyr664==y=re======u===y6yrrr6rryuyuupppaadgd"
};
