/* XPM */
static char *_493779398260[] = {
/* columns rows colors chars-per-pixel */
"64 64 58 1 ",
"  c #904830",
". c #905030",
"X c #985030",
"o c #905830",
"O c #985830",
"+ c #985038",
"@ c #985838",
"# c #A85038",
"$ c #A05838",
"% c #A85838",
"& c #A06038",
"* c #A86038",
"= c #A06838",
"- c #A86838",
"; c #A85840",
": c #A06040",
"> c #A86040",
", c #A06840",
"< c #A86840",
"1 c #B06040",
"2 c #B06840",
"3 c #B86840",
"4 c #B06848",
"5 c #B86848",
"6 c #A07040",
"7 c #A87040",
"8 c #A87048",
"9 c #B07040",
"0 c #B87040",
"q c #B07840",
"w c #B87840",
"e c #B07048",
"r c #B87048",
"t c #B07848",
"y c #B87848",
"u c #B07850",
"i c #B87850",
"p c #C07848",
"a c #C07850",
"s c #B08048",
"d c #B88048",
"f c #B88050",
"g c #C08048",
"h c #C88048",
"j c #C88848",
"k c #C08050",
"l c #C88050",
"z c #C08850",
"x c #C88850",
"c c #C08858",
"v c #C88858",
"b c #C89050",
"n c #C09058",
"m c #C89058",
"M c #C89858",
"N c #C09060",
"B c #C89860",
"V c #D09060",
/* pixels */
"::::<<ttttttyyyyggxxmmmmggggkkkkhhhhhh0999$<zyyzkyyrr<<:&&&&<:::",
":::::::<<<<<<<99ygggkkkkggggkkkkhhhhhhhhzz9<zzyyrrrrrr<<<<<<>:::",
"<<:::::,<<<<<<9yyyyyyyyyyyyyyyyy0000999999<$44eerrrrrrrr<<rr<<::",
"<<<<<,,<<<<79yyyyyyyyyrrrrrr0000<<<<<<<<<<<$4eeerrrrrrrrrrrrrr<<",
"2<<<<<<<<9yyyyyyyyy99yy9rr992222<<<<<<<<<<&&tt<<rrrr99992000rrrr",
"999999999yyyyyyy9y999999rr99222r<<<<<<<<<<&&tt<<<<<<<<<<2000rrrr",
"ppppyyyyyyyyyyy999999999rrrrrrrr9999<<<<<<<<tt<<<<<<<<<<00p0prrr",
"ppppyyyyy9999<<<<<<<<<<<9rrrrrrry99yy9<<<<<&&&$$<222999ypppppppp",
"kkkkkkkky<<<&&&&&&&&&&&&*--999yypyypggyyww99yyyyykkkxxxxllllkkkk",
"kkkkkkke9<<<<<<<&&<<<<<<**--<99yyyppyyygggggmkkyykkkppppppppkkkk",
"rrrree22<<<<<<<<<<<<<<<<----<<9yppppyyyyggggmkyyyyrrryyyrrrrrrrr",
"rrrr22>><<<<<<<<<<<<<<<<---9<<99ypppyyyy9w9gmyrrrrrrrrryrrrrrrrr",
"rr2<<<<<<<&<<<<<<<<<=777777799990llllllly9<xkrrrrrrrrrrr5rrrrrrr",
"22<<<<<<&&&&&&<<&&&&&&&&&&&7----2000rrrry9<yyrryaaaayrrrrrrrrrrr",
"<<<<&&&&&&&&&&$$$$$&&&&&$$$$&&&&****2rrryy9ykkmmVVVVkkkyyyrrr221",
"<<<<&&&&&&&&&&&&&&&&==&&&&&&&&&&****22rryyyxmkmmkkkkkkkyyrr52221",
"><<>,,::&&&&&&&&<<<<222222<<*222<<<<777799kkffffy999eeeee<<<<<<<",
"<<<>::::&&&$&&&&<<<<2222222<2222<<<<<<<799999t999777<<<<<<<<<<<<",
"<<<<,:::&&&&&&--<<<<2222222222**&&&&><<<99:@99999977<<<<<<<<<<<<",
"<<<<,,,,&&&<-999999999990000rr2*&<<<<<<<99::ttttyyyyee<<<<<<<<<<",
"--7-,,,,>>>400009999999999990022::::--&&&$$$ss66tttttttt9999====",
"&&--,,,,>>4400002222999999992022::::&&&&&$$$s666tttttttt99997=&&",
"&&-777,,444422222211222222290000d888---&$$$$&@@@&<<<&&&&$$**&&&&",
"ddddzzztvvvvxxxxddddyyyyyzzzxxxxMMMdddd7ttttsssstttt<<<&&*997777",
"yyyygxxgmzzzkkkkdqqqtttttkkkkkkkjjjgggytyykkffffddddddddwwwwdddd",
"99yyggggmkkkkktt777777779ttkkkkkgggggggykyy0rrrr9999999999999999",
"9yyyyygxmkkkkt9777777777779tyyyypppgggggkkkyyyyr99999999<<<<<<<9",
"yyyyyyygkkkkt9777777777777779yyyppppyyyyykkkffyyqqq99999999<99dd",
"yyyyyyyykyyy9<<<<<<<><<<<<<<<<00yyyyyyyyppppppppppppyyyyppppyyyy",
"ppppyyrykky9<<<<<<>>>>>>><<<<<><2y2299990000rrrrrrrrypppppppyyyy",
"yyyyyyrryy99<<<<<<<<>>>>><<<>>>>>>>>29290000rrrrrrrppppppgggggyy",
"yypyryrry999<<<<<<<<<<<<<<<<>:><<><<22220pppppppppppppppppppyyyy",
"rrrreeekt7<<<<<<<<99rrrr9992<<<<<<222rrrppppyyyyyyyyyy99rrrrrrrr",
"rrrreekkt<<<<<<<99yyrrryy9y9rrr22rrrrrrrrrpr999999999999rrrrrrrr",
"rrrreeee7<<<<999yyyyyyyyyyy9rrrrrrrrrrrrrrre<<<<<<<<<<<<rrrrrrrr",
"rrr2<<<<<<<799yyyyyyyyyyyyyyrrrrrrrrrrrrrree<<<<<<<99<<<<<<<<<2r",
"<<<<<<<><<<<9yyyyyyyyyyrrryyyyyyrrrrrrrre<<<<<<<<<<<<<<<<<<<<<<<",
"<<<<<<<<9<<99yyyyyrrrrrrrrrrrrrrrrrrrrr<<<<<<<<<<<<<<<<<<<<<<<<<",
"<<<<<<><9<9yyyyyrrrrrrrrrrrrrrrrrrrr<<<<<<<<<<<<<<<eeeeerrrrr222",
"9999ee<e999yyyy9yrrrrrrrrrrrrrrr22<<::<:,,,,,,,<<<eeeeeerrrrrrrr",
"rrrr0022999gyyyyrrrryyyyrrrr<<<<<<<<,,,,<&&<<<<<<9yyy00ypppprrrr",
"222222229992229yr2222<<<>>>>@@@@@@@@o@@@&&&&&&<<99yyyyy00000rrrr",
"111121122>>>2222222>>>>>$$$+X       ..@@$$$$&&<<99yyyyyyppppyyrr",
"rrrr000gg9222229rrr2>>>>$+++XXXX@@@@.@,,<<<<eeeeyyy900000000ryrr",
"bbbbxxxxxxxxccccvvvvkkkk8::,----9999<<99yyfnBBBBmmmmxxxxccctgggg",
"9dddggggggyyiyyyyyyyekkk8888----<<<<<<<9yyydkzzzkkkkyywwttt79q99",
"<<99yyygggyyrrrrrrrreee9,888----<<<<<<99yyyfkkkkkkkky99977777777",
"<<<<yyyyyyyyrrrrrrrree<<,,::&&&&:::<<9yyyyffkkkkkkky999977777777",
"<<<<9yyyy9yyyy99rr2<<<<<,&&&<<<<,<<<0yyyykkkggggpp99777777777777",
"999979999<<9999<<<<<&&&&,,,8ee<<9999yyyyyykkgggg9999777777777777",
"9999977799<<<<<<<<<<&$$$&&8,<<<><<99yyyyyykkggg99999777777777777",
"yyyyy997<<<<<<<<<<<<<<&<&&&&<>>><<<<3000rrrr9<<<<<<<<<7777777777",
"yyyyy003**&&$$$$$$$$::::<<<<02222222222222>>::::&&&&&*<<<<<9ryyy",
"yyyyy000<***$$&&$$&&::<<<2ppppppyyy9rrr22>::::::&&&&****<<9yyyyy",
"yyyr0000rrrree>>>>>e999999ppppppyyyyrrr22>::<<<<<<<<<<<<99yyyyyg",
"rrrr3000rrrreeeeeeee9999ppppppppyyyyr2<<>:::::::&<<<<rrryy99rrrr",
"rrrrrrrrrrrrrrrrrrrryyyyee>><99977<<<<<<,:::&&&&::<<<eeeeeeeeeee",
"<<rrrrrrrrrrrrrrrrrryyyyee>><99ytt7<<<<<,:::&&&&<<<<<eeeeeeeeee<",
",,<<rrrr44rrrrrrrrrry<<<<eee99yytt7<<<<<,,::&<<<<eeeeeeeeee<<:::",
",,<<r22244rrrrr92222<:::>><><<<<<<<<<<<<,,,,<eeeeeeeeeeee<<>::::",
"<<<<--2pppppggggccccNNNNt<;;$$*>222211rr2222yyyyyyyyyyyy<<<<<<<<",
"<&&<---222229999eeeeuuuut<>>>rrryyyyrrrryyyyyyyyyyyyyy<<&&<<<<<@",
"$$$$&&&&&&&&$$$$;;;;e>>><<<<rrrryyyyrrrryyyyyyyyyyy2<<$$OOOO@XXX",
"<<<<--&&&&2299994eeeeue><<t<$$$$%%%%###%;;;;%%%%%%%%****&&<<@X X"
};
