/* XPM */
static char *_493779413819[] = {
/* columns rows colors chars-per-pixel */
"28 28 39 1 ",
"  c #000810",
". c #080810",
"X c #100818",
"o c #081010",
"O c #081018",
"+ c #081818",
"@ c #101018",
"# c #101818",
"$ c #181818",
"% c #081020",
"& c #081820",
"* c #081828",
"= c #181020",
"- c #101820",
"; c #181820",
": c #101828",
"> c #101830",
", c #182020",
"< c #102028",
"1 c #182028",
"2 c #102030",
"3 c #182030",
"4 c #182838",
"5 c #202020",
"6 c #202028",
"7 c #282828",
"8 c #282030",
"9 c #202830",
"0 c #282830",
"q c #283038",
"w c #303038",
"e c #383038",
"r c gray22",
"t c #182840",
"y c #202840",
"u c #203040",
"i c #283040",
"p c #283840",
"a c #303840",
/* pixels */
"99993iiiaa00qqqqaaaaaaaaaaaa",
"**%%%%:3ttt*%%%%%>>44444tttt",
"tttt:%%%*ttttt22%%%%%%%%%%%%",
"ttttii3:***ttttt444>::::%%%%",
"OO>>yyyy9<&&+144yyyytttttttt",
"666666yraaa9111199yyiiiipppp",
"OOOO++++&&&&++++++++++++++++",
"rrrrrrrraaaarrrreeee7777eeee",
"0000000000000;;;XXXX@@;0000@",
"XXXXXXXXXXXX@@@@XXX;;0000;@@",
"XXXXXXXXXXXX;;;;000000;;@@;;",
"0000000000000000000;;@@@;000",
"wwwwwwwwaaaa000055551110www0",
"OOOO++++&&&&++++++++----++++",
"000000wwaaa900aaaaaa00000www",
"OO>>tttt9<&&444422++-;10tttt",
"3uuuuu2:***t443%::23uuuu444>",
"uuu3:%%%*ttt4%%%2uuuu3<-%%%%",
"----%%:2ttt*%%34uuu2----%>>4",
"33332uuuii6634ppuu3233uupppp",
"++++++++################OOOO",
"rrrreeee7777rrrr0000rrrr7777",
";;;;;+..##$7666#oo#0666#OOOO",
"......;;,7776## #;006#  O$$7",
";;;;,00000;#OOO;000-OO=60000",
"0000000,##oo;;880;OO=66605;;",
"00000,,,;000wwww0;00wwww5555",
"++++########OOOO----OOOO++++"
};
