/* XPM */
static char *_493779450322[] = {
/* columns rows colors chars-per-pixel */
"64 64 81 1 ",
"  c #685830",
". c #705830",
"X c #785838",
"o c #706030",
"O c #786030",
"+ c #786038",
"@ c #806038",
"# c #816A39",
"$ c #886939",
"% c #897039",
"& c #90763F",
"* c #806040",
"= c #806840",
"- c #886A40",
"; c #926F46",
": c #887040",
"> c #887048",
", c #927342",
"< c #927942",
"1 c #997942",
"2 c #907048",
"3 c #907848",
"4 c #9A7A4A",
"5 c #A07940",
"6 c #A07949",
"7 c #9C8245",
"8 c #9C824A",
"9 c #988050",
"0 c #A28545",
"q c #A2824A",
"w c #A98249",
"e c #A28949",
"r c #AA894A",
"t c #B08949",
"y c #A89048",
"u c #B1914A",
"i c #BA924D",
"p c #A18151",
"a c #A88050",
"s c #A48852",
"d c #A98951",
"f c #B18950",
"g c #A89050",
"h c #AC9158",
"j c #B19050",
"k c #B89151",
"l c #B99851",
"z c #B5935A",
"x c #BA945A",
"c c #BA9959",
"v c #BFA45F",
"b c #BA9F6A",
"n c #C09050",
"m c #C09953",
"M c #C19A59",
"N c #C99C5A",
"B c #C1A159",
"V c #C9A25B",
"C c #C39B61",
"Z c #C1A161",
"A c #C8A060",
"S c #C8A860",
"D c #C1A168",
"F c #C8A068",
"G c #C8A868",
"H c #D0A860",
"J c #D0A868",
"K c #C8B068",
"L c #D0B060",
"P c #D0B068",
"I c #D8B068",
"U c #D8B868",
"Y c #D0A870",
"T c #D0B070",
"R c #D8B070",
"E c #D8B870",
"W c #D8B878",
"Q c #E0C078",
"! c #D8C088",
"~ c #E0C080",
"^ c #E8C880",
/* pixels */
"rrwwzbAGSSSSVHHHVLHHHHHHmmmmmmMMMMvBMMxtpp=pPddPvccicrrwww05tdd6",
"rffrdrdrdsrzlkMMMMMBmMMMmmmnmmMMBBBMHJJJRRb@Pbbswtttrrrf0rrrdddr",
"frrfsdddddds0rlluliiluluiiiiiiiilwllktlNzzb=33shttttrfrrr6r0drdw",
"rjjrdsrzzjzkljlkirr0rrrrttttttttttiikMktzb6=ccggttttftdrrrrrdsfd",
"ffkjffjfffujtuuyyyyyytyrtttttt0tttjjkjkukiq>Tczztwttrrrrrrfjdadd",
"ffffffkufuhjuuuutyytryyu0t0ttttttttjfjkkkkw4Tzzzttttttktffzfsrds",
"kkjuukjkfhukuuuuyttytytttttt0tttttudhukkkktkTTzztuujlfktjfffsddd",
"lllllllluttt00u0tytytyrr0ttttt0ttttjijjfkkksqs$$turfkikkkxxxkccf",
"ZZBbxCbCMfrrwwwwwrdrrrwwr0rrttyjikcfMnMMMMxzTTTTYYYYJJJJAANCANAA",
"cZMCCCMMMktkrjrrfrtfktufrrrrttjjlllkkMkMJJMkTFDACCCCMCCNMcMkAMCM",
"dfffffkxkkkzjfjjjjjjuuuuyruujjjjzlkckMMNMcMMTcxxxCfffffftttttttt",
"ffffffrwrjjlhjjjjjdjfllllulljffflklcktffrcrZRxfff6fffffktttttttt",
"tftfffffttttikkkllllccxcMMMMMMMMGJJJFFCCzk*JGfkz666t66t6t6wtrffr",
"tfffftffttttrtttwwrwttwwrtftfffkfMfjfxnbxI*xzkw6fMxMMmnxtk6ftfww",
"ttwtf6ww0w7qq8q866645555555566fwqq7qrwwfzz6zcMGGWWWWRCCxkkttfftr",
"ttttftw5twq6qq6qwwwr5r5wwwt5fawr6q6qwffCzxxIGGGGFGFCACCxkttffffr",
"wtttrrr00000770777777777q06r0yyyjujjccccxMMcCMbCjjjjjjjjjutjjhuf",
"ttddr0r60&77&&5&&&<77777qq0w700rrhjkkjucMMMqcMMMMMkhjjhujdthjjff",
"tttt0rr000qq5&0&&&&771<7<qqeq8qqww6trtkcMMqo1fMCAMMcltjjjjjfjjjd",
"wtwdrrr0rrrd0y07ee7ye7eerrrrr0q7rrrrtttkMnqrRRRIAAAAVVcyjjffffft",
"cvZMhhhhhhaahshgy8hr8yhr8ggedg&<re8eddddqps-EbxbAAAAAAAAMMMMfkjz",
"22ddhhhhdhhhsgd3q878yhjyg7ee<grg8eeeddfdpqq-ExccAAAAAAAAnMMmkkkt",
"22dhhhh%2223333388%:::::7&<<&<&r777y;&,,-------;2pzf8477$4wrq$$$",
"UUUU^QGhEEEEPPLLBBvMBBBBVKBVPPPPQQQQEEEEJPPJEERRAVCAcd83wwxMHkHH",
"LLVBZZZcEBVBlBBBBcMBMMVVVVVVBBBBBBBBBBvmSSSSEERREEEUUUUUIIIIIIII",
"VclvccccElllmnmmMMMMBMBmmmmmlcMllvMlmmMlMMMVmNNNANVNNVNVMNMMSVAS",
"hjuhcjCZKlllmmmmMMmMMMccNmmmciMllicMMmmmxMMnNNNnNVVnnnVNlkkihukj",
"ujjuuuhcllllnmmmMmxMlcckimmiikiclkMlmnnmMMMMNnNNANNVNVNVMNMkujfj",
"ujfjujhulcljjujjtfjhttiikkkkfjjjjjfttkkknniikkkkxxmMllllllullufj",
"kkkkuhjrvlhjjjujdfffttttftukjrfrrfrtwtttt6tt6fffffffikullllllkll",
"kitjjf:ryjjjjffdtfffttttfjkkrwwwrww66tfftti6kf6kfffffkllllllmmmm",
"hikkjjjrjjjuhtjjjjfjitwtkffdfrrffrdtkiftkkikknkfxkkklikikukkijjt",
"rrr0ddcbMtkikkkkkkktjfffftffdffwffffffffkkkkkkikjukjyrrrw6wwtrdt",
"0r0rddMGckkkikikkkkkffffffffffffddddwffftkfjtddfflffrrr0ttdrwwwd",
"rrrrdzcGDkkkflfklikkthfjfjffffddddddafffdddwfjfdfwffruuujjhjjrtr",
"jyjjjzzscikcillkkkkkjujuhjdfffffwfffffffffffkfkkklfllljujjuujjuz",
"fujjjhuqjtdkjhuudjjjjjjdrgjjfjjdffffftfffddffjjjjjuufjjjjjjyjfjh",
"ttttjjujjrdrdjjjujddddddedhdsdrsffffffffafffjjjyjjhuddddjjjujttt",
"ttttrdqjfrtjtuuhdsseqdppdyrdrdrd6dfffffffffffjjhhjfhhrdjrrtrtttt",
"ttwtrrqdjrtdhjjdjgdgddprhrhgsssdddddafffddrddfjgujrdrdddr0r0tttt",
"rrydrjj:rrrlujfkdddddddrddddddddrdddrr0yydggegggdeggyrrrlllyrdtd",
"8e888q84rrr0prqsd8sqs,<314333133<<3<41r&e77888seeggglllrryrywrft",
"<<<<44::6&&,4qsqqq433,,<,-::$ooooo.o####%%%77784gdggllllillljfrd",
"lce<3eujur;,22249893$...+++Xo%%%3131%1rrgggg89748ge7&&<,&&&7rtdu",
"IIIIPPPPPPPPTYTTTYTTCZTZx44dccclAANCMMAASARR~~Q~EEEERRRRPPPPJIII",
"NMMMBMMBcujjxfffffffxTTTJxxxjjfz0rrrhjjlkkkkcMMMBkkkkkkkMMklNVHS",
"kiikkkMBvcjjdfffftffr0rrbxxxjfcfclxkulxxMkCCMMMMMANBMNMlMMBMMNMk",
"Mkkkkkuiuccfffffffrwrrrrcx44wwwwrrrukclcNMNMMMnGBBAMGMNMMBVMNMMN",
"kkfkuliujjjjxzfftfrrkkkkzf#qzfzfrujfkkkkjcccnMxMMlmnnMMMMMMlllll",
"lilllllljjjjfrrrdrrwq6q6fzzJGGcMjhuuikikjcccMMMMmmmmMMMxuilillli",
"llllllllcljjxrrrjrtqq4=<#4GffkjkrjuhkkiikclkMxMMmmmmxMMMMMMxMMlc",
"llllllllhudjkfzkjjfkkkkij#qzzfww8qww666itrttttktruuukkMMMMMMMMmM",
"itkkjttf1q68555555556dwdjfjhljw65555&5556wpw76q8wwwwwwtjkkkkikki",
"ikkkjddtqqqq555515wrfjfdjjvcccccfjjrttttqqwpqddrtrfrrrdrtfiktkkk",
"kftttrddruujhffffjjjcxcccjKcclcjhjhuttwtddddddedrjjjjjjjkkifkkkk",
"wwwwwwwtdrrrrrrrrrjyccccvyKvzcczujjtttttdddddddhfrrfrjjjkkdaddsw",
"rqrrrqrrddddsrdsdrsajdjjA9--4xd<ddh6ddjzr007eq78d78s8e7errr0r07r",
"rsrrr4rrddddsdddddddujjjdd6443xbDDDzcjzjrrr0e7y7e8reeeeer0r0rrrr",
"rssrr9rqqqe8dddwesddjjjrdhbMGGGGDFDDlhjdr0weey88erereqe84rqrrq1r",
"rrd0rrqrqs88q611%%%$#<##-4Chzzddhddhjzjzr0rr077y8q7ee8p8r8rr00rr",
"prddjjjtlcccZZcZGGGG!!!!T8##.-4zujthffffwfffjjjjffffdddrggggr0rr",
"dddpuhhuczcedssdshhhbbbszs#84hzdhjjjfdffffffjjjffdffdsadggggrrr0",
"444&::::#%%%++++X+XX$$$$9#9qzhhzujffffffffffjhtfffffdr1 O%<7&&##",
"wddwjuj8erccssdshhhhbssheqz9$...XXXXXXXX;;;@@@@&*;;4sdddggyyr# &"
};
