/* XPM */
static char *_493779477899[] = {
/* columns rows colors chars-per-pixel */
"32 32 92 1 ",
"  c #302018",
". c #403020",
"X c #483020",
"o c #483820",
"O c #503820",
"+ c #503828",
"@ c #504028",
"# c #584028",
"$ c #504030",
"% c #584030",
"& c #584830",
"* c #604830",
"= c #604838",
"- c #685030",
"; c #605038",
": c #685038",
"> c #685838",
", c #705838",
"< c #786038",
"1 c #705840",
"2 c #706040",
"3 c #786840",
"4 c #786048",
"5 c #786848",
"6 c #806840",
"7 c #806048",
"8 c #806848",
"9 c #886848",
"0 c #887040",
"q c #807048",
"w c #887048",
"e c #907048",
"r c #907848",
"t c #907850",
"y c #907858",
"u c #988048",
"i c #988050",
"p c #988058",
"a c #A08050",
"s c #A08858",
"d c #A89058",
"f c #B09058",
"g c #B89858",
"h c #988060",
"j c #A08060",
"k c #A08860",
"l c #A88860",
"z c #A89060",
"x c #B09060",
"c c #B09860",
"v c #B89860",
"b c #B09868",
"n c #B89868",
"m c #B8A068",
"M c #B8A070",
"N c #C0A058",
"B c #C8A858",
"V c #C0A060",
"C c #C8A860",
"Z c #C0A068",
"A c #C0A868",
"S c #C8A868",
"D c #C8B068",
"F c #D0B068",
"G c #C0A870",
"H c #C8A870",
"J c #C0A078",
"K c #C8B070",
"L c #C8B078",
"P c #D0B070",
"I c #D8B870",
"U c #D0B078",
"Y c #D8B878",
"T c #D8C070",
"R c #E0C078",
"E c #C8B080",
"W c #D0B080",
"Q c #D0B880",
"! c #D8B880",
"~ c #D8B888",
"^ c #D8C088",
"/ c #E0C080",
"( c #E0C888",
") c #E8C888",
"_ c #E8D080",
"` c #F0D088",
"' c #E0C090",
"] c #E0C890",
"[ c #E8C890",
"{ c #E8D098",
"} c #F0D898",
"| c #F0D8A0",
/* pixels */
"::::;;;;;;;;>>>>>>>>&&&&****oooo",
"::::;8;;;;;;>>>>>>>>&&&&****;;;;",
"txxxiiiiNNNuuuuuuuuurrrreeeeh4hh",
"xxxxZZZZNNNNgguuggggggggffffhhhh",
"bbMMZZKKHHHHSSSSFFFFPPPPEEEEZZZZ",
"^MMMZZZZHHHHSSSSFFFFPPPPEEEEZZZZ",
"LLL^___KHHHHSSSSFFFFPPa65pp@*6**",
"bbLLZKKZss,,&&&&9===@@@@@@@@****",
"$$$$&&&&++++....++++$$$$::::@@@@",
"$$$$&&,,:88844448888qqqq6666,,,w",
"44448888888844448888qqqqt66twwww",
"yyyyppppkkkkkkkkzzzzzzzzxxxxxxxx",
"GGGGKKQQDDCDLmzzzzzzbbbbsKKKWWWH",
"GbbGAAAACCDULLLLUUUU]]]]KKKKZHHZ",
"^^^^]KAADUUULmmLUUZ)]]]]KKKK'''W",
"GbssKQ]]^^^^(((()UUZtbt*;;;qZZZH",
"XXXX@@@@::::****----$$$$@@@@####",
"X===@@@@++++****-oo-$$$$@@@@####",
"444488886666wwww333388888888wwww",
"hhhhkkkksssssssssssskkkkjjjjzzzz",
"WWJJFFFFGGnnZHZZSSSSVCCVzzzzcccc",
"WWWWYYYYWWWWHHHHSUUSVCDDAAAALLLm",
"}^^}|||(]]]][![[{SUUDTTTIIIILLm^",
"JW^^Y(Y(]]]][[[[{{{{TVVTIIIIL^^^",
"........OOOO##88ee,ewwww@@@@oo::",
"..&&****::::####+,++oooo@@@@o:::",
"111122pp777788,,,,,,>>ww88888888",
"yyyyppppjjjjjjjjvvvvcccckkkkllll",
"RdddxxxxddddFFFF((((~~~~mmmmBBBB",
"RRRR////////FFFF((((~~~~```mBBBB",
"RRRR////dwwwrrrr33kkl~~~mm`mBBBB",
"0###r---####    ....%%%%;;;;@@@<"
};
