/* XPM */
static char *_493779426627[] = {
/* columns rows colors chars-per-pixel */
"32 32 57 1 ",
"  c #786028",
". c #807030",
"X c #887830",
"o c #887838",
"O c #907838",
"+ c #908038",
"@ c #908040",
"# c #988040",
"$ c #908840",
"% c #988840",
"& c #A08848",
"* c #A09048",
"= c #A09848",
"- c #A89848",
"; c #A09050",
": c #A09850",
"> c #A89850",
", c #A89858",
"< c #A8A050",
"1 c #A8A058",
"2 c #B0A050",
"3 c #B8A850",
"4 c #B0A058",
"5 c #B0A858",
"6 c #B8A858",
"7 c #B8B050",
"8 c #B8B058",
"9 c #B0A860",
"0 c #B8A860",
"q c #B8A868",
"w c #B8B060",
"e c #C0B858",
"r c #C0B060",
"t c #C0B860",
"y c #C8B860",
"u c #C0B068",
"i c #C0B868",
"p c #C8B868",
"a c #C8C068",
"s c #D0C068",
"d c #D0C868",
"f c #C8C070",
"g c #D0C070",
"h c #D0C870",
"j c #D8C870",
"k c #D0C878",
"l c #D8D070",
"z c #D0D078",
"x c #D8D078",
"c c #E0D878",
"v c #E8E078",
"b c #D8D080",
"n c #D8D880",
"m c #E0D880",
"M c #E0D888",
"N c #E0E088",
"B c #E8E088",
/* pixels */
"X6j6yatax%rxjyyr4lyyhh#hhhaxrgr-",
"X6j6yjtax%rxjrjrwlyyhh hhxaaggr-",
"Xjj6ajtax%2xjyj6ylyyhh hxhhargr-",
"*jj6ajtjx%rxyyr6llyyhh#hhhhhrgr-",
"*5xtxaexr+rchw*wxxtaaa%ahhhhuxa0",
"*txtxeexr+<chw2hxaaaaa-ahhaxaxx0",
"*txtxeex<+rch22hx8xtaa%aahaaaax0",
"*txtxeex<+<ch2wha8xtaa-aahxaxax0",
"1aaabaab>O0xf4fms3msgw:gthM7xix6",
";6aabhab>O>xf4ffm3msgw4gthM7xix>",
";6aabhhb>O0x4rmfmsmsgw4ghhMtiix6",
"16aabhhb>O0xrfff3mmsgw:ghhM7iix6",
"=5aabhbf2oaa6ydd0cc0p4%pnhnyarx6",
"@5aabhbh*oaa6ydyscc0p4%pnhnarrar",
"@5aabhbh2oaa6dvyscc0p4-pnhhn6rar",
"@5aaabba2oaaydvysccip4-pnnhn6ra6",
">5hhtaax2oppamamtNztx66iMMaMwpp6",
">rhhBaax2oppahamtNztx6>ikMaapwp5",
">rhrBaaB2oppaaamtNtax>>iaMaapwp5",
">rhrBaaB2o2pthtmtNtax>>xaMhappp5",
"qfxfhaaN1@*i5cta8m8hhw2hahahk9k9",
"qffxahhNi@1i5cat8m8thw*hiiaak9u9",
"uxfxahzzi@1itcat8h8thw*hiiiak9u9",
"uffxhazhi@1iacatt88thw*haiiaku9,",
"6hhhkikaa@55xxrpt66hg6+gh5twhw2&",
"6hhhkaaa5@55xxapr6rhg6+ghwh5hhw&",
">hhhkkta5@5axxpr66thg6+gh5hwhhw&",
"#6hhtkta5=5axxpr66thg6+gh5hwhhh&",
"O6hhtx8t8$<jhhht66rsss.sarxraaa*",
"O6h6tx8t8$<jhthr4rrrss.sarxp6aa*",
"O6h6tx8a8$<jhrh64srrss.sxrxr6a6*",
"O6h6ta8aj$<jhrh64srrss.sxrxraaa*"
};
