/* XPM */
static char *_493779527843[] = {
/* columns rows colors chars-per-pixel */
"128 128 13 1 ",
"  c black",
". c #000008",
"X c #080010",
"o c #100818",
"O c #181029",
"+ c #211839",
"@ c #31185A",
"# c #31214A",
"$ c #39295A",
"% c #392973",
"& c #421873",
"* c #42298C",
"= c #5231AD",
/* pixels */
"XoooooXXXXXXXXo+#$==&X@==$$#O.............O#$$==+.................O==$#+X..........................O#$$==@.+=%$+oXXXXXXXXXoooooX",
"XooooXX.......XO#$*=&.o*=$$#O.           .O#$$==O                 +==$$+o.                        XO#$$=*o @=$$+o........XXooooX",
"ooooooXX......XO#$%=*o &=$$$+o.         .o+$$%==O                 @==$$#O.                       .O#$$%=& X*=$$+oX......XXoooooo",
"OOOoooX.......XO#$$==+ +=*$$#OX         .O#$$*=*o                 @==$$#+X                      .X+#$$*=+ +==$$#OX.......XoooOOO",
"++OOoXX........O#$$*=&.O=*$$$+o.        .O#$$*=&.                 O**$$#+X      ....            .O#$$$*=O.&=*$$#OX.......XXoOO++",
"###+Oo.........o#$$*=*oo==$$$#O.        XO#$$**O                  o**$$#+X   ..XooooX.         .XO#$$%==oo*=*$$#O.........oO+###",
"$$$##Oo..     .o#$$%==O.&=%$$$+o.       XO#$$*&o                 .#*%$$#+X  .XoO++++Oo.        .O#$$$*=&.O==%$$#o.     ..oO##$$$",
"*$$$$#Oo.     .o#$$%==O @=*$$$#OX.      .O#$$%%%@+o.            .@**$$$#O...XO+#$$$$#+o.      .X+#$$%==+ O==%$$#o.     .oO#$$$$*",
"=*$$$$#OX.    .o#$$%==O o==%$$$+O.      .O#$$$%*===&o         XO@=*$$$$+o..o+#$$$$$$$#+o.     .O#$$$*=&. O==%$$#o.    .XO#$$$$*=",
"*==%$$$#O.    .O#$$*==O .@==$$$#+o.     .o+$$$$$%*==&X      .O&***$$$$#OX.o+#$$$$%%$$$#+X.   .o+#$$%=*o  O==*$$#O.    .O#$$$%==*",
"O&=*$$$#+X.   XO#$$*=*o  X&=*$$$#OX     .XO#$$$$$$%==@     X@==*%$$$$#+oXo+#$$$%***%$$$+o.  .XO#$$$*=@   o*=*$$#OX   .X+#$$$*=&O",
".X&*%$$$+o.  .o+$$$==&.   o*=%$$$+o.     .XO#$$$$$$*=&.   o&=*%$$$$$$#OXo+#$$$*==&&*%$$#O.  .o+$$$%=&X   .&==$$$+o.  .o+$$$%*&X.",
". .@%$$$#o. .X+#$$*==+     +==$$$#+X.     .o+#$$$$$*=&X  O*=*$$$$$$$$#+OO#$$$*==&O@=*$$#O. .X+#$$$==+     +==*$$#+X. .o#$$$%@. .",
"..o@%$$$#o. .O#$$%==&X     .&=*$$$+o.     .o+$$$$$%==&. o*=*$$$$$$$$$$#+#$$$%==@. @=*$$#+X.XO#$$$*=&.     X&==%$$#O. .o#$$$%@o..",
"@&*%$$$$+o..o+#$$*=*O       O==$$$#O.    .o+#$$$%*===@  @=*$$$$$$%%$$$$#$$$$=*+.  @==$$$+OOO#$$$%==O       O*=*$$#+o..o+$$$$%*&@",
"==*$$$$#+X..O#$$%==@.       .@=%$$#O.  ..XO#$$$*====&o X*=%$$$$$$**$$$$$$$$*=&.   O*=$$$####$$$$*=@.       .@==%$$#O..X+#$$$$*==",
"*$$$$$$#O..X+#$$*=&X .       o&*$$#+X.XoOO#$$$***&&@o  O==%$$$$$%*%$$$$$$$$*=+    X&*$$$$$$$$$$*=*X       . X&=*$$#+X..O#$$$$$$*",
"$$$$$$#OX..X+$$$**Oo@&@O.    o%%$$#+ooO+##$$$%==+..    O==%$$$$$$$$$$$$$$$$=*o   .@=*$$$$$$$$%*==+     .O@&@oO**$$$+X..XO#$$$$$$",
"$$###+OX. .o+$$$*&@*====&+X..@*%$$#+O+#$$$$$$*=*o      O==%$$$$$$$$$$$$$$$%=&.   +==%$$$$$$%*===+.   .O&====*@&*$$$+o. .XO+###$$",
"#+OOoo..  .o+$$$*%%****==**&%*%$$$$###$$$$$%*==@.      o*=*$$$$$$$$$$##$$$%=&.  X&=*$$$$$$%*==&+.   .@===****%%*$$$+o.  ..ooOO+#",
"oXX...    .o+$$$%$$$$$$$%****%$$$$$#$$$$%**===&o       .@==%$$$$$$$$#++#$$%=&.  O==%$$$$$$%&@+X    .@==*$$$$$$$%$$$+o.    ...XXo",
".          XO#$$$$$$$$$$$$$$$$$$$###$$$**====&O         X&=*$$$$$##+OoO#$$$=*X  +==$$$$$$$%@X      O==*$$$$$$$$$$$#OX          .",
".          .o+#$$$$$$$$$$$$$$$$$#++#$$%**@@@+X           O==*$$$#+Oo..o+$$$*=+ .&=*$$$$$$$%*%+OOo..&=*$$$$$$$$$$$#+o.          .",
"oX.         .o+#$$$######$$$$$##+O+#$$*=@.               .@==%$$#+o. .X+$$$*=@ .&=*$$$$$$$$%***==&#*=%$$$####$$$#+o.         .Xo",
"#+o.         .oO+++OOoOO+++++++OooO#$$*=&                 .&=*$$$+o.  X+#$$*=& X&=*$$$##$$$$$%**=***%$$$#OOOO+++Oo.         .o+#",
"$#+o.         .XooX.....XoooooX...O#$$*=&.                 o*=%$$#O.  XO#$$*=& X&=%$$#++#$$$$$$$$$$$$$$#+X..XXooX.         .o+#$",
"$$#+X.          ...      ......  .O#$$*=&.                 .@=%$$#O.  XO#$$*=& .&=%$$#OoO##$$$$$$$$$$$#+o.   ...          .X+#$$",
"*$$#O.                           .O#$$*=&.                  +**$$#O.  X+#$$*=# .&=%$$#o.XO+###$$$$$$$#+o.                 .O#$$*",
"=$$#+o.    .....                 .O#$$*=&.                  @=*$$#O.  X+#$$**O.X&*$$$+o...oOO+++####+Oo.        .....    .o+#$$=",
"=*$$#OX  ..ooooo..               .O#$$*=&.                 .&=*$$#O.  X+#$$%&@@@%%$$$+o.  ...XoooOOooX.       ..ooooo..  XO#$$*=",
"**$$$+o..XO+###+OX.              .O#$$*=&.                 .&=*$$#O.  .O#$$$%***%$$$#+X       ........       .XO+###+OX..o+$$$**",
"@*%$$#OXoO#$$$$#+O.              .O#$$*=&                  .&=%$$#O.  .O#$$$$$$$$$$$#O.                     .XO#$$$$$#OoXO#$$%*@",
"+*%$$#+O+#$$$$$$#+o.             .O#$$%=&.                 .&=%$$#O.  .o+#$$$$$$$$$$+o.                     .O+$$$$$$$#+O+#$$%*+",
"+*%$$$#+#$$$$%$$$#O.             .o#$$%=*O                 X**$$$#o.   .o+#$$$$$$$$$#OX.                   .X+#$$$%$$$$#+#$$$%*+",
"+**$$$##$$$%**$$$#OX             .o+$$$*=&.               .@=*$$$+o.    .oO#$$$$$$$$$#OX.                  .o+$$$$**%$$$##$$$**+",
"+**$$$$$$$%**%%$$#+X              XO#$$%==O              .@=*$$$$+o..    .XO#$$$$$$$$$#O.      .......     .o#$$$%%**%$$$$$$$**+",
"+=*$$$$$$%==@@%$$#+X              .O#$$$*=@.            .@==$$$$$#+oX.    .O#$$$$%%$$$$+o.    .XoOOOoX.    .o#$$$%@@==%$$$$$$*=+",
"+=*$$$$$%==&O@%$$#+X              .X+#$$%=*o            +==%$$$$$$#+OX.   .O#$$$****$$$#O.   .o+#####+o.   .o#$$$%@O&==%$$$$$*=+",
"O==*%$%*==&oX%%$$#+X               .O#$$$==+           X*=*$$$$$$$$$#OX.  XO#$$%%++*%$$#O.  .o+#$$$$$#+o.  .o+$$$%%Xo&==*%$%*==O",
"X@=======*O O*%$$#+X               .X+#$$*=&X          O==%$$$$$$$$$$+o.  XO#$$%%oo&%$$#O. .X+#$$$$$$$#+o. .o+$$$%*O O*=======@X",
".X@=====&O X%*$$$#O.                .O#$$%==o          O==$$$$%**%$$$#OX  .O#$$$%@@*%$$#O. .O#$$$$%%$$$#OX  X+#$$$*%X O&=====@X.",
". .OO++OX o&*%$$$#O.                .O#$$%==O    ...   O==$$$%**&**$$$+o. .O#$$$$%%%$$$#O. .O#$$$%***$$$+o. .O#$$$%*&o XO++OO. .",
".        .&=*$$$#+o.                .o+$$%==O  .O&&&+X O==*$%==@o**$$$#Oo.Xo+#$$$$$$$$$+o. .O#$$%%+&*%$$#o. .o+$$$$*=&.        .",
".        O=*$$$$#O.                 .o+$$$==O X@=====@.o*=**==&o.&=%$$$#+OOO+##$$$$$$$#O.  XO#$$%%o+**$$#o.  .O#$$$$*=O        .",
".        @=%$$$#OX.                 .X+$$$**Oo&==***==+.@====*O  @=*$$$$$##++++##$$$#+OX.  XO#$$%*++**$$#o.  .XO#$$$%=@        .",
".       .&=$$$#+o.                   X+#$$%*@%=*%$$$*=&O+&==&o   +==*$$$$$$$#+++++++OoX.   XO#$$%*@&*%$$#o.   .o+#$$$=&.       .",
".       o**$$$#O.                    .O#$$$%%*%$$$$$$%****=*+    X&==*%$$$$$$#+ooooXX..   .X+#$$%%&**$$$+o.    .O#$$$**o       .",
".       O=*$$$#o.                    .o+$$$$$$$$$$$$$$$%%**=*O    o&====*%$$$$+O....     .XO+$$$%%&*%$$#+X.    .o#$$$*=O       .",
".       O=*$$$+o.                    .XO#$$$$$$$$##$$$$$$$%==&.    X+&===**$$$#O.      ..oO+#$$$%%**%$$#O.     .o+$$$*=O       .",
".       O=*$$$+o.                     .XO##$$$$#+++##$$$$$$*=&.      XO@@&**$$#+X     ..O+#$$$$$****%$$#O.     .o+$$$*=O       .",
".       O=*$$$+X.                      .XO+++++OoXXO+##$$$$*=&.          O*=$$$+o.   ..O+#$$$$%*=*&*%$$#O.     .X+$$$*=O       .",
".       O**$$$+X.                       ..XoooXX....oO+#$$$*=&.          O==%$$+o.   .O+#$$$$*==*O&=*$$#+X.    .X+$$$**O       .",
".       o**$$$+X                     ..........     ..O#$$$==#           o*=%$$+o.  .o+#$$$%===&o @==$$$+o.     X+$$$**o       .",
".      .@*%$$#+X                   ..XooXX..         .o#$$%=*o           .&=%$$+o. .X+#$$$*=*@+X  O==%$$#OX     X+#$$%*@.      .",
".     .@=*$$$#O.                  .oO++++OOX.        .o#$$%*@            X&*$$$+o. .O#$$$%=*O.    X&=*$$$+o.    .O#$$$*=@.     .",
".     o*=%$$$#O.                 .o+#$$$$##+o.       .o#$$$*@OX.     .oO+&**$$$+X. .O#$$$*&o       +==%$$#O.    .O#$$$%==o     .",
".     +=*$$$#+X.                .o+#$$$$$$$#+O.      .o+$$$%***&@o..O&===**$$$#O.  X+#$$**+        .@=*$$#O.    .X+#$$$*=+     .",
".     @=%$$$+o.                 XO#$$$$$$$$$#+O.     .X+#$$$%*===*&&*===*%$$$$+o...o+$$$**O         O==$$#+X     .o+$$$%=@     .",
".    o**$$$#OX.                .o+$$$%***%$$$#+o.     .O#$$$$$%**===**%$$$$$$#OoXXoO#$$$==O         O*=%$$+X.    .XO#$$$**o    .",
".    @=%$$$#o.                 .o#$$$*&&*=%$$$#OX     .XO#$$$$$$$$%%$$$$$$$##+OOO++#$$$$=*o         O==%$$+o.     .o#$$$%=@    .",
".   o**$$$#+X.                 .O#$$%=@o+**%$$$+o.     .XO#$$$$$$$$$$$$$$##+OO++##$$$$$%=&.         O==%$$#O.     .X+#$$$**o   .",
".  X&=%$$$#O.                  .O#$$*=&  O**$$$#O.      .o+$$$$$$$$$$$##+OOOO+#$$$$$$$$*=&          o*=*$$#+X.     .O#$$$%=&X  .",
". X@=*$$$#+X.                 .X+#$$*=&.  &=%$$#O.     .XO#$$$$$$$$$#+OOoXXo+#$$$$$$%%*==+          .&==$$$+o.     .X+#$$$*=&X .",
". @=*$$$$+o.                  .o+$$$==@   @=*$$#OX.   .XO#$$$$$$$$$#OoX...XO#$$$$**=====@.           O==%$$#O.      .o+$$$$*=@ .",
".o**$$$$#OX.                  .O#$$%==O   O=*$$#+X..XXoO+$$$$%%$$$$#O..  .o+$$$%*=*&==*+.            .&=*$$#+X      .XO#$$$$**o.",
"+*=%$$$#OX.                  .o+$$$*=*X   O**$$$+OOO+++#$$$$%*%%$$$#O.   .O#$$$**@oXoOX               o*=%$#+X       .XO#$$$%=*+",
"==$$$$#+o.                   .O#$$$==@    O**$$$#####$$$$$$%*&+*%$$#O.   .O#$$%*@.                    X&=%$#+X        .o+#$$$$==",
"=$$$$#+o.                   .o+$$$*=*X    #=*$$$$$$$$$$$$$%==++*%$$#O.   .O#$$%*O                     #==$$#+X         .o+#$$$$=",
"$$$##+o.                  ..XO#$$%==+    .&=*$$$$$$$$$$$%*==&O&*%$$#O.   .O#$$%*&o                   .&==$$#OX          .o+##$$$",
"$#+OoX.             ...XXXXoO#$$$*=&X    .&=%$$$$$$%**=====*O@**$$$#o.   .O#$$$*=*#.                 .&=*$$#O.           .XoO+#$",
"#+OX..             .XoO+++++#$$$%==+     .&=%$$$$$****===*@O+**%$$#+X.   .o+#$$$*==@.                X&=*$$#O.            ..XO+#",
"+OX.              .oO+####$$$$$%==&X     .&=*$$$$*=&OOOOOX.O*=%$$$#O.     .O#$$$$%==@.               X&=*$$#OX.             .XO+",
"#+O..            .o+#$$$$$$$$$$*=&o       +==*%%*==+      o&=*$$$#OX.     .XO#$$$$%==+               .&=*$$$+O..           ..O+#",
"$#+O..          .o+#$$$$$$$$$%==*o        X&======@.     .@=*$$$#+o.       .XO+#$$$*=*X              .@==%$$#+OX.         ..O+#$",
"$$$+OX.        .o+#$$$%*****===*O          X@*==*+.      o==%$$$+o.         .XO+#$$%==O               O*=*$$$##OX.       .XO+$$$",
"*$$$+OX.      .o+#$$$*=*&*====&O             oOOX        #==$$$#O.           ..O#$$$*=+                +==*$$$$#OX.     .XO+$$$*",
"=%$$$#Oo.     .O#$$$*==@XoO++OX                         .&=*$$$+o.            .o+$$$*=+                .@==*$$$$+o.    .oO#$$$%=",
"@*$$$$#OX.    X+#$$*==@.                                .&=%$$#O.             .O#$$$*=+                 .@==*$$$#OX   .XO#$$$$*@",
"X&=$$$$+o.   .X+#$$*&O.                                 o==%$$#O.           ..o+#$$$*=O                  .+&=*$$$+X.  .o+$$$$=&X",
".O**$$$#OX   .X+$$%=&X           XO++OX                 O==$$$#o.          ..O+#$$$%==O                    o&*%$$+o.  XO#$$$**O.",
"..&=$$$$+o.  .X+$$%=*O         o@&====&+X               O==$$$+o.         .XO+#$$$$*=&.                    .@*%$$+o. .o+$$$$=&..",
". O=*$$$#OX   X+#$$==O  .    X#*========&X              O==$$$+X.        .XO#$$$$%*=*o                 .  .@**$$$+o. XO#$$$*=O .",
". .&=$$$$+o.  .O#$$**&+@&@O..@===*%$$%*==&X             O==$$$+X        .XO#$$$$%==@X               .O@&@+&==*$$#+X..o+$$$$=&. .",
".  +=*$$$#O.  .O#$$$***====@@==*$$$$$$$*==@.            O=*$$#+X       .XO#$$$$*=*+.               .@=======*$$$#O. .O#$$$*=+  .",
".  .%*$$$#O.  .o+#$$$%**===***%$$$$$$$$$*==O            O=*$$#+X       .O+$$$$*=*O                .#====***$$$$#OX. .O#$$$*%.  .",
".   O*%$$#+X....o+#$$$$$$%%*%$$$$$####$$$*=&X           @=*$$#OX      .o+#$$$*=&o                 o*==%$$$$$$$#+o...X+#$$%*O   .",
". .o+%%$$$+OoooXXO+#$$$$$$$$$$$$#+OOO+#$$%==+          X*=%$$#O.      XO#$$$*=&o                  O==%$$$$$$##+oooooO+$$$%%+o. .",
".X&**%$$$$####+Oooo++###$$$$$$$#+o...o+$$$*=*o         O==$$$#o.     .o+$$$%=*o                  .@=*$$$$###+OoOO+####$$$$%**@X.",
"X@==*%$$$$$$$$$#+oXXoOO++#####+Oo.   .O#$$$==@.        @=*$$$+o.     .O#$$$**+                   O*=%$$#+OOoooO+#$$$$$$$$$%*==@X",
"O==*$$$$$$$$$$$$#+o....XooOOOOoX.    .o+#$$%==O       o*=%$$#OX     .X+$$$%=&.               ..o@*=*$$$#OX...o+#$$$$$$$$$$$$*==O",
"+=*$$$$$$$$$$$$$$#O.    ........      .O#$$$*=&.      @=*$$$#o.     .o+$$$**O             .O@&&*==*$$$#OX.  .O#$$$$$$$$$$$$$$*=+",
"+=*$$$$$$$$$%$$$$#O.                  .XO#$$%==+     o*=%$$#+X.     .o#$$%=&.            o@======*$$$#+o.   .O#$$$$%$$$$$$$$$*=+",
"+**$$$##$$$$=%$$$#OX                   .o+$$$*=*o    +==$$$#O.      .O#$$%=&.           O&===**%$$$$#+o.    XO#$$$%=$$$$##$$$**+",
"+**$$$#+#$$$%%$$$#O.                    XO#$$%==@.   @=*$$$+o.      .O#$$%=&.         .+*==*%$$$$$$#+o.     .O#$$$%%$$$#+#$$$**+",
"+*%$$$+O+$$$$$$$$#O.                    .o+#$$*=*X  .&=*$$#+X       .O#$$%=&.         +===%$$$$$$##+o.      .O#$$$$$$$$+O+$$$%*+",
"+*%$$#+OO#$$$$$$$+o.                     .O#$$%==O  .&=*$$#O.       .O#$$%=&X        O*==%$$$$##+OOX.       .o+$$$$$$$#OO+#$$%*+",
"@*%$$#OXXO##$$$#+O.                      .o+$$$*=@  .&=*$$#O.       .o#$$$=*o      .O&==%$$$#+OOoX..         .O+#$$$##OXXO#$$%*@",
"**$$$#O..XO++#++OX.                       XO#$$*=*X .&=*$$#+X       .o+$$$*=+     X@*==%$$#+Oo...            .XO++#++OX..O#$$$**",
"=*$$$#o. ..XoooX..                        .O#$$%==O  @=*$$$+o.       X+#$$*=@.   o&==*%$$#+OX.                ..XoooX.. .o#$$$*=",
"=$$$#+X.   .....                          .o+$$$*=@  +=*$$$#O.       .O#$$%=*o  o&==*$$$#+O..                   .....   .X+#$$$=",
"*$$#+o.                                    XO#$$*=&X o*=$$$#OX       .o#$$$==@ .@==*$$$#+O....XXXXXX...                  .o+#$$*",
"$$#+o.          ...      ......            .O#$$%==+ .&=%$$$+o.      .X+$$$*=& o*=*$$$#+O...oO++++++OOo..                 .o+#$$",
"##+o.         .XooX.....XoooooX..          .o+$$$==@  +=*$$$#O.       X+#$$*=& O==%$$#+o...O+#########+Oo.....             .o+##",
"+Oo.         .oO+++OOoOO+++++++Oo.         .o+$$$*=&. .&=%$$#+X.      X+#$$*=& O==%$$#O...O+#$$$$$$$$$$#+OoXXXX...          .oO+",
"o..         .o+#$$$######$$$$$##+o.       .XO#$$$*=@   o**$$$+o..... .X+$$$*=& O==%$$#O..o+#$$$$$$$$$$$$##+++++OoX.          ..o",
".           XO#$$$$$$$$$$$$$$$$$#+o.      .O#$$$%==+   X&=$$$#OooooX..o+$$$*=+ X&=*$$#+XXO#$$$$%***%%$$$$$$$$$##+OX.           .",
".....      .o+$$$$$$$$$$$$$$$$$$$#OX.    .o+#$$$*=&X   X&=$$$#++++++OoO#$$$=*X  @=*$$$+Oo+#$$$%*****=*%$$$$$$$$$$#O.       .....",
"ooooX..    .o+$$%$$$$$$$%****%$$$$#o.    .O#$$$*=*o    X*=%$$$$$$$$$#++#$$%=&.  O==%$$#+O+#$$%%OOOO+&==*$$$$$$$$$#+X.    ..Xoooo",
"++#++OX.   .o#$$*%%****==**&&*%$$$#O.    .O#$$%=&o     O==$$$$$$$$$$$##$$$%=&.  X&=*$$$#++#$$%%O    .@===***%%$$$$#o.   .XO++#++",
"#$$$#+OX.  .O#$$*&@*====&+X..@*%$$#OX    .O#$$**O      O==$$$$$$$$$$$$$$$$%=&.   +==%$$#++#$$$**+.   .O&====*@*%$$#O.  .XO+#$$$#",
"$$$$$$#OX. .O#$$**Oo@&@O.    o%%$$#+X    .O#$$**O..    O==$$$$$$$$$$$$$$$$$=*o   .@=*$$#++#$$$*==+     .O@&@o+**$$#O. .XO#$$$$$$",
"*%$$$$$#O. .o#$$*=&X         o&*$$#+X    .O#$$%*&&&@o  O==%$$$$$%*%$$$$$$$$*=+    X&*$$#+O+#$$$*=*X         X&=*$$#o. .O#$$$$$%*",
"==*$$$$#+X..o+$$%==@.       .@=%$$#O.    .O#$$$*====&o X*=%$$$$$$**$$$$$$$$*=&.   O*=$$#+oO+#$$$*=@.       .@==%$$+o..X+#$$$$*==",
"@&*%$$$$+o..X+#$$*=*O       O==$$$#O.    .X+#$$$%*===@  @=*$$$$$$%%$$$$#$$$$=*+.  @==$$#+X.O+$$$%==O       O*=*$$#+X..o+$$$$%*&@",
"X.o@%$$$#o. .O#$$%==&X     .&=*$$$+o.     .o+$$$$$%==&. o*=*$$$$$$$$$$#+#$$$%==@. &=*$$#OX..O#$$$*=&.     X&==%$$#O. .o#$$$%@o..",
". .@%$$$#o. .X+#$$*==+     +==$$$#+X.     .o+#$$$$$*=&.  O*=*$$$$$$$$#+OO#$$$*==&O@=*$$#O. .X+#$$$==+     +==*$$#+X. .o#$$$%@. .",
".X&*%$$$+o.  .o+$$$==&.   o*=%$$$+o.     .XO#$$$$$$*=&.   o&=*%$$$$$$#OXo+#$$$*==&&*%$$#O.  .o+$$$%=*X   .&==$$$+o.  .o+$$$%*&X.",
"O&=*$$$#+X.   XO#$$*=*o  X&=*$$$#OX     .XO#$$$$$$%==@     X@==*%$$$$#+oXo+#$$$%***%$$$+o.  .XO#$$$*=@   o*=*$$#OX   .X+#$$$*=&O",
"*==%$$$#O.    .O#$$*==O .@==$$$#+o.     .o+$$$$$%*==&X      .O&***$$$$#OX.o+#$$$$%%$$$#+X.   .o+#$$%=*o  O==*$$#O.    .O#$$$%==*",
"=*$$$$#OX.    .o#$$%==O o==%$$$+O.      .O#$$$%*===&o         XO@=*$$$$+o..o+#$$$$$$$#+o.     .O#$$$*=&. O==%$$#o.    .XO#$$$$*=",
"*$$$$#Oo.     .o#$$%==O @=*$$$#OX.      .O#$$%%%@+o.            .@**$$$#O...XO+#$$$$#+o.      .X+#$$%==+ O==%$$#o.     .oO#$$$$*",
"$$$##Oo..     .o#$$%==O.&=%$$$+o.       XO#$$*&o                 .@*%$$#+X  .XoO++++Oo.        .O#$$$*=&.O==%$$#o.     ..oO##$$$",
"###+Oo.........o#$$*=*oo==$$$#O.        XO#$$**O                  o**$$#+X   ..XooooX.         .XO#$$%=*oo*=*$$#O.........oO+###",
"++OOoXX........O#$$*=&.O=*$$$+o.        .O#$$*=&.                 O**$$#+X      ....            .O#$$$*=O.&=*$$#OX.......XXoOO++",
"OOOoooX.......XO#$$==+ +=*$$#OX         .O#$$*=*o                 @==$$#+X                      .X+#$$*=+ +==$$#OX.......XoooOOO",
"ooooooXX......XO#$%=*o &=$$$+o.         .o+$$%==O                 @==$$#O.                       .O#$$%=& X*=$$+oX......XXoooooo",
"XooooXX.......XO#$*=&.o*=$$#O.           .O#$$==+                 +==$$+o.                        XO#$$=*o @=$$+o........XXooooX",
"XoooooXXXXXXXXo+#$==&X@==$$#O.............O#$$==+.................O==$#+X..........................O#$$==@.+=%$+oXXXXXXXXXoooooX"
};
