/* XPM */
static char *_493779601871[] = {
/* columns rows colors chars-per-pixel */
"32 32 72 1 ",
"  c #7078B8",
". c #7878B8",
"X c #7888B8",
"o c #7890B8",
"O c #8890B0",
"+ c #8098B0",
"@ c #8898B8",
"# c #9098B8",
"$ c #98A8A8",
"% c #98B0A8",
"& c #88A0B8",
"* c #98A0B0",
"= c #98A8B0",
"- c #90A0B8",
"; c #98A0B8",
": c #90A8B8",
"> c #90B0B0",
", c #98B0B0",
"< c #90B0B8",
"1 c #A0B0A8",
"2 c #A0B8A8",
"3 c #A8B8A8",
"4 c #A0A8B8",
"5 c #A0B0B0",
"6 c #A0B8B0",
"7 c #A8B8B0",
"8 c #A0B0B8",
"9 c #A8B8B8",
"0 c #A8C0A8",
"q c #B0C0A8",
"w c #B8D0A8",
"e c #A8C0B0",
"r c #A8C0B8",
"t c #B0C0B0",
"y c #B0C8B0",
"u c #B8C8B0",
"i c #B0C0B8",
"p c #B0C8B8",
"a c #B8D0B0",
"s c #C0D0B0",
"d c #C0D8B0",
"f c #C8D8B0",
"g c #C0D8B8",
"h c #C8D8B8",
"j c #8088C0",
"k c #8090C0",
"l c #8890C0",
"z c #8898C0",
"x c #9098C0",
"c c #88A0C0",
"v c #90A0C0",
"b c #98A0C0",
"n c #90A8C0",
"m c #98A8C0",
"M c #90A0C8",
"N c #98B0C0",
"B c #A0B0C0",
"V c #A0B8C0",
"C c #A8B8C0",
"Z c #A0B8C8",
"A c #A0C0C0",
"S c #A8C0C0",
"D c #A8C8C0",
"F c #A0C0C8",
"G c #B0C0C0",
"H c #B0C8C0",
"J c #B0C8C8",
"K c #B0D0C8",
"L c #B8D0C8",
"P c #C0D8C0",
"I c #C8D8C0",
"U c #C0D8C8",
/* pixels */
"JJJJJJKKJJJKvvKDDD<&+VVVKKJJJJJK",
"nnnnNNNNFFFc&XX<DDoo.+>>AAAA::::",
"JJJJKKKKKKKKLvjBUB @VVKKJJJJJJJJ",
"JJJJVVVKKKKKLLjBUB BVKKVVVVVZJZJ",
"JNNNNvvvjjvKLLjBUB BKKVzvvvvMMMZ",
"JkNJKKKKKNjvLLjBUB@BKVzzVJJJJJZM",
"BxGIUUUUUUllUU#SPi;iPVmGSPPPLLLb",
"xGIINzzNUUmlUU#SPi;iPGmGPHVVLLLL",
"xIIGzNSUUUmlUU#SPP8iPGmPPHSVCLLL",
"BIIBzSUUUUCmUU#SPPiiPGmGPPPPBCLL",
"=gg78ggr9t99dd4dfu7fde@,yyddrrhp",
"=gg7-ggr99tddd4tfu5fdde,,yddrrhr",
"=ggg-gggddddddtdfu5fddddydddprhr",
"O7gg-gggdddddd7dff55ddddddddrrhr",
"*7dd75ee757766edaa0$1q333311%ww2",
"*7ddaee7557eeyddaaa0qq311313www2",
"*7ddaaaaaaaaddddaaaasssswwwwwwww",
"*7ddaaaaaaaaddddaaaasssswwwwwwww",
"*7ddaee7557eeyddaaa0qq311313www2",
"*7dd75ee757766edaa0$1q333311%ww2",
"O7gg-gggdddddd7dff55ddddddddrrhr",
"=ggg-gggddddddtdfu5fddddydddprhr",
"=gg7-ggr99tddd4tfu5fdde,,yddrrhr",
"=gg78ggr9t99dd4dfu7fde@,yyddrrhp",
"BIIBzSUUUUCmUU#SPPiiPGmGPPPPBCLL",
"xIIGzNSUUUmlUU#SPP8iPGmPPHSVCLLL",
"xGIINzzNUUmlUU#SPi;iPGmGPHVVLLLL",
"BxGIUUUUUUllUU#SPi;iPVmGSPPPLLLb",
"JkNJKKKKKNjvLLjBUB@BKVzzVJJJJJZM",
"JNNNNvvvjjvKLLjBUB BKKVzvvvvMMMZ",
"JJJJVVVKKKKKLLjBUB BVKKVVVVVZJZJ",
"JJJJKKKKKKKKLvjBUB @VVKKJJJJJJJJ"
};
