/* XPM */
static char *_493779627845[] = {
/* columns rows colors chars-per-pixel */
"32 32 75 1 ",
"  c #6078B8",
". c #7890A8",
"X c #7898A8",
"o c #6888B0",
"O c #6880B8",
"+ c #7088B0",
"@ c #7088B8",
"# c #7090B0",
"$ c #7898B0",
"% c #7890B8",
"& c #7898B8",
"* c #6080C0",
"= c #6880C0",
"- c #6888C0",
"; c #6080C8",
": c #6880C8",
"> c #7088C0",
", c #7088C8",
"< c #7898C0",
"1 c #7090C8",
"2 c #7898C8",
"3 c #90B890",
"4 c #98B898",
"5 c #8098A8",
"6 c #8098B0",
"7 c #8098B8",
"8 c #80A0A8",
"9 c #88A0A8",
"0 c #88A8A8",
"q c #90A8A0",
"w c #90A8A8",
"e c #88B0A0",
"r c #88B0A8",
"t c #90B0A0",
"y c #98B0A0",
"u c #98B8A0",
"i c #90B0A8",
"p c #98B0A8",
"a c #98B8A8",
"s c #80A0B0",
"d c #88A0B0",
"f c #88A8B0",
"g c #80A0B8",
"h c #88A0B8",
"j c #88A8B8",
"k c #90A8B0",
"l c #90A8B8",
"z c #90B0B0",
"x c #98B0B0",
"c c #98B8B0",
"v c #A0B8A0",
"b c #A0B8A8",
"n c #A0B8B0",
"m c #98C088",
"M c #98C098",
"N c #A0C890",
"B c #A0C098",
"V c #A8C098",
"C c #A8C898",
"Z c #B0C898",
"A c #A0C0A0",
"S c #A8C0A0",
"D c #A0C8A0",
"F c #A8C8A0",
"G c #A0C0A8",
"H c #A8C0A8",
"J c #A8C8A8",
"K c #A0C0B0",
"L c #A8C0B0",
"P c #A8C8B0",
"I c #A0C8B8",
"U c #B0D0B0",
"Y c #8098C0",
"T c #80A0C0",
"R c #88A0C0",
/* pixels */
"GPPPGG&sGGGGGGGzfGGGGGGzffKKLKKK",
"GGuuGGsiGGGGGGGz&fGGGGGz&fKKKKKK",
"PGGGGG&iGGGGGGGz&fGGGGGz-fKKKKKL",
"PGGGGi&ibGGbGGz2;&GGGfTT-&KKKIKI",
"JJJzGf*fGGGG&&&sXXAAriraK1gKKKKK",
"JJJJGG$ffGfGsGGG0X00iaHHKKjjKKKK",
"JJJaGG$*=$$fGGGGAAOXiHHHKKKgzKKK",
"jjzaGf$$==fGGGGGAA00aHHHKKK1Tjjz",
"AA00yYfyfffFFFSSJJzzAAAAJJcRiGGa",
"AAA0YfCCFaTaFSSSzJzsAAAAJJckiaGG",
"AAAgfCCCFFfTFSSSzzzsiAAAJJcciiaa",
"iiggCCCCFFafSSSFzzs>&&iiccckiiaa",
"aa99ZZZZHHHk444455o50666wwwwcccG",
"aaX9vZZZHHk6#4485ooSG06@8wAAGccG",
"a9+9xZZZHHkk;#88qq5qGGG0%AAAGGcG",
"a99axxvvkkk>#;;8qSSSGGGGwAAAGGaG",
"6ySS999966yyBB$:iAAASSSuiAAAaa07",
"SSSyAA .yVVVBBB0TiAASSStiAiA07dd",
"ySSSAA9.VVVVBBBBfTiAuSutiiis0aaa",
"SSSSAAAAVVVVBBBBAfTTyuuus<<saaaa",
"t33muu9uSSSBBBBBA77,0ii0::&0iiiu",
"tt33u00uNSSNBBBBA770igg0:&0Atuuu",
"tt33997uNSSSBBB407AAAAA0&0AAAutu",
"33tt9970BBBNBB4p70AAAAAi0AAAAAAA",
"aw99ws&&wwAAMMM9fSSSSSSpfiAAGzzz",
"waaaww&&dwdwMee9ySSSSSSuiiiflppz",
"PPPPbbs&wAAd799MSSSSSSzuTTfAGGGG",
"PPPPbbssAAAw97eMSSSSSSuzTfiAGGGG",
"KPUPJJa04GGuafiJDDGGGGGahhhannLn",
"PPPUJJsaGGGGaffJADGGGGGzkJJJLLnL",
"PPPPJJsaGGGGaafJAAKKaazzaJJJLLLn",
"PPPPJJs0GGGGJaiiKAKKaaazkJJJLLnL"
};
