/* XPM */
static char *_493779613963[] = {
/* columns rows colors chars-per-pixel */
"32 32 71 1 ",
"  c #100050",
". c #180850",
"X c #180858",
"o c #181058",
"O c #201058",
"+ c #201858",
"@ c #281858",
"# c #201060",
"$ c #201860",
"% c #281860",
"& c #282060",
"* c #282068",
"= c #302060",
"- c #302068",
"; c #302868",
": c #382868",
"> c #383068",
", c #302070",
"< c #302870",
"1 c #382870",
"2 c #382878",
"3 c #303070",
"4 c #383070",
"5 c #383078",
"6 c #403070",
"7 c #403870",
"8 c #483870",
"9 c #403078",
"0 c #403878",
"q c #484078",
"w c #484878",
"e c #403880",
"r c #483880",
"t c #404080",
"y c #484080",
"u c #484880",
"i c #484888",
"p c #504080",
"a c #504880",
"s c #504888",
"d c #584888",
"f c #505080",
"g c #505088",
"h c #585088",
"j c #585090",
"k c #585890",
"l c #605888",
"z c #605090",
"x c #605890",
"c c #605898",
"v c #606090",
"b c #606098",
"n c #686098",
"m c #686898",
"M c #706898",
"N c #687098",
"B c #707098",
"V c #6860A0",
"C c #6868A0",
"Z c #7068A0",
"A c #7068A8",
"S c #7070A0",
"D c #7870A0",
"F c #7070A8",
"G c #7870A8",
"H c #7878A8",
"J c #7870B0",
"K c #7878B0",
"L c #8088A8",
"P c #8080B8",
"I c #8880B8",
/* pixels */
"  X+OzOOaa%%;;OO    XXXXZZZ1..;.",
"  X+O0OOaM%%;77O   4XXXJZZZZ..;;",
"+X++OOOzMMM6;;7;  44XXJJ111ZV..;",
";+;+OOIz%6aMh;OhLf4 sJ2XXXXyVV.;",
"---.1J11O  0tCt-11.sA,,,wNw;rJJ-",
"--.-J1..    --Ct..JJ,,,yw;w;--Jj",
"--0c....     --CJJJ.  ,,..;w--rJ",
"c000....     -tCJJJ.    ..;;r-rj",
"cccr#      <1yAy1nnn$$$$O==O.4PP",
"OOO1rr   <a<AA1.O1yyCi$$=OO4jPj.",
"OOOO -r-<aHH1...OOO1CCC5OO=aj4..",
"rrrO  #rHH< .1yyy1OO$iCiaaa44..4",
"%%44-..-Fu.1yyyy444%...VKK5o%%::",
"  o4j-.jF1.Fm3yooo%4;..;KK5o%a:%",
"   oj9.jF..uyooo  oo;;..5Koo:a  ",
"   o9-.jF1.uyooo    ....gKoo::  ",
"   @a>.an&&74           <G  --..",
"XXX@a&.an7&a4        $$ pG< ....",
"@@::a&.&n&&74        u$ pG< .-.-",
"::::>.&aaa&&4o     O;u$ pGp -x0-",
"00%%..;m4ZOOe<oo  ;q00+0cIIpOO9g",
"%%%%qmmqZZpO<ee<; qq++kPp--cKOOO",
"%0dGq;;.OZZpoo<eBq;;+kP0----9KgO",
"dddd..;qOOpZc<oo;;;;Pk++-p--OO9g",
":::l;@@;u:.:gg0000dDqOOOqxxqyOO1",
"8:O8q@..:u::&gggd0DdOO::++qqy1Oy",
"O:OO;q...:uu&&&FdD%%OqvO++++O1nn",
"OO:O.@;...:S0&gg%%0dOO:qqq++OynO",
"  *0.+0-..>>0b0*.--x4..&yy++SS..",
"   00.+0...>b0  -0..ss4.+++cu...",
"    00.+>.aa*  *0-.-&4s4+4yy..::",
"    .00.>a>.  **.......sccc+.:.."
};
