/* XPM */
static char *_493779746351[] = {
/* columns rows colors chars-per-pixel */
"24 24 44 1 ",
"  c #8C5A29",
". c #8C6331",
"X c #846339",
"o c #8C6B39",
"O c #8C6B4A",
"+ c #946B42",
"@ c #8C734A",
"# c #94734A",
"$ c #8C7352",
"% c #947B52",
"& c #9C7B52",
"* c #947B5A",
"= c #9C845A",
"- c #A5845A",
"; c #9C8463",
": c #9C8C63",
"> c #9C8C6B",
", c #9C8C73",
"< c #A58463",
"1 c #A58C63",
"2 c #A58C6B",
"3 c #AD8C6B",
"4 c #A5946B",
"5 c #AD946B",
"6 c #A58C7B",
"7 c #A59473",
"8 c #AD9473",
"9 c #AD9C73",
"0 c #AD947B",
"q c #AD9C7B",
"w c #B59C73",
"e c #B59C7B",
"r c #B59C84",
"t c #B5A584",
"y c #B5A58C",
"u c #BDAD8C",
"i c #ADA594",
"p c #BDAD94",
"a c #BDB59C",
"s c #BDBDA5",
"d c #C6B59C",
"f c #C6B5A5",
"g c #C6BDA5",
"h c #C6BDAD",
/* pixels */
";;7%%%###12##########2&&",
"00rr770000e22e222222eerr",
"aafffrppppddddffffddddaa",
";;%%%%11####2#22#####2&&",
"q;yyq=wuuw&<eee=5er;;r8e",
"y7===4uuwu3&&<=5pe8r8re;",
"qy4=44&&&&33&<ee==;;8;88",
"qqyyq=&uuw&<3ee5=epr8r;8",
",,:::@o=======&&.&&&&8--",
"ssppppaaaaaaaappppaaaadd",
",,000:===98===&&&&&&88ww",
"$$@@@@oooo........   &oo",
"8877%ha&5588888+pp=28888",
"887%%ha&&58888<<pp1=8888",
"887%7y55&58888<88<8=8888",
"22%%7%&5&&88<#<8++22==88",
"+<33++++<q##2tq+++#2q###",
"aa3++++++qhhht++++##qagg",
"aat-+++<<ahhhh&+++#2aagg",
"++3t3+++qq###2q1++#aq2##",
"2;*2y*;i;O>>*O=t==t1%122",
"722*2yi6O6>>>>O2tt1%1122",
"222**yiO;6>>>>=Ott%%1122",
";;2*XyiO;6>>>>=OttX%11;;"
};
