/* XPM */
static char *_493779672806[] = {
/* columns rows colors chars-per-pixel */
"24 24 31 1 ",
"  c #94734A",
". c #947352",
"X c #947B52",
"o c #9C7B52",
"O c #9C7B5A",
"+ c #9C845A",
"@ c #9C8463",
"# c #9C8C63",
"$ c #9C8C6B",
"% c #A58463",
"& c #A58C63",
"* c #A58C6B",
"= c #AD946B",
"- c #AD9473",
"; c #AD947B",
": c #AD9C7B",
"> c #B59C7B",
", c #AD9C84",
"< c #B5A584",
"1 c #B5AD8C",
"2 c #B5AD94",
"3 c #BDAD94",
"4 c #BDB594",
"5 c #BDB59C",
"6 c #BDB5A5",
"7 c #BDBDA5",
"8 c #C6BDA5",
"9 c #C6BDAD",
"0 c #CEC6AD",
"q c #CEC6B5",
"w c #D6CEBD",
/* pixels */
"*==oo.... && oooo....==+",
"X4444111133334444111113+",
"X4o=o....    oooooooo@3+",
"X4o>>--&&;;;;====---,@3+",
"o<o<8555588865558558,$8%",
" 8o-8855888888585558,$8%",
"+8o-8888886888880988,$8-",
"*8o-8008888880088q88,$8-",
"O8o-8999999998855wq9:@8#",
"O8o-8999699965852wq9:@8#",
"O8o-8652569962585wq9:@8#",
"O8-<86226666955880q9:@8#",
"#8@:80820q95q8888666<-8O",
"#8@:8088wq95q8886569-o8O",
"#8@:8080wq9858558699-o8O",
"#8@:888wwq9557888999-o8O",
"-8$,859qq88825588888-o8*",
"-8$,88qq988855500886-o8+",
"%8$,8qq9558888800888-o8 ",
"%8$,8qq5558888580588<o<o",
"X4o>>--&&;;;;===--->>o4X",
"X4o=o....    oooo====o4X",
"X4444111133334444111444X",
"**==ooo.. &&&  oo...oo=*"
};
