/* XPM */
static char *_493779650572[] = {
/* columns rows colors chars-per-pixel */
"32 32 11 1 ",
"  c #B5AD94",
". c #BDB594",
"X c #BDB59C",
"o c #BDB5A5",
"O c #BDBDA5",
"+ c #C6BD9C",
"@ c #C6BDA5",
"# c #C6BDAD",
"$ c #C6C6AD",
"% c #CEC6AD",
"& c #CEC6B5",
/* pixels */
"%%@@##%%%%@@###%%%%#%%####@X@@@@",
"%@XX%%%#@%%%%%%%%########@X@@@@X",
"@XXX#%%#@@%@####%#o###o##XXXX@@X",
"@@@@####%@%@##o###o#######XX@@@@",
"@@@@#%#%%%##&###@@@@@@@@%%X@###&",
"@@@X#%##%##o#&&#X@@%XX@@@%@@#@#&",
"@@@X#%#%%%#oX#&#@@%@XX@@@@@@XXX#",
"@@@@###%%###@###@@@XX@@@XX@@XX##",
"%O$$%@@@@@X@@XX@&#XX@@@@X@##@@@@",
"$$$%%XXXXX@@@XX@&#XX@@$$####@@@@",
"$$$%%@XXX@@%@@@@&###@@@@####@@X@",
"$$$$%@@@@%%%@%%%&###@@@@####@X@@",
"#X######%@@X@&&&%@@X@@@o@&&@XX@@",
"#@X@##o#%@XX@%%%@%@X@@@o@&&@XX@$",
"&#@###o#%@XX@@@@@@@@@@@o@&&@@X@@",
"&###%#o%%@XX@@@@@@XX@@@o&&%@@$@@",
"%@X@&X####%%@@o@@@ X@%X@%@@@@%%@",
"%@X@#X#&####o@@@@X X@@X@%@@@@%%%",
"%@X@#@&&#%%#o@@@@XX@@XX%%@@@@@%%",
"@@@@#@&&%%%#o@@@@@@@@XX%%%%@@@%@",
"X@%@%X%%X@%@@@@@$%%$#o#%%@@@@@@@",
"XX@%%@%%XX@@+@@.$%%$oo%%%@@@@@@@",
"@X@%@@%%@@XX+@@+O$$$#o%%@@@@@@@@",
"@%@@@@%@@@XX+@@+$$$%%#%%X@%@@o@o",
"@@@@@@@@@@XX@@XX%@@%%%%@X@@@@X@@",
"oo@@@@@@@@@@@@ X%@@@%%%@@@@%%@@@",
"@o@@@@@@@@@@@@ @%@X@%@@@@@@@%%@X",
"@@@@X@@@@@@@@@@@@XX@@@@@@@@X@@@X",
"@@%@XX@@X@######@XX@@@@@@@XXXX@@",
"@@@@@@XXX#&#####@X@@@@@@@%@XXX@@",
"@@@@@@XX#&&#o ##@X@@$$@@@@@@@@@@",
"@%%@@@@@&&#@#@ o@XX@$$@@@@@@@@@@"
};
