/* XPM */
static char *_493779764975[] = {
/* columns rows colors chars-per-pixel */
"32 32 56 1 ",
"  c #946B42",
". c #947342",
"X c #94734A",
"o c #9C734A",
"O c #947352",
"+ c #9C7352",
"@ c #947B52",
"# c #9C7B52",
"$ c #9C7B5A",
"% c #9C845A",
"& c #A5845A",
"* c #9C8463",
"= c #9C8C63",
"- c #9C8C6B",
"; c #A58463",
": c #A58C63",
"> c #AD8C63",
", c #A58C6B",
"< c #AD8C6B",
"1 c #A5946B",
"2 c #AD946B",
"3 c #A58C73",
"4 c #AD8C73",
"5 c #A59473",
"6 c #AD9473",
"7 c #AD9C73",
"8 c #AD947B",
"9 c #AD9C7B",
"0 c #B59473",
"q c #B59C73",
"w c #B5947B",
"e c #B59C7B",
"r c #ADA57B",
"t c #AD9C84",
"y c #B59C84",
"u c #B59C8C",
"i c #ADA584",
"p c #B5A584",
"a c #BDA584",
"s c #B5A58C",
"d c #BDA58C",
"f c #B5AD8C",
"g c #BDAD8C",
"h c #B5AD94",
"j c #BDAD94",
"k c #BDAD9C",
"l c #BDB594",
"z c #BDB59C",
"x c #BDB5A5",
"c c #BDBDA5",
"v c #C6B59C",
"b c #C6B5A5",
"n c #C6BDA5",
"m c #C6BDAD",
"M c #CEBDAD",
"N c #C6C6AD",
/* pixels */
"-9lpjj-j=nnnm99=sssxnnn*,fcfzi5z",
"-99pp-9j=nnf99==-sstsnn*,,tfif5f",
"plp-pj9p===9h===--ts9***,fttfzzf",
"pl9-9j-9===9h===--ts9***,fftfzzf",
"#>>0q#>g$snstt--<yyyfnf-t-ss995s",
"#>00gq#q$nnnntt-yy<vnnn--xxss5*s",
"#>##>gq#$snnnftfv<yvnnn-sst-59*9",
"###d>#q#$nnnnn-nv+vvnnn-xtsx9595",
";#;#<&e&Xzzzzz#zbXbbnnn*f7freej$",
"e;##X<e&Xzzzzy#zb,ybnns*fr,reej<",
"e;#e<e&<Xzzzz2y2by,bnnn*,frfeej$",
"<e##<X&eX9z9222#,by,sss*r,f7<je$",
"#yy##2ll ;;;e>  ::j8$$$$zz5ijj#e",
"##yy2ell xxx>   XX:jnns$zzzzj<#e",
"#2####el;xxxe   XX:jnnn$i555ee#e",
"yzyye2#e;;;9ee  X:jj6$$$5fzzjje<",
"z999jj>>.zz9eee #p669hh*ykyy<eje",
"9X,9>wwo.zzzn:eep66nNhh*yy*8<$jj",
"9X99ojw>.zzzneenn#pnNhh*yk*8j$jj",
"9X99ow>j.zzzne:nn#pnNNh**y*ye$ej",
"eo<z;;dn#nnnzz;zn%snnns%y$6zy,gn",
"zo<zd;;d#nnnz9;zn%snnnn%6$zzy,nn",
"e<o<;;;d#nnnz;99s77nnnn%6$yy,,gg",
"o<ezednn#ppp;;; %s77sss%zzzzy,,y",
"Xevevvvv###24&  $$yy33OOsmmmn9*s",
"XeeXaa:a#zzz4   $$$znnpO$ss$s9*n",
"X,,X:v::#zzzs  &$$6znnnO$s$$ss9n",
"XXe,:v::#222ss&&$yz6333O$s$8n9*n",
"u$$6yb,,*nns9ss*6z%%1tz@$M8$&&ss",
"6u6ubyX,*nnnn9ssz6%pttz@$MM8&444",
"$ubbyX,b*nnnns9nz%6pzzz@$$Mds4 4",
"$$$6XXyb*snnns*sz%zzzzt@8$8$& 4s"
};
