/* XPM */
static char *_493779798983[] = {
/* columns rows colors chars-per-pixel */
"32 32 45 1 ",
"  c #846337",
". c #8C6B3D",
"X c #946B3D",
"o c #94733D",
"O c #A56B31",
"+ c #A56B3D",
"@ c #AD7337",
"# c #A5733D",
"$ c #AD733D",
"% c #B57B3D",
"& c #947343",
"* c #9C7343",
"= c #9C7B4A",
"- c #A57343",
"; c #AD7343",
": c #A57B43",
"> c #AD7B43",
", c #AD734A",
"< c #A57B4A",
"1 c #AD7B4A",
"2 c #B57B43",
"3 c #B57B4A",
"4 c #AD7B50",
"5 c #AD844A",
"6 c #B58443",
"7 c #B5844A",
"8 c #BD8C4A",
"9 c #AD8450",
"0 c #B58450",
"q c #B58456",
"w c #BD8450",
"e c #BD8456",
"r c #B58C50",
"t c #B58C56",
"y c #BD8C50",
"u c #BD8C56",
"i c #BD8C5C",
"p c #BD9456",
"a c #BD945C",
"s c #C6945C",
"d c #C69C5C",
"f c #C69463",
"g c #C69C63",
"h c #CEA563",
"j c #CEA569",
/* pixels */
"r5rtr77700009tt<>77777>>777rrrrr",
"ttrr>7>>0000tt<<*777>7>77>7>rrrr",
"ttr57r>70000999<*777>r>7rrr>rrrr",
"rt5rrr77r0rrtttt>777rrrrrrrrrr>>",
"777rrrrrppr000;088yyuu2uphd9yppy",
"r772rrr;r11000;0yy662uuwp999pppy",
"r7rrrrrrrrrp0000yyyyuuww9d9pppp7",
"r7rrrrrr1rrr0000yaaauuuuppppy777",
"00pju0;uurr5+;00g0u0uuuur7rrrrrr",
"00pdu3;3rrru;000u111<uuu2727rrrr",
"pp00;3uuurru0000uu0000u9r27rrrrr",
"pp0p0uuuurur00000u00uuuurrr7rr00",
"0uuuuuuu11101>1q0110ttttrrrrr;rr",
"uu1uuuu0::0o>#1101uuttttrrrrr;rr",
"u000u00001:111qquuuuttt *rrrrrrr",
"u01010000101qqqq000utt &rrrrrrr7",
"y>77>777tt03pp9900000000wuuus9us",
"777y>777tt3td9ph101<0000wuuus99u",
"y777rrr7330th9ph*1000010wu2ussss",
"7dd>7rrr030tdpp9*100t01twwwuuuuu",
"rO$$11uu77r711XX9t9u$77700rrt1t0",
"rrrruuu177r7111u99tt722$1rrr0001",
"rrrruuuurr72u11uuutt722700r01t0t",
"rrr>uuu1rr27uuuuuuut77720000tt0t",
">yyy1rrrtt20u00usees00010010uuau",
"yyyyrrrr20t00990esss00uu-111u0aa",
"y7ddr1rr000tuuuusjs,u0110-10uuua",
"7>y>Xrrr72ttu=00es,e1u000000uu00",
">77>*1117202fi0iuquu020@0000aauw",
"7777000000ttiiffuuqu02000<00uwuw",
"7#7>00<00ttt00ifu4qq02%20000wwuw",
"777>00<00tt20u0iuqq40000<..0uuuu"
};
