/* XPM */
static char *_493779811119[] = {
/* columns rows colors chars-per-pixel */
"32 32 27 1 ",
"  c #D00808",
". c #D80808",
"X c #C81010",
"o c #C81810",
"O c #D01010",
"+ c #E00000",
"@ c #E80000",
"# c #E00808",
"$ c #F00000",
"% c #F80000",
"& c #C02020",
"* c #C83828",
"= c #D03828",
"- c #D04028",
"; c #C04030",
": c #D04030",
"> c #C85838",
", c #C06038",
"< c #D06040",
"1 c #D06840",
"2 c #D07850",
"3 c #C88850",
"4 c #C88858",
"5 c #D89060",
"6 c #D8A068",
"7 c #D0A868",
"8 c #D8A070",
/* pixels */
"88886666666677777777666666668888",
"88221111111111111111111111112288",
"82221:::oooo.------.oooo:::12228",
"822=OOOOoooo........ooooOOOO=228",
"44>X    .+@..........@+.    X>44",
"44*X +  .@@++..$$..++@@.  + X*44",
"4>*X    +@+.$$$$$$$$.+@+    X*>4",
"4>*X +++@@@@$$$$$$$$@@@@+++ X*>4",
"5<-O.$$$++@$$%%%%%%$$@++$$$.O-<5",
"5<-O..$$$$$$$$%%%%$$$$$$$$..O-<5",
"5<-O..+$$$$$$$%%%%$$$$$$$+..O-<5",
"5<-O.+.+$$@$@$%%%%$@$@$$+.+.O-<5",
"3,;&#++$$$$$@@$%%$@@$$$$$++#&;,3",
"3,;&###@@@$$@@$%%$@@$$@@@###&;,3",
"3,;&##+$$@@$$@$%%$@$$@@$$+##&;,3",
"3,;&###$%%$%%%%%%%%%%$%%$###&;,3",
"3,;&###$%%$%%%%%%%%%%$%%$###&;,3",
"3,;&##+$$@@$$@$%%$@$$@@$$+##&;,3",
"3,;&###@@@$$@@$%%$@@$$@@@###&;,3",
"3,;&#++$$$$$@@$%%$@@$$$$$++#&;,3",
"5<-O.+.+$$@$@$%%%%$@$@$$+.+.O-<5",
"5<-O..+$$$$$$$%%%%$$$$$$$+..O-<5",
"5<-O..$$$$$$$$%%%%$$$$$$$$..O-<5",
"5<-O.$$$++@$$%%%%%%$$@++$$$.O-<5",
"4>*X +++@@@@$$$$$$$$@@@@+++ X*>4",
"4>*X    +@+.$$$$$$$$.+@+    X*>4",
"44*X +  .@@++..$$..++@@.  + X*44",
"44>X    .+@..........@+.    X>44",
"822=OOOOoooo........ooooOOOO=228",
"82221:::oooo.------.oooo:::12228",
"88221111111111111111111111112288",
"88886666666677777777666666668888"
};
