/* XPM */
static char *_493779825512[] = {
/* columns rows colors chars-per-pixel */
"32 32 19 1 ",
"  c #C8B860",
". c #D0B870",
"X c #D0B078",
"o c #E0E048",
"O c #D0C868",
"+ c #D8C870",
"@ c #C0D070",
"# c #D0D070",
"$ c #D0D078",
"% c #E0D868",
"& c #E0D870",
"* c #D8C888",
"= c #E0D890",
"- c #E0D898",
"; c #E8D898",
": c #E8E098",
"> c #E0D8B0",
", c #F8F0B0",
"< c #F8F0B8",
/* pixels */
"&&&&&&&&&&&&&&&&&&&&&&&&&&&&&&&&",
"&&X&&& &&&&&@&&&&&&&&&&&&,&&&&&&",
"&&&&&&&&,&&&&&&&&&&#&X&&:&&:& &&",
"&+&&&&&&&&&&&&&&&@&&&&&&&&&&&&&&",
"&&,&&&&&&&&&==,=&&&&&&&&&&&&&&&&",
"&&&&&&&#&,&&====>&&&,&&&&&$&&&&X",
"&&&:&&&&&&&&= = &&-&&&&&&&&&&&&&",
"&&&&&&@&&&&&====&&&&&&&&&&&&+&&&",
"&&&&&&&&&&&&&&&&&&&&&&&&&&&&&&&&",
"&&X&&&&&&&&X&&&&&&&&&&&&& &&&&&&",
"&&&&&&&&&&&&&&&&&X&&&&&&&&&&&&&&",
"&&&+,&&&&&&&&&&$&&&&&<&&&&&&oo&&",
"&&&&&&&&&&&&&&&&,&&&&&&&&&,&&&&&",
"& &&&&&&&.&&&&&&&&&&&o&&&&&&&&& ",
"&&&&&&&&&&&X&&@&&&&&&&&&&&&&&&&&",
"&&&&&&$&&&&&&#&&&&&&&&&&&&&&&&&&",
"&&&&&&&&&&&&&&&&;;,;&&&&&&&&&&&&",
"&&&&&&&&&&&&&&&&;;;;&& &&&&@&&&&",
"&&&,oo&&&,&&&&&&;;;;&&&&&&&&&&X&",
"&&&&&&&&&&&&&&&&;;;X&&&&&&&&+&&&",
"&&&&&&&@&&.&&&&&&&&&#&&&&&&&&&&&",
"&&&&&&&&&&&&&&@&&&&&&&&&& &&&&&&",
"&&X&#&&&&&&&&&&&&&&&@&&&&&&&&&&&",
"&&&&&&&&&&&X&&&&&&&&&&&&&&&&,&&&",
"O&&&=== &&&&== =&&&&&&&&&&&&>%%%",
"&&&&==,=&&&&====&&&&&X&&&&&&%o%%",
" &&&====&&&&====&&&&&&&&&,&&%%%%",
"&&&&====&&&$=,==@&&&&&&+&&&&%%%%",
"&&&&&&X&&&&&&&&&&&.&&&&&;X;; &&O",
"&&&&&&&&+&&&&&&&&&&&,&&&;;;,&&&&",
"&&&&&+&&&&&&&&&&&&&&&&&&;;;;&&&&",
",&&&+&&&&&X&&&&&&&X&&&&&*;;;&&O&"
};
