/* XPM */
static char *_493779845366[] = {
/* columns rows colors chars-per-pixel */
"32 32 63 1 ",
"  c #686038",
". c #686040",
"X c #787050",
"o c #807050",
"O c #808058",
"+ c #888858",
"@ c #888060",
"# c #888860",
"$ c #908860",
"% c #908868",
"& c #988868",
"* c #909068",
"= c #989068",
"- c #989070",
"; c #989870",
": c #A09070",
"> c #A09870",
", c #A09878",
"< c #98A070",
"1 c #A0A070",
"2 c #A0A078",
"3 c #A8A078",
"4 c #A8A878",
"5 c #A8A080",
"6 c #A8A880",
"7 c #A8A888",
"8 c #B0A880",
"9 c #B0A888",
"0 c #A8B080",
"q c #B0B080",
"w c #B0B088",
"e c #B8B088",
"r c #B8B888",
"t c #B0B090",
"y c #B8B090",
"u c #B8B890",
"i c #B8B898",
"p c #C0B890",
"a c #B8C090",
"s c #C0C090",
"d c #C0C098",
"f c #C8C098",
"g c #C0C898",
"h c #C8C898",
"j c #C0C0A0",
"k c #C8C0A0",
"l c #C0C8A0",
"z c #C8C8A0",
"x c #C8C8A8",
"c c #D0C8A8",
"v c #C8D0A0",
"b c #D0D0A0",
"n c #D0D0A8",
"m c #D0D8A8",
"M c #D8D8A8",
"N c #D0D0B0",
"B c #D0D8B0",
"V c #D8D8B0",
"C c #D8D8B8",
"Z c #D8E0B0",
"A c #E0E0B0",
"S c #E0E0B8",
"D c #E8E8C0",
/* pixels */
"$$$ %%%%=88=>>>>9%%9>>>>$33$%,%o",
"  6VuVVVVVVVffffddddddddVVVVu%,,",
"$ 6VVVVVVVVVSSSSDDDdVVVVVVVVu%%o",
"  6VVuVVppVVSfSSdDdddVVVVVVVu,u,",
".5.5MMMMVVVVddVVZggZAhhANNNDtttj",
"@55@MMMdVVVddVduZZZZhhhANNNDCjtt",
"@5c56MMdVVVdVVVdggrrrrAANNDi,Cj,",
"5ccc6MMMVd226666r3rr44AAzNNijCj,",
"8MMM#rrMhrhhn66n7777u2zSpV=pnnn=",
"8MMMM#rMAhrhnn66jNNNuuSzVV=puuu=",
":MMMMr#MhA1rnn66NNNt2SSzV=8Vunu=",
":MMMMM2rAAA1n66nNNj72SzSV=pVunn=",
"-nuubbb2VVVuwwBBxx6tfVfVw;ddunn6",
"-nnnbbb2uVuVwlBBxx6tf8uV;dVwuun6",
"6nnnbbbu$VVulwBBx66xVff8;Vdduun6",
"unnnubbb3uVuBlwl;t;xufV8ddVVnun-",
",dVVrMMMu2unbbr-q1qhrMdddnnnnun8",
",VVdrrMMn2wnbbrrq$hhMd6ddnndnun:",
"wdVVr+rMnn2nbbr6qqhhMdrdnn6duunu",
"dVVVr1rMnnw2bbbrqqhhd6rdnn6dnnn8",
"5dVdnu<nVVV24bbbnnnnw2sMvuuukkk9",
"yVVVnu<<ddVd*bbbnnnnwwMsvvuuVku9",
"dVVVnun0wdVVr4bbnnnu2MMM0vuvVVk9",
"dVVVnun02VVdrrbbnnn*sMMM020vVVu9",
"5yVVnuuu00mmd6rMnn;wnnnunu;nBBu&",
"5yVVnu6u0;;aMd6dnw;wunn66u;uBBB&",
"5dVVu6**;;00MMdrn;;nnnuu6u6nBBu5",
"5dVVnu6*;;;0ddd6wOwnnn**;u6nBBu&",
",bbbVdVVdddVnnu666nndVVVZZZZVuu%",
"wwbbVVddVVdVnnu-X6nnVVVVZZZZVVu%",
",wwwdddddddduuu--6nnVVVVzzzZVV%%",
"@@@@3eddd555-66-66-6,dwdwzww%55%"
};
