/* XPM */
static char *_493779835643[] = {
/* columns rows colors chars-per-pixel */
"32 32 81 1 ",
"  c #8C7331",
". c #8C7B31",
"X c #947B31",
"o c #947B39",
"O c #9C8431",
"+ c #948439",
"@ c #9C8439",
"# c #9C8C39",
"$ c #A58C39",
"% c #AD9439",
"& c #9C8442",
"* c #9C8C42",
"= c #9C844A",
"- c #9C8C4A",
"; c #A58C42",
": c #A58C4A",
"> c #AD9442",
", c #A5944A",
"< c #AD944A",
"1 c #AD9C4A",
"2 c #B59C42",
"3 c #B59C4A",
"4 c #A58C52",
"5 c #AD9C52",
"6 c #A5945A",
"7 c #B59C52",
"8 c #B59C5A",
"9 c #B5A54A",
"0 c #BDA54A",
"q c #B5A552",
"w c #BDA552",
"e c #BDAD52",
"r c #B5A55A",
"t c #BDA55A",
"y c #BDAD5A",
"u c #B5A563",
"i c #BDA563",
"p c #BDAD63",
"a c #BDAD6B",
"s c #BDB563",
"d c #BDB56B",
"f c #C6AD4A",
"g c #C6AD52",
"h c #C6A55A",
"j c #C6AD5A",
"k c #C6B55A",
"l c #CEB55A",
"z c #CEBD5A",
"x c #C6AD63",
"c c #C6B563",
"v c #CEB563",
"b c #CEBD63",
"n c #C6B56B",
"m c #CEB56B",
"M c #C6BD6B",
"N c #CEBD6B",
"B c #D6BD63",
"V c #D6BD6B",
"C c #CEB573",
"Z c #CEBD73",
"A c #CEBD7B",
"S c #D6BD73",
"D c #DEC663",
"F c #D6C66B",
"G c #DEC66B",
"H c #CEC67B",
"J c #D6C673",
"K c #DEC673",
"L c #DECE73",
"P c #D6C67B",
"I c #DEC67B",
"U c #DECE7B",
"Y c #E7CE6B",
"T c #E7CE73",
"R c #D6C684",
"E c #D6CE84",
"W c #DECE84",
"Q c #DECE8C",
"! c #DECE94",
"~ c #DED69C",
"^ c #E7D68C",
/* pixels */
"PPP77xZQUvUUZnunNN>>x7x7rdHHP^^P",
"PPPP77xxUvUvnuuuyyNWUUUN::drPnP^",
"PP7&xxx7;w;;uZZZ>NWWUNUUHr::8888",
"PP&7ZZxZw;;vWWWWNWNWUUUNHdrrPPPP",
"TvtvUUKU88:8UUUbFFyUNUUNNttNPQQP",
"-tvTUGGUZ:::eUUUUFFyNUUUttNNPQQP",
"-tvTGGUUZ::8%bUUFUUUpUUNt&NtQQPj",
"--ttKBUKp8pZbeebUUUUpp55&&&5jPPN",
"Jeee1yy*5NUULLl0jJjj00llw;;vWWWW",
"JJJJy.*1NUUULLLL3@33VlWWwwvvWWWW",
"QJQJy1.yUUNNLLBLJ@jJWWVWUUvvJWWW",
"JJQbyy**pp55LLBLj@JJVVVVUUUvjWWj",
"FUUymtt:vvvSLLvt7=7DUbUUUUUgr,cJ",
"UFFbmUtmwvWWLLt:7==jUUUUbUUgrcJJ",
"UFFFUmmUSwWSLttv77==g22ggUUUccJJ",
"ybFFUUUUSwSWvtvLDDj7gg2UUbUFJccJ",
"xRRRUvvUBwBBttPPFUUfJJJJUUnUF<y<",
"@7RRUUUvB1+1 PPPUUUz4JJJUnUUyoo<",
"77xRUwUvBw1+,PPPUFUUrrJJUnUny<<F",
"R7xRUv$v111wttPPUUUUc44cnr-ryFFF",
"!CiCHHs;>BBTttttWWWWl-w---nUIWZW",
"!!iisq;sTTTTNNN@5xx5-wl--nUUWWWW",
"!!C;;;sHBTTBNNNNX555lYl--UUUWWZZ",
"Cii;;sHHBTTTNNNtXX5WYYl-rnnUZWWI",
"::::#kLkVVVhjKjOO33LEEM<3SSSJJjj",
"tvv:#kLkVVVV33333kLLEEMy3SSSv33j",
"LLLt#kkLVVVVjOOKLLLLEMM<$33$3vJJ",
"LLLv#k993h@333KKLLkLEEMy$3$$vJJJ",
"QQAa:ttvtm;;@3GGUUNU~aaayybFUUUK",
"QAA6tvvLWWmt@3GGUUUUaaa<yFFUUUNU",
"AA6avLLLWWWWG3jGNUUr<<<AbUFUNUNU",
"QQa6vLLLWmmWGGjjUUNNa<<AFUFUUUNK"
};
