/* XPM */
static char *_493779864490[] = {
/* columns rows colors chars-per-pixel */
"64 64 206 2 ",
"   c #18848C",
".  c #108494",
"X  c #188494",
"o  c #108C94",
"O  c #188C94",
"+  c #188C9C",
"@  c #08949C",
"#  c #089C9C",
"$  c #10949C",
"%  c #18949C",
"&  c #109C9C",
"*  c #218494",
"=  c #298C94",
"-  c #218C9C",
";  c #298C9C",
":  c #21949C",
">  c #29949C",
",  c #31949C",
"<  c #188CA5",
"1  c #089CAD",
"2  c #1094A5",
"3  c #1894A5",
"4  c #189CA5",
"5  c #189CAD",
"6  c #2194A5",
"7  c #2994A5",
"8  c #219CA5",
"9  c #299CA5",
"0  c #2194AD",
"q  c #219CAD",
"w  c #299CAD",
"e  c #3194A5",
"r  c #319CA5",
"t  c #319CAD",
"y  c #399CAD",
"u  c #299CB5",
"i  c #10A5A5",
"p  c #10A5AD",
"a  c #18A5AD",
"s  c #10ADBD",
"d  c #21A5AD",
"f  c #29A5AD",
"g  c #21ADAD",
"h  c #29ADAD",
"j  c #31A5AD",
"k  c #39A5AD",
"l  c #21ADB5",
"z  c #29ADB5",
"x  c #31A5B5",
"c  c #31ADB5",
"v  c #39ADB5",
"b  c #29B5B5",
"n  c #21B5BD",
"m  c #31B5BD",
"M  c #39B5BD",
"N  c #4A9CA5",
"B  c #429CAD",
"V  c #4A9CAD",
"C  c #42A5AD",
"Z  c #4AA5AD",
"A  c #4AADAD",
"S  c #4AA5B5",
"D  c #42ADB5",
"F  c #4AADB5",
"G  c #42ADBD",
"H  c #4AADBD",
"J  c #5AA5B5",
"K  c #52ADB5",
"L  c #5AADB5",
"P  c #52ADBD",
"I  c #42B5BD",
"U  c #4AB5BD",
"Y  c #42BDBD",
"T  c #4ABDBD",
"R  c #52B5B5",
"E  c #52B5BD",
"W  c #5AB5BD",
"Q  c #52BDBD",
"!  c #63A5B5",
"~  c #63ADB5",
"^  c #6BADB5",
"/  c #63B5BD",
"(  c #73B5BD",
")  c #39BDC6",
"_  c #4AADC6",
"`  c #42B5C6",
"'  c #4AB5C6",
"]  c #42BDC6",
"[  c #4ABDC6",
"{  c #4ABDCE",
"}  c #52B5C6",
"|  c #5AB5C6",
" . c #52BDC6",
".. c #5ABDC6",
"X. c #52B5CE",
"o. c #52BDCE",
"O. c #6BB5C6",
"+. c #63BDC6",
"@. c #6BBDC6",
"#. c #63BDCE",
"$. c #31D6DE",
"%. c #42C6C6",
"&. c #4AC6CE",
"*. c #52C6C6",
"=. c #5AC6C6",
"-. c #5AC6CE",
";. c #5ACECE",
":. c #4AC6D6",
">. c #5ACED6",
",. c #63C6C6",
"<. c #6BC6C6",
"1. c #63C6CE",
"2. c #6BC6CE",
"3. c #63CECE",
"4. c #6BCECE",
"5. c #73C6CE",
"6. c #7BC6CE",
"7. c #73CECE",
"8. c #63C6D6",
"9. c #63CED6",
"0. c #6BCED6",
"q. c #63CEDE",
"w. c #6BCEDE",
"e. c #73C6D6",
"r. c #73CED6",
"t. c #7BCED6",
"y. c #73CEDE",
"u. c #7BCEDE",
"i. c #6BD6D6",
"p. c #6BD6DE",
"a. c #63DEDE",
"s. c #6BDEDE",
"d. c #73D6D6",
"f. c #73D6DE",
"g. c #7BD6DE",
"h. c #73DEDE",
"j. c #7BDEDE",
"k. c #73D6E7",
"l. c #7BD6E7",
"z. c #7BDEE7",
"x. c #63E7E7",
"c. c #84C6CE",
"v. c #8CC6CE",
"b. c #8CCECE",
"n. c #84CED6",
"m. c #84CEDE",
"M. c #8CCEDE",
"N. c #94CED6",
"B. c #84D6D6",
"V. c #84D6DE",
"C. c #8CD6DE",
"Z. c #84DEDE",
"A. c #8CDEDE",
"S. c #94D6DE",
"D. c #9CD6DE",
"F. c #94DEDE",
"G. c #A5DEDE",
"H. c #ADDEDE",
"J. c #84D6E7",
"K. c #8CD6E7",
"L. c #84DEE7",
"P. c #8CDEE7",
"I. c #8CDEEF",
"U. c #94DEE7",
"Y. c #94DEEF",
"T. c #ADDEE7",
"R. c #A5DEEF",
"E. c #84E7E7",
"W. c #8CE7E7",
"Q. c #84E7EF",
"!. c #8CE7EF",
"~. c #84EFEF",
"^. c #94E7E7",
"/. c #9CE7E7",
"(. c #9CE7EF",
"). c #94EFEF",
"_. c #9CEFEF",
"`. c #9CE7F7",
"'. c #9CEFF7",
"]. c #A5E7E7",
"[. c #ADE7E7",
"{. c #A5E7EF",
"}. c #ADE7EF",
"|. c #A5EFEF",
" X c #ADEFEF",
".X c #B5E7E7",
"XX c #BDEFEF",
"oX c #A5E7F7",
"OX c #A5EFF7",
"+X c #ADEFF7",
"@X c #B5EFF7",
"#X c #A5F7F7",
"$X c #ADF7F7",
"%X c #B5F7F7",
"&X c #BDF7F7",
"*X c #B5F7FF",
"=X c #BDF7FF",
"-X c #C6EFEF",
";X c #C6F7F7",
":X c #CEF7F7",
">X c #C6F7FF",
",X c #CEF7FF",
"<X c #D6F7F7",
"1X c #D6F7FF",
"2X c #DEFFFF",
"3X c #E7FFFF",
/* pixels */
"3X3X3X3X2X2X2X2X:X:X:X:X1X1X1X1XXXXXXXXX<X<X<X<X<X<X<X<X:X:X:X:X:X:X:X:X<X<X<X<X<X<X<X<XXXXXXXXX1X1X1X1X:X:X:X:X2X2X2X2X3X3X3X3X",
"3X3X3X3X2X2X2X2X:X:X:X:X1X1X1X1XXXXXXXXXG.G.G.G.H.H.<X<X:XG.G.G.G.G.G.:X<X<XH.H.G.G.G.G.XXXXXXXX1X1X1X1X:X:X:X:X2X2X2X2X3X3X3X3X",
"3X3X3X3X2X-X-X-XT.T.T.N.N.N.N.N.c.c.c.c.b.b.b.b.b.b.b.b.v.v.v.v.v.v.v.v.b.b.b.b.b.b.b.b.c.c.c.c.N.N.N.N.N.T.T.T.-X-X-X2X3X3X3X3X",
"3X3X2X:X-X[.N.N.( ( ( ( ^ ^ ^ ^ ~ ~ ~ ~ L L L L ~ ~ ~ ~ ! ! ! ! ! ! ! ! ~ ~ ~ ~ L L L L ~ ~ ~ ~ ^ ^ ^ ^ ( ( ( ( N.N.[.-X:X2X3X3X",
">X>X>XR.D.6.6./ @.@.B B N N N N N N N N N N N N V V V V J J J J J J J J V V V V N N N N N N N N N N N N B B @.@./ 6.6.D.R.>X>X>X",
">X>X>XR.6./ / B B B B @.@.@.@.@.@.@.@.t.t.t.t.t.n.n.n.n.}.}.M.M.M.M.}.}.n.n.n.n.t.t.t.t.t.@.@.@.@.@.@.@.@.B B B B / / 6.R.>X>X>X",
">X>XR.M./ B B B @.n.n.n.m.m.m.+X(.(.(.(.(.(.(.(. X X X X}.}.}.}.}.}.}.}. X X X X(.(.(.(.(.(.(.(.+Xm.m.m.n.n.n.@.B B B / M.R.>X>X",
">X>XR.O.B B B 6. X X X X+X+X+X+X(.(.(.(.(.(.(.(. X X X XM.}.}.}.}.}.}.M. X X X X(.(.(.(.(.(.(.(.+X+X+X+X X X X X6.B B B O.R.>X>X",
" X XV.S > > P U.;X;XA.A.r. . .8 j j j j D D D D U U U U R 7.|.|.|.|.7.R U U U U D D D D j j j j 8  . .r.A.A.;X;XU.P > > S V. X X",
" X XV.S > > P U.;XA.-.d 8 8 8 8 j j j j D r r r U 6 6 U 7.|.|.7.7.|.|.7.U 6 6 U r r r D j j j j 8 8 8 8 d -.A.;XU.P > > S V. X X",
" X X2.S > > 2.U.;X-.d d 8  . .r.A.A.A.A.E r r E U U U 1.|.|.|.R R |.|.|.1.U U U E r r E A.A.A.A.r. . .8 d d -.;XU.2.> > S 2. X X",
" X X2.S > > P U.;X-.d d  .r.|.|.&X&X&X&X@.r D E U U 1.W.|.|.R = = R |.|.W.1.U U E D r @.&X&X&X&X|.|.r. .d d -.;XU.P > > S 2. X X",
"@XC.5.K r r E L.Q.] d d 3.^.3.^.(.(.(.(.K , , K F 2.V.+XA.A = = = = A A.+XV.2.F K , , K (.(.(.(.^.3.^.3.d d ] Q.L.E r r K 5.C.@X",
"@XC.5.K r r E L.Q.] d d Y Y Y 3.(.(.(.2., , , K 2.V.+XV.A = = A A = = A V.+XV.2.K , , , 2.(.(.(.3.Y Y Y d d ] Q.L.E r r K 5.C.@X",
"@X@X5.K r r E L.Q.>.] d 4 Y 3.3.(.(.2.* , , K <.V.+XV.F = = A +.+.A = = F V.+XV.<.K , , * 2.(.(.3.3.Y 4 d ] >.Q.L.E r r K 5.@X@X",
"@X@X5.K r r E 1.Q.>.d d 4 3.3.^.(.2.* * K K <.F.+XV.F F = A +.A.A.+.A = F F V.+XF.<.K K * * 2.(.^.3.3.4 d d >.Q.1.E r r K 5.@X@X",
"&XU.t.W v 7 v >.%XZ.z z E 2.^.^. .> > D Q 4.W.W.5.E : : W 5././././.5.W : : E 5.W.W.4.Q D > >  .^.^.2.E z z Z.%X>.v 7 v W t.U.&X",
"&XU.t.W v 7 v >.%X%X;.;.2.^.^.E > > D  .4.W.W.W.E : : E 5././.W W /./.5.E : : E W.W.W.4. .D > > E ^.^.2.;.;.%X%X>.v 7 v W t.U.&X",
"&XU.t.W v 7 v >.%X%XZ.Z.^.^.E > > D  .d.W.W.W.r : : E 5././.W , , W /./.5.E : : r W.W.W.d. .D > > E ^.^.Z.Z.%X%X>.v 7 v W t.U.&X",
"&XU.t.W v 7 v >.%X%X%X%X^.> > > D  .d.d.W.W.r r : E 5.{./.5.W W W W 5./.{.5.E : r r W.W.d.d. .D > > > ^.%X%X%X%X>.v 7 v W t.U.&X",
"&XU.t.W x x x [ /././.1.r r r r I -.E.E.h.M 8 8 v g.|.|.1.1.1.U U 1.1.1.|.|.g.v 8 8 M h.E.E.-.I r r r r 1./././.[ x x x W t.U.&X",
"&XU.t.W x x 8 x 1./.I $ r r r E E.E.E.E.M 8 8 M g.|.|.g.1.A.A.1.1.A.A.1.g.|.|.g.M 8 8 M E.E.E.E.E r r r $ I /.1.x 8 x x W t.U.&X",
"&XU.t.W x 8 . 8 $ I $ $ r r E F.E.E.E.I 8 8 M h.|.|.|.|.A.1.U U U U 1.A.|.|.|.|.h.M 8 8 I E.E.E.F.E r r $ $ I $ 8 . 8 x W t.U.&X",
"&XU.W W x . . . $ $ $ I r E F.F.E.E.I % 8 M h.h.|.|.g.1.9 9 9 9 9 9 9 9 1.g.|.|.h.h.M 8 % I E.E.F.F.E r I $ $ $ . . . x W W U.&X",
"@XC.5.Z t X X X % % % U 3.j.#X#Xj.D > D ..r././.A.,.F :                 : F ,.A././.r...D > D j.#X#Xj.3.U % % % X X X t Z 5.C.@X",
"@XC.5.Z t 7 X 7 % % U 5.j.#X#Xj.> > > =././././.,.F : :   C C C C C C   : : F ,././././.=.> > > j.#X#Xj.5.U % % 7 X 7 t Z 5.C.@X",
"@XC.5.Z t X t F % U 5.].#X#Xj.D > > D j./././...F : : : C / / / / / / C : : : F ../././.j.D > > D j.#X#X].5.U % F t X t Z 5.C.@X",
"@XC.5.Z 7 7 F F U 5.].].#Xj.D D > D j.j./././.j : : : F / S.S.S.S.S.S./ F : : : j /././.j.j.D > D D j.#X].].5.U F F 7 7 Z 5.C.@X",
"+X+Xe.P y y y y 9.%X%X%Xr. .f f F 2. X X|.|.Y & i i i %..X.X5.@ @ 5..X.X%.i i i & Y |.|. X X2.F f f  .r.%X%X%X9.y y y y P e.+X+X",
"+X+XK.P y +.y +.L.%X%XL.f f f f V. X XV.|.|.Y & i i %.i..X5.@ @ @ @ 5..Xi.%.i i & Y |.|.V. X XV.f f f f L.%X%XL.+.y +.y P K.+X+X",
"+X+XK.P y y y t.%X%X%XM f f f r. X XV.2.|.|.Y & i i i.|..X@ @ @ @ @ @ .X|.i.i i & Y |.|.2.V. X Xr.f f f M %X%X%Xt.y y y P K.+X+X",
"+X+XK.P y y +.|.%X%X9.M f f r./. XV.F 2.|.4.Y & i %.i.|.5.@ @ @ @ @ @ 5.|.i.%.i & Y 4.|.2.F V. X/.r.f f M 9.%X%X|.+.y y P K.+X+X",
"(.(.t.+.9 9 +.&X:XU.m m z z g. X).l l p.|.d.g g p ) >.!.%.b # # # # b %.!.>.) p g g d.|.p.l l ). Xg.z z m m U.:X&X+.9 9 +.t.(.(.",
"(.(.t.B 9 9 +.&X:XU.m m z z  X Xp.l l &.|.d.g g p p >.!.%.b # # # # b %.!.>.p p g g d.|.&.l l p. X Xz z m m U.:X&X+.9 9 B t.(.(.",
"(.(.t.B 9 9 +.&X:XU.m m z z  X X).p.l &.|.d.*.g p p ) !.s.%.b b b b %.s.!.) p p g *.d.|.&.l p.). X Xz z m m U.:X&X+.9 9 B t.(.(.",
"(.(.t.B 9 9 9 V.:X:X0.m -.z g. X).).p.&.d.|.*.g p p p ) s.s.s.%.%.s.s.s.) p p p g *.|.d.&.p.).). Xg.z -.m 0.:X:XV.9 9 9 B t.(.(.",
"(.(.t.B v t v [ +X+X+Xu.m m m  X|.|.|.d.d.U.U.Y j $ $ $ ] ] a.a.a.a.] ] $ $ $ j Y U.U.d.d.|.|.|. Xm m m u.+X+X+X[ v t v B t.(.(.",
"(.(.t.B v t ; t  .u.+X+X;.m m m d.|.|.|.U.U.U.d.j $ $ $ o h h h h h h o $ $ $ j d.U.U.U.|.|.|.d.m m m ;.+X+Xu. .t ; t v B t.(.(.",
"(.(.t.B v t ; ; 8  .u.+X X;.m m d *.|.|.U.U.U.U.5.j $ $ o o o o o o o o $ $ j 5.U.U.U.U.|.|.*.d m m ;. X+Xu. .8 ; ; t v B t.(.(.",
"(.(.+.B t v ; ; 8 8  .u. X Xj.m d d d *.U.U.U.U.5.5.U j h o o o o o o h j U 5.5.U.U.U.U.*.d d d m j. X Xu. .8 8 ; ; v t B +.(.(.",
"+X+X| e - k k - 3 3 3 [ 0._._.0.D O O O | C.C.C.B.B.B.E E k k k k k k E E B.B.B.C.C.C.| O O O D 0._._.0.[ 3 3 3 - k k - e | +X+X",
"+Xu.| e - - - - 3 3 3 3 [ 0._._.L.D O O . k C.C.].B.B.B.,.E k k k k E ,.B.B.B.].C.C.k . O O D L._._.0.[ 3 3 3 3 - - - - e | u.+X",
"+Xu.| e - - k U c 3 3 3 q [ 0._.L.L.D O . . k | ].].].B.B.B.B.,.,.B.B.B.B.].].].| k . . O D L.L._.0.[ q 3 3 3 c U k - - e | u.+X",
"+Xu.| e - - k 1.0.[ c 3 q q [ 0.L.L.L...k . . k E B.].].B.,.,.E E ,.,.B.].].B.E k . . k ..L.L.L.0.[ q q 3 c [ 0.1.k - - e | u.+X",
"OXy.o.u q q [ W.P.P.P.n 8 8 8 T *.d.|.|.r.f f f % I 1.1.A.A.3.Y Y 3.A.A.1.1.I % f f f r.|.|.d.*.T 8 8 8 n P.P.P.W.[ q q u o.y.OX",
"OXy.o.u q q [ W.:X:X:XP.4.8 8 8 f *.d.|.(.r.f f % % j 1.A.A.A.3.3.A.A.A.1.j % % f f r.(.|.d.*.f 8 8 8 4.P.:X:X:XW.[ q q u o.y.OX",
"OXy.o.u q q 9.W.:XP.P.:X/.4.8 8 f f *.d.(.(.r. .% % % j 3.A.A.A.A.A.A.3.j % % %  .r.(.(.d.*.f f 8 8 4./.:XP.P.:XW.9.q q u o.y.OX",
"OXy.o.u q q 9.W.:X9.n 9././.4.8 f f f *.r.(.(.(.1.% % % a 3.A.A.A.A.3.a % % % 1.(.(.(.r.*.f f f 8 4././.9.n 9.:XW.9.q q u o.y.OX",
"OXl.8.G u u y._.@X{ 1 1 8.(.(.8.M 5 5 5 Y ;.E.E. Xt.w w $ $ ] 9.9.] $ $ w w t. XE.E.;.Y 5 5 5 M 8.(.(.8.1 1 { @X_.y.u u G 8.l.OX",
"OXl.8.G u u y._.@X{ 1 1 2 ` (.(.g.M 5 5 4 Y ;.E. X Xt.w $ $ $ z z $ $ $ w t. X XE.;.Y 4 5 5 M g.(.(.` 2 1 1 { @X_.y.u u G 8.l.OX",
"OXOX8.G u u y._.@X{ 1 1 2 2 ` (.g.g.M 5 4 4 4 ;.t. X Xt.z $ $ $ $ $ $ z t. X Xt.;.4 4 4 5 M g.g.(.` 2 2 1 1 { @X_.y.u u G 8.OXOX",
"OXOX8.G u u y._.@X{ 1 1 2 2 2 ` g.g.g.M 4 4 4 4 ..t. X X9.z $ $ $ $ z 9. X Xt...4 4 4 4 M g.g.g.` 2 2 2 1 1 { @X_.y.u u G 8.OXOX",
"%XP.y.X.G G 8.OX$X{ 5 5 c $ $ $ m g.{.-.' 3 3 3 a &.h.$X#Xz.M M M M z.#X$Xh.&.a 3 3 3 ' -.{.g.m $ $ $ c 5 5 { $XOX8.G G X.y.P.%X",
"%XP.y.X.G G l.OX$X{ 5 5 [ c c c m m g.{.e.' 3 3 a a &.h.#X#Xz.M M z.#X#Xh.&.a a 3 3 ' e.{.g.m m c c c [ 5 5 { $XOXl.G G X.y.P.%X",
"%XP.y.X.G G l.OX$X{ 5 5 [ [ [ r.-.g.{.{.}.e.3 3 a a a &.z.#X#Xz.z.#X#Xz.&.a a a 3 3 e.}.{.{.g.-.r.[ [ [ 5 5 { $XOXl.G G X.y.P.%X",
"%XP.P.X.G G l.OX$Xf.5 5 c [ r.r.{.{.{.{.}.' 3 3 a a a &.9.z.#X#X#X#Xz.9.&.a a a 3 3 ' }.{.{.{.{.r.r.[ c 5 5 f.$XOXl.G G X.P.P.%X",
"=X{.P.r.X.X.y.+X@Xu.5 5 0 0 } } e._ _ _ + + + + s s s s $.$.x.~.~.x.$.$.s s s s + + + + _ _ _ e.} } 0 0 5 5 u.@X+Xy.X.X.r.P.{.=X",
"=X=X{.r.X.X.P.+X@Xu.o.5 0 0 0 0 < < < < + + + + s s s s $.$.x.~.~.x.$.$.s s s s + + + + < < < < 0 0 0 0 5 o.u.@X+XP.X.X.r.{.=X=X",
"=X=X{.P.y.X.y.+X@X@Xu.u.} } } } _ _ _ _ H H H H :.:.:.k.x.x.~.~.~.~.x.x.k.:.:.:.H H H H _ _ _ _ } } } } u.u.@X@X+Xy.X.y.P.{.=X=X",
"=X=X{.P.y.X.X.P.@X@X@X@X X X X X{.{.{.{.}.}.}.}.+X+X+X+X%X%X%X%X%X%X%X%X+X+X+X+X}.}.}.}.{.{.{.{. X X X X@X@X@X@XP.X.X.y.P.{.=X=X",
"2X,X=XoXI.w.w.w.L.OXOXOXOXOXOXOXoXoXoXoX+X+X+X+XOXOXI.I.'.'.Q.z.z.Q.'.'.I.I.OXOX+X+X+X+XoXoXoXoXOXOXOXOXOXOXOXL.w.w.w.I.oX=X,X2X",
"2X2X,X,X=X`.I.I.L.L.L.L.J.J.J.J.u.u.u.u.#.#.#.#.8.8.8.8.q.q.q.q.q.q.q.q.8.8.8.8.#.#.#.#.u.u.u.u.J.J.J.J.L.L.L.L.I.I.`.=X,X,X2X2X",
"2X2X2X2X=X=X=X`.OXOXOXOXOXOXOXOXoXoXY.Y.U.U.U.U.I.I.I.I.Q.Q.Q.Q.Q.Q.Q.Q.I.I.I.I.U.U.U.U.Y.Y.oXoXOXOXOXOXOXOXOXOX`.=X=X=X2X2X2X2X",
"2X2X2X2X=X=X=X=X*X*X*X*X=X=X=X=X=X=X=X=X+X+X+X+XOXOXOXOX'.'.'.'.'.'.'.'.OXOXOXOX+X+X+X+X=X=X=X=X=X=X=X=X*X*X*X*X=X=X=X=X2X2X2X2X"
};
