/* XPM */
static char *_493779875274[] = {
/* columns rows colors chars-per-pixel */
"32 32 59 1 ",
"  c #B0B0B8",
". c gray72",
"X c #C0B8B8",
"o c #B8C0B8",
"O c #D8D8A0",
"+ c #C0C0B0",
"@ c #C0C8B0",
"# c #C0C0B8",
"$ c #C8C0B8",
"% c #C8C8B8",
"& c #D0D0B0",
"* c #D0D0B8",
"= c #D8D8B8",
"- c #E0E0A0",
"; c #E0E0A8",
": c #E0E0B0",
"> c #E0E0B8",
", c #E8E8B8",
"< c #B8B8C0",
"1 c #B8B8C8",
"2 c #B8C0C0",
"3 c #B8C0C8",
"4 c #B8C8C8",
"5 c #B8D0D8",
"6 c #C0C0C0",
"7 c #C8C0C0",
"8 c #C0C8C0",
"9 c #C8C8C0",
"0 c #C0C0C8",
"q c #C8C0C8",
"w c #C0C8C8",
"e c #C8C8C8",
"r c #C8D0C0",
"t c #C8D0C8",
"y c #D0D0C0",
"u c #D0D0C8",
"i c #D8D0C8",
"p c #D8D8C8",
"a c #D0C0D0",
"s c #D0C8D0",
"d c #C0D0D0",
"f c #C8D0D0",
"g c #C0D0D8",
"h c #D0D8D0",
"j c #E0C8D8",
"k c #E0D8D0",
"l c #D8E0C8",
"z c #D8E0D0",
"x c #E0E0C0",
"c c #E0E0C8",
"v c #E8E0C8",
"b c #E0E0D0",
"n c #E8E8D0",
"m c #E0C8E0",
"M c #E0D0E0",
"N c #C8E0E0",
"B c #C8E0E8",
"V c #D0E0E0",
"C c #E0E8E0",
/* pixels */
"666666666666t666ll69eeee%%%06666",
"666q66456<66<66<l699eeee%%00o666",
"66aa36456l<<z<666r99efV7%%00Mo66",
"q66m36666<66<66t6669ee7eO000o666",
"66<lg6$w####6.r666V6####66r6####",
"666<6$g$#V886z.66XVX##&&.66r#>#>",
"6666$ggw8#8fr.6666f6##<<z.66%*%#",
"r666gw$688##.z666f66#::<.r66*#%%",
"8##V##yb>%6%66%%9u696<666M660**9",
"#####9y#%%*6%6%=99966z6666.60>99",
"#f#8y999*%%6,6%%b99b6666a.M60099",
"###899by%>%6,6%=9uu666<6a6.60>00",
"66x69999eeeV699y999>b6b6y69y6666",
"66x66n99fe7V9999>99069666666666k",
"66669699eee7999c>999969b696x6666",
"<x66696p7e7V6996>0999b99996xk666",
"666X####22;296999t999z9999966666",
"6dXN:###22226c999t96z7uuu9996Mo6",
"666X<##:222&c6999t6679999b96MsMo",
"666X:#<<22@@99999zzzzzz9999bo6o6",
"1*66<<b6##9999999666+<-+sss66666",
">666<b<6Ch#99>>999u6++<+66666Mo6",
"6666b666h#99009>66b6++++6oMo6o66",
"66**6666999#>0906b66+-<<66ossoo6",
"##8fuuuu9b6b>>66ww6666.z<###6bb<",
"##88uueu96u666%6666w666.#<##6<<u",
"V88#ivee9bu66%%>wBB666.z>>>#666u",
"#f#Vivee969966*6ww6wr6zz<<<#6u<6",
"6<b<669666969t998eee9966%6>6<zz<",
"6666666kbb696tz6jeej999y%%66zz<t",
"6666666k bb69669jeej9cc9%%666<6t",
"666bk666666666668eee9c69%6>>6666"
};
