/* XPM */
static char *_493779906774[] = {
/* columns rows colors chars-per-pixel */
"32 32 48 1 ",
"  c #312921",
". c #313121",
"X c #393121",
"o c #393129",
"O c #393929",
"+ c #423929",
"@ c #423931",
"# c #424231",
"$ c #4A4231",
"% c #4A4239",
"& c #4A4A39",
"* c #524A39",
"= c #525239",
"- c #5A5239",
"; c #524A42",
": c #525242",
"> c #5A5242",
", c #5A524A",
"< c #5A5A4A",
"1 c #635242",
"2 c #635A42",
"3 c #635A4A",
"4 c #6B5A4A",
"5 c #635A52",
"6 c #6B5A52",
"7 c #63634A",
"8 c #6B634A",
"9 c #636352",
"0 c #6B6352",
"q c #6B635A",
"w c #736352",
"e c #7B6B52",
"r c #736B5A",
"t c #7B6B5A",
"y c #7B735A",
"u c #736B63",
"i c #7B6B63",
"p c #7B7363",
"a c #7B736B",
"s c #7B7B6B",
"d c #84735A",
"f c #847363",
"g c #8C7B63",
"h c #847B6B",
"j c #8C7B6B",
"k c #847B73",
"l c #8C7B73",
"z c #8C8473",
/* pixels */
"0hhhaaqaq%%%5rrraaaq<<<<@@@:>@@@",
",hhhaq>>,hhh50rraq33<0t099::>00>",
",rhra5>>qhhhr,r,q3*qttg<ss:9hhh0",
"00hrqq>5hhhhr0,raa3*0tt099:90hhh",
"000066>6auaap30ppzz0:999<<<prrrh",
">>006666uaaap30prpzzp9::0<0prrrh",
"%%>06>i600urp0:00r0ppp9#&&&<00>>",
">oo>$6ii0000p3:000rrpp9#&&0phhrr",
"r$  $0>0000,==.0pp5500>+O0llhhhh",
">$>>>0ppjjtt0=0#55550hh>>0llhhrr",
">>r>>0ppjttt00==@5pphhh000llhr00",
"rrrr0>0ptjtt0000;5pp0hh0l0000333",
"kkffrr3300001rhhg3wtwwdw333377=7",
"kfefrr3>000>hhrhgt33www;>3>3777h",
"efffrrr>>>>0hrhhtttw3ww;***>=rhh",
"yfkf3rr*>o%0rrrrtwttwww;33>*=rhh",
"rrrrr033r$>30pp000000330phpr28rr",
"r3rr030hr3$$>>>3333333*0prppr28r",
"rrr33rhhr3$>>0pprrrr0**phpprr088",
"*3>3rhhrr33r0>p0hhhhp00pprhr0200",
"0+>0hrh0r03rpw14ppppr33r0rr03*3r",
">*00rhhrr03rppw40000r03033r333rr",
"*>003030003rppp4>0330r33330rrr>*",
"000033330r3rppwp3>33r03r30003**>",
"kkk0>00000-0qquq00>*5>$>33rhpp>0",
"kpkkhr>>00-03qqq000$>>$>hhhhzz00",
"kkk0rrr>--$033qq000*>>$5hrh0zzp>",
"prr00rrr$X-0q333>>00uu>>hhhhp0p>",
"00>0rrr3$ >>3333rphhssr30p0p5aa5",
">>>>**3rr>>ruukkhprpssr0>pp0aaa;",
"++>>rhhhr>>rq3qupphprs0333p0555;",
">0kkhhrrr>>>q33uppppsr03>>30555+"
};
