/* XPM */
static char *_493779944653[] = {
/* columns rows colors chars-per-pixel */
"64 64 166 2 ",
"   c #4A4A31",
".  c #525239",
"X  c #5A5239",
"o  c #5A5A39",
"O  c #5A5A42",
"+  c #635A42",
"@  c #636342",
"#  c #636B42",
"$  c #63634A",
"%  c #6B634A",
"&  c #6B6B4A",
"*  c #6B7B42",
"=  c #6B734A",
"-  c #6B7B4A",
";  c #6B6352",
":  c #6B6B52",
">  c #736B52",
",  c #736B5A",
"<  c #6B7B52",
"1  c #737352",
"2  c #737B52",
"3  c #7B7B52",
"4  c #73735A",
"5  c #7B735A",
"6  c #737B5A",
"7  c #7B7B5A",
"8  c #7B7B63",
"9  c #7B7B6B",
"0  c #847B5A",
"q  c #847B63",
"w  c #847B6B",
"e  c #7B844A",
"r  c #7B8452",
"t  c #7B8C52",
"y  c #7B845A",
"u  c #7B8C5A",
"i  c #7B9452",
"p  c #7B945A",
"a  c #7B8463",
"s  c #7B8C63",
"d  c #849452",
"f  c #84945A",
"g  c #8C945A",
"h  c #848463",
"j  c #8C8463",
"k  c #848C63",
"l  c #8C8C63",
"z  c #84846B",
"x  c #8C846B",
"c  c #848C6B",
"v  c #8C8C6B",
"b  c #849463",
"n  c #8C9463",
"m  c #8C9C63",
"M  c #8C946B",
"N  c #949463",
"B  c #949C63",
"V  c #94946B",
"C  c #949C6B",
"Z  c #9C9C6B",
"A  c #848473",
"S  c #8C8473",
"D  c #8C8C73",
"F  c #8C8C7B",
"G  c #948C73",
"H  c #948C7B",
"J  c #8C9473",
"K  c #949473",
"L  c #9C9473",
"P  c #949C73",
"I  c #9C9C73",
"U  c #94947B",
"Y  c #9C947B",
"T  c #949C7B",
"R  c #9C9C7B",
"E  c #A59C7B",
"W  c #94A563",
"Q  c #94AD63",
"!  c #94A56B",
"~  c #9CA56B",
"^  c #9CAD6B",
"/  c #9CB56B",
"(  c #9CA573",
")  c #94AD73",
"_  c #9CAD73",
"`  c #9CA57B",
"'  c #9CAD7B",
"]  c #9CB573",
"[  c #A5BD6B",
"{  c #A5AD73",
"}  c #A5A57B",
"|  c #A5AD7B",
" . c #A5B573",
".. c #A5BD73",
"X. c #ADB57B",
"o. c #ADBD7B",
"O. c #ADC67B",
"+. c #ADCE7B",
"@. c #B5C67B",
"#. c #949484",
"$. c #9C9484",
"%. c #9C9C84",
"&. c #9C9C8C",
"*. c #A59C84",
"=. c #A59C8C",
"-. c #9CA584",
";. c #A5A584",
":. c #ADA584",
">. c #A5AD84",
",. c #ADAD84",
"<. c #A5A58C",
"1. c #ADA58C",
"2. c #A5AD8C",
"3. c #ADAD8C",
"4. c #ADB584",
"5. c #ADBD84",
"6. c #ADB58C",
"7. c #B5BD84",
"8. c #B5B58C",
"9. c #B5BD8C",
"0. c #A5A594",
"q. c #ADA594",
"w. c #A5AD94",
"e. c #ADAD94",
"r. c #ADAD9C",
"t. c #B5AD94",
"y. c #B5AD9C",
"u. c #ADB594",
"i. c #B5B594",
"p. c #BDBD94",
"a. c #B5B59C",
"s. c #BDB59C",
"d. c #B5BD9C",
"f. c #BDBD9C",
"g. c #B5B5A5",
"h. c #BDB5A5",
"j. c #B5BDA5",
"k. c #BDBDA5",
"l. c #BDBDAD",
"z. c #C6BDAD",
"x. c #ADC684",
"c. c #B5C684",
"v. c #B5C68C",
"b. c #BDD684",
"n. c #BDC694",
"m. c #BDC69C",
"M. c #BDC6A5",
"N. c #C6CE9C",
"B. c #C6C6A5",
"V. c #C6C6AD",
"C. c #C6CEAD",
"Z. c #CED6AD",
"A. c #D6D6AD",
"S. c #C6C6B5",
"D. c #CEC6B5",
"F. c #C6CEB5",
"G. c #CECEB5",
"H. c #CECEBD",
"J. c #D6CEBD",
"K. c #D6D6BD",
"L. c #D6D6C6",
"P. c #DED6C6",
"I. c #D6DEC6",
"U. c #DEDEC6",
"Y. c #DEDECE",
"T. c #E7E7CE",
/* pixels */
"e.e.e.<.e.e.e.e.9.c.b.c.v.v.n.n.9.9.9.x.O.O.9.7.r.r.r.r.e.e.<.<.e.e.e.e.;.;.;.;.s.:.V :.s.k.s.k...4.X...o.o.<.<.%.%.e.e.e.e.e.e.",
"e.e.<.%.%.%.%.%.3.b.b.c.v.n.f.n.9.9.i.i.9.9.a.9.w.w.w.-.<.%.<.<.e.e.q.q.;.;.;.;.:.s.s.s.t.s.s.k.e.4.X...o.,.,.<.e.e.%.%.q.e.e.e.",
"<.<.%.%.%.%.e.a.3.b.b.c.f.f.f.n.i.9.i.i.9.9.9.a.r.w.w.-.<.%.<.<.e.e.q.q.;.a.;.;.D.D.s.s.t.s.s.k.e.4.X.X.,.,.<.,.a.e.%.%.=.q.q.q.",
"<.%.%.%.%.e.a.a.3.c.c.c.f.f.f.n.i.9.i.i.9.a.9.a.g.g.r.-.%.%.<.e.e.e.q.q.;.a.a.J.D.D.s.s.t.s.s.s.e.4.4.X.4.,.,.,.V.a.e.%.=.=.=.q.",
"U U U U e.g.g.e.8.p.B.p.f.f.f.R D D 3.3.i.i.i.i.M.G.M.u.<.<.<.<.e.e.e.e.<.k.U.U.D.h.t.t.t.t.t.t.s ) ) ) e.<.e.e.a.L.a.;.%.%.%.%.",
"e.U U U g.S.g.e.8.B.B.p.f.f.f.& O O 7 3.i.i.i.i.u.G.G.M.<.<.<.<.e.e.e.e.k.U.U.G.h.t.t.t.t.t.Y : O < ) ) e.<.e.<.a.a.L.a.a.%.%.%.",
"U U U z.S.g.e.e.} p.B.p.R R v & 7 O O 7 %.i.i.i.u.M.G.P.G.<.<.<.e.e.e.l.U.U.G.G.t.t.t.t.t.Y : : < O < ) e.<.<.<.;.;.V.L.V.a.%.%.",
"U e.z.P.S.e.%.%.} p.B.} & & & & 7 O O O 8 %.i.i.u.u.G.G.U.G.k.<.e.e.l.Y.U.G.G.k.t.t.t.t.z : : : < < O < %.%.<.<.;.;.;.V.P.V.a.%.",
"B.K.K.K.s.3.J -.;.;.;.: @ @ 7 7 h D : : O 7 3.3.e.e.d.F.K.U.G.k.k.G.Y.Y.k.k.a.a.1.1.1.8 $ $ 7 7 K K K   : U U U R ;.;.e.H.H.H.r.",
"K.K.K.B.3.J J -.;.;.: : @ D <.D D <.D D O O D 3.e.e.e.d.G.K.U.U.K.Y.Y.K.k.a.k.a.1.1.8 $ $ 7 x *.K K K 7 . 8 U U ;.<.;.;.r.H.H.H.",
"K.K.B.%.-.J J -.;.h : : D <.<.<.D <.<.<.7 O 7 D e.e.e.d.G.G.K.U.Y.Y.G.k.k.k.a.e.G 8 $ $ 7 x *.*.K K K K : . 8 U R ;.;.;.%.r.H.H.",
"K.B.%.%.-.J J J : h : D <.<.<.<.D <.<.<.D D O 7 R e.e.d.k.k.G.K.Y.G.k.k.k.a.a.e.8 $ $ G *.*.*.*.K K K K 8 8 . 8 R R R R %.%.k.H.",
"a.a.;.;.K K h 7 & & K K e.e.e.e.K <.<.<.K K : O h ;.;.;.a.k.V.V.k.e.e.a.a.a.a.%.7 $ x *.%.%.<.%.%.D U D z z & & x Y Y Y *.q.q.r.",
"3.a.3.K K h : 7 & h 3.3.q.q.q.e.%.<.<.%.K K K 8 : D ;.;.a.a.a.k.e.e.e.e.a.a.a.8 $ *.*.*.%.%.<.%.%.U %.D z z z 7 8 x Y Y q.r.q.q.",
"3.3.;.;.K : : 7 h h 3.3.q.q.=.q.R <.%.R K K K 8 : h ;.;.<.a.a.<.e.e.e.a.a.a.U 8 *.*.*.*.<.<.<.U U U %.U z z z z : 8 Y Y q.q.q.q.",
"3.3.;.K 7 h h h h h 3.3.q.q.q.q.K %.%.R K K K 8 : : D ;.<.<.<.a.a.e.e.a.a.%.8 U *.*.*.*.%.%.%.U U D D D z z z z 8 : x Y q.q.q.q.",
"3.3.R a v v 8 8 r n >.>.;.;.;.;.K C C K b b b b 4 4 4 T ' ' ' ' R i.i.i.3.v 7 v ;.;.;.;.*.*.;.*.%.z z 6 A A A A 8 8 8 U %.;.>.;.",
"3.R R a C C 8 8 r P >.>.;.P ;.P C C K K b b b a 4 4 T 6.4.4.4.4.i.i.i.i.3.7 7 7 v K ;.;.*.;.>.*.%.z 6 z A A A A 8 8 8 U %.%.;.;.",
"3.R 3.3.C v v 8 r P P P ;.P P ;.C C C P m m m b 4 6.Z.Z.f.f.f.f.i.i.i.i.3.R v 7 8 K ;.;.*.;.*.*.%.D 6 6 8 9 9 A U -.-.-.>.;.;.>.",
"R R 3.3.C v v { P n n n p p P P ! ! ! P k m m a 6.6.Z.6.m m ' ' M M 6 M R R R 7 8 K ;.;.>.>.>.;.%.D z 6 4 4 4 9 -.d.-.d.>.>.>.;.",
"%.k.k.k.C.M.C.C.T.>.>.r h %.t.%.R e.R M c c c ` ] ] ! ! f f f f 8 $ $ U D R ;.;.e.R R e.| 5.5.| >.P >.7 = = K G.m.8.,.,.E E E E ",
"& v k.k.C.C.C.C.T.T.m.r h h %.t.M M ;.M c c N.N.+.] ! k f f 2 O $ $ U e.e.;.e.e.f.G.f.R R R G G P P >.7 K 3.G.G.8.8.R R E E E x ",
"& & v k.M.M.M.M.m.m.T.>.h h h %.;.;.e.;.c 6.N.N.+.] k k f f O O $ $ 8 U ;.;.e.;.e.G.G.e.| R G G P P v P 3.G.G.3.,.R R R E E x $ ",
"& & & v e.d.d.d.m.m.m.T.D.t.h h ;.e.e.;.N.N.N.N.+.! k k 2 & O & $ $ $ 8 R e.e.e.e.f.G.G.5.5.R R P v P >.G.G.3.3.R R R R E 7 $ $ ",
"D 8 8 $ x s.s.s.a.a.e.k.H.H.a.c R i.R L.G.G.G.6.Q t t t : X 8 8 7 z 7 $ % D <.<.e.$.e.G.U.G.G.<.D D <.H.K.B.E E :.:.:.G 7 $ $ 7 ",
"<.<.<.D : %.s.s.a.a.a.a.a.H.H.a.R i.L.L.G.6.( ( t t t - X U U U 7 z %.7 % q <.<.$.$.k.k.G.U.G.G.g.<.H.H.K.i.E E :.:.G > $ $ 7 z ",
"<.<.<.<.: : %.s.a.e.a.a.a.H.H.H.i.L.L.V.6.( ( ( t t - O U U U U 7 7 z %.% % q <.e.e.k.e.<.G.U.G.H.H.H.g.B.E E E :.G > > $ 7 z R ",
"<.<.<.<.%.x : %.a.a.a.a.a.a.a.H.L.L.V.i.6.( ( t - - O t U U U U z z z z q % % D e.k.$.$.<.<.<.G.H.H.g.<.B.i.E E :.j > j z R R R ",
"%.<.<.<.<.<.4 4 ;.i.i.i.3.a.a.a.k.k.k.s.` ` ` k & o D D #.F #.F A #.#.F z z $ $ $.$.$.$.=.$.=.<.3.3.;.*.o.~ ~ ~ x % 0 x R R R Y ",
"<.U <.<.<.<.U z z i.i.i.3.a.a.a.s.s.s.k.` ` ` r o 7 D D F #.%.#.A F F #.%.z 7 $ 5 $.$.$.$.$.=.=.Y ;.*.*.o.~ ~ N % 0 x E R R R R ",
"%.%.%.%.<.z U U z U i.i.3.a.i.a.s.s.t.t.` ` r # & D D D F #.#.#.F #.F #.%.%.z 7 % x $.$.=.=.=.$.*.*.*.;.o.o.N 0 0 x E E R R R R ",
"%.<.<.U U U <.U U z U i.3.i.i.a.k.s.t.t.` r # r 7 D D D F #.%.#.#.#.F #.%.%.%.z x x $.$.=.=.$.$.Y Y *.*.o.o.0 0 x E E E R R R Y ",
"%.%.%.%.U U R U v 4 Y t.a.a.k.k.s.s.s.s.,.r r r 1 h h K H $.$.H U D =.=.$.$.H H H 8 S =.%.$.$.$.I Y R I | | h h L L L L I I I Y ",
"%.%.%.U R U U D 4 4 4 Y a.a.a.a.t.s.t.<.,.P r r 1 h K h H %.$.H $.$.=.$.$.$.%.$.H 8 H =.%.%.$.%.I Y Y I | | h : 7 L L L I I I I ",
"%.%.%.v U U D D 4 4 Y v %.a.e.%.<.t.t.<.P ,.B.P 1 K K h $.$.$.$.$.$.$.$.H %.%.$.S =.=.=.$.$.$.%.$.Y Y I | | M : : j L L I I I Y ",
"%.%.U v U D U U Y Y t.t.a.e.e.%.<.t.t.e.,.,.,.B.<.K K K $.$.$.$.$.$.$.$.%.%.H H =.=.=.=.$.$.$.$.Y Y Y I | | M M 7 7 L L I I I I ",
"-.-.c c J J j.j.<.<.<.<.e.e.e.D *.*.*.*.Z Z ,.,.V.e.%.z A A &.&.%.<.<.<.U U U l.<.<.%.%.$.$.$.$.D 8 D D ( ( } E e.K K K K K K K ",
"c -.c -.2.j.j.2.<.<.<.<.e.D D 8 4 4 *.*.Z ,.,.Z %.V.V.e.&.A A &.U %.%.%.U U l.l.<.%.%.%.$.$.$., + > D D _ ( E E e.k.k.K K K K ;.",
"-.-.c -.j.H.j.2.<.<.<.<.D 8 8 O 4 O x *.,.,.,.g z %.V.e.0.A A A U S S U U L.l.e.%.U U U $.$., O > + 8 D ( ( E E K k.L.e.;.K ;.;.",
"-.-.-.V.H.j.2.2.<.<.U 7 8 8 O 8 4 O O x Z g e e z z z V.l.&.A A S S U <.L.l.U U U U U U w O O , + + + > } _ ( E e.e.k.L.k.K ;.;.",
"_ 9.B.K.o.o.W W ( ( 3 3 h @ h U D 5 5 X 1 } } } 3.3.3.p.I.C.;.;.3.3.S.L.A.9.{ { 3.3.3.K O O 4 z z & & & $ n  . .,.,.f.G.K.a.;.;.",
"B.K.K.B.o.o.d * 3 3 3 @ @ h U a.e.e.e.D 1 h } } p.p.p.p.C.I.C.C.S.S.L.L.A.A.9.9.3.3.K @ O z %.%.R R z & $ $ y n Z Z Z Z K.K.;.;.",
"K.K.B._ o.o.W d 3 ( 3 @ h U U U e.D D 5 1 . 1 h U U ;.3.;.C.I.C.L.L.L.3.{ { 9.{ 3.K @ @ z %.%.%.a.a.a.R $ $ $ n Z ,.Z Z ;.B.K.;.",
"K.B._ _ o.o.o.W ( 3 @ 3 U U U U D D D D h h 1 1 U 3.3.3.d.d.d.C.L.L.L.3.d 9.A.{ 7 @ @ K %.%.%.%.a.R R R y y $ y Z ,.,.,.a.B.K.K.",
"k.3.R R ` ` ` ` K @ h K %.U %.%.#.#.#.#.D D O O z U e.e.e.e.s.s.V.V.V.%.~ @.@.~ $ $ D <.*.*.R *.%.%.%.K K h > > j K K 3.e.k.V.K.",
"3.R R 3.` ` ` M @ h K K U U %.<.%.%.#.F D D D 8 : U e.e.e.e.s.s.a.V.a.e.~ @.@.k $ D <.<.*.R R *.<.%.%.K K K 7 > > K K 3.e.e.k.V.",
"3.R R 3.` ` M = h K K K U U %.%.%.%.#.#.D D D D : : U e.e.e.s.s.a.a.V.e.k @.~ : D <.<.<.*.R R *.<.%.R K K K K 7 > > K 3.e.k.k.V.",
"i.3.R 3.` M = = K K K K U U %.%.%.%.#.F D D D D z : z e.e.a.s.s.a.a.V.%.k @.k k D <.<.<.R R *.*.<.%.%.K K K K K > > j 3.k.k.k.k.",
"e.<.<.<.3.j > j R R R T K K %.<.<.=.$.$.H H H $.Y 4 v t.t.s.s.s.f.f.f.: 4 P 4 4 *.*.*.*.;.K K R *.*.*.K Y R Y Y G q q t.e.e.i.i.",
"i.e.e.e.3.K j j R R J T R K %.<.<.=.=.=.=.=.$.$.v 4 Y t.t.s.s.s.f.%.v : v P 4 4 D *.*.*.R K K R *.*.R K Y Y Y Y *.q *.t.i.i.i.e.",
"e.e.e.e.3.3.K j J R J J K K %.%.<.<.<.=.=.=.=.$.4 v t.t.s.s.s.t.%.v v %.P 4.4 4 D Y *.*.R K K K *.*.R R Y R Y R G G t.t.i.e.i.i.",
"e.e.e.i.3.3.3.K ;.;.R T R K %.%.=.<.<.=.$.=.$.H Y t.t.t.s.t.e.<.f.f.f.f.P 4.P v Y *.*.*.R K K K R R *.R Y R R Y *.t.t.t.i.i.i.<.",
"U e.e.e.a.a.3.3.L.V.i.R %.%.%.%.Y 1.1.1.*.*.*.s.f.f.f.f.e.e.e.e.t.t.t.t.M s.s.s.Y.r.r.U Y Y Y Y U U U U R R R R 1.1.a.a.3.3.3.D ",
": U e.e.a.3.3.( i.L.L.i.%.%.%.%.Y 1.y.y.*.*.D.D.V.f.f.i.e.e.e.8 % Y t.t.3.s.s.s.V.Y.V.r.Y Y Y Y U U <.U R i.V.i.t.t.a.a.3.3.R D ",
": : U e.a.a.3.( i.V.L.V.r.%.%.r.1.Y y.y.s.Y.Y.Y.k.i.f.f.e.e.O O q % Y t.s.s.s.s.V.V.Y.V.e.Y Y Y U U <.<.i.U.V.i.t.t.a.a.3.R 8 D ",
": : : U a.a.3.( i.i.V.L.H.r.%.%.y.Y 1.l.Y.Y.D.s.i.f.f.f.e.O O 8 q % % Y ` 3.s.s.V.r.V.Y.G.f.e.Y U <.e.k.U.V.i.i.t.a.a.t.R 8 8 R ",
"G > > > -.-.-.-.e.e.e.a.P.D.h.<.e.e.e.L.P.h.h.h.a.a.a.U $ $ 7 x <.<.D $ h i.i.i.k.k.k.H.L.G.a.a.Y t.z.L.D.k.k.a.e.e.e.%.7 7 Y Y ",
"<.G > > 4 -.-.-.e.a.3.a.D.P.P.D.l.l.L.L.h.<.h.h.a.a.U z $ $ x *.<.<.D 8 & h i.i.k.k.V.V.G.L.L.L.z.z.L.L.a.k.k.a.e.e.%.q 7 Y 1.1.",
"<.<.G > 4 z -.-.e.a.;.;.h.D.P.P.L.L.l.e.h.D.h.h.a.a.z $ 7 x *.*.<.<.<.<.& & h i.k.k.V.V.V.V.L.L.L.L.L.z.<.k.k.k.e.%.q q v 1.1.1.",
"<.<.<.G 4 4 z -.;.a.e.;.<.<.h.P.L.l.U l.D.h.h.h.a.z $ z x *.*.*.<.<.<.<.R h & R t.k.V.V.V.a.a.G.L.z.t.z.<.a.k.<.%.G q %.1.1.1.1.",
"<.<.<.<.f u 4 u { 5.{ g P 6.6.P ;.f.f.f.s.s.s.>.K & h K | | <.<.' ' %.%.^ n 4 4 R i.i.i.f.f.4.4.e.e.e.V.a.U a.a.<.D D <.e.e.e.e.",
"<.<.<.U f f f u ~ 5.g g 6.6.6.1 4 f.f.f.s.s.s.>.h h K 3.<.<.<.<.' ' ' ' ^ ^ n 4 4 i.i.i.f.f.f.4.e.e.V.V.z $ z U D D <.<.e.e.e.e.",
"<.<.<.<.f Q Q u g { 5.5.6.6.l 1 ;.f.f.f.s.s.>.i h K K 3.<._ _ _  . .[ [ ^ ^ ^ n 4 R i.i.f.f.4.4.e.e.e.h $ $ $ $ ; D <.<.%.%.%.%.",
"z 4 4 4 u f f f g g { { P P l l f.f.;.;.! >.! i K 3.3.3._ / / /  . .[ [ ^ ^ ^ n v v i.i.4.| | B R R h h z z z $ q D D D h h K %."
};
