/* XPM */
static char *_493779896894[] = {
/* columns rows colors chars-per-pixel */
"32 32 37 1 ",
"  c #424231",
". c #5A5239",
"X c #635239",
"o c #635A42",
"O c #635A4A",
"+ c #6B5A4A",
"@ c #6B6342",
"# c #6B634A",
"$ c #73634A",
"% c #736B4A",
"& c #6B6352",
"* c #736B52",
"= c #7B6B52",
"- c #736B5A",
"; c #7B6B5A",
": c #737352",
"> c #7B7352",
", c #73735A",
"< c #7B735A",
"1 c #7B7B5A",
"2 c #737363",
"3 c #7B7363",
"4 c #7B7B63",
"5 c #84735A",
"6 c #847B5A",
"7 c #8C7B5A",
"8 c #847B63",
"9 c #8C7B63",
"0 c #84845A",
"q c #848463",
"w c #8C8463",
"e c #8C846B",
"r c #94846B",
"t c #948C6B",
"y c #948C73",
"u c #9C9473",
"i c #A59C7B",
/* pixels */
"88ee-8830000qq4q66668888888<8888",
"888<-8t80000qqqq666w888<888*8888",
"88ee38t80w014wqq666w888888<*8888",
"uuu<-8t81w00q4q4w66<8888<***=$88",
";;++O888w6w66w6w6w66888888& ##<#",
";;;+O;88w6<66w66666688888&&&8888",
"9uuu8O;;w6666666w66<8<8<&&88yyyy",
"uuuuu8;O6w6w66<6w6<6888#&888yy88",
"6666eue<>6tte8888888rr**8ee86666",
"<6w688uu>#66te8888888**ree886<66",
"w66<<88ut>#6ete88888*<rre8<86w66",
"66w688<ett##8ete8<##<rrr88<86666",
"wwww18888yy*;;;;=X==9tw5w7w76666",
"888w:8888yy8O;8;=X=wtt957755<666",
"8888888888yy;;88w==wtw5577776666",
"888w8888<8yy;8uui==ww5w975776626",
"w666qq4q8888-888r**56666w3885777",
"66<6wqqq8888&-88r5*5%6668388777w",
"6666qwwq888*&&&-*OO5@66688887777",
"6ww6qwqq888.OOOOOO*5.6668w887777",
"8w88<w6<66*o*88yee8<#<eeq,qq577w",
"8888<w666o*6yyyyeee8*#<etq,q7777",
"ww38<<w<o*6ty88888eee<*<ttq,www7",
"8883666<*6tt8*88<8<eee<*,qq,5777",
"66666>#>8e8<8*88w577eee5#*<e6666",
"666#>#>6ue888888w77799ee<#*<6666",
"#ooo##6t88888<8877779959ee##o***",
"#oo##>t68<88888875759999<e<#o##*",
"tte8-8e3<<w66w6<8888w6<6ee8<8tee",
"eett-3e36<<66<66888w6w668e8<8ee8",
"88ee--e86ww6ww66888866668e8<t888",
"88ee-3e866666<6688886w668e8<e888"
};
