/* XPM */
static char *_493779918004[] = {
/* columns rows colors chars-per-pixel */
"32 32 41 1 ",
"  c #887C74",
". c #8C8378",
"X c #91857C",
"o c #928A7C",
"O c #948C81",
"+ c #9A8C85",
"@ c #9E8E8A",
"# c #959183",
"$ c #999284",
"% c #9B9489",
"& c #9D998A",
"* c #A2958D",
"= c #A19A8C",
"- c #A39C91",
"; c #AB9D96",
": c #A4A292",
"> c #A9A294",
", c #ACA59A",
"< c #ACA999",
"1 c #B3A79E",
"2 c #B2AB9D",
"3 c #B4ADA2",
"4 c #B5B1A2",
"5 c #B9B3A5",
"6 c #BDB6AA",
"7 c #BEBAAB",
"8 c #C2BBAE",
"9 c #C5BDB2",
"0 c #C5C1B2",
"q c #CAC4B5",
"w c #CDC7BB",
"e c #CDC9B9",
"r c #D3CEBF",
"t c #D2CEC2",
"y c #D6D2C3",
"u c #DAD6C6",
"i c #DBD6CB",
"p c #DEDACB",
"a c #E2DECE",
"s c #E2DED2",
"d c #EAE6DA",
/* pixels */
"aaaarr9999tts9tspptrqyy9ipauaaaa",
"aae8;**@@%;;w*,,*,,,*-3;3,,545aa",
"ae8,;+;@O+% O &OOOOOo==+%;=,129a",
"p5,;++oXOO O OOO#%#O$OO..oO$=15a",
"u3=oX..oO.#&####%%%&%%#$oooo=>5u",
"r=$oX..$####%%-&*%-<:-&%=o.oO*>e",
"q=oX..o$#%#%:<<:-:3:&&-:=oXo X2r",
"e,OooooO#%&<<<<<<-*%::&&>oX $50q",
"e,oooooo==$-<<<%o&=>>&%%oo>>>=5e",
"e4o..oO==$=><%##<<=&&&&&ooooooqe",
"74Oooooo#&=:&:::&&&&*&$$=oooooo5",
"q2*oooo$$&&::#%%&o==&o#Ooo=o==2q",
"r5;%OO$o$##%%%#%oo&o$##$=o=o=2ep",
"y81***$=::,*%#%#&&&&#::&=====;0a",
"w83333224444333<:22224<<22>2>20a",
"w99677980077777427777775785880qr",
"w99809000w0tqqqqeeqqwteq9998999y",
"r88543334443434<>22554433<,2489y",
"a92;-=--:<<##%#$%%$%%;>>--*=;48a",
"y8>%$&%O##&%##%%%&###OOOoOO$*,8a",
"yq-=#OO%&%%&&:::&&&&@OO#$oo$&=qu",
"e4oX#O%-&&-::&&&-:%@%%%&:&$$%o=e",
"e=o$OO#&--&:<-&->;:&%-::&&o$oo,7",
"e05=##%:&--:-::&>,26-@>-&&$$:>2e",
"yw:OO+%:=====*-->:,57oo=&=o$oX*8",
"y6@OOO-:=====*&:,,::>5Oo$o.. o=8",
"t3%+OO#-====*&:::::===%ooooo&=50",
"s6-##OOO=oo==:::--===+$$$ooo$-,e",
"d063%%%Ooooo$+$$%&%&$oooo&=+,24w",
"dt763,,->>>o$$$o##o#o=;-:<,2388r",
"ddt0633<252,**2::222,212<41889ri",
"dddpyryeurr888q8q008qee828wridds"
};
