/* XPM */
static char *_493779933900[] = {
/* columns rows colors chars-per-pixel */
"32 32 45 1 ",
"  c #706858",
". c #686868",
"X c #706860",
"o c #706868",
"O c #787060",
"+ c #707068",
"@ c #787068",
"# c #787868",
"$ c gray44",
"% c #787870",
"& c #807868",
"* c #887868",
"= c #807870",
"- c #888068",
"; c #808070",
": c #888070",
"> c #808078",
", c #888078",
"< c #908070",
"1 c #908870",
"2 c #908878",
"3 c #988878",
"4 c #989078",
"5 c #808080",
"6 c #908880",
"7 c #989080",
"8 c #989088",
"9 c #A09080",
"0 c #A09880",
"q c #A89880",
"w c #A09888",
"e c #A89888",
"r c #A09890",
"t c #A8A088",
"y c #B0A088",
"u c #A8A090",
"i c #B0A090",
"p c #B0A890",
"a c #B8A890",
"s c #B0A898",
"d c #B8B0A0",
"f c #C0B890",
"g c #C0B098",
"h c #C0B898",
"j c #D8D0B8",
/* pixels */
"jjdddrdr0ppp04ttyyy;00:0:7iigggg",
"du6ur,,,0027t40024220:o=##:#::ee",
"duu677,,22700004422;:::07777::::",
"d6uu,7,,2270t0442;4400007777e:::",
"s8287::::&:7717:111--1142222:44$",
"882822:::O&:11:111&&---12:2244%:",
"8s=872:::&&:---:-----1-12222%:$4",
"82=2277:777:::::-&-&----*::24:$:",
"060622&22ww<::&:----&&&&&2&:77:@",
"0>60:&:232222:::&&&-&O O&&:2:=:=",
"0>062:22232<22::1&&& OO&&2:::=::",
"a666:&&:<<<2222:1-&&&O&&:2:2::=7",
"t,,2:&OO&::201:1:41:22:::2222,27",
"tt,2:&&&&&:21&&::1:12w2::22&722,",
"tt2,&&:&:::::11::1::22:::222t,22",
"t72,&::::2:::1&&:4::22::2:::72,t",
"02=2:::@:11::==:::1711-1::1177,,",
"02=::&&&:11:=::11:17-11-1::4,7u=",
"0:=:::&&:::1=:::--7111--11:1,777",
"0::2:&&&:::==:1:1:171-&&::::7u,=",
"q%:2@&&&&1--:::::11::&OO:1::77%7",
"22%%:&&:-1111:1110::&O&&:::477,%",
"q%%:::&:&11111140::::&&:1::1,,%,",
"22:244:4-11144111&&&&:::1::177$$",
"7927:41441-1:1::::::---1:-::&:@@",
"772244111-441:1:3<33-:7:111:&:::",
"i272:::14411::1::3331:71::11:4:&",
"72771:::4411,:113<3:1171:-7::&&:",
"77772===2,=,424:22:::::49,9,:::X",
"f5t722222,,w:tt2:2%%44:49=,,:XX:",
"tt55=2=2==,242t4:%%%44:@,=,$XX:0",
"ft752.+.=2=,:4ttqq2%@@:&$$=$::0h"
};
