/* XPM */
static char *_493779964570[] = {
/* columns rows colors chars-per-pixel */
"64 64 186 2 ",
"   c #686848",
".  c #787850",
"X  c #787858",
"o  c #787860",
"O  c #688838",
"+  c #708048",
"@  c #7D974A",
"#  c #789848",
"$  c #788058",
"%  c #78A040",
"&  c #78A048",
"*  c #809840",
"=  c #889840",
"-  c #809848",
";  c #848A5C",
":  c #809050",
">  c #889050",
",  c #829853",
"<  c #849854",
"1  c #899958",
"2  c #80A840",
"3  c #80A048",
"4  c #85AE4D",
"5  c #88A848",
"6  c #94A44C",
"7  c #84A353",
"8  c #89A154",
"9  c #8EAA55",
"0  c #8CA358",
"q  c #8CAA5A",
"w  c #91A951",
"e  c #9CAC54",
"r  c #90A158",
"t  c #92AA5A",
"y  c #9AA85F",
"u  c #8AB151",
"i  c #8CB952",
"p  c #92B353",
"a  c #99B353",
"s  c #91B259",
"d  c #9AB35B",
"f  c #9BBA5A",
"g  c #A2BC5B",
"h  c #838366",
"j  c #888068",
"k  c #828A69",
"l  c #8B8B6A",
"z  c #8B9364",
"x  c #889860",
"c  c #899069",
"v  c #899868",
"b  c #919A62",
"n  c #91946B",
"m  c #939B6B",
"M  c #888870",
"N  c #888878",
"B  c #908870",
"V  c #889070",
"C  c #929373",
"Z  c #949A73",
"A  c #9C9D74",
"S  c #93947A",
"D  c #989078",
"F  c #929979",
"G  c #999979",
"H  c #A09878",
"J  c #8BA162",
"K  c #94A362",
"L  c #9AA765",
"P  c #92AA62",
"I  c #9AAC63",
"U  c #92A168",
"Y  c #99A36B",
"T  c #92AA69",
"R  c #9AAA6A",
"E  c #96B363",
"W  c #99B262",
"Q  c #9BBA62",
"!  c #9AB26A",
"~  c #9FBA6A",
"^  c #93A273",
"/  c #9BA373",
"(  c #9AAA72",
")  c #9AA37A",
"_  c #9DAA7B",
"`  c #A0A868",
"'  c #A1B363",
"]  c #A0B861",
"[  c #AABC63",
"{  c #A1B26A",
"}  c #A8B46E",
"|  c #A3BA6A",
" . c #A9BB6A",
".. c #A0A475",
"X. c #A1AB71",
"o. c #A8AC72",
"O. c #A1A179",
"+. c #A8A078",
"@. c #A3AC7B",
"#. c #A2B271",
"$. c #AAB272",
"%. c #A2B972",
"&. c #A8B971",
"*. c #A2B27A",
"=. c #AAB279",
"-. c #A0B878",
";. c #AAB979",
":. c #B1BC77",
">. c #B0B97A",
",. c #90C050",
"<. c #98C858",
"1. c #A0C058",
"2. c #ACC45F",
"3. c #A0D058",
"4. c #A1C262",
"5. c #A8C860",
"6. c #A2C16B",
"7. c #AAC16B",
"8. c #A8C868",
"9. c #B0C169",
"0. c #B3C96A",
"q. c #BCCE6C",
"w. c #A8D068",
"e. c #B0D060",
"r. c #B8D068",
"t. c #A8C071",
"y. c #A8C870",
"u. c #A8C178",
"i. c #B2C172",
"p. c #B0C870",
"a. c #B1C278",
"s. c #B0C878",
"d. c #B8C878",
"f. c #B8D070",
"g. c #B0D870",
"h. c #B0D078",
"j. c #B8D078",
"k. c #C0D070",
"l. c #C8E060",
"z. c #999980",
"x. c #A09981",
"c. c #A89880",
"v. c #A09888",
"b. c #9DA281",
"n. c #A2A282",
"m. c #A8A080",
"M. c #A4AA83",
"N. c #A9AA85",
"B. c #A3A28A",
"V. c #A8A189",
"C. c #A1A888",
"Z. c #A9A98A",
"A. c #A4B182",
"S. c #AAB482",
"D. c #A8B880",
"F. c #ACB28B",
"G. c #B0B286",
"H. c #B0B880",
"J. c #B0B088",
"K. c #B2BC8D",
"L. c #B8BC8F",
"P. c #A9A991",
"I. c #B0A890",
"U. c #B0A898",
"Y. c #A9B190",
"T. c #B1B192",
"R. c #B0B890",
"E. c #B1B198",
"W. c #B8B098",
"Q. c #B8B998",
"!. c #B8B8A0",
"~. c #B8C080",
"^. c #B0C880",
"/. c #B0C088",
"(. c #B8C489",
"). c #B0D080",
"_. c #B8D080",
"`. c #B8C090",
"'. c #B8C098",
"]. c #B8C0A0",
"[. c #C0C880",
"{. c #C0C0A0",
"}. c #C0C8A0",
"|. c #C8C0A8",
" X c #C8C8A8",
".X c #C8D0B0",
/* pixels */
"Q.Q.Q.T.N.;.;.;.s.j.j.a.7.t./.;.&.=.| | 8.8.-.8.;.;.;.;.D.D.A.F.Q.Q.Q.Q.E.T.P.E.H.G.G.H.>.i.H.i.f <.<.3.3.6.6.6.F.F.F.F.E.Q.Q.Q.",
"Q.Q.P.P.N.N.M.c.=.j.j.a.t.;.K./.S.S.S.F.Y.Y.Y.D.A.S.A.Z.A.P.F.A.Q.Q.W.W.T.E.P.T.I.I.I.I.T.Y.T.>.E Q f 4.y.C.C.C.Z.P.U.F.R.Q.Q.Q.",
"E.T.P.P.N.c.V.V.@.j.j.d.K.Q.L.K.P.S.J.T.Y.Z.Y.Y.Z.S.A.P.F.B.P.S.Q.Q.W.W.T.Q.P.T.I.I.G.I.T.I.R.>.f E E E Y.b.b.M.P.Y.U.Y.Z.U.T.T.",
"T.P.B.P.N.N.B.B.=.a.a.;.Q.Q.Q.K.T.S.T.T.Y.Y.Y.Y.P.A.P.P.Z.F.F.S.Q.Q.W.W.E.E.T.E.I.G.I.I.J.T.I.R.U U E E b.C.C.C.U.U.U.I.P.P.P.P.",
"B.U.B.B.P.P.B.B.` K.}.S.Q.Q.Q.H T.N.T.T.Y.T.B.P.P.Y.P.P.P.P.E.T.!.!.!.E.I.T.Q.E.I.E.I.I.P.W.E.Q.E.( P P Z.B.V.Z.P.B.B.v.B.P.P.B.",
"I.V.z.z.P.P.B.b.G.L.}.S.Q.Q.Q.O.Z.N.Z.T.T.T.T.P.P.P.Y.Y.P.P.E.E.!.!.!.E.Q.Q.Q.E.E.I.I.I.Q.W.W.!.E._ q P N.n.N.n.P.z.z.z.x.B.P.P.",
"I.B.V.z.B.B.B.B.X.K.}.S.Q.Q.Q.x.T.E.T.R.J.T.P.T.B.Y.Y.Y.P.E.E.Q.!.!.!.E.T.W.T.W.I.I.I.U.W.!.W.!.Y.M._ E.Z.n.n.n.b.z.z.z.B.B.P.B.",
"B.x.z.z.z.b.z.z.X.R.K.S.Q.Q.Q.n.Z.T.T.Q.I.T.P.T.Y.Y.Y.B.P.Y.Y.E.!.!.Q.T.W.I.T.Q.I.I.I.P.W.U.E.I.C.A.( P F G n.n.z.z.z.z.H x.x.x.",
"B.z.z.b.z.z.z.z.S.R.].R.!.!.E.Y.Z.T.P.T.T.J.Z.T.P.Y.Z.T.P.T.J.T.Q.Q.W.W.Q.W.T.T.I.I.I.I.W.T.W.W.M._ U U G G G F z.z.z.z.z.z.z.z.",
"Z.B.G B.z.z.$ z.( F.].R.!.!.Q.R.n.J.T.Z.Z.Z.Z.J.C.Y.b.T.I.Y.T.T.Q.U.W.Q.Q.U.Q.W.I.I.I.I.I.I.Q.T.E.) U ) Z c c C z.z.z.z.z.z.B.B.",
"n.z.S z.z.o N z.A.].].].!.!.Q.P.n.T.T.Z.Z.Z.Z.Z.F.Z.C.R.R.I.P.T.Q.Q.W.Q.Q.Q.T.I.V.H I.I.I.I.Q.E.E.C.N.) G l c C z.z.z.z.z.z.z.z.",
"n.B.S z.z.N z.z.R ].].Y.!.!.Q.Q.n.Y.T.Z.Z.Z.F.B.C.Y.b.T.P.P.P.R.Q.W.W.W.Q.Q.T.I.V.V.I.I.T.I.I.Q.E.M.J _ C c c V z.z.z.z.z.B.v.z.",
"B.B.Z G v.z.$ z.0 -..X*.Q.Q.E.Q.n.Y.Z.Y.b.n.x.) n.B.C.P.P.Y.P.U.T.P.P.I.Z.R.Q.T.I.I.I.I.Z.Z.Z.Z._ ( ;.Z V V V V z.z.N z.z.B.B.B.",
"B.Z.B.G v.$ z.z.1 0 R./.U.E.Q.Q.C.Y.Y.C.G b.n.U B.M.b.Z.P.Z.Z.Q.P.P.Z.P.T.T.Q.T.I.I.I.I.Z.Z.T.Z._ { t.G V $ V V S S z.z.B.P.B.z.",
"C.P.G G z.o $ z.0 _ `.K.Q.T.I.T.n.Y.Z.n.) n.z.) B.P.P.C.B.P.P.B.Z.P.P.T.T.Z.Z.T.I.I.T.J.T.T.T.O.( *.y.G V V V V S z.z.z.V.B.B.B.",
"B.B.z.G z.z.z.z.7 /.K.K.T.W.T.W.b.Z.C.) Z ) ) ^ C.C.G b.n.O.n.P.P.P.P.Y.T.Z.Z.Z.T.T.T.T.Z.Z.T.n.G X.%.F V V V V V S z.z.P.B.V.B.",
"N.Z.S M c l N N q s.s.~ R.*.A.R._ ( n._ v J v v F ^ F F b.b.z.M.*.*./.*.J.J.J.@.Z.Z.N.Z.Z.Z.*.A.Q P Q x l c J m c z c l F b.b.b.",
"Z.G S M n r N N q s.s.~ R.*.R.-.) b.O.) t t v v ^ ^ ^ ) b.Y.M.N.*./.;.*.J.J.J...@.@.Z.Z.Z.Z.-.-.8.L x x L R R T Z l v Z z.z.b.b.",
"Z.z.Z.N.r c N N q ~ | | *.*.T *.( ( ! ) q f f P ( ( %.%.K.M.K.K.;./././.J.J.@.@.M.Z.*.@.M.*.M.A.L x L T R R c m Z _ F.C.b.b._ b.",
"G Z.Z.Z.r r r r E E Q W q q A.T R ! E ( J f f q F ( ( ( z.F M.M.K r ( K U b U ) M.*.%.%.-.-.-.A.! Q Q P b v v z c Z ) F.M.@.b.M.",
"Q.R.=.L.(.(._._.|.Z.|.G V G T.T.T *.T T % % 4 4 4 4 4 & 8 8 I d P 1 : : @ T -.( $.` >.$.! u.u.%.~ ~ ~ 7 O @ 0 0 P Y Y P @.x.H x.",
" X X X X(.(.(.(.|.|.G X V G C.T.T ( *.T % % p 4 i 4 & & 8 t 3 8 | Q | | ( ! ;.-.:.:.$.` T %.T T t ] | # 0 0 ` ' J L H ..n.n.x.x.",
"'.{.'.{.L.L.L.W.Z.|.|.Z.V V V Y.R #.H.T 4.4.p 4 4 & & 4 t d d 7 P ~ | t R R =.&.>.o.$.` T J J J 7 7 7 7 ' ! ' 0 ..H c.Y x.m.m.n.",
"{.'.{.Q.W.W.W.W.Z.Z.Z.Z.T.Y.V c ( D.H.H.f p p p <.i 4 4 t , t , : t y P R ;.;.;.>.>.$.` T #.! u.| t | | ` { 1 0 Y L c.c.n.n.+.N.",
"W.W.W.W.E.Q.E.E.E.E.P.Z.m.W.W.c N.`.`.K.! R Q ,.Q E E T R R U v . / ( ( @...=.=./ Y / X.R { ` { 9.[ ] ] %.X.X...c.V.V.V.Z.Z.m.m.",
"W.W.W.W.Q.E.E.P.E.E.E.E.B.W.W.W.N.`.`.N.G n.E ,.f E W R R R L v . x R ( ) ..../ C m #.! ` R R R [  .[ Q %.X...H V.B.c.Z.m.m.m.m.",
"Q.W.W.L.E.E.E.E.Y.B.E.E.Z.W.W.W.N.F.N.n.n.n.R W R E E L U U U v . . z ( / A A l C / / ` / / R { [ [ ] g %.) H ..V.V.V.G.V.N.m.Z.",
"W.W.W.W.E.E.E.E.E.E.E.E.B.W.W.W.K.K.F.N.) n.( ( I f E R v J R v ; z z ; n A ) A m ( Z A Y R ` { [ 9.] ] | X.H ..V.v.J.I.Z.Z.Z.m.",
"Z.I.R.I.Q.W.W.W.Q.T.T.T.Z.E.E.E.U.Q.I.I.R / Q R 7 E W q Z Z Z G l n n j j l M Z z n z x b b R ' d ] g Q 7.` +.+.m.m.Z.Z.+.n.Z.c.",
"T.B.I.R.W.V.V.Q.T.T.T.R.N.E.T.E.W.E.I.I.A Q ] Q @ , , @ Z C Z F h n n X.A C C B l z l z z z L L t t t y 7.} +.+.m.n.N.c.Z.Z.Z.m.",
"Z.Z.P.Z.W.C V.V.T.E.T.T.Z.E.T.E.W.E.U.I.! 4.g ! 0 0 @ , G F ^ D l m m X.) G C j n l c B ; b L K t q t g 7.7.o.+.m.Z.Z.N.B.N.N.Z.",
"Z.P.T.B.x.H Z.V.T.T.N.E.Z.P.P.E.!.W.I.I.R Q 4.4.0 @ J t Z m U V n m A ( / ) l l l n c l b { U L d d y d 7.7.o.+.H Z.Z.N.Z.Z.Z.m.",
"Z.Z.Z.Z.G n.Z.Z.Y.E.P.E.T.I.!.!.E.E.E.U.{ t.t.6.0 8 0 q R Y m B m l ( ( z ' U b R U n b W d r K 0 r t f 8.%.X.O.B.N.m.N.Z.m.M.n.",
"B.N.Z.Z.N.n.n.N.E.E.P.E.P.T.U.U.P.E.P.B.Y Y { } @ 0 P P Y Y C C ( Y ( / L { ` ' I R R R W b P I t 0 q a 8.8.X.#.n.H n.m.) n...N.",
"N.Z.Z.S n.n.C.B.P.E.E.E.E.U.V.x.b.P.P.B.Y R } R @ t P J { { Y R m ( R v b ' { ' | U R R r b K x t w 0 t %. .#.O.m.B.m.n.@.N.H n.",
"Z.N.b.$ n.V.Z.N.P.E.E.T.U.Z.V.z.B.P.Z.B.Y m U Y 0 P P t { ` ` Y m Z v ( L L U ` m v z L I W f I 1 1 0 t  . .O.H n.m.n.m.n.n.N.O.",
"z.n.C Z b.C.b.C.Z.N.N.T.B.N.B.z.b.b.b.b.q W W d e e e e | ~ P r A Y A e b ; K y 0 r e d W W ] ~ I 8 1 E R R ..O.O.O.) O.+.H H H ",
"G ) l ) M.C.C.C.n.n.N.N.Z.N.N.z.z.b.b.z.P P 5.Q e e [ ] ] | | ] g ' L ` L y y K e d t d t 0 | t 1 E E E f R ) O.....H O.n.+.H n.",
"x.b.c n.O.b.O.M.m.N.O.Z.N.n.B.z.b.b.b.b.d E 5.g e e g [ | ] | ] I ' L ' W g g ] t a e d I t 9 W ~ %.~ s.f ! A H H O.O.+.n.m.N.+.",
"n.O.G b.O.B.) C.N.Z.N.N.B.B.C.B.M._ b.b.P W ] y e 6 = 6 r < P I ` L ' ' ] ] ] K a d t a W 0 t | | s.| R a f f R O.O.H @.+.+.@.N.",
"g a a a e [ ' [ 4.4.! R Z.O.O.N.M.P.z.B.L ' ' e.~.~.=.~.T.n.n.R.:.i.i.i. .7. .7.7.] [ E Q s ~ u u 4 u u 4 g f 2.9.] ] ] ! Q W 7.",
"g 2.2.2.0.0.g ' R Q 1.4.T.R.N.'.Q.Q.Q.Q.e.] ' ] ~.H.~.~.'.J.Y.R.i.k.l.l.5.0.9.&.| | | [ ~ 6.9 ~ u Q u 4 g g f g 9.[ [ ] W - 3 9 ",
"2.r.r.r.0.k.0. .4.] 4.1.R.N.F.R.Z.B.b.S l j l h G G n.O.B.F.N.Z.N.q.l.l.0.0.0.7.[ 7.7.7.~ d Q t.Q y.t.u g g w f ] 9.9.E W t t W ",
"2.2.2.2.0.q.0.0.1.! ^ R H O.) H B.z.z.S K U l L G @.=.N.N.Y.N.F.=.=.q.k.8.0.0.%.| ] 7.4.~ Q E %.Q Q 4 d a w d a W I I d Q 6.t.t.",
"f 4.Q 5.0.0.9.g f X.X.X.Z.n.Z.N.B.B.V.v.D z.D D v.P.P.P.P.P.E.E.Q.Q.Q.@.| d.j.| 7.~ 7.E ! 6.6.y.~ ~ ~ ! ' L L ' I E ~ t.7.t.7.7.",
"4.W 4.1.0.0.g 5 | O.X.n.F n.n.Z.P.P.x.x.G z.D D v.z.P.P.P.P.E.E.J.Q.J./ 7.j.7.d ] E ! | P P ~ 6.~ ~ | ] ' ' ' ' d | | t.7.7.p.p.",
"Q 1.4.4.0.0.p 5 ' { X.x.n.n.B.n.P.P.x.x.z.z.z.z.P.B.B.P.B.P.T.E.Q.R.Q.@.7 j.| E | ] | ] ! ! y.%.] ~ | Q y [ { ' E | d | | t.p.p.",
"Q 4.5.1.8.a p g ! | #.O.n.n.Z.Z.P.V.x.z.D D z.z.P.B.P.B.P.P.E.E.Y.J.Q.@.8 [ 7.[ | 7.7.7.~ 6.h.h.~ | { 1 L  .' ' W t E | 7.7.~ | ",
"u.u.;.u.:.9. .| *.*._ _ b.b.P.P.E.P.B.V.z.z.z.b.U.U.E.P.I.W.W.W.Q.Q.Q.o > j.{  .t.p.p.t.s.%.%. .#.~ %.1 R { | | #.{ %.&.&.X.#.( ",
"! %.E %.i.t.i.I _ #.b._ b.b.P.P.E.U.P.P.P.B.B.B.P.b.P.P.U.W.W.W.Q.B.o o > j.} ] t.p.y.t.~  .%.%.#.%.P J t.%.%.{ #.{ ` &.&.&.#.R ",
"! %.-.u.t.i. . .*._ _ _ b.F P.P.E.P.P.E.P.P.P.P.P.E.E.E.W.W.E.U.z.X B n.y j. . .y.&.t.%.P q q P P J T L ! &.%.-.R R { &.&.{ #.#.",
"%.E %.%. . . . .#.*.) z.b.V P.P.P.E.E.P.B.P.P.P.E.E.E.E.W.P.P.b.n.B.Q.Q.y | | | 7.%.7.%.J P ! P %.I %.R R ! | ( L R { &.#.#.&.&.",
"| %.! ! ! ! f. .G.G.N.H Y.b.Z.P.B.U.P.P.P.P.P.E.E.E.E.E.E.P.B.U.Q.Q.Q.Z.x } d.d.:.:.[.L T ! ! ' ! I ! I 0 x E & T T ! ! X.! ;.u.",
"t.t.| T  . . . .J.G.Z.N.P.P.Z.P.z.E.E.E.E.E.E.Y.E.E.E.E.P.U.P.E.T.T.T.N.&.d.d.d.[.[.;.R T L T T E E ~ x J J E P -.T ! ! #.;.u.u.",
"t.t.| ! 0.7.0.8.J.J.K.N.Z.Z.B.E.P.B.E.E.E.E.E.E.E.E.E.Y.E.E.E.E.T.R.T.Z.d.d.d.d.[.[.:.$.T T P R I 0 K 0 E Q 6.E T T %.%.%.;.u.u.",
"6.! ! R  .f.d. .G.Z.Z.N.P.P.P.E.E.b.P.E.E.B.P.E.E.E.E.E.E.E.E.E.T.T.T.T.} d.d.d.[.[.:.:.! ' |  .E ! 6.6.6.6.6.E %.%.%.~ ;.! ;.u.",
"E E t.t.u.| u.| Z.N.N.F.E.P.!.E.E.E.S S v.D E.E.R.I.R.I.T.J.T.Y.F.S.D.A.u.u.s.^.).u.u.s. .d.[ :.0.q.q.7.4.8.8.4.%.u.t.u.t.6.! %.",
"t.t.t.t.%.~ E y F.F.n.M.E.E.E.!.E.E.$ z.v.V.E.E.I.R.I.R.T.T.I.T.;.M.D.D.u.g 6. .;.u.u.u.i.u. .d.k.k.q.7.6.8.4.Q %.t.t.u.t.t.! ! ",
"t.%.t.6.~ | %.E M.M.b.M.!.!.!.E.E.    S E.E.E.E.R.I.T.I.P.Y.Z.T.N.D.D.;. .s.%.7.#.! #.).d.i. .i.d.0.0.p.4.8.f E %.u.s.s.6.t.E R ",
"t.6.t.~ %.;.I E N.F.N.b.z.z.E.].G   h E.E.E.E.B.N.R.J.T.P.P.P.P.S.A.Z.F.t.u.] 7.#.{ ;.( i.i.i. .0.0.0.p.4.Q 6.f ~ s.s.s.t.t.t.T ",
"Q f 8.Q d Q E u W E ! k x P t.P X C Q.Q.H.H.H.S.T.T.T.J.S.D.S.S.;.;.Z.Z.E 4.Q W | ! I | Q 7.t.&.p.p.p.p.8.f 8.8.Q 6.t.t.y.8.! d ",
"t t Q 8.Q u f i I I K x T t.t . X H Q.Q.K.S.H.{.Y.@.@.T.S.J.T.D.Z.V.;.7.6.4.4.Q { ~ ] &.&.! Q W d ] g p.w @ @ f q ! t.t.6.E 6.y.",
"4.8.g.4.Q Q Q u J ! E ! 7.t., + n.Q.Q.Q.].H.D.w R *._ J.Y.T.;.;.9.t.e.e.w.Q E d I d a.:.t.t.Q ] g W W w - t - @ 7 q q t t ~ ~ ~ ",
"q q Q 8.E f 2 2 E 2.5.5.t.u.< < Q.Q.n.x.#.{ ` 9 4 R R T.;.-.4.6.7.i.e.e.w.4.E I W a.:. .! Q t 1 I g * * w u t t @ 7 9 ! 9 q Q f "
};
