/* XPM */
static char *_493779926224[] = {
/* columns rows colors chars-per-pixel */
"32 32 36 1 ",
"  c #887070",
". c #988880",
"X c #A09088",
"o c #A09888",
"O c #A8A088",
"+ c #A0A090",
"@ c #A8A090",
"# c #A8A890",
"$ c #A8A098",
"% c #B0A098",
"& c #B0A898",
"* c #B0B098",
"= c #B8B098",
"- c #B0A8A0",
"; c #B0B0A0",
": c #B8B0A0",
"> c #B0B8A0",
", c #B8B8A0",
"< c #B8B8A8",
"1 c #C0B8A8",
"2 c #B8C0A8",
"3 c #C0C0A8",
"4 c #C0C0B0",
"5 c #C8C0B0",
"6 c #C0C8B0",
"7 c #C8C8B0",
"8 c #D0C8B0",
"9 c #D0C8B8",
"0 c #D0D0B8",
"q c #D0D0C0",
"w c #D8D0C8",
"e c #D8D8C8",
"r c #E0E0C8",
"t c #E0E0D0",
"y c #E8E8D0",
"u c #F8F8E8",
/* pixels */
"yyyy77%%%%77y&5yrr77:00@rrrryyyy",
"yy7:      X%y.&5$$$$..:.:oooooyy",
"y7:oX XXXXXX&.5&$$$$@@@.oooooo:y",
"y:ooXXX%%%XX.&&&<<<<:::@oooooo:y",
"y:ooooo@##::&&&&;1;1,,::==OO&&5y",
"yoooooo&####&&:,;$;07,,:==OO&&&y",
"yoooooo@##o#,77&;101::,,==OO..5y",
"y:ooooo@o#:777770;$$,,,:=X..&yyy",
"y:oooooo&&&,666+o@*33*&&..*75&5y",
"y7oooo@=&&;66+.+33*@&&&&@*@@&&yy",
"77oooOOo&;,6*666****:**&@@@@&&.&",
"7:oo@oO=;,666*****33:**&****&&&5",
"01$$$$==<<2<<<<<,,,:,:,<33:*:7yy",
"0;$$$=$=<<<<<<<<,,::,<<<3:*&oo7y",
"1$$$====<<<<<<<<::::<<<<33**oo:y",
"1$$$====<<<<<<<<:,,,,<<<3:**:::7",
"1&&&===:,<<<,,,,<,:,177,&&&&&&&0",
"7&&&===:,,,,<<<,:,<67,::&&&&&&&0",
"r1&&====:,<<<<:,<<<<,:::&&&&&&&y",
"r7&&==::,<6<:,<<<<,,::::&&&&&&0y",
"yy::&&&32<<<,6661111----****:oyy",
"y7oo$&;3<<<26;,,11$$---,3:**:ooy",
"yoo:&&&;<<<<6;&;111$$,77:**&oo:7",
"yyy:$$&3<<<<;,,&119y-$7,****777y",
"uu4$$&;3::::-$--<<4rroo:::@@@..0",
"uw$$$&33,:::-$$>44<<5roo@@oo..@0",
"u4$$$&;3::::->66444<:::o@@@o::00",
"u4$$&&&;::::66664444:::::@@@@@@0",
"uq<<&&&&====::::3333:&&&***@&&&5",
"uq<<&&&&====::::====&&&&****&&&5",
"uuq<&&&&====..::====&&&&@*@@&&5e",
"uuut0000rrr3::00r833000&.*77euuu"
};
