/* XPM */
static char *_493779955248[] = {
/* columns rows colors chars-per-pixel */
"64 64 102 2 ",
"   c #292918",
".  c #393121",
"X  c #393921",
"o  c #313129",
"O  c #393929",
"+  c #393931",
"@  c #423931",
"#  c #424229",
"$  c #424231",
"%  c #4A4231",
"&  c #4A4A31",
"*  c #4A4A39",
"=  c #524A39",
"-  c #525239",
";  c #4A4A42",
":  c #525242",
">  c #5A5242",
",  c #5A5A42",
"<  c #5A5A4A",
"1  c #5A5A52",
"2  c #635A4A",
"3  c #635A52",
"4  c #636342",
"5  c #63634A",
"6  c #636352",
"7  c #6B6352",
"8  c #6B6B52",
"9  c #6B6B5A",
"0  c #736B5A",
"q  c #6B7352",
"w  c #737352",
"e  c #73735A",
"r  c #7B7B5A",
"t  c #6B7363",
"y  c #737363",
"u  c #7B7363",
"i  c #7B7B63",
"p  c #73736B",
"a  c #7B736B",
"s  c #7B7B6B",
"d  c #847B63",
"f  c #847B6B",
"g  c #8C7B6B",
"h  c #7B846B",
"j  c #848463",
"k  c #8C8463",
"l  c #84846B",
"z  c #8C846B",
"x  c #8C8C6B",
"c  c #848473",
"v  c #8C8473",
"b  c #8C8C73",
"n  c #84847B",
"m  c #848C7B",
"M  c #8C8C7B",
"N  c #948C73",
"B  c #948C7B",
"V  c #8C947B",
"C  c #949473",
"Z  c #9C9473",
"A  c #94947B",
"S  c #9C947B",
"D  c #9C9C7B",
"F  c #8C8C84",
"G  c #949484",
"H  c #9C9484",
"J  c #9C9C84",
"K  c #94948C",
"L  c #9C9C8C",
"P  c #9C9C94",
"I  c #A59484",
"U  c #A59C84",
"Y  c #A59C8C",
"T  c #9CA58C",
"R  c #A5A584",
"E  c #A5A58C",
"W  c #ADA58C",
"Q  c #A5A594",
"!  c #ADA594",
"~  c #ADAD94",
"^  c #A5A59C",
"/  c #ADAD9C",
"(  c #B5AD94",
")  c #B5AD9C",
"_  c #B5B594",
"`  c #B5B59C",
"'  c #ADB5A5",
"]  c #B5B5A5",
"[  c #BDB5A5",
"{  c #BDBDA5",
"}  c #B5B5AD",
"|  c #BDBDAD",
" . c #BDBDB5",
".. c #C6BDAD",
"X. c #BDC6B5",
"o. c #C6C6AD",
"O. c #C6C6B5",
"+. c #CEC6B5",
"@. c #C6C6BD",
"#. c #C6CEBD",
"$. c #D6CEBD",
"%. c #D6D6BD",
/* pixels */
"R ~ ~ b J J J J H E ~ ` ~ ~ A 7 0 B B B G H G Y ! ! ! J Y B B B ..+...+...[ ) [ ~ L L Q E E E E G G s s s s s s M M G / J J A Y ",
"D R R b b b J b H E ~ ` ~ ~ 7 7 B B B E Y H M M J ! ! J u u u [ +.+.+.~ [ ) ) [ Q L Q Q E E E E [ Y s s y y s s M M / G A A J Y ",
"D D D D b b b J H H E ~ ~ A 7 f B E E E Y H G M l ! ! ! B u B [ ......~ ) Y ) ) Q Q L Q E A A E [ [ G s s s y y y G / G A A J J ",
"b b R R b 0 b J H H H ~ A f f A B B E E Y H G M l A ! ! Y Y B Y ~ ~ ~ ~ ) ) ) ) Q Q Q L A s A E [ [ [ G s 9 9 y G / G G A Y Y Y ",
"l J J J b b w b M M M M c i 8 i f f f B E b b b s s L L E E E l J Q Q E Y B B B A A A l 9 9 Y Y ! ! ! U b i l J B B B c Y ......",
"l J l r w w , w M M s s c c i i f f f f b d d d s 8 L L E E E E / / Q Q B i i i l l l l 9 9 Y Y U U U S b l l l B B M B b Y ( ..",
"J l 5 5 # # # # 7 s M M G G G c f f 6 6 7 7 7 7 8 & 8 L E E E E / E J J B B B v A J J A M M Y Y U U U v b J b b c c B H b b Y ( ",
"J J l l b b b b 7 y s y i i 8 8 y 6 6 6 7 7 7 d s 8 8 8 = 0 E E Q / Q Q Y Y Y Y ~ ~ ~ A Y Y Y Y U S v v J J J J c M H B b Y Y ( ",
"| ` J ~ o._ o.o.[ y y * : : : y 0 = = = l J J J E E E E J E M E ~ { { { +.` E ` ~ ~ b b ~ E J J 0 l B Q ~ Q L L v H H E ! ! H ! ",
"| ` ~ J E E _ _ [ B * * : y v v 0 0 0 Y J J J J J A A J M E ~ ~ ~ ~ { { +.+.` E ~ ~ i b J B B J B B Q Q Q L Q L ` ` E E ! ! H ! ",
"| ` ` J b b b E B B y * y ! ! ! Y Y Y Y J l i i v A J J J E ~ ~ { { { { +.+.` E b i , b B B B J Q Q Q Q Q Q Q ~ ` ` ` E ! ! H H ",
"` | ` ~ E b b b B B B * v ! ! ! Y Y Y Y J l i i v A A A J ~ ~ ~ ~ { ~ B b b E b , , , b E J E E Q Q Q Q Q L Q L E ` ` ` ! ! v u ",
"{ { ~ ` ~ L M M M M M < l J J J A A A A f f f f b b b b Y ~ ! ! J E E A f f f u % % 7 u B Y Y Y / / / ] ) Y Y Y L ) ) ) ) ) H 8 ",
"` J J ~ { { L M M M ~ M e l l l A e e 4 8 8 f f b b b J ! ! ~ Y E J J A B B f u % % u u u B Y B L / | | ) Y Y G L L L ) ) ) ) 8 ",
"J J J ` { { { L M ~ ~ ~ , , , e e 4 # # , , 8 f b b b J ~ ~ ~ ~ E E J A B B u 7 7 7 H H u u v Y ] | | | ) Y G c s B ) ) ) H l 8 ",
"J J J ~ { { ~ L ~ ~ ~ ~ , , , , 4 # # # & & & 8 b f 0 0 Y ! Y Y E E A A f u u 7 7 u H H B B u v / ] | ] ) ) Y c B ) ) ) ) l l l ",
"E E ~ ` o.o.~ ~ { { { H v v H H v u u u 9 9 b b f f f f i i i b l l l 8 0 0 0 0 8 8 8 b ) b e e E { E E E E E E ` [ ` ~ A A L Q ",
"~ E ~ ` ` J J ~ ) { { ! v Y ) ) E A v u 9 b { { [ Y Y Y J i b b l l l l l l l l d d 8 d e e e b E { E E E J E ` [ [ ..[ Q Q Q Q ",
"H H E E ~ J J ~ ! ) ) H v ) ) ) E E E A b L { { [ [ [ Y ~ J b J A l A A B l l B b d d b b b b b E E A A b b E ` ........Q L J A ",
"E ~ ~ E J J J J ) { { H v Y Y Y E A A A b L { { Y Y Y Y ~ ~ J J A A A A B B B E Y d b b H H b b A A i A b b E ` ........Q L J L ",
") ) ! J Y J Y ! ` ` E v b G G M B v B H M M E ` ! ! Y Y ~ { { J A A A A L L L L v u v A M M c c B H B H A A E E ` o.o.` ~ ~ Q Q ",
"! ) ! E Y Y Y ! E E v v l M G G H H H B M J E ` / / ! ! ` { { ~ A ~ ~ ~ L L f f u u v A M B B B B H H H A l A E ` o.` ` ~ Q ~ Q ",
"! ! J J A A Y A H v v v l G G G H H B v M J J E / / ! / ` ~ ` ~ A ~ ~ A f 0 f M v u A A B H H H L L H L A l l A ` ` ` ! Q Q Q L ",
"E J J J Y ! Y Y H E E H l G G G H B v B M J E E ! / / / ` ~ ~ ~ ~ A l 9 0 f M M v u A E H H H B B B B B A e e e H ` ! H L L L L ",
"H H Y Y ` ` ` ` J J J J M M Y ) ! ! H H L L / L Y Y ) ) ` ` / Q Q Q y > i M c c l l B E J H H B c M M c i 9 < 6 v A A A J J A A ",
"b H Y Y E ` ` ` Q c c A M Y ........) ! L ] / ] Y G ! ) ` ` / / Q v > y M c c i B l B E H H H B A A M c i 6 < i u v v A J J J J ",
"Y A b A E ` ` E A c c c M M ) ) ) ......| | ] ] Y Y G ! ` ` ` ` Q y > v c c M M B 0 B E H H B H A M M c i < 6 i u v v A J J E E ",
"Y Y b H E E H v c c c A Y M M Y ) ......| | ] ] G G ! G Q / / / v > y v c M M c 0 0 B E J J B B A M M M 9 9 6 9 u f A A A A J E ",
"E E E J A A A A G s s G A A J Y Q / / Q ] ] ] Q B L L L v / / v f 5 A A b b b b e b b b J J J J v v v y e e e e 8 d J J v v J J ",
"J E ~ J l A A l s s G G Y Y Y J / / / L Q ] Q H B B L L v v v 0 5 5 f f d d d d e b b b J J J J v v y : % % % % = 8 8 d v v J J ",
"E E E E E l e e s ! ! ! ! ! ! A L Q Q L H v v v B B B B 0 = = 0 5 5 f f d 7 7 7 5 e e e r l l l v y : y B B B B d d d 8 7 v v v ",
"~ E J J E A e A ........! ! ! A L / / L v v v v B B f f v / / / ) ) ) ) E E b 7 & & 5 5 5 5 5 r y y ! ! | | | B J J d d J J J J ",
"U U W W H ! ` o.....[ [ ` ` E v y L L c A A A A v v v ) o.{ o.{ [ [ [ ) E E E H 5 5 5 i b b b , 2 I ........Q G M s s M H H Y ) ",
"W W ` W H ` o.o.......[ ` ` ` H < < y c A A A A v Y +.+.o.o.o.{ ~ ) ) E Y E Y Y Y Y Y Y E E E e g ..........) Q M s M M v v Y Y ",
"W W U B H ` o.o.....[ [ ` ` ` ` y < y c A y 6 6 v ) +.+.o.` ` E E ) E E Y E Y H Y Y Y Y E E b , I ......) ..) ) J s s s v ) ) Y ",
"B B U U H ! ` ` [ ` ~ ~ ` ` E v y < < y y l y 6 v ) ) ) { ` E E E ~ ~ E Y E E H v Y Y Y E E e , I I I I ) Q G ) ~ M s M Y ) ) ) ",
"Y H H H b ~ ~ ~ ~ ~ ~ ~ ~ ~ l l u 2 2 2 b b b i y ~ ~ ~ ! ! ! ! ! ! ! ! A A i i d d H H B u = u E E E E G f M G Q J Q Q ` { o.{ ",
"Y H Y H D ~ ~ ~ ~ ~ ~ ~ A l l A E u 2 2 i b b b y y G ~ ! U U S B B B l i 8 8 - - 8 d 8 7 = = B E E E S f v G G c J Q Q ` o.o.` ",
"H B Y B b D ~ ~ ~ A x e 8 A ~ ~ E u 2 u 0 0 i i y G ~ ~ ! ! U v l 8 8 8 - - - - - - - - = = = B E E S f f v v f c J Q Q ` { ` ! ",
"H H Y H b b D R x e e e 8 l ~ A u 2 u u i 0 2 2 y G G G S S v S l 8 8 l A i i i d d d d u u 7 B E E E S v f v v c J Q Q ` { ! ! ",
"A A A b f f B B v u u u u u u 8 6 i i v 0 2 7 0 y J b b A A A A J M J ~ H H H v B B v B J b b ] ) ) ) ! M s s M M L L L ~ ~ ~ E ",
"A b b A f u f f 0 0 0 0 5 5 5 5 6 v Y v 0 2 0 7 b J J J Y A Y J E E J E H H H H B v v v b ] Q Q ) ) ) ) H s s M c L L L E E E E ",
"A b b b f u B B 0 7 0 0 5 0 u u i Y Y Y f 0 f 0 J J J J Y Y ! ! ~ ~ J M f y y y s s v s Q ] Q J ! ) ) ! ! M s s s M L L J J E E ",
"A l l b u 0 0 B v u 0 0 0 u u u i v v Y f f f 0 J J J J ! Y Y ! ~ ~ ~ ~ y y y y s c v v ] Q b J Y Y ) ) ! H s s s c c M J M M M ",
"f 0 f f e , e e f M f f u u 8 u f B B B B B f f ) Q L Q L Q ~ ~ ~ ~ o.o.G l l l 9 9 9 A ! ! A l v A J J E E c y 0 u c c B B u u ",
"0 0 0 f , 5 e e f f M M v v u , y f B B B B f f ) ! ! Q L Q ~ Q ~ { o.%.` G 6 6 9 9 A ~ ! ! A l v v A B A A A y 0 s c c u u u u ",
"7 , 0 , , , e e f f f f v v v u y 6 y f B f u u L ) ) Q Q ~ ~ Q ~ o.o.o.` G l 6 9 A A A J A l A J J J J E E E A 0 s s s u u u 7 ",
"7 7 , , - 5 , 5 0 0 u u v v v v f f 6 6 9 9 9 f ! ! ! ! Q ~ Q ~ o.%.o.~ G l 6 6 9 9 A A l l l A v v B A E E E E c 0 0 0 7 7 - 7 ",
": : : : < < < c L c , , 6 6 6 i A A i 8 6 6 M M J J J ` ` ` ` %.$.$.! b 1 1 n @.^ H H f y y M M c c c c M M M M f 7 7 % * * * * ",
"y : : : < L L O.@.@.c , : 6 i i i i A i s M Q Q J ` ` ` ` ` %.%.$.! b 5 1 1 @.@. . . .^ M < < < * * * 9 y y M y 7 % % % * y y y ",
": : : y L O.O.O.@.@.c , : : 6 6 8 8 8 A Q Q M M B J J J ` ` ` E b b 5 5 1 P @.@. . . . .Q y < M c 9 9 9 y = = = 7 % % f M ] ] ] ",
": y M ] O.O.O.O.@.L c , $ $ $ $ : : 8 i M M s s u u u u l l l l b b 5 5 1 P @.@. . . . .Q Q Q Q / / / / ] M = = % % 7 Q ] ] ] ] ",
"m m ' ' | | | | V h e 5 $       . . . . , 9 9 9 h h - - 5 5 5 l M u > u 3 a L L / / / G b b b b T X.X.X. . .: : - - M ] ' ' Q G ",
"t t m ' G G s : e 5 5 5 , $ $ , 6 - % . O O O , - - - - 5 G } } ' M > > 3 a a 3 e e e e e i b b b T X.X. .K : : - - M ] X.' Q G ",
"t t t m s s s s e 5 5 5 , $ $ $ 6 6 6 6 , , O O - - h L } } } } ' M > > @ 3 a a b e e e e 8 8 8 8 8 b b K s : : y M ] ] ' Q ' ' ",
"t * * * : s s s e e 5 5 , X $ $ - 6 - % O , 9 M L L #.#.} } } } ' ' ' > @ 3 a a b b b b i e e e 8 8 8 8 : : : : M ] ] ] ' ' G G ",
"5 5 l l < 9 i i y y y 6 e $ 5 5 ; ; p p l / / / } } } P / / / / | | | M + ; e e l l l l i i e e i i < < A A e l c Q Q Q D i 8 8 ",
"5 5 l A i < i i y y y 6 5 $ $ e p F F F / / / / } } B B v / / / | L M 9 + < < < e l l l l l i l i i i 9 A l 5 e y G Q G i i x i ",
"e l l A i 9 i i y 6 6 : $ 5 $ e p } } } @.@.@./ P u u u 0 v G / L M 9 9 < e e < < l l l C C C C C C C i l e 5 5 y G c c x x D D ",
"l A A A C i i i b b b b A A e e F F F F l l l l u u B B v v v G M 9 M 9 < e e e < e l l C C C C C C C C A l A A Q G G G D D D D ",
"x x D D C j j j x D D j r j r r 0 d d z b b b b A A A A C x x C N N l l 9 i i 9 l l b J D D D D Z Z Z Z C C C C D D D D U U U U ",
"D x D D r j C C D x x x C C C r z S S S A D D D R J A J C D D x Z Z x l i i l C J J J J D D D D Z Z Z Z C C C C D D D D U U U U ",
"D x x x C C C C x x D D C C C j z z z S D D D A A J J J D D D D Z Z N N l l C C J J J J D D D D Z Z Z Z C C C C D e D D U U U U ",
"w w w j r q q q w w w w w j w w d 0 d S A A A b A J A J D D D C Z Z Z Z C C C C b b J e j j e j r k r 8 e e 5 5 , o o o o < < o "
};
