/* XPM */
static char *_493779976092[] = {
/* columns rows colors chars-per-pixel */
"64 64 132 2 ",
"   c #586040",
".  c #606048",
"X  c #686048",
"o  c #686850",
"O  c #706858",
"+  c #707050",
"@  c #707850",
"#  c #707058",
"$  c #707858",
"%  c #787858",
"&  c #787060",
"*  c #787860",
"=  c #807860",
"-  c #708040",
";  c #708048",
":  c #788048",
">  c #708050",
",  c #788850",
"<  c #78A048",
"1  c #788060",
"2  c #808858",
"3  c #809050",
"4  c #809058",
"5  c #809858",
"6  c #889858",
"7  c #80A058",
"8  c #88A058",
"9  c #88A858",
"0  c #90B058",
"q  c #98B858",
"w  c #808060",
"e  c #808860",
"r  c #888860",
"t  c #808068",
"y  c #888068",
"u  c #808868",
"i  c #888868",
"p  c #908868",
"a  c #889860",
"s  c #889068",
"d  c #889868",
"f  c #909860",
"g  c #909868",
"h  c #989868",
"j  c #808070",
"k  c #888070",
"l  c #888870",
"z  c #908870",
"x  c #889070",
"c  c #909070",
"v  c #989070",
"b  c #909870",
"n  c #989870",
"m  c #909078",
"M  c #989078",
"N  c #909878",
"B  c #989878",
"V  c #A09878",
"C  c #88A060",
"Z  c #90A060",
"A  c #98A860",
"S  c #90A068",
"D  c #98A068",
"F  c #98A868",
"G  c #98B060",
"H  c #90A070",
"J  c #98A070",
"K  c #98A870",
"L  c #98A078",
"P  c #98A878",
"I  c #A0A070",
"U  c #A0A870",
"Y  c #A0A078",
"T  c #A0A878",
"R  c #A8A878",
"E  c #A8B070",
"W  c #A0B870",
"Q  c #A0B078",
"!  c #A8B878",
"~  c #B0B078",
"^  c #B0B878",
"/  c #90C058",
"(  c #A8C070",
")  c #A8C870",
"_  c #A8C078",
"`  c #B0C870",
"'  c #C0C878",
"]  c #989080",
"[  c #989880",
"{  c #A09880",
"}  c #A89880",
"|  c #A09888",
" . c #98A080",
".. c #A0A080",
"X. c #A8A080",
"o. c #A0A880",
"O. c #A8A880",
"+. c #A0A088",
"@. c #A8A088",
"#. c #A0A888",
"$. c #A8A888",
"%. c #A8B080",
"&. c #A8B880",
"*. c #A8B088",
"=. c #A8B888",
"-. c #B0B880",
";. c #B0B088",
":. c #B0B888",
">. c #A8A090",
",. c #A8A890",
"<. c #B0A890",
"1. c #B0A898",
"2. c #A8B090",
"3. c #B0B090",
"4. c #B0B890",
"5. c #B8B890",
"6. c #B0B098",
"7. c #B8B098",
"8. c #B0B898",
"9. c #B8B898",
"0. c #B8B8A0",
"q. c #A8C080",
"w. c #B8C880",
"e. c #B0C088",
"r. c #B8C090",
"t. c #B8C098",
"y. c #C0C0A0",
"u. c #C0C8A0",
"i. c #C0C0A8",
"p. c #D0D0A8",
"a. c #C8C8B0",
"s. c #D0D0B0",
/* pixels */
"9.9.9.3.*.*.*.*.w.w.w.w.e.e.:.:.*.*.&.q._ _ _ _ :.:.:.:.=.=.*.*.9.9.9.9.3.3.,.3.4.3.3.3.6.0.6.0.W o.Q W W Q ,.,.,.,.,.6.0.0.0.0.",
"9.9.,.,.$.$.$.@.&.w.w.w.e.4.9.:.*.*.3.3.*.*.6.6.*.*.*.,.*.,.*.*.9.9.7.7.3.3.,.3.<.<.<.<.<.6.6.0.,.o.Q W W ,.,.,.,.,.,.,.6.6.0.0.",
"3.3.,.,.$.@.$.@...w.w.w.9.9.9.4.3.*.3.3.*.*.*.6.,.*.*.,.*.,.,.*.9.9.7.7.3.9.,.3.<.<.3.<.<.6.6.0.,.o.Q Q o.,.,.,.,.,.,.,.,.6.6.6.",
"3.,.,.,.$.$.@.@...&.w.&.9.9.9.4.3.*.3.3.*.6.*.6.,.*.,.,.,.$.*.*.9.9.7.7.3.3.3.3.<.3.<.<.<.6.6.6.,.o.o.Q o.,.,.,.,.,.,.,.,.,.,.,.",
"+.<.+.+.,.,.+.+.O.3.y.3.9.9.9...3.$.3.3.3.3.,.,.,.2.,.,.,.,.3.3.0.0.0.6.<.3.9.3.<.6.<.<.<.6.6.6.3.Y o.J ,.+.,.,.,.+.+.+.+.,.,.+.",
"<.+.[ [ ,.,.+.+.O.y.y.3.9.9.9...$.$.$.3.3.3.3.,.,.,.2.2.,.,.3.3.0.0.0.6.3.9.3.3.6.<.<.<.6.6.6.0.3.Y o.o.,.+.,.+.,.[ [ [ { +.,.,.",
"<.+.+.[ +.+.+.+.Y 3.y.3.9.9.9...3.3.3.3.3.3.,.3.,.2.2.2.,.3.3.9.0.0.0.6.3.3.3.3.<.<.<.<.6.6.6.0.3.Y o.3.,.+.+.+.+.[ [ [ +.+.,.+.",
"{ { [ [ [ +.[ [ Y 3.y.3.9.9.9...$.3.3.9.3.3.,.3.2.2.2.,.,.3.3.3.0.0.0.6.3.<.3.3.<.<.<.<.6.6.6.<.o.o.o.J [ [ +.+.[ [ [ [ { { { { ",
"..[ [ [ [ [ c [ ..3.y.3.0.0.6.3.$.3.3.3.3.3.$.3.$.$.$.3.,.3.3.3.9.9.7.7.3.3.3.3.<.<.<.<.3.3.3.3.,. . . .B c B B [ [ [ [ [ [ +.+.",
",.[ B ..[ c c [ ..3.y.3.0.0.6.3...3.3.$.$.$.$.3.#.$.#.3.3.3.3.3.9.7.7.9.9.3.9.3.<.<.<.<.<.<.3.3.,. . .B B c c c [ ..[ [ [ [ +.+.",
"[ [ B [ [ i c [ ..y.y.3.0.0.6.3...3.3.$.$.$.$.$.$.$.#.3.3.3.3.3.9.9.7.7.9.9.3.<.@.{ <.<.<.<.3.3.,.,. .B B c c c [ [ [ [ [ [ [ [ ",
"[ ..B B [ i c [ B y.y.3.0.0.6.6...3.3.$.$.$.$...#.$.#.3.,.,.,.3.9.7.7.7.9.3.3.<.@.@.<.<.3.<.<.9.,. .b B c l c c [ [ [ [ [ +.+.[ ",
"....B B [ m l [ c $.s.$.9.9.3.9...3.3.$...............,.,.,.,.6.6.,.,.6.,.3.9.3.<.<.<.<.,.,.,.,.,.b b B m l m m [ [ m [ { +.+.+.",
"..,...B m l l [ c c 9.9.3.3.3.9...3.3.........N ......,.,.,.,.6.,.,.,.,.3.3.9.3.<.<.<.<.,.,.6.@.,. .,.B l u l m m m m [ +.,.+.{ ",
"..,.B [ m l l [ c c 9.9.3.3.<.3...$.$.........B ........+.,.,.+.,.,.,.6.3.,.,.3.<.<.3.3.6.6.6.@. . .,.B l l l m m [ [ [ +.+.+.+.",
"....[ B m m m m c c 9.9.3.3.3.3...$.$...B B B N ....B ..+.+.+.,.6.$.,.6.3.,.,.,.3.3.3.3.,.,.,.@. .b b b m m m m x m [ [ +.+.+.+.",
"$.$.m l c c i i 4 g :.:.6.6.6.6.L L o.L f f c f m N N m J J J J ..3.3.3.4.o.o.Y O.O.O.O.,.$.*.$.$.i i i l ] ] ] m l m m [  .o. .",
"$.B m l c c i i 4 K :.:.6.o.6.o.o.o.L B f f c c N L L N J o.o.o.3.3.3.3.4.o.o.Y ....O...,.*.*.,.$.i 1 i l ] ] ] m l l m [ [  . .",
"$.B $.$.c i t t 4 K K K o.o.o.o.o.o.o.B f Z Z Z Q L Q Q 9.9.9.9.3.3.3.3.4.4.o.o...O.O.O.$.*.,.$.$.N 1 1 t t l ] [ ,.,.,.o. . .o.",
"B B $.$.c i i c g g g g C C o.o.o.o.o.L f Z 0 Z N N N L a a J J s b b b n n n n ..O.-.-.:.:.*.*.$.N i 1 1 1 1 1 l [ ,.,.o.o.o. .",
"0.3.3.9.u.9.u.u.0.....c l +.6.6.H o.o.8 < < 7 < 5 5 5 5 s s B s s e e e c c [ [ +.+.$.:.%.r.r.%.,.,.,.e   $ X.X.F J J F X.M V V ",
"a.a.a.a.u.u.u.u.0.0...% m m +.6.H o.o.o.S ..S < 9 5 5 e e i e e +.+.+.+.>.[ >.>.+.+.$.+.......B B ,.,.e X.X.X.X.F J n n V X.V V ",
"0.0.0.0.9.9.9.6.0.0.0...m l m 6.o.o.6.o.....S 7 9 5 e e i B s e m +.+.+.[ [ >.[ +.+.$.$...B B B B B B B X.X.X.i n n { { V X.X.X.",
"3.9.3.3.6.6.6.6.0.0.0...+.6.m m o.6.6.o.....S 7 / e e e s s B s e +.+.+.>.>.>.>.$.$.$.+.B ..B %.B B B ,.X.X.X.X.{ { { { X.X.X.X.",
"7.7.7.7.6.9.6.6.6.6.,.$...7.7.s +.6.,.+.J J J $.[ , e s [ [ ..[ * ,.,.,.,.+.+.,.+.| | 1.+.+.+.[ B M ] L R R V Y @.@.@.@.$.$.X.X.",
"7.7.7.7.9.6.6.6.6.6.6.6...7.7.7.,.6.,.+.$.J J J s e s [ [ ..$...* m ,.,.+.[ ,.+.[ [ 1.1.+.+.[ [ B M B L -.Y V V @.@.@.$.X.X.X.X.",
"9.7.7.9.6.6.6.6.6.$.6.6...7.7.7.,.6.,.+.$.J J 5 , e [ [ [ [ ..[ * * l ,.+.[ [ [ +.1.1.+.[ [ ] [ B M M L -.Y V Y @.@.@.;.$.$.X.$.",
"7.7.7.7.6.6.6.6.6.6.6.6...7.7.7.6.6.6.,.$.J d 5 , s [ [ [ [ [ ..l m m l [ ,.,.+.1.1.| [ [ [ [ [ M M M L -.R V Y @.@.$.$.$.$.$.X.",
"$.3.3.3.7.7.7.7.9.3.3.3.$.6.6.6.6.6.<.<.T T T 4 @ i [ [ | [ >.[ m [ [ M ] [ [ | +.[ [ [ [ ] [ [ M n n J ( R X.X.X.X.$.$.X.X.$.X.",
"3.+.3.3.7.@.@.7.3.3.3.3.$.6.6.6.6.6.<.<.T T T 4 @ i [ [ [ [ >.| m [ [ @.,.| ] ] [ [ [ [ ] ] [ [ M n n J ( R X.X.X.X.$.X.$.$.$.X.",
"$.$.$.$.7.c @.@.3.3.3.3.$.6.,.6.6.6.<.<.T T T , @ [ [ [ [ | >.>.[ @.[ @.,.,.| ] [ [ [ [ [ [ [ ] n n n J ( E X.X.X.$.$.$.$.$.$.$.",
"$.$.3.+.B B @.@.3.3.$.3.$.,.,.6.0.6.<.<.T T T 4 @ i [ [ [ [ >.| [ [ [ @.,.| [ [ ] [ [ ] [ [ ] ] ] M n n ( E X.X.X.$.$.$.$.$.$.X.",
"$.$.$.$.B ..$.$.6.6.,.6.,.,.0.0.7.7.7.7.3.3.3.S % m m m [ @.{ [ [ [ <.<.[ +.[ [ +.+.] ] [ ] ] ] n M v n ! T T Y ..$.....$.......",
"$.$.$.$.$.....$.6.6.,.6.,.,.,.,.,.7.,.+.Y Y Y 6 % m m m [ @.{ [ +.+.<.+.[ +.+.+.+.] ] [ [ [ ] [ n M M n ! ! T Y ..V ....Y ..Y ..",
"$.$.$.x ......$.,.6.6.6.,.,.@.{ +.,.,.+.Y Y Y 6 + m m m [ @.@.@.+.{ { [ [ ,.,.+.] ] [ [ ] ] ] [ ] M M n T T Y V V ..........Y ..",
"$.$.B u ..$.$.$.,.6.6.6.,.@.@.{ +.,.,.@.Y Y Y 6 % m m m [ [ @.@.+.+.+.+.,.+.[ [ ] [ [ [ ] ] ] ] ] M M n T Y V Y ..............Y ",
"....c c ..$.$.$.$.$.$.3.+.,.,.[ +.+.+.+.b b $.b * t [ [ ] ] ] ] ,.,.,.,.@.m [ [ [ [ [ [ m m +.[ [ m m m I I V V V V V V { { V V ",
"b ..s ....$...$.......$.,.,.,.[ [ +.+.M b $.$.b * t [ [ ] ] ] ] m [ [ [ m [ M M [ M [ [ m [ [ m m m z m U I V V V V V { { { { ..",
"....s ....$...........$.,.+.+.[ +.+.[ +.$.$.$.r * t t t k ] ] ] m m m m m m m M [ M M M m m m m m m m m I I V V V { { { ..{ ,.,.",
"....b ..L $.L ....$.....+.+.[ [ +.+.[ [ b r : : t * o o O & k k l m l m m m m M M M M M m m m m m m m m I U I V Y { V Y ....,.,.",
"q A L A Q Q Q Q Q Q Q d +.+.m +.$.$.[ [ c n n %.O.O.O.5.2.$.+.2.~ O.O.O.K K K K ........n n $...D D D D I U U U $.$.$.$.*.*.*.*.",
"q q q A Q Q a - > Q Q Q ,.,.,.i.y.y.y.y.%.%.%.%.5.5.5.5.t.2.2.2.~ ^ ' ' -.p.-.-.3.3.3.3.$.$.$.$.D D D D V V V V h Y Y h B B B *.",
"F F F F Q Q Q a d Q Q Q ,.,.,.,.$.$.[ j y y c y m m [ O.+.$.+.$.O.O.' O.K K -.-.3.3.3.$.$.$.0.0.i.i.i.3.I I { I Y Y n n B i = i ",
"L F L F Q Q Q Q Q Q d Q +.+.+.+.[ [ [ [ n c c n m O.O.O.$.2.$.$.O.O.^ O.3 -.p.K $.$.$.$...$...$.3.o.o.D { I I I Y Y $.$.*.*.*.*.",
"B B c B J J J G $.L $.$.,.+.,.,.+.+.| | M [ M M | +.,.,.,.,.7.7.6.6.6.[ D y.y.O.,.6.6.6.$.$.$.$.$.$.$.B { ..{ { { { { ..<.<.<.<.",
"B B B ....J J J L ..$...[ +.+.,.,.,.| | [ [ M M | | ,.,.,.,.7.7.6.i.6.+.D y.y.O.6.0.6.6.$.$.$.$.$.$.$.$.} ..{ { { ......<.<.3.3.",
"..B B ......J F L $.$.L [ +.,.+.,.,.| | [ [ [ [ ,.+.+.,.,.,.7.7.6.6.i.+.3 y.y.O.0.6.6.6.$.$.$.$.$.$.$.B { ..{ { ......$.<.3.3.9.",
"....B ..F ....G $.$.$.L +.+.,.,.,.,.| | M M [ [ ,.+.,.+.,.<.7.7.6.6.i.[ 3 y.y.O.6.6.6.6.$.@.$.$.$.$.$.p ..............$.3.3.3.3.",
"$.+.+.+.$.....$.%.o. . .[ [ ,.,.6.,.@.@.[ [ [ +.,.,.6.,.,.7.7.7.9.9.9.o ; 8.8.8.6.6.6.,.,.....,.,.,...V X.X.X.X.X.X.X.6.<.<.3.3.",
"3.$.$.$.$.$.$.$.%.o. . ...[ ,.,.6.,.,.,.,.+.+.,.,.+.,.,.,.7.7.7.9.B t o ; 8.8.8.6.6.,.,.,.{ V ,.,.,...V X.X.X.X.X.X.X.6.3.3.3.<.",
"$.$.$.$.$.3.$.$.o.o. . .B B ,.,.6.,.,.,.,.,.,.,.,.6.6.6.7.7.7.,.B t t B L 8.8.8.6.6.,.,.......{ ,.,.....{ X.X.X.@.@.X.$.3.<.3.3.",
"$.$.$.3.3.3.$...o.%. . .[ B ,.,.,.6.6.,.+.,.,.,.6.6.6.6.7.,.@.+.9.9.9.9.L 8.8.8.6.,.6.$...{ { ......,...{ X.X.X.$.$.$.6.3.3.3.3.",
",.3.3.3.6.6.#.L $.3.$.$.,.+.,.,.+.,.,.,.,.,.,.6.6.6.6.7.6.,.@.,.9.9.9.$.s 3.3.3.6.6.,.@.$...{ { ..{ ..{ ..$.@.$.@.,.6.6.3.3.3.3.",
"3.3.3.3.6.#.#.L $.3.$.$.,.,.,.,.+.6.6.6.6.6.6.6.6.6.6.6.,.,.6.6.3.3.3.$...3.3.3.6.6.,.,.$...{ { ....$.{ ..$.$.$.,.,.6.6.3.3.3.3.",
"3.,.,.,.6.6.#.L ..3.$.$.,.+.+.6.,.+.6.6.6.6.6.6.6.6.6.6.6.6.6.6.3.3.3.$.3.3.3.3.6.,.,.,...{ ..$.....$.....7.$.$.,.,.6.6.3.3.3.3.",
",.,.,.3.6.6.#.L $.$.$.$.,.,.,.6.6.+.,.6.6.,.,.6.6.6.6.6.6.6.6.6.3.3.3.3...3.3.3.6.6.,.,.$...$.$.{ $.$.$.@.7.7.$.,.6.6.6.3.3.9.3.",
",.@.6.6.3.3.L H $.$.$.3.6.,.6.6.7.7.m m { M 6.6.6.6.6.6.6.6.6.6.3.3.3.,...3.3.3.6.6.6.0.6.6.,.,.<.<.3.3.+.7.7.,.,.3.3.3.9.9.7.7.",
"6.6.6.6.3.o.o.H $.3...3.6.,.6.6.7.7.= m { +.6.6.6.6.6.6.6.6.6.6.9.,.,.,.3.3.3.3.6.6.0.0.0.6.,.,.<.<.3.<.+.7.7.,.,.3.3.9.7.9.7.7.",
"6.6.6.,.o.o.o.H $.3.....6.6.6.6.7.. . m 6.6.6.6.6.6.6.6.,.6.6.6.,.3.,.3.3.3.$.3.6.6.0.0.0.6.,.,.<.<.3.3.+.7.7.7.,.3.3.3.7.7.7.7.",
"6.,.6.,.o.3.L o...3.$...+.+.,.i.m . = 7.6.6.6.6.<.6.6.6.,.,.,.,.3.3.,.,.$.3.3.$.6.6.0.0.0.6.,.,.<.<.<.9.+.,.7.7.3.,.3.9.7.9.7.9.",
"6.6.6.6.Q S S S P &.P c b *.*.b # l 9.9.7.7.O.O.3.3.3.3.6.*.6.*.,.%.,.,.%.! %.,.3.3.0.0.9.9.O.O.$.$.$.i.9.w 9.9.+.+.0.0.9.9.9.9.",
"6.6.6. .4 S Q Q P &.c c *.*.*.+ # 9.9.9.7.O.7.7.3.3.3.3.6.6.6.6.%.%.%.%.! ! %.%.3.3.3.0.9.9.9.O.$.$.i.i.w X X M +.0.0.0.9.9.9.9.",
"6.6.6. .S Q Q S P P &.&.*.*.e + [ 9.9.9.7.7.O.J m ..3.3.6.6.6.! ! ! ` ` ! %.%.%.*.3.3.3.9.9.O.O.$.$.$.w X X X X w +.+.+.o.o.o.o.",
"2 2 2 2 , S 4 S P &.&.P b b e e 9.9.[ [ Z J Z Z [ 3.3.3.! ( ( ( ! ! ` ` ) ! %.%.%.%.3.%.O.J J f B B w w w w w w w m m +.s s B o."
};
