/* XPM */
static char *_493779999191[] = {
/* columns rows colors chars-per-pixel */
"32 32 19 1 ",
"  c #00497E",
". c #525A52",
"X c #5A5A5A",
"o c gray39",
"O c #E79421",
"+ c #FFCE5A",
"@ c #00508A",
"# c #005898",
"$ c #005FA4",
"% c #006BB8",
"& c #0072C4",
"* c gray58",
"= c #989898",
"- c gray61",
"; c #C6C6C6",
": c gray84",
"> c gray87",
", c #E7E7E7",
"< c white",
/* pixels */
"              <<<<              ",
"       @@@@@-<----<-@@@@@       ",
"     @@@@@@=<--..--<=#@@@@@     ",
"    @@@@@@=<<-....-<<=##@@@@    ",
"   @@@@@#-<<<**XX**<<<-#@@@@@   ",
"  @@@@@##<<<<<****<<<<<###@@@   ",
"  @@@@@##<<<<<<<<<<<<<<$$##@@@  ",
"  @@@@###><<<<<<<<<<<<>%$$#@@@@ ",
"  @@@###$*:,<<<<<<<<,:*%%$###@@ ",
" @@@-<<>*$*:><<<<<<>:*&*><<-#@@ ",
" @@=<<<<:*%*;>>>>>>;*&*:<<<<=#@ ",
" @=<<<<<,:*%-;;;;;;-&*:,<<<<<=@ ",
" -<<<<<<<>;-%oooooo&-;><<<<<<<- ",
" <--*<<<<<>;o&OOOo&o;><<<<<*--< ",
"<--.**<<<<>;ooO++OOo;><<<<**.--<",
"<-..X*<<<<>;oO+OO+Oo;><<<<*X..-<",
"<-..X*<<<<>;oO+OO+Oo;><<<<*X..-<",
"<--.**<<<<>;oOO++Ooo;><<<<**.--<",
" <--*<<<<<>;o%oOOO&o;><<<<<*--< ",
" -<<<<<<<>;-$oooooo%-;><<<<<<<- ",
" @=<<<<<,:*$-;;;;;;-%*:,<<<<<=@ ",
" @@=<<<<:*$*;>>>>>>;*%*:<<<<=@@ ",
" @@@-<<>*$*:><<<<<<>:*$*><<-@@@ ",
"  @@@@###*:,<<<<<<<<,:*####@@@@ ",
"  @@@@@##><<<<<<<<<<<<>###@@@@  ",
"   @@@@@#<<<<<<<<<<<<<<##@@@@   ",
"   @@@@@@<<<<<****<<<<<@@@@@@   ",
"    @@@@@-<<<**XX**<<<-@@@@@    ",
"     @@@@@=<<-....-<<=@@@@      ",
"       @@@@=<--..--<=@@@@       ",
"         @@@-<----<-@@@         ",
"              <<<<              "
};
