/* XPM */
static char *_493779992415[] = {
/* columns rows colors chars-per-pixel */
"32 32 6 1 ",
"  c #00497E",
". c #00508A",
"X c #005898",
"o c #005FA4",
"O c #006BB8",
"+ c #0072C4",
/* pixels */
"                                ",
"       ........XXXX......       ",
"     ......XXXXXXXXXXX.....     ",
"    ......XXXXoooooooXXX....    ",
"   .....XXXXXXoooooooXXX.....   ",
"  .....XXXXXXooooooooooXXX...   ",
"  .....XXXoooooOOOOOOOoooXX...  ",
"  ....XXXooooOOO++++++OOooX.... ",
"  ...XXXoooOOO+++++++++OOoXXX.. ",
" ....XXXooOOO+++++++++++OOoXX.. ",
" ...XXXoooOOO++++++++++++OoXXX. ",
" ..XXXXoooOOO++++++++++++OOooX. ",
" ..XXXXoooOOO++++++++++++OOooX. ",
" ..XXXXoooOOO++++++++++++OOooX. ",
" ..XXXXoooOOO++++++++++++OOooX. ",
" ..XXXXoooOOO++++++++++++OoooX. ",
" ..XXXXoooOOOO++++++++++OOoooX. ",
" ..XXXXooooOOOO+++++++++OOoXXX. ",
" ..XXXXooooOOOOO++++++OOOooXXX. ",
" ..XXXXXoooooOOOOOOOOOOOooXXXX. ",
" ...XXXXoooooOOOOOOOOOOOooXXX.. ",
" ....XXXXoooooOOOOOOOOooooXXX.. ",
" ....XXXXooooooooooooooooXXX... ",
"  ....XXXXoooooooooooooXXXX.... ",
"  .....XXXXXXXoooooooXXXXX....  ",
"   .....XXXXXXXXXXXXXXXXX....   ",
"   ......XXXXXXXXXXXXXX......   ",
"    ........XXXXXXXX........    ",
"     .........XXXXX.......      ",
"       ..................       ",
"         ..............         ",
"                                "
};
