/* XPM */
static char *_493780006377[] = {
/* columns rows colors chars-per-pixel */
"32 32 16 1 ",
"  c #503810",
". c #584008",
"X c #504010",
"o c #584010",
"O c #604010",
"+ c #604810",
"@ c #705010",
"# c #785818",
"$ c #806018",
"% c #886818",
"& c #806020",
"* c #807028",
"= c #887028",
"- c #907020",
"; c #987828",
": c #A08030",
/* pixels */
":--$**+------------------+**$--:",
":$$@**+$$$$$$$$$$$$$$$$$$+**@$$:",
":$$@**+$$$$$$$$$$$$$$$$$$+**@$$:",
":$$@**+$$$$$$$$$$$$$$$$$$+**@$$:",
":::#==O::::::::::::::::::O==#:::",
"#XXX==OOooooooooooooooooOO==XXX#",
":--#==O=----------------=O==#--:",
":###==O$$$$$$$$$$$$$$$$$$O==###:",
":$$@==o$$$$$$$$$$$$$$$$$$o==@$$:",
":$$@==o$$$$$$$$$$$$$$$$$$o==@$$:",
":::$==o::::::::::::::::::o==$:::",
"@XXX==oooooooooooooooooooo==XXX@",
":--$==+=----------------=+==$--:",
":$$@==+$$$$$$$$$$$$$$$$$$+==@$$:",
":$$@==+$$$$$$$$$$$$$$$$$$+==@$$:",
":::$==+::::::::::::::::::+==$:::",
"@...== +oooooooooooooooo+ ==...@",
";;;@==+=----------------=+==@;;;",
";$$@==+$$$$$$$$$$$$$$$$$$+==@$$;",
";$$@==+$$$$$$$$$$$$$$$$$$+==@$$;",
":::#==O::::::::::::::::::O==#:::",
"#XXX==OOooooooooooooooooOO==XXX#",
":--#==O=----------------=O==#--:",
":###==O$$$$$$$$$$$$$$$$$$O==###:",
":%%@==O$$$$$$$$$$$$$$$$$$O==@%%:",
":::%==O::::::::::::::::::O==%:::",
"@   ==OOooooooooooooooooOO==   @",
":%%@==O=----------------=O==@%%:",
":$$@**+$$$$$$$$$$$$$$$$$$+**@$$:",
":$$@**+$$$$$$$$$$$$$$$$$$+**@$$:",
":$$@**+$$$$$$$$$$$$$$$$$$+**@$$:",
":::&**+::::::::::::::::::+**&:::"
};
