/* XPM */
static char *_493780013152[] = {
/* columns rows colors chars-per-pixel */
"64 64 23 1 ",
"  c gray44",
". c gray47",
"X c #808080",
"o c #888888",
"O c #909090",
"+ c #989898",
"@ c #A0A0A0",
"# c #A7A7A7",
"$ c #ACACAC",
"% c gray69",
"& c #B4B4B4",
"* c gray72",
"= c #BCBCBC",
"- c #C0C0C0",
"; c #C1C1C1",
": c gray77",
"> c gray80",
", c #D0D0D0",
"< c gray83",
"1 c #D8D8D8",
"2 c gray91",
"3 c gray94",
"4 c None",
/* pixels */
"4444444444444444444442444444444444444444444444443444444444444444",
"244444444444444444444@2444444444444444444444444@3444444444444444",
"@244444444444444444444244444444444444444444444424444444444444444",
"4@24444444444444444444244444444444444444444444@24444444444444444",
"44%2444444444444444444@24444444444444444444444244444444444444444",
"444%24444444444444444442444444444444444444444@244444444444444444",
"4444%24444444444444444423444444444444444444442444444444444444444",
"44444%2444444444444444:234444444444444444444:2444444444444444444",
"444444$24444444444444-++2244444444444444444O,3344444444444444444",
"4444444$3444444444442444.244444444444444444-,%344444444444444444",
"4444444 33444444444244444%2444444444444444-344%34444444444444444",
"44444444o33344444224444444%24444444444444-33444%2444444444444444",
"44444444X22233441244444444 222444442222221244444%344444444444444",
"44444444X2&X&33324444444444 222222-++++-222444444,44444444444444",
"444444442444.&3344444444444 *2244444444+224444444434444444444444",
"4444444@24444.&3444444444444o2444444444-244444444443444444444444",
"4444444%444444.2444444444444o344444444O2344444444444244444444444",
"444444424444444%244444444444=444444444=2444444444444@24444444444",
"444444>444444444%24444444444344444444O224444444444444@2444444444",
"44444424444444444>224444444-344444444=2244444444444444:244444444",
"44444O24444444444X11224444*234444444O3-334444444444444 234444444",
"44444244444444444X1$%2222*o*34444444-34O,34444444444444 33444444",
"4444O244444444444144.%24444o3344444O34444,44444444444444o3344443",
"4444=2444444444414444.244444.344444-34444434444444444444=33333%3",
"&22&222444444442444444%24444424444@24444444244444444444-111@-444",
"444X%%22444444-24444444%24444@244424444444442444444442221=444444",
"444444.233444-2244444444%2444424422444444444@24444222<2244444444",
"4444444.%3332++2344444444%224424:2444444444442222*o*222444444444",
"44444444o11%444X2222444444-222223344444444422+-4444.&22444444444",
"44444444o144444444o22221222222223444444422**44444444X24444444444",
"44444444%444444444o24444++++-2223444222%*44444444444X24444444444",
"4444444414444444444244444444X###,33%%444444444444444X24444444444",
"4444444414444444444244444444X###,33%%444444444444444X24444444444",
"44444444%444444444o24444++++-2223444222%*44444444444X24444444444",
"44444444o144444444o22221222222223444444422**44444444X24444444444",
"44444444o11%444X2222444444-222223344444444422+-4444.&22444444444",
"4444444.%3332++2344444444%224424:2444444444442222*o*222444444444",
"444444.233444-2244444444%2444424422444444444@24444222<2244444444",
"444X%%22444444-24444444%24444@244424444444442444444442221=444444",
"&22&222444444442444444%24444424444@24444444244444444444-111@-444",
"4444=2444444444414444.244444.344444-34444434444444444444=33333%3",
"4444O244444444444144.%24444o3344444O34444,44444444444444o3344443",
"44444244444444444X1$%2222*o*34444444-34O,34444444444444 33444444",
"44444O24444444444X11224444*234444444O3-334444444444444 234444444",
"44444424444444444>224444444-344444444=2244444444444444:244444444",
"444444>444444444%24444444444344444444O224444444444444@2444444444",
"444444424444444%244444444444=444444444=2444444444444@24444444444",
"4444444%444444.2444444444444o344444444O2344444444444244444444444",
"4444444@24444.&3444444444444o2444444444-244444444443444444444444",
"444444442444.&3344444444444 *2244444444+224444444434444444444444",
"44444444X2&X&33324444444444 222222-++++-222444444,44444444444444",
"44444444X22233441244444444 222444442222221244444%344444444444444",
"44444444o33344444224444444%24444444444444-33444%2444444444444444",
"4444444 33444444444244444%2444444444444444-344%34444444444444444",
"4444444$3444444444442444.244444444444444444-,%344444444444444444",
"444444$24444444444444-++2244444444444444444O,3344444444444444444",
"44444%2444444444444444:234444444444444444444:2444444444444444444",
"4444%24444444444444444423444444444444444444442444444444444444444",
"444%24444444444444444442444444444444444444444@244444444444444444",
"44%2444444444444444444@24444444444444444444444244444444444444444",
"4@24444444444444444444244444444444444444444444@24444444444444444",
"@244444444444444444444244444444444444444444444424444444444444444",
"244444444444444444444@2444444444444444444444444@3444444444444444",
"4444444444444444444442444444444444444444444444443444444444444444"
};
